<svg width="390" height="701" viewBox="0 0 390 701" fill="none" xmlns="http://www.w3.org/2000/svg">
<path d="M259.138 124.358L274.826 91.1587C276.397 87.8344 275.5 83.8675 272.651 81.5429L236.982 52.4332C235.097 50.8954 232.616 50.2984 230.238 50.8108L178.397 61.9834C176.835 62.3201 175.409 63.1169 174.304 64.2712L132.962 107.451C131.693 108.777 130.007 109.626 128.186 109.856L44.5988 120.419C41.7544 120.778 39.3199 122.632 38.2172 125.279L0.615385 215.523C0.209151 216.498 0 217.544 0 218.6V434.694C0 438.497 4.59818 440.402 7.28742 437.713C7.75603 437.244 8.10911 436.673 8.31868 436.044L27.9366 377.19C28.3077 376.077 28.919 375.059 29.7274 374.209L189.556 206.045C190.814 204.722 191.581 203.008 191.731 201.188L193.8 175.941C193.93 174.35 194.534 172.835 195.532 171.589L230.885 127.508C233.043 124.817 236.683 123.812 239.916 125.015L249.115 128.438C253.009 129.887 257.363 128.114 259.138 124.358Z" fill="#EAF3E7"/>
<path d="M278.303 77.7311L250.406 55.2685C246.223 51.9001 246.481 45.4483 250.92 42.4251L295.638 11.971C298.284 10.1688 301.75 10.1179 304.448 11.8417L334.018 30.7336C335.312 31.5604 336.341 32.7421 336.981 34.1378L344.237 49.9448C346.802 55.5333 342.366 61.806 336.242 61.2493L326.721 60.3837C324.081 60.1437 321.493 61.227 319.812 63.2763L308.9 76.5745C307.381 78.4265 305.111 79.5 302.716 79.5H283.32C281.495 79.5 279.725 78.8758 278.303 77.7311Z" fill="#EAF3E7"/>
<path d="M175.478 514.324L174.428 505.925C173.906 501.747 170.233 498.688 166.029 498.931L155.11 499.561C150.849 499.807 147.145 496.665 146.694 492.421L145.761 483.654C145.328 479.586 141.897 476.5 137.806 476.5H93.2962C90.0853 476.5 87.1856 474.58 85.9316 471.624L82.7795 464.195C81.6764 461.594 79.2837 459.768 76.4845 459.391L24.2053 452.337C20.5603 451.845 17.0496 453.902 15.6966 457.322L2.34313 491.077C0.971826 494.543 2.17638 498.497 5.24737 500.611L49.1825 530.841C52.2855 532.976 56.4575 532.658 59.2003 530.076L68.1046 521.696C70.203 519.721 73.2014 519.027 75.954 519.879L144.69 541.165C147.365 541.994 150.279 541.363 152.372 539.503L172.855 521.296C174.824 519.546 175.805 516.938 175.478 514.324Z" fill="#EAF3E7"/>
<path d="M199.255 513.631L197.355 506.206C196.125 501.397 199.525 496.641 204.472 496.248L216.464 495.296C221.596 494.889 225.013 489.811 223.457 484.904L223.159 483.963C221.567 478.941 225.179 473.778 230.442 473.552L253.395 472.569C254.454 472.523 255.494 472.268 256.454 471.817L335.902 434.486C337.272 433.842 338.432 432.822 339.246 431.545L365.144 390.905C367.893 386.591 373.93 385.93 377.547 389.547L387.657 399.657C389.157 401.157 390 403.192 390 405.314V450.286C390 451.416 389.761 452.533 389.298 453.563L369.357 497.978C368.488 499.913 366.887 501.424 364.905 502.178L324 517.75L282.159 533.678C280.749 534.215 279.215 534.342 277.735 534.044L205.427 519.492C202.415 518.885 200.016 516.608 199.255 513.631Z" fill="#EAF3E7"/>
<path d="M375.922 295.347L379.021 268.487C379.48 264.51 383.893 262.336 387.326 264.396C388.985 265.391 390 267.184 390 269.118V319.79C390 326.328 382.582 330.105 377.295 326.26L366.227 318.211C361.74 314.947 361.857 308.219 366.454 305.112L372.453 301.059C374.387 299.752 375.654 297.666 375.922 295.347Z" fill="#EAF3E7"/>
<path d="M372.03 85.481L369.262 64.4875C369.09 63.1849 368.583 61.9491 367.79 60.9014C363.492 55.2213 368.857 47.3256 375.783 48.988C378.381 49.6113 380.501 51.5504 381.322 54.0921L389.374 79.0149C390.089 81.2279 389.806 83.6424 388.598 85.6297L386.798 88.5904C382.875 95.0438 373.018 92.9682 372.03 85.481Z" fill="#EAF3E7"/>
<path d="M352.16 600.382L378.353 586.966C383.676 584.239 390 588.105 390 594.086V694C390 698.418 386.418 702 382 702H229.788C224.73 702 220.942 697.365 221.948 692.408L225.879 673.057C226.278 671.091 227.401 669.347 229.026 668.17L286.445 626.576C288.659 624.971 291.54 624.609 294.082 625.616L329.655 639.697C334.1 641.456 339.087 638.949 340.326 634.331L348.08 605.429C348.666 603.246 350.148 601.412 352.16 600.382Z" fill="#EAF3E7"/>
<path d="M242 20.2216V13.9443C242 10.9141 243.712 8.14399 246.422 6.78885L256.672 1.66391C260.691 -0.34535 265.575 1.34775 267.488 5.41295L269.606 9.91256C271.042 12.9649 270.41 16.5904 268.024 18.9758L259.209 27.7911C256.711 30.2892 252.87 30.853 249.759 29.178L246.207 27.2654C243.616 25.8701 242 23.1647 242 20.2216Z" fill="#EAF3E7"/>
<path d="M88.5146 686.906L57.2047 681.625C54.8579 681.229 52.8091 679.809 51.615 677.75L42.353 661.781C40.4118 658.434 41.144 654.178 44.0921 651.672L54.7232 642.635C57.29 640.453 60.9486 640.113 63.8735 641.785L71.408 646.09C75.83 648.617 81.4622 646.404 83.0065 641.551C84.8242 635.838 92.0556 634.056 96.2947 638.295L105.346 647.346C107.57 649.57 108.284 652.891 107.171 655.834L97.3275 681.849C95.975 685.423 92.2832 687.542 88.5146 686.906Z" fill="#EAF3E7"/>
</svg>
