<svg width="20" height="28" viewBox="0 0 20 28" fill="none" xmlns="http://www.w3.org/2000/svg">
<path d="M17.9245 10.1612H17.3563V5.99162C17.3563 5.87546 17.3476 5.7595 17.3284 5.64477C16.9663 3.49498 15.7606 2.13586 14.4281 1.27793C11.7817 -0.425976 8.19515 -0.425976 5.54872 1.27793C4.21625 2.13586 3.01055 3.49498 2.64851 5.64477C2.62908 5.7595 2.62052 5.87566 2.62052 5.99162V10.1612H2.07551C0.929259 10.1612 0 10.9901 0 12.0124V26.1488C0 27.1712 0.929259 28 2.07551 28H17.9245C19.0707 28 20 27.1712 20 26.1488V12.0124C20 10.9901 19.0707 10.1612 17.9245 10.1612ZM10.8791 19.1052V21.8847H9.12094V19.1052C8.61294 18.8303 8.2782 18.3246 8.29879 17.7504C8.32724 16.9481 9.05941 16.2959 9.95905 16.2769C10.9179 16.2567 11.7024 16.9465 11.7024 17.8001C11.7024 18.3537 11.3725 18.8382 10.8793 19.1052H10.8791ZM14.6498 10.1612H5.3271V6.54026C5.3271 5.71348 5.55589 4.89785 6.00467 4.17444C6.62788 3.17001 7.80258 2.11606 9.98843 2.11606C12.1743 2.11606 13.3735 3.19209 13.9916 4.2058C14.4291 4.92343 14.6498 5.7302 14.6498 6.54686V10.1612Z" fill="#A6A6A6"/>
</svg>
