<svg width="40" height="40" viewBox="0 0 40 40" fill="none" xmlns="http://www.w3.org/2000/svg">
<g clip-path="url(#clip0_358_533)">
<path d="M19.9999 29.5017C25.1792 29.5017 29.3778 25.2476 29.3778 20C29.3778 14.7523 25.1792 10.4982 19.9999 10.4982C14.8206 10.4982 10.6219 14.7523 10.6219 20C10.6219 25.2476 14.8206 29.5017 19.9999 29.5017Z" fill="#004029"/>
<path d="M39.0327 14.0109C35.4461 4.47146 31.7825 5.16402 30.0938 6.19988C30.5442 4.25237 30.0623 0.508273 19.9996 0C9.93699 0.508273 9.45511 4.25237 9.90546 6.19988C8.21675 5.16402 4.5532 4.47146 0.966586 14.0109C-1.6659 23.8643 1.69977 25.4859 3.66684 25.6537C2.17271 26.9609 0.390582 30.277 8.23651 36.681C16.6721 42.2624 19.2342 39.5203 19.9996 37.6768C20.7651 39.5206 23.327 42.2624 31.7628 36.681C39.6087 30.277 37.8266 26.9609 36.3324 25.6537C38.2995 25.4859 41.6652 23.8645 39.0327 14.0109Z" fill="#004029"/>
<path d="M19.9999 29.5017C25.1792 29.5017 29.3778 25.2476 29.3778 20C29.3778 14.7523 25.1792 10.4982 19.9999 10.4982C14.8206 10.4982 10.6219 14.7523 10.6219 20C10.6219 25.2476 14.8206 29.5017 19.9999 29.5017Z" fill="#004029"/>
<path d="M19.9999 29.6808C18.7102 29.6808 17.4589 29.4247 16.2808 28.92C15.1431 28.4325 14.1213 27.7345 13.2438 26.8455C12.3664 25.9565 11.6775 24.9211 11.1963 23.7684C10.6979 22.5747 10.4455 21.3069 10.4455 20.0002C10.4455 18.6936 10.6982 17.4257 11.1963 16.2321C11.6775 15.0794 12.3664 14.044 13.2438 13.155C14.1213 12.266 15.1431 11.568 16.2808 11.0804C17.4589 10.5755 18.7102 10.3197 19.9999 10.3197C21.2895 10.3197 22.5408 10.5757 23.719 11.0804C24.8568 11.568 25.8785 12.266 26.7559 13.155C27.6333 14.044 28.3223 15.0794 28.8035 16.2321C29.3018 17.4257 29.5543 18.6936 29.5543 20.0002C29.5543 21.3069 29.3016 22.5747 28.8035 23.7684C28.3223 24.9211 27.6333 25.9565 26.7559 26.8455C25.8785 27.7345 24.8568 28.4325 23.719 28.92C22.5408 29.425 21.2895 29.6808 19.9999 29.6808ZM19.9999 10.6771C18.7575 10.6771 17.5526 10.9236 16.4182 11.4097C15.3224 11.8793 14.3384 12.5514 13.4932 13.4077C12.6481 14.2641 11.9845 15.2611 11.5212 16.3713C11.0415 17.5206 10.7982 18.7415 10.7982 20.0002C10.7982 21.259 11.0415 22.4799 11.5212 23.6292C11.9848 24.7394 12.6481 25.7364 13.4932 26.5928C14.3384 27.4491 15.3224 28.1214 16.4182 28.5908C17.5526 29.0769 18.7575 29.3234 19.9999 29.3234C21.2422 29.3234 22.4472 29.0769 23.5815 28.5908C24.6773 28.1212 25.6613 27.4491 26.5065 26.5928C27.3517 25.7364 28.0152 24.7394 28.4785 23.6292C28.9583 22.4799 29.2016 21.259 29.2016 20.0002C29.2016 18.7415 28.9583 17.5206 28.4785 16.3713C28.015 15.2611 27.3517 14.2641 26.5065 13.4077C25.6613 12.5514 24.6773 11.8791 23.5815 11.4097C22.4472 10.9236 21.2422 10.6771 19.9999 10.6771Z" fill="white"/>
<path d="M19.9999 32.3664C16.7396 32.3664 13.6747 31.0799 11.3695 28.7443C9.06429 26.4087 7.79463 23.303 7.79463 20C7.79463 16.6969 9.06429 13.5913 11.3695 11.2556C13.6747 8.92002 16.7399 7.63361 19.9999 7.63361C23.2599 7.63361 26.3251 8.92002 28.6303 11.2556C30.9355 13.5913 32.2051 16.6969 32.2051 20C32.2051 23.303 30.9355 26.4087 28.6303 28.7443C26.3251 31.0799 23.2599 32.3664 19.9999 32.3664ZM19.9999 8.85208C17.061 8.85208 14.298 10.0117 12.2201 12.1172C10.1419 14.2228 8.99746 17.0221 8.99746 19.9997C8.99746 22.9774 10.1419 25.7769 12.2201 27.8825C14.2982 29.9881 17.061 31.1476 19.9999 31.1476C22.9387 31.1476 25.7018 29.9881 27.7799 27.8825C29.8581 25.7769 31.0025 22.9776 31.0025 19.9997C31.0025 17.0219 29.8581 14.2226 27.7799 12.1172C25.7018 10.0117 22.939 8.85208 19.9999 8.85208Z" fill="white"/>
<path d="M18.2269 19.9528V19.6796C18.2269 19.4591 18.2269 19.1859 18.2166 18.9337C17.3559 18.8075 16.7337 18.2823 16.7337 17.1583C16.7337 15.8452 17.5424 15.2358 18.7867 15.2463C19.9375 15.2568 20.5702 16.0657 20.5599 17.2424C20.5599 18.3245 19.886 18.8183 19.1187 18.9339C19.129 19.291 19.129 19.6379 19.129 19.9318C19.7305 19.9109 20.114 19.8584 20.7778 19.7638C20.9851 19.7323 21.2236 19.7743 21.2651 20.058C21.3065 20.3417 21.1095 20.4678 20.9022 20.5202C19.9898 20.7303 19.3573 20.7303 18.4137 20.762C18.2065 20.7724 17.6568 20.7724 17.3872 20.7724C16.9827 20.7724 16.7236 20.7724 16.4333 20.762C16.2363 20.7515 16.0288 20.6778 16.0288 20.3521C16.0288 20.0894 16.2257 19.9528 16.4436 19.9528H18.2272H18.2269ZM20.1556 23.6194C20.7778 23.6194 21.4102 23.588 22.2189 23.588C22.5507 23.588 22.6855 23.756 22.6959 23.9661C22.7062 24.2183 22.6128 24.4178 22.3018 24.4283C21.7625 24.4493 20.6634 24.4388 20.0206 24.4388C19.5126 24.4388 18.9733 24.4493 18.206 24.4493C17.8119 24.4493 17.5112 24.3127 17.5112 23.8505C17.5112 22.9679 17.5112 22.2641 17.5215 21.9594C17.5422 21.6548 17.7808 21.5496 18.0502 21.5496C18.2368 21.5496 18.4857 21.6967 18.4857 21.9699V22.4951C18.4754 22.7683 18.4754 22.9784 18.4754 23.4511C18.4754 23.5982 18.5272 23.6087 18.6309 23.6087C19.2013 23.6192 19.6575 23.6192 20.1552 23.6192L20.1556 23.6194ZM18.6521 18.167C19.1601 18.1774 19.6787 17.9464 19.6787 17.2319C19.6787 16.4021 19.3676 16.0764 18.7455 16.0447C17.9575 16.0132 17.6464 16.4333 17.6464 17.1583C17.6464 17.9357 18.0716 18.1562 18.6523 18.1667L18.6521 18.167ZM21.6382 17.7152C21.6382 16.8538 21.6382 16.0657 21.6072 15.4458C21.5968 15.1621 21.7834 15.0046 22.022 14.9836C22.3331 14.9521 22.5404 15.1307 22.5507 15.3829C22.5714 15.9186 22.5818 17.2529 22.5818 18.0828C22.7684 18.0933 22.8514 18.0828 23.0173 18.0828H23.6394C23.9712 18.0828 24.0853 18.2404 24.106 18.4714C24.1267 18.7236 23.9815 18.9337 23.6498 18.9337H23.0173C22.8307 18.9337 22.7997 18.9441 22.5818 18.9337C22.5714 19.3854 22.5818 19.7426 22.5818 20.1209V21.1715C22.5818 21.3186 22.5818 21.5391 22.5404 21.6967C22.4782 21.9595 22.2707 22.0014 22.0841 22.0014C21.8455 22.0014 21.6486 21.8753 21.6486 21.5496L21.6382 17.7149V17.7152Z" fill="white"/>
</g>
<defs>
<clipPath id="clip0_358_533">
<rect width="40" height="40" fill="white"/>
</clipPath>
</defs>
</svg>
