<svg width="308" height="52" viewBox="0 0 308 52" fill="none" xmlns="http://www.w3.org/2000/svg">
<g filter="url(#filter0_d_165_201)">
<rect x="4" width="300" height="44" rx="8" fill="#FEE500"/>
</g>
<path opacity="0.902" fill-rule="evenodd" clip-rule="evenodd" d="M28 14.3576C23.29 14.3576 19 18.0838 19 21.2362C19 23.5983 20.558 25.6818 22.931 26.92L21.933 30.5281C21.844 30.8479 22.213 31.1018 22.496 30.9178L26.873 28.0587C27.242 28.0941 27.618 28.1148 28 28.1148C32.97 28.1148 37 25.0352 37 21.2362C37 18.0838 32.97 14.3576 28 14.3576Z" fill="black"/>
<path d="M122.888 18.032C122.879 22.0173 121.012 24.948 117.288 26.824L116.518 25.872C118.562 24.9387 120.009 23.632 120.858 21.952L116.938 22.372L116.714 21.28L121.264 20.93C121.451 20.342 121.558 19.726 121.586 19.082H117.204V18.032H122.888ZM125.982 16.744V21.672H127.928V22.694H125.982V28.98H124.75V16.744H125.982ZM135.001 18.032C134.992 22.0173 133.125 24.948 129.401 26.824L128.631 25.872C130.675 24.9387 132.122 23.632 132.971 21.952L129.051 22.372L128.827 21.28L133.377 20.93C133.564 20.342 133.671 19.726 133.699 19.082H129.317V18.032H135.001ZM138.095 16.744V21.672H140.041V22.694H138.095V28.98H136.863V16.744H138.095ZM150.839 20.902C150.839 21.854 150.479 22.638 149.761 23.254C149.051 23.8607 148.095 24.2107 146.891 24.304V26.376H151.805V27.398H140.759V26.376H145.645V24.29C144.45 24.1873 143.498 23.8327 142.789 23.226C142.079 22.6193 141.725 21.8447 141.725 20.902C141.725 19.8847 142.14 19.0633 142.971 18.438C143.811 17.8127 144.912 17.5 146.275 17.5C147.656 17.5 148.762 17.8127 149.593 18.438C150.423 19.054 150.839 19.8753 150.839 20.902ZM148.655 22.61C149.261 22.1713 149.565 21.602 149.565 20.902C149.565 20.202 149.261 19.6327 148.655 19.194C148.057 18.7553 147.264 18.536 146.275 18.536C145.295 18.536 144.501 18.7553 143.895 19.194C143.297 19.6327 142.999 20.202 142.999 20.902C142.999 21.602 143.297 22.1713 143.895 22.61C144.501 23.0487 145.295 23.268 146.275 23.268C147.255 23.268 148.048 23.0487 148.655 22.61ZM167.596 27.426H156.55V26.418H161.422V24.486H157.88V20.552H164.992V18.76H157.852V17.752H166.224V21.56H159.112V23.478H166.56V24.486H162.668V26.418H167.596V27.426ZM179.709 27.202H168.663V26.194H179.709V27.202ZM178.239 18.13C178.239 21.2567 178.048 23.6507 177.665 25.312L176.461 25.158C176.61 24.598 176.732 23.702 176.825 22.47C176.928 21.2287 176.979 20.1133 176.979 19.124H169.811V18.13H178.239ZM190.814 25.634H189.568V16.744H190.814V25.634ZM191.094 28.602H182.764V24.794H184.01V27.608H191.094V28.602ZM181.98 18.452C182.596 17.864 183.375 17.57 184.318 17.57C185.261 17.57 186.04 17.8593 186.656 18.438C187.281 19.0167 187.594 19.7447 187.594 20.622C187.594 21.4993 187.286 22.218 186.67 22.778C186.054 23.3287 185.27 23.604 184.318 23.604C183.375 23.604 182.596 23.3287 181.98 22.778C181.364 22.218 181.056 21.504 181.056 20.636C181.056 19.7587 181.364 19.0307 181.98 18.452ZM184.318 18.634C183.749 18.634 183.277 18.8207 182.904 19.194C182.54 19.5673 182.358 20.0387 182.358 20.608C182.358 21.168 182.54 21.6347 182.904 22.008C183.277 22.3813 183.749 22.568 184.318 22.568C184.915 22.568 185.391 22.386 185.746 22.022C186.101 21.658 186.278 21.1913 186.278 20.622C186.278 20.034 186.101 19.558 185.746 19.194C185.391 18.8207 184.915 18.634 184.318 18.634Z" fill="black"/>
<defs>
<filter id="filter0_d_165_201" x="0" y="0" width="308" height="52" filterUnits="userSpaceOnUse" color-interpolation-filters="sRGB">
<feFlood flood-opacity="0" result="BackgroundImageFix"/>
<feColorMatrix in="SourceAlpha" type="matrix" values="0 0 0 0 0 0 0 0 0 0 0 0 0 0 0 0 0 0 127 0" result="hardAlpha"/>
<feOffset dy="4"/>
<feGaussianBlur stdDeviation="2"/>
<feComposite in2="hardAlpha" operator="out"/>
<feColorMatrix type="matrix" values="0 0 0 0 0 0 0 0 0 0 0 0 0 0 0 0 0 0 0.25 0"/>
<feBlend mode="normal" in2="BackgroundImageFix" result="effect1_dropShadow_165_201"/>
<feBlend mode="normal" in="SourceGraphic" in2="effect1_dropShadow_165_201" result="shape"/>
</filter>
</defs>
</svg>
