<svg width="212" height="100" viewBox="0 0 212 100" fill="none" xmlns="http://www.w3.org/2000/svg">
<g opacity="0.1" filter="url(#filter0_f_684_3669)">
<ellipse cx="106" cy="83.4365" rx="98" ry="8" fill="#151515"/>
</g>
<g clip-path="url(#clip0_684_3669)">
<path d="M175.435 21.4631C178.9 21.4631 181.398 22.9961 181.398 26.4546C181.398 28.2291 181.157 30.239 180.837 31.9351C180.517 33.5466 178.664 42.4855 178.664 44.5014C178.664 45.7931 179.069 46.7588 181.561 46.7588C183.336 46.7588 185.189 45.7931 187.042 43.0529L189.619 22.2718C191.152 21.7105 193.645 21.626 195.341 21.626C198.805 21.626 200.58 23.0746 200.58 26.1347C200.58 27.022 200.417 28.549 200.097 30.7279L197.761 47.3201V54.895C197.761 64.5642 193.735 71.0043 179.557 71.0043C170.938 71.0043 163.527 68.5056 163.527 62.3069C163.527 58.7639 165.301 56.2651 169.49 56.2651C170.619 56.2651 171.584 56.4281 173.117 56.8264C173.437 61.4196 175.695 63.2726 181.091 63.2726C185.684 63.2726 186.571 61.4196 186.571 56.0237C186.571 55.3778 186.734 50.3018 186.734 48.9377C184.477 52.4022 181.984 54.5751 176.34 54.5751C169.816 54.5751 166.593 49.9034 167.317 44.8274L169.49 29.1164L166.991 29.1948C166.508 28.3921 166.188 27.3419 166.188 26.2977C166.188 22.7547 169.894 21.4631 175.453 21.4631M175.453 16.0309C171.663 16.0309 168.711 16.556 166.418 17.6364C162.82 19.3324 160.756 22.4891 160.756 26.2916C160.756 28.2653 161.318 30.2873 162.338 31.9833C162.633 32.4783 163.008 32.9189 163.43 33.2871L161.939 44.0729C161.517 47.0123 161.981 49.9336 163.219 52.4445C160.02 54.3578 158.1 57.8585 158.1 62.3008C158.1 67.3407 160.895 71.451 165.977 73.8774C170.395 75.9899 175.803 76.4305 179.564 76.4305C187.857 76.4305 193.838 74.4508 197.852 70.3827C201.449 66.731 203.199 61.661 203.199 54.8889V47.7004L205.481 31.5005C205.849 29.0138 206.018 27.3117 206.018 26.1347C206.018 20.0929 201.829 16.1939 195.347 16.1939C191.979 16.1939 189.565 16.5077 187.748 17.1717C186.384 17.6726 185.297 18.6927 184.7 19.9783C182.72 17.4976 179.473 16.0309 175.447 16.0309H175.453Z" fill="#8AC8A3"/>
<path d="M197.743 54.8889C197.743 64.5582 193.717 70.9983 179.539 70.9983C170.92 70.9983 163.508 68.4995 163.508 62.3008C163.508 58.7578 165.283 56.2591 169.472 56.2591C170.6 56.2591 171.566 56.422 173.099 56.8204C173.419 61.4136 175.676 63.2665 181.072 63.2665C185.666 63.2665 186.553 61.4136 186.553 56.0176C186.553 55.3718 186.716 50.2957 186.716 48.9317C184.458 52.3962 181.966 54.569 176.322 54.569C169.798 54.569 166.575 49.8974 167.299 44.8213L169.472 29.1103L166.973 29.1888C166.49 28.386 166.17 27.3358 166.17 26.2856C166.17 22.7426 169.876 21.451 175.435 21.451C178.9 21.451 181.398 22.9841 181.398 26.4425C181.398 28.217 181.157 30.2269 180.837 31.923C180.517 33.5345 178.664 42.4734 178.664 44.4894C178.664 45.781 179.069 46.7467 181.561 46.7467C183.336 46.7467 185.189 45.781 187.042 43.0408L189.619 22.2598C191.152 21.6985 193.645 21.614 195.341 21.614C198.805 21.614 200.58 23.0625 200.58 26.1226C200.58 27.0099 200.417 28.5369 200.097 30.7158L197.761 47.3081V54.8829L197.743 54.8889Z" fill="#37AE75"/>
<path d="M201.594 19.9723C200.055 18.6625 197.948 18.0046 195.329 18.0046C192.178 18.0046 189.963 18.2823 188.358 18.8738C187.084 19.3446 186.185 20.4793 186.016 21.8252L185.497 25.9839L184.984 25.839C184.694 20.9621 181.018 17.8417 175.429 17.8417C171.916 17.8417 169.212 18.3124 167.166 19.2782C164.184 20.6845 162.543 23.1772 162.543 26.2977C162.543 27.9515 163.014 29.6415 163.865 31.0599C164.227 31.6635 164.746 32.1343 165.349 32.4361L163.702 44.3265C163.237 47.5616 163.985 50.7545 165.766 53.2292C162.102 54.5087 159.881 57.7922 159.881 62.3009C159.881 70.0145 167.226 74.6198 179.533 74.6198C187.319 74.6198 192.878 72.8151 196.53 69.1092C199.777 65.8137 201.359 61.1601 201.359 54.889V47.5676L203.658 31.2229C204.008 28.8448 204.177 27.2152 204.177 26.1287C204.177 22.8574 202.765 20.9742 201.582 19.9662L201.594 19.9723ZM200.085 30.7279L197.749 47.3202V54.895C197.749 64.5643 193.723 71.0044 179.545 71.0044C170.926 71.0044 163.514 68.5056 163.514 62.3069C163.514 58.7639 165.289 56.2651 169.478 56.2651C170.606 56.2651 171.572 56.4281 173.105 56.8265C173.425 61.4196 175.683 63.2726 181.078 63.2726C185.672 63.2726 186.559 61.4196 186.559 56.0237C186.559 55.3779 186.722 50.3018 186.722 48.9378C184.465 52.4023 181.972 54.5751 176.328 54.5751C169.804 54.5751 166.581 49.9035 167.305 44.8274L169.478 29.1164L166.979 29.1949C166.496 28.3921 166.176 27.3419 166.176 26.2977C166.176 22.7547 169.882 21.4631 175.441 21.4631C178.906 21.4631 181.404 22.9962 181.404 26.4547C181.404 28.2292 181.163 30.2391 180.843 31.9351C180.523 33.5466 178.67 42.4856 178.67 44.5015C178.67 45.7931 179.075 46.7589 181.567 46.7589C183.342 46.7589 185.195 45.7931 187.048 43.0529L189.625 22.2719C191.158 21.7106 193.651 21.6261 195.347 21.6261C198.811 21.6261 200.586 23.0746 200.586 26.1348C200.586 27.022 200.423 28.549 200.103 30.7279H200.085ZM176.992 58.1845C179.364 58.1181 181.302 57.7016 182.919 57.0377C182.871 58.6311 182.708 59.2589 182.618 59.5003C182.443 59.5546 181.996 59.6512 181.078 59.6512C178.682 59.6512 177.789 59.2166 177.469 58.9571C177.276 58.8001 177.119 58.5406 176.998 58.1845H176.992Z" fill="#EAF3E7"/>
<path d="M151.576 21.3001C154.153 21.3001 156.489 21.8614 158.1 22.8332L155.765 40.7171C155.36 43.5357 155.282 44.9843 155.282 45.95C155.282 46.7528 155.523 47.3201 156.73 47.3201C157.455 47.3201 158.746 47.2417 159.627 47.0002C160.515 47.7245 160.835 48.5333 160.835 49.7405C160.835 53.4464 156.724 55.2209 150.043 55.2209C146.983 55.2209 144.888 53.9293 144.888 50.5493C144.888 50.3863 144.967 49.662 145.051 49.2576C143.198 53.4464 139.414 55.1364 134.501 55.1364C126.847 55.1364 123.787 51.2675 123.787 42.57C123.787 28.3136 130.632 21.3846 139.498 21.3846C143.126 21.3846 145.619 22.0304 147.152 23.8834C147.797 21.789 149.409 21.3061 151.582 21.3061M139.178 47.4046C140.953 47.4046 142.564 46.7588 143.687 45.5517L145.782 29.4423C144.731 29.0379 143.687 28.881 142.395 28.881C137.482 28.881 135.147 33.0698 135.147 41.043C135.147 45.8776 135.871 47.4046 139.172 47.4046M151.576 15.874C150.248 15.874 148.262 15.9887 146.331 16.9664C143.953 16.1033 141.478 15.9585 139.492 15.9585C133.318 15.9585 127.843 18.5418 124.077 23.2376C120.275 27.9756 118.349 34.4821 118.349 42.5761C118.349 48.4126 119.544 52.5531 122.103 55.6132C124.862 58.9087 129.032 60.5746 134.495 60.5746C136.812 60.5746 140.132 60.2306 143.247 58.6613C145.009 59.9469 147.321 60.6531 150.043 60.6531C154.34 60.6531 157.702 60.0314 160.322 58.7579C164.1 56.917 166.267 53.6335 166.267 49.7465C166.267 46.8795 165.192 44.5437 163.068 42.8054C162.482 42.3226 161.806 41.9785 161.1 41.7793C161.112 41.6828 161.124 41.5922 161.142 41.4957C161.142 41.4715 161.148 41.4534 161.148 41.4293L163.484 23.5454C163.762 21.4027 162.748 19.2962 160.895 18.1857C158.42 16.7009 155.107 15.88 151.576 15.88V15.874Z" fill="#8AC8A3"/>
<path d="M150.043 57.0256C147.031 57.0256 144.894 55.9331 143.838 53.9353C141.074 56.3375 137.452 56.9411 134.501 56.9411C125.954 56.9411 121.977 52.372 121.977 42.564C121.977 25.6096 131.024 19.5678 139.498 19.5678C141.786 19.5678 144.502 19.7791 146.693 21.119C148.274 19.4894 150.562 19.4894 151.582 19.4894C154.467 19.4894 157.117 20.1231 159.036 21.276C159.652 21.6441 159.99 22.3503 159.899 23.0625L157.563 40.9464C157.219 43.3667 157.123 44.6946 157.105 45.4973C157.799 45.4732 158.638 45.3887 159.163 45.2438C159.32 45.2016 159.483 45.1775 159.64 45.1775C160.05 45.1775 160.46 45.3163 160.786 45.5879C162.066 46.6321 162.657 47.9479 162.657 49.7284C162.657 52.4505 161.022 57.0196 150.055 57.0196L150.043 57.0256ZM142.389 30.6857C141.043 30.6857 136.951 30.6857 136.951 41.0369C136.951 45.5879 137.513 45.5879 139.166 45.5879C140.253 45.5879 141.225 45.268 141.967 44.6705L143.772 30.7702C143.355 30.7098 142.902 30.6796 142.389 30.6796V30.6857Z" fill="#37AE75"/>
<path d="M151.576 21.3001C154.153 21.3001 156.489 21.8614 158.1 22.8332L155.765 40.7171C155.36 43.5357 155.282 44.9843 155.282 45.95C155.282 46.7528 155.523 47.3201 156.73 47.3201C157.455 47.3201 158.746 47.2417 159.628 47.0002C160.515 47.7245 160.835 48.5333 160.835 49.7405C160.835 53.4464 156.724 55.2209 150.043 55.2209C146.983 55.2209 144.888 53.9293 144.888 50.5493C144.888 50.3863 144.967 49.662 145.051 49.2576C143.198 53.4464 139.414 55.1364 134.501 55.1364C126.847 55.1364 123.787 51.2675 123.787 42.57C123.787 28.3136 130.632 21.3846 139.498 21.3846C143.126 21.3846 145.619 22.0304 147.152 23.8834C147.797 21.789 149.409 21.3061 151.582 21.3061M139.178 47.4046C140.953 47.4046 142.564 46.7588 143.687 45.5517L145.782 29.4423C144.731 29.0379 143.687 28.881 142.395 28.881C137.482 28.881 135.147 33.0698 135.147 41.043C135.147 45.8776 135.871 47.4046 139.172 47.4046M151.576 17.6847C149.494 17.6847 147.785 18.1132 146.476 18.9582C144.206 17.9382 141.671 17.7632 139.498 17.7632C133.885 17.7632 128.912 20.105 125.495 24.3663C121.959 28.7723 120.166 34.8986 120.166 42.57C120.166 47.9539 121.222 51.7262 123.498 54.4423C125.93 57.3455 129.533 58.7579 134.501 58.7579C138.424 58.7579 141.333 57.8284 143.488 56.4703C145.009 57.9913 147.254 58.8363 150.049 58.8363C154.008 58.8363 157.201 58.2569 159.537 57.1222C162.712 55.577 164.462 52.9515 164.462 49.7344C164.462 47.4046 163.635 45.5879 161.927 44.1936C161.275 43.6565 160.46 43.3728 159.634 43.3728C159.446 43.3728 159.259 43.3848 159.072 43.415C159.139 42.8175 159.229 42.0932 159.35 41.2241C159.35 41.212 159.35 41.1939 159.35 41.1818L161.686 23.2979C161.873 21.8675 161.197 20.4672 159.959 19.7248C157.762 18.403 154.781 17.6787 151.57 17.6787L151.576 17.6847ZM138.925 43.7772C138.846 43.3486 138.762 42.5398 138.762 41.0369C138.762 36.8663 139.462 34.796 140.048 33.7941C140.482 33.0456 140.971 32.6714 141.719 32.5447L140.283 43.578C139.957 43.7108 139.577 43.7772 139.166 43.7772C139.076 43.7772 138.991 43.7772 138.919 43.7772H138.925Z" fill="#EAF3E7"/>
<path d="M111.909 5.43216C114.166 5.43216 116.418 5.99348 117.788 7.0437L113.279 40.717C112.875 43.5357 112.796 44.9843 112.796 45.95C112.796 46.7528 113.038 47.3201 114.245 47.3201C114.969 47.3201 116.261 47.2417 117.142 47.0002C118.029 47.7245 118.349 48.5333 118.349 49.7405C118.349 53.4464 114.239 55.2209 107.557 55.2209C104.497 55.2209 102.403 53.9293 102.403 50.5493C102.403 50.3863 102.481 49.662 102.566 49.2576C100.713 53.4464 96.9283 55.1364 92.0152 55.1364C84.3619 55.1364 81.3018 51.2675 81.3018 42.57C81.3018 28.3136 88.1463 21.3846 97.0128 21.3846C100.64 21.3846 102.65 21.9459 104.183 23.4005L105.716 11.7214C106.362 6.64534 107.889 5.43819 111.921 5.43819M96.6989 47.4046C98.4734 47.4046 100.085 46.7588 101.208 45.5517L103.302 29.4423C102.252 29.0379 101.208 28.881 99.916 28.881C95.0029 28.881 92.6671 33.0698 92.6671 41.043C92.6671 45.8776 93.3914 47.4046 96.6929 47.4046M111.909 0C109.64 0 106.32 0.289715 103.761 2.7704C101.34 5.11226 100.652 8.41381 100.32 11.0333L99.6625 16.055C98.7632 15.9766 97.8699 15.9524 97.0128 15.9524C90.8382 15.9524 85.3638 18.5357 81.5975 23.2315C77.795 27.9696 75.8696 34.4761 75.8696 42.57C75.8696 48.4066 77.0647 52.5471 79.6239 55.6072C82.3822 58.9027 86.5529 60.5686 92.0152 60.5686C94.3329 60.5686 97.6526 60.2245 100.767 58.6552C102.529 59.9408 104.841 60.647 107.563 60.647C111.861 60.647 115.223 60.0253 117.842 58.7518C121.62 56.9109 123.787 53.6275 123.787 49.7405C123.787 46.8735 122.713 44.5377 120.588 42.7994C120.003 42.3165 119.327 41.9725 118.621 41.7733C118.633 41.6767 118.645 41.5862 118.663 41.4896C118.663 41.4715 118.663 41.4594 118.669 41.4413L123.178 7.76799C123.437 5.83655 122.641 3.91719 121.095 2.73419C118.826 1.00193 115.482 0.00603573 111.915 0.00603573L111.909 0Z" fill="#8AC8A3"/>
<path d="M107.557 57.0256C104.545 57.0256 102.403 55.9331 101.346 53.9353C99.3788 55.6494 96.4333 56.9471 92.0091 56.9471C83.4625 56.9471 79.485 52.3781 79.485 42.57C79.485 25.6156 88.5325 19.5739 97.0007 19.5739C99.415 19.5739 101.25 19.8274 102.735 20.4008L103.906 11.486C104.642 5.68566 106.736 3.62747 111.903 3.62747C114.691 3.62747 117.232 4.35176 118.886 5.61323C119.399 6.00555 119.665 6.65137 119.58 7.29116L115.072 40.9645C114.728 43.3848 114.631 44.7067 114.613 45.5094C115.307 45.4853 116.146 45.4008 116.671 45.2559C116.828 45.2137 116.991 45.1895 117.148 45.1895C117.558 45.1895 117.969 45.3283 118.295 45.6C119.574 46.6441 120.166 47.9599 120.166 49.7405C120.166 52.4626 118.53 57.0316 107.563 57.0316L107.557 57.0256ZM99.9039 30.6857C98.5579 30.6857 94.4657 30.6857 94.4657 41.0369C94.4657 45.5879 95.027 45.5879 96.6808 45.5879C97.7672 45.5879 98.739 45.268 99.4814 44.6704L101.286 30.7702C100.87 30.7098 100.417 30.6796 99.9039 30.6796V30.6857Z" fill="#37AE75"/>
<path d="M111.909 5.43216C114.166 5.43216 116.418 5.99349 117.788 7.0437L113.279 40.7171C112.875 43.5357 112.796 44.9843 112.796 45.95C112.796 46.7528 113.038 47.3201 114.245 47.3201C114.969 47.3201 116.261 47.2417 117.142 47.0003C118.029 47.7245 118.349 48.5333 118.349 49.7405C118.349 53.4464 114.239 55.2209 107.557 55.2209C104.497 55.2209 102.403 53.9293 102.403 50.5493C102.403 50.3863 102.481 49.662 102.566 49.2576C100.713 53.4464 96.9283 55.1364 92.0152 55.1364C84.3619 55.1364 81.3018 51.2675 81.3018 42.57C81.3018 28.3136 88.1463 21.3846 97.0128 21.3846C100.64 21.3846 102.65 21.9459 104.183 23.4005L105.716 11.7214C106.362 6.64534 107.889 5.4382 111.921 5.4382M96.6989 47.4046C98.4734 47.4046 100.085 46.7588 101.208 45.5517L103.302 29.4423C102.252 29.0379 101.208 28.881 99.916 28.881C95.0029 28.881 92.6671 33.0698 92.6671 41.043C92.6671 45.8776 93.3914 47.4046 96.6929 47.4046M111.909 1.81072C109.784 1.81072 107.086 2.07026 105.016 4.06809C103.012 6.00556 102.427 8.78803 102.113 11.2566L101.22 18.0831C99.8315 17.8175 98.4071 17.7571 97.0068 17.7571C91.3935 17.7571 86.4201 20.099 83.0039 24.3602C79.4669 28.7663 77.6743 34.8926 77.6743 42.564C77.6743 47.9479 78.7306 51.7202 81.006 54.4363C83.4384 57.3395 87.0418 58.7518 92.0092 58.7518C95.9324 58.7518 98.8416 57.8223 100.996 56.4643C102.517 57.9853 104.763 58.8303 107.557 58.8303C111.517 58.8303 114.71 58.2509 117.045 57.1161C120.22 55.571 121.971 52.9454 121.971 49.7284C121.971 47.3986 121.144 45.5819 119.436 44.1876C118.784 43.6504 117.969 43.3667 117.142 43.3667C116.955 43.3667 116.768 43.3788 116.581 43.409C116.647 42.8115 116.738 42.0872 116.858 41.218C116.858 41.2059 116.858 41.1999 116.858 41.1878L121.367 7.51449C121.542 6.22888 121.011 4.94327 119.979 4.15862C118.023 2.66176 115.078 1.80469 111.897 1.80469L111.909 1.81072ZM96.4394 43.7772C96.3609 43.3486 96.2764 42.5398 96.2764 41.0369C96.2764 36.8663 96.9766 34.796 97.562 33.7941C97.9966 33.0456 98.4855 32.6714 99.2339 32.5447L97.7974 43.578C97.4715 43.7108 97.0913 43.7772 96.6808 43.7772C96.5903 43.7772 96.5058 43.7772 96.4334 43.7772H96.4394Z" fill="#EAF3E7"/>
<path d="M74.3365 31.7721C75.3022 32.8223 75.8696 34.4278 75.8696 35.641C75.8696 38.7856 73.6967 40.0712 70.7151 40.1497L46.1436 41.2784C44.9365 39.9867 44.5321 38.5382 44.5321 37.2525C44.5321 34.9952 45.6607 33.4681 48.4794 33.3052L70.1477 32.098L74.3365 31.7781M74.3365 26.346C74.1977 26.346 74.0589 26.346 73.92 26.3641L69.7856 26.684L48.1716 27.8911C42.655 28.205 39.0939 31.8868 39.0939 37.2646C39.0939 40.1799 40.1562 42.8597 42.1721 45.0085C43.2042 46.107 44.6347 46.7226 46.1315 46.7226C46.216 46.7226 46.3005 46.7226 46.379 46.7226L70.9022 45.6C77.119 45.4068 81.2836 41.4172 81.2836 35.6591C81.2836 32.9853 80.1429 30.0942 78.3141 28.1084C77.2819 26.9918 75.8334 26.358 74.3244 26.358L74.3365 26.346Z" fill="#8AC8A3"/>
<path d="M46.1376 43.0891C45.6366 43.0891 45.1598 42.8839 44.8158 42.5157C43.4396 41.049 42.7153 39.2262 42.7153 37.2525C42.7153 33.8544 44.8278 31.6997 48.3708 31.5005L70.0451 30.2933L74.1977 29.9734C74.246 29.9734 74.2882 29.9734 74.3365 29.9734C74.8375 29.9734 75.3204 30.1847 75.6644 30.5589C76.8836 31.8807 77.6743 33.8846 77.6743 35.6531C77.6743 39.4918 75.091 41.8578 70.7573 41.9725L46.2221 43.1012C46.2221 43.1012 46.1678 43.1012 46.1376 43.1012V43.0891Z" fill="#37AE75"/>
<path d="M74.3366 31.7721C75.3023 32.8223 75.8697 34.4278 75.8697 35.641C75.8697 38.7856 73.6968 40.0712 70.7151 40.1497L46.1437 41.2784C44.9365 39.9867 44.5321 38.5382 44.5321 37.2525C44.5321 34.9952 45.6608 33.4681 48.4795 33.3052L70.1478 32.098L74.3366 31.7781M74.3366 28.1567C74.246 28.1567 74.1495 28.1567 74.0589 28.1688L69.9064 28.4887L48.2743 29.6958C43.7294 29.9553 40.9047 32.8525 40.9047 37.2586C40.9047 39.7091 41.7979 41.9544 43.494 43.7651C44.1821 44.4954 45.1357 44.9119 46.1376 44.9119C46.192 44.9119 46.2463 44.9119 46.3066 44.9119L70.8419 43.7832C76.093 43.6263 79.4851 40.4394 79.4851 35.6531C79.4851 33.45 78.5073 30.9693 76.9923 29.3276C76.3042 28.5792 75.3385 28.1627 74.3305 28.1627L74.3366 28.1567Z" fill="#EAF3E7"/>
<path d="M49.4512 11.154C50.0971 12.0413 50.417 13.4114 50.417 14.5401C50.417 17.8416 48.0027 19.4532 43.5724 19.4532C43.0896 19.4532 28.6702 19.2902 28.6702 19.2902L27.3786 29.0379H45.9867C46.548 30.0821 46.6325 31.0538 46.6325 31.9351C46.6325 34.7537 44.9425 37.0111 40.9952 37.0111C36.2451 37.0111 26.4128 36.9326 26.4128 36.9326L25.2057 47.0002H47.3568C47.6767 47.6461 47.9182 48.6902 47.9182 49.656C47.9182 53.5249 44.6951 54.9734 29.7144 54.9734C15.6994 54.9734 12.7178 53.9232 12.7178 50.1388C12.7178 48.1229 13.2006 43.6927 14.0094 37.8923C14.5707 34.1864 16.5867 18.8013 16.5867 18.8013L12.1564 18.6383C11.5951 17.7511 11.4322 16.7069 11.4322 15.6567C11.4322 13.001 13.4481 11.2265 17.8783 11.2265H43.8139L49.4512 11.148M49.4512 5.71584C49.4512 5.71584 49.3969 5.71584 49.3728 5.71584L43.7716 5.7943H17.8783C9.1084 5.80034 6 11.1118 6 15.6627C6 17.9684 6.51304 19.8938 7.57533 21.5596C8.25736 22.628 9.2774 23.4126 10.4483 23.7989C9.81458 28.5611 8.96958 34.9107 8.63761 37.0775C8.63761 37.1016 8.63158 37.1258 8.62554 37.1499C7.73829 43.5538 7.28561 47.9237 7.28561 50.1388C7.28561 52.7342 8.21511 57.3576 14.4259 59.1864C17.4015 60.0616 21.6869 60.4056 29.7144 60.4056C37.7419 60.4056 42.7878 59.9831 46.0712 58.945C52.4027 56.9471 53.3503 52.2694 53.3503 49.656C53.3503 47.8935 52.9278 45.9923 52.2156 44.5678C51.2982 42.7269 49.415 41.562 47.3568 41.562H45.7393C49.6142 39.9988 52.0647 36.4679 52.0647 31.929C52.0647 30.6072 51.9319 28.6033 50.7731 26.4546C50.254 25.4889 49.4633 24.7224 48.5217 24.2274C53.8392 22.6521 55.8551 18.4874 55.8551 14.534C55.8551 13.3873 55.662 10.4418 53.8513 7.95509C52.8312 6.54877 51.1956 5.71584 49.4573 5.71584H49.4512Z" fill="#8AC8A3"/>
<path d="M29.7204 56.7842C16.641 56.7842 10.9131 56.1565 10.9131 50.1388C10.9131 47.5857 11.6253 41.9363 12.2168 37.6449C12.6513 34.7779 13.9732 24.8129 14.5345 20.5396L12.0961 20.4491C11.4985 20.4249 10.9553 20.1171 10.6354 19.6101C9.95941 18.5418 9.62744 17.2501 9.62744 15.6567C9.62744 14.19 10.225 9.41574 17.8843 9.41574H43.8199C43.8199 9.41574 49.4512 9.33728 49.4572 9.33728C50.0367 9.33728 50.5799 9.61492 50.9239 10.0857C51.8896 11.4196 52.2337 13.2545 52.2337 14.534C52.2337 20.606 46.1798 21.2579 43.5784 21.2579C43.1861 21.2579 34.048 21.1552 30.2636 21.113L29.4548 27.2212H45.9988C46.6627 27.2212 47.2783 27.5893 47.5922 28.1748C48.3527 29.5811 48.4553 30.8667 48.4553 31.9351C48.4553 36.1178 45.534 38.8218 41.0072 38.8218C37.4642 38.8218 31.0301 38.7735 28.0304 38.7554L27.2578 45.1895H47.3689C48.0569 45.1895 48.6847 45.5758 48.9864 46.1915C49.4512 47.121 49.7409 48.4549 49.7409 49.662C49.7409 55.7581 43.5664 56.7902 29.7264 56.7902L29.7204 56.7842Z" fill="#37AE75"/>
<path d="M49.4512 11.154C50.097 12.0413 50.4169 13.4114 50.4169 14.5401C50.4169 17.8416 48.0026 19.4532 43.5724 19.4532C43.0895 19.4532 28.6702 19.2902 28.6702 19.2902L27.3785 29.0379H45.9867C46.548 30.0821 46.6325 31.0538 46.6325 31.9351C46.6325 34.7537 44.9425 37.0111 40.9951 37.0111C36.245 37.0111 26.4128 36.9326 26.4128 36.9326L25.2056 47.0002H47.3568C47.6767 47.6461 47.9181 48.6902 47.9181 49.656C47.9181 53.5249 44.695 54.9734 29.7143 54.9734C15.6994 54.9734 12.7177 53.9232 12.7177 50.1388C12.7177 48.1229 13.2006 43.6927 14.0094 37.8923C14.5707 34.1864 16.5866 18.8013 16.5866 18.8013L12.1564 18.6383C11.5951 17.7511 11.4321 16.7069 11.4321 15.6567C11.4321 13.001 13.448 11.2265 17.8783 11.2265H43.8138L49.4512 11.148M49.4512 7.52655C49.4512 7.52655 49.415 7.52655 49.3969 7.52655L43.7836 7.60501H17.8783C10.4543 7.60501 7.81067 11.7636 7.81067 15.6567C7.81067 17.6062 8.23317 19.2178 9.10232 20.5818C9.7421 21.5898 10.8346 22.2115 12.0236 22.2537L12.4763 22.2718C11.8425 27.0823 10.8044 34.8865 10.4302 37.3431C10.4302 37.3612 10.4302 37.3732 10.4241 37.3914C9.54896 43.7108 9.10232 48.0022 9.10232 50.1328C9.10232 53.8448 11.07 56.3013 14.9449 57.4421C17.7394 58.2629 21.886 58.5888 29.7204 58.5888C37.5548 58.5888 42.4799 58.1784 45.534 57.2127C49.5236 55.9512 51.5516 53.4102 51.5516 49.6499C51.5516 48.1591 51.1955 46.5596 50.604 45.3706C49.9884 44.1453 48.739 43.3667 47.3628 43.3667H29.2918L29.6298 40.5661C32.9374 40.5903 38.0014 40.6205 41.0012 40.6205C46.542 40.6205 50.26 37.1258 50.26 31.923C50.26 30.7038 50.1393 29.0802 49.1796 27.3056C48.5458 26.1347 47.3206 25.4044 45.9927 25.4044H31.519L31.845 22.9358C36.1786 22.9841 43.2223 23.0625 43.5784 23.0625C53.2899 23.0625 54.0444 16.5319 54.0444 14.528C54.0444 12.5241 53.4227 10.4418 52.3845 9.01738C51.7025 8.08184 50.6161 7.52655 49.4572 7.52655H49.4512Z" fill="#EAF3E7"/>
</g>
<defs>
<filter id="filter0_f_684_3669" x="0" y="67.4365" width="212" height="32" filterUnits="userSpaceOnUse" color-interpolation-filters="sRGB">
<feFlood flood-opacity="0" result="BackgroundImageFix"/>
<feBlend mode="normal" in="SourceGraphic" in2="BackgroundImageFix" result="shape"/>
<feGaussianBlur stdDeviation="4" result="effect1_foregroundBlur_684_3669"/>
</filter>
<clipPath id="clip0_684_3669">
<rect width="200" height="76.4365" fill="white" transform="translate(6)"/>
</clipPath>
</defs>
</svg>
