<svg width="299" height="227" viewBox="0 0 299 227" fill="none" xmlns="http://www.w3.org/2000/svg">
<path d="M132.23 16.3191L102.856 13.708L70.8706 39.8186L34.3158 95.3036L7.55249 114.234L8.20525 172.33L0 191.495L4.56935 226.744L78.3317 224.133L68.5402 189.537L150.789 185.62L276.772 126.219L298.033 90.0815L253.645 47.6518L226.881 59.4015L205.34 46.999L193.59 73.1096L174.66 60.7071L160.952 0L132.23 16.3191Z" fill="#369149"/>
<path d="M42.3513 172.871L113.829 172.342C123.17 172.27 132.394 170.201 140.86 166.258L184.047 146.173C184.112 146.14 184.177 146.114 184.243 146.088L230.426 128.372C231.294 128.039 231.966 127.34 232.253 126.459L232.789 124.86C233.324 123.261 232.475 121.524 230.883 120.956L215.288 115.421C214.198 115.036 212.984 115.284 212.135 116.074L206.489 121.348C205.059 122.686 202.762 122.373 201.737 120.708L190.698 102.836C190.261 102.131 190.131 101.282 190.326 100.479L194.576 82.9459C194.954 81.3858 194.08 79.7996 192.565 79.2839L171.755 72.1818C170.006 71.5878 167.245 72.8476 166.846 74.6558L165.9 82.6652C165.874 82.7697 165.848 82.8676 165.815 82.972C165.117 85.0609 153.837 112.784 134.757 116.994C134.646 117.02 134.528 117.04 134.417 117.072L94.468 129.122C93.8152 129.318 93.2408 129.73 92.8426 130.284L75.6553 152.583C75.3094 153.066 74.8394 153.438 74.2845 153.653L41.1698 166.898C39.9948 167.368 39.218 168.51 39.218 169.777C39.218 171.5 40.6215 172.89 42.3382 172.877L42.3513 172.871Z" fill="#4BAA43"/>
<path d="M159.555 83.2732L138.275 105.715C137.935 106.074 138.36 106.636 138.797 106.407L142.035 105.33C145.475 103.535 152.733 98.1889 155.038 95.0687C158.654 90.1729 160.312 83.7889 160.273 83.3776C160.136 83.1035 159.77 83.0513 159.555 83.2732Z" fill="#4BAA43"/>
<path d="M205.079 64.8057C202.226 76.092 197.487 94.5652 196.012 100.303C195.724 101.432 195.907 102.62 196.527 103.606L203.806 115.245C204.596 116.511 206.365 116.714 207.422 115.656L207.905 115.173C209.654 113.424 210.94 111.256 211.645 108.88L223.78 67.8607C224.081 66.8554 223.663 65.7718 222.768 65.2169L215.32 60.6346C211.378 58.2063 206.214 60.3017 205.079 64.7927V64.8057Z" fill="#4BAA43"/>
<path d="M217.599 103.686L227.736 71.0539C230.967 60.6618 243.97 57.2414 251.889 64.7025L278.273 89.5597C279.141 90.3757 279.305 91.6877 278.665 92.693L267.483 110.265C266.602 111.656 265.055 112.485 263.41 112.459L225.589 111.852L217.599 103.679" fill="#4BAA43"/>
<path d="M157.682 27.5854L156.233 22.6636C155.691 20.8293 154.588 19.1125 153.243 17.6699C126.323 36.0452 131.663 71.4707 126.91 101.935C135.083 98.6518 151.095 89.4218 157.917 66.0593C161.579 53.5067 161.376 40.1381 157.682 27.5919V27.5854Z" fill="#4BAA43"/>
<path d="M28.1272 174.524C31.5521 174.524 34.3285 171.747 34.3285 168.322C34.3285 164.897 31.5521 162.121 28.1272 162.121C24.7024 162.121 21.926 164.897 21.926 168.322C21.926 171.747 24.7024 174.524 28.1272 174.524Z" fill="#4BAA43"/>
<path d="M107.641 129.58L100.219 131.141C97.7449 131.663 96.2109 134.137 96.8506 136.578C97.4903 139.02 98.3063 141.944 99.1679 144.947C101.407 152.76 107.066 159.131 114.56 162.264L114.736 162.336C121.355 165.104 128.823 165.032 135.39 162.147L170.398 146.742C172.78 145.697 174.862 144.078 176.475 142.042L179.843 137.773C181.762 135.344 180.653 131.748 177.702 130.814L160.064 125.246C159.366 125.024 158.628 124.985 157.91 125.116L135.259 129.404C134.985 129.457 134.711 129.483 134.437 129.483H108.548C108.241 129.483 107.935 129.515 107.634 129.58H107.641Z" fill="#369149"/>
<path d="M238.86 70.9935L241.549 68.7545C242.913 67.6187 244.878 67.5534 246.308 68.6044L265.851 82.8673C267.157 83.8203 267.731 85.4783 267.301 87.0319L265.492 93.5334C265.048 95.1262 263.645 96.262 261.987 96.3599L260.89 96.4252C256.367 96.6928 252.013 94.6692 249.297 91.0464L238.233 76.2939C236.999 74.6425 237.267 72.3186 238.853 71L238.86 70.9935Z" fill="#369149"/>
<path d="M126.323 126.746L133.674 124.076L134.339 122.072L145.025 125.414L142.355 135.434L140.351 134.762L143.021 144.116L137.009 146.12L134.339 137.393L130.331 138.77L126.323 126.746Z" fill="#DBDBDB"/>
<path d="M219.123 71.534L210.196 68.7383L207.401 77.6649L216.327 80.4606L219.123 71.534Z" fill="#DBDBDB"/>
<path d="M121.634 123.544L103.361 128.488L108.475 147.391L126.748 142.447L121.634 123.544Z" fill="#DBDBDB"/>
<path d="M171.51 106.438L158.54 102L149.453 128.557L162.423 132.995L171.51 106.438Z" fill="#DBDBDB"/>
<path d="M189.74 95.4463L193.754 83.7096L180.784 79.2708L167.813 74.832L163.799 86.5687L161.899 92.1237L158.727 101.393L171.697 105.825L178.492 108.156L181.665 98.8864L174.87 96.5625L176.769 91.0075L189.74 95.4463Z" fill="#DBDBDB"/>
<path d="M193.303 117.346L171.07 109.738L163.884 130.737L186.118 138.345L193.303 117.346Z" fill="#DBDBDB"/>
<path d="M259.226 104.847L246.869 100.617L246.027 103.091L244.173 102.452L252.626 77.751L233.481 71.1973L223.97 98.992L231.999 101.74L229.884 107.915L218.154 103.901L212.867 119.339L228.311 124.619L231.692 114.743L242.809 118.542L244.5 113.607L254.996 117.198L259.226 104.847Z" fill="#DBDBDB"/>
<path d="M155.561 54.6684L158.857 37.357L147.956 35.2812L144.659 52.5926L144.934 52.6448C142.571 58.9766 129.346 94.4674 129.195 95.8317C138.073 99.1999 146.539 89.0755 149.314 81.4643L158.472 56.4896L151.246 53.8524L155.561 54.6749V54.6684Z" fill="#DBDBDB"/>
<path d="M44.8124 179.727L39.0899 181.057L46.4763 212.848L52.1988 211.519L44.8124 179.727Z" fill="#DBDBDB"/>
<path d="M23.2358 182.483L20.6359 182.725L23.1081 209.374L25.708 209.132L23.2358 182.483Z" fill="#DBDBDB"/>
<path d="M95.9232 121.649C95.6229 121.649 95.3226 121.609 95.0289 121.544C94.0563 121.309 93.2338 120.702 92.7116 119.847C92.6855 119.801 92.6594 119.756 92.6332 119.71L60.5433 117.105C59.8579 117.758 58.9376 118.143 57.9519 118.143C57.4362 118.143 56.9401 118.039 56.4636 117.836C55.5366 117.438 54.8251 116.701 54.4596 115.767C54.0875 114.834 54.1071 113.815 54.5053 112.895L54.5901 112.699L48.5717 97.4833C48.2844 96.7522 48.3497 95.9362 48.7609 95.2639L78.5792 46.0911C78.7163 45.8692 78.886 45.6669 79.0819 45.4972L95.6751 31.1494C97.1177 29.9026 98.7562 28.9365 100.551 28.2772L101.021 28.1075L102.947 26.0513C103.658 25.2941 104.657 24.8633 105.689 24.8633C106.648 24.8633 107.555 25.2223 108.254 25.8751C108.6 26.2014 108.874 26.58 109.07 26.9913L120.63 27.7746C121.316 27.1218 122.243 26.7367 123.215 26.7367C123.783 26.7367 124.351 26.8672 124.86 27.1153C125.8 27.5722 126.466 28.3686 126.779 29.2825L129.9 30.5684C132.654 31.7042 133.992 34.7788 132.941 37.5726L125.324 57.8148L125.409 101.987C125.409 102.64 125.154 103.273 124.697 103.737L114.736 113.966C114.442 114.266 114.07 114.494 113.665 114.618L99.5264 118.907C99.0695 120.526 97.6008 121.649 95.9101 121.649H95.9232Z" fill="white"/>
<path d="M57.9521 114.384L50.8958 96.5565L80.714 47.3838L97.3073 33.0361C98.5149 31.9916 99.9053 31.1691 101.407 30.6208L105.206 29.2305L86.2168 49.9884L57.9456 114.377L57.9521 114.384Z" fill="#4BAA43"/>
<path d="M57.9514 114.383L95.7334 117.445L108.567 77.3651L91.6862 76.4512L57.9514 114.383Z" fill="#A6A6A6"/>
<path d="M91.6867 76.4511L107.901 78.0961L113.234 60.6934L99.3959 61.4767L91.6867 76.4511Z" fill="#F0F0F0"/>
<path d="M105.219 29.2363L123.033 30.444L113.111 62.9908L98.7307 62.214L105.219 29.2363Z" fill="#DBDBDB"/>
<path d="M123.032 30.4453L111.655 55.2177L95.7404 117.446L112.954 112.224L122.915 101.995L122.83 57.3653L130.605 36.6923C131.172 35.1844 130.441 33.5002 128.953 32.8866L123.032 30.4453Z" fill="#4BAA43"/>
<path d="M85.9158 49.7331L57.9514 114.383L91.6862 76.4508L99.9829 62.2792L105.218 29.2363L85.9158 49.7331Z" fill="#C6E5F4"/>
<path d="M57.952 115.637C57.7888 115.637 57.6191 115.604 57.4559 115.533C56.8227 115.259 56.529 114.521 56.8031 113.888L84.8524 49.0356L104.775 27.762C105.251 27.2594 106.041 27.2332 106.544 27.7032C107.046 28.1732 107.072 28.9696 106.602 29.4722L86.9804 50.426L59.1009 114.873C58.8985 115.343 58.435 115.631 57.952 115.631V115.637Z" fill="#F0F0F0"/>
<path d="M108.763 96.623L105.049 111.898L112.895 109.013V98.4247L108.763 96.623Z" fill="#369149"/>
<path d="M113.913 84.7539L115.154 97.9071L120.591 93.4552L117.68 85.0476L113.913 84.7539Z" fill="#369149"/>
<path d="M63.6313 92.7643L58.0045 104.716L54.3947 98.6914L59.9824 91.7656L63.6313 92.7643Z" fill="#369149"/>
<path d="M75.9486 61.4899L72.8154 65.8765L74.6953 69.0033L78.4552 60.8633L75.9486 61.4899Z" fill="#369149"/>
<path d="M82.8356 50.8438L80.9556 51.4704L79.0822 55.2303L80.329 56.4836L82.8356 50.8438Z" fill="#369149"/>
<path d="M78.4556 57.1113L77.2023 58.9848H79.0823L79.7024 57.1113H78.4556Z" fill="#369149"/>
<path d="M117.81 53.3438L115.304 57.1036L116.557 61.4837L119.057 60.857L117.81 57.7303L119.684 53.9704L117.81 53.3438Z" fill="#369149"/>
<path d="M95.9226 119.148C95.8247 119.148 95.7268 119.135 95.6223 119.109C94.95 118.946 94.5387 118.267 94.7019 117.595L110.14 54.4854L122.098 29.9415C122.399 29.3214 123.149 29.0602 123.77 29.367C124.39 29.6673 124.651 30.418 124.344 31.0381L112.503 55.3406L97.1302 118.189C96.9931 118.763 96.4774 119.142 95.9161 119.142L95.9226 119.148Z" fill="#F0F0F0"/>
<path d="M26.9785 116V107.516H32.2988V108.629H28.2676V111.195H32.0176V112.297H28.2676V114.887H32.3457V116H26.9785ZM39.623 110.281C39.418 109.186 38.5098 108.576 37.4316 108.582C35.9668 108.576 34.8828 109.701 34.877 111.758C34.8828 113.826 35.9727 114.939 37.4316 114.934C38.498 114.939 39.4004 114.342 39.623 113.258L40.9238 113.27C40.6543 114.945 39.2891 116.117 37.4199 116.117C35.2109 116.117 33.5996 114.471 33.5996 111.758C33.5996 109.045 35.2227 107.398 37.4199 107.398C39.2129 107.398 40.6367 108.459 40.9238 110.281H39.623ZM48.0605 110.281C47.8555 109.186 46.9473 108.576 45.8691 108.582C44.4043 108.576 43.3203 109.701 43.3145 111.758C43.3203 113.826 44.4102 114.939 45.8691 114.934C46.9355 114.939 47.8379 114.342 48.0605 113.258L49.3613 113.27C49.0918 114.945 47.7266 116.117 45.8574 116.117C43.6484 116.117 42.0371 114.471 42.0371 111.758C42.0371 109.045 43.6602 107.398 45.8574 107.398C47.6504 107.398 49.0742 108.459 49.3613 110.281H48.0605Z" fill="white"/>
<path d="M219.611 126.719C221.914 126.713 223.355 127.463 223.361 128.734C223.355 129.982 221.914 130.721 219.611 130.715C217.314 130.721 215.855 129.982 215.861 128.734C215.855 127.463 217.314 126.713 219.611 126.719ZM214.83 132.426V131.523H224.404V132.426H214.83ZM215.979 136.867V133.363H223.232V136.867H215.979ZM217.01 128.734C217.004 129.432 217.994 129.842 219.611 129.848C221.217 129.842 222.219 129.432 222.213 128.734C222.219 128.008 221.217 127.592 219.611 127.598C217.994 127.592 217.004 128.008 217.01 128.734ZM217.08 135.965H222.154V134.254H217.08V135.965ZM228.154 127.105C229.766 127.105 230.943 128.143 230.955 129.613C230.943 131.096 229.766 132.121 228.154 132.121C226.549 132.121 225.354 131.096 225.365 129.613C225.354 128.143 226.549 127.105 228.154 127.105ZM226.455 129.613C226.443 130.557 227.17 131.184 228.154 131.172C229.139 131.184 229.859 130.557 229.865 129.613C229.859 128.676 229.139 128.061 228.154 128.055C227.17 128.061 226.443 128.676 226.455 129.613ZM226.514 134.078V133.176H233.451V137.008H232.338V134.078H226.514ZM232.338 132.66V126.496H233.451V129.133H234.975V130.047H233.451V132.66H232.338ZM241.42 127.293V127.879C241.408 128.582 241.408 129.625 241.15 130.984L240.049 130.879C240.277 129.719 240.312 128.869 240.324 128.207H236.123V127.293H241.42ZM235.49 131.887C236.135 131.887 236.867 131.881 237.635 131.863V129.648H238.736V131.828C239.861 131.781 241.021 131.699 242.076 131.547L242.146 132.355C239.955 132.742 237.447 132.783 235.596 132.789L235.49 131.887ZM237.084 136.773V133.668H238.197V135.871H244.221V136.773H237.084ZM242.744 134.383V126.496H243.881V129.836H245.322V130.773H243.881V134.383H242.744Z" fill="white"/>
<path d="M80.5371 134.496V140.133H79.4238V134.496H80.5371ZM72.041 137.414C72.0469 135.973 73.2305 134.971 74.8418 134.977C76.4473 134.971 77.6309 135.973 77.6309 137.414C77.6309 138.85 76.4473 139.852 74.8418 139.84C73.2305 139.852 72.0469 138.85 72.041 137.414ZM73.1309 137.414C73.125 138.322 73.8457 138.926 74.8418 138.926C75.8262 138.926 76.541 138.322 76.541 137.414C76.541 136.518 75.8262 135.908 74.8418 135.914C73.8457 135.908 73.125 136.518 73.1309 137.414ZM73.6699 144.867V140.637H74.7598V141.82H79.4355V140.637H80.5371V144.867H73.6699ZM74.7598 143.953H79.4355V142.699H74.7598V143.953ZM88.4707 135.562V136.453H82.2129V135.562H84.791V134.449H85.9043V135.562H88.4707ZM82.7871 138.832C82.7812 137.684 83.8242 136.934 85.3418 136.922C86.8535 136.934 87.8848 137.684 87.8848 138.832C87.8848 139.986 86.8535 140.742 85.3418 140.742C83.8242 140.742 82.7812 139.986 82.7871 138.832ZM83.5137 142.5V141.598H90.4512V144.996H89.3379V142.5H83.5137ZM83.8652 138.832C83.8535 139.482 84.4512 139.875 85.3418 139.875C86.2324 139.875 86.8301 139.482 86.8418 138.832C86.8301 138.188 86.2324 137.783 85.3418 137.777C84.4512 137.783 83.8535 138.188 83.8652 138.832ZM89.3379 141.059V134.496H90.4512V137.344H91.9746V138.27H90.4512V141.059H89.3379ZM98.4199 135.293V135.879C98.4082 136.582 98.4082 137.625 98.1504 138.984L97.0488 138.879C97.2773 137.719 97.3125 136.869 97.3242 136.207H93.123V135.293H98.4199ZM92.4902 139.887C93.1348 139.887 93.8672 139.881 94.6348 139.863V137.648H95.7363V139.828C96.8613 139.781 98.0215 139.699 99.0762 139.547L99.1465 140.355C96.9551 140.742 94.4473 140.783 92.5957 140.789L92.4902 139.887ZM94.084 144.773V141.668H95.1973V143.871H101.221V144.773H94.084ZM99.7441 142.383V134.496H100.881V137.836H102.322V138.773H100.881V142.383H99.7441Z" fill="white"/>
<path d="M137.971 25.7188C137.971 27.3711 138.738 29.0527 140.186 29.832L139.564 30.6523C138.545 30.1133 137.842 29.1113 137.461 27.9219C137.086 29.1934 136.383 30.2891 135.369 30.8984L134.713 30.0547C136.166 29.2109 136.916 27.4121 136.928 25.7188V25.2969H135.029V24.3828H136.928V22.8711H137.971V24.3828H139.834V25.2969H137.971V25.7188ZM139.143 27.5117V26.5859H140.654V22.7188H141.709V32.4688H140.654V27.5117H139.143ZM142.775 32.9961V22.4961H143.842V32.9961H142.775ZM154.775 27.5V28.4023H152.303V29.6211H153.604V32.9961H152.479V30.5H146.268V29.6211H147.65V28.4023H145.201V27.5H154.775ZM146.232 24.7578C146.227 23.4863 147.686 22.7246 149.982 22.7305C152.273 22.7246 153.727 23.4863 153.732 24.7578C153.727 26.0234 152.273 26.791 149.982 26.7852C147.686 26.791 146.227 26.0234 146.232 24.7578ZM147.381 24.7578C147.375 25.4902 148.365 25.918 149.982 25.918C151.588 25.918 152.59 25.4902 152.584 24.7578C152.59 24.0312 151.588 23.6035 149.982 23.6094C148.365 23.6035 147.375 24.0312 147.381 24.7578ZM148.764 29.6211H151.213V28.4023H148.764V29.6211ZM161.42 23.293V23.8789C161.408 24.582 161.408 25.625 161.15 26.9844L160.049 26.8789C160.277 25.7188 160.312 24.8691 160.324 24.207H156.123V23.293H161.42ZM155.49 27.8867C156.135 27.8867 156.867 27.8809 157.635 27.8633V25.6484H158.736V27.8281C159.861 27.7812 161.021 27.6992 162.076 27.5469L162.146 28.3555C159.955 28.7422 157.447 28.7832 155.596 28.7891L155.49 27.8867ZM157.084 32.7734V29.668H158.197V31.8711H164.221V32.7734H157.084ZM162.744 30.3828V22.4961H163.881V25.8359H165.322V26.7734H163.881V30.3828H162.744Z" fill="white"/>
<path d="M128.406 158.77V159.684H118.797V158.77H123.039V156.285H124.152V158.77H128.406ZM119.242 155.805C121.193 155.477 123.004 154.018 123.004 152.406V152.312H119.594V151.398H127.574V152.312H124.164V152.406C124.164 154.018 125.986 155.447 127.984 155.758L127.539 156.637C125.84 156.32 124.275 155.336 123.59 153.953C122.916 155.354 121.363 156.355 119.699 156.684L119.242 155.805ZM135.086 151.598V152.488H129.18V151.598H131.641V150.402H132.742V151.598H135.086ZM129.766 154.926C129.766 153.754 130.75 152.975 132.18 152.969C133.592 152.975 134.6 153.754 134.605 154.926C134.6 156.098 133.592 156.871 132.18 156.871C130.75 156.871 129.766 156.098 129.766 154.926ZM130.809 154.926C130.803 155.605 131.348 156.033 132.18 156.027C133 156.033 133.562 155.605 133.574 154.926C133.562 154.246 133 153.812 132.18 153.812C131.348 153.812 130.803 154.246 130.809 154.926ZM130.867 159.168C130.861 158.025 132.209 157.363 134.43 157.363C136.627 157.363 137.98 158.025 137.98 159.168C137.98 160.311 136.627 160.979 134.43 160.973C132.209 160.979 130.861 160.311 130.867 159.168ZM132.027 159.168C132.021 159.777 132.918 160.129 134.43 160.117C135.912 160.129 136.797 159.777 136.797 159.168C136.797 158.553 135.912 158.219 134.43 158.219C132.918 158.219 132.021 158.553 132.027 159.168ZM135.109 155.91V155.008H136.809V153.848H135.121V152.945H136.809V150.496H137.922V157.258H136.809V155.91H135.109ZM145.762 154.281C145.557 153.186 144.648 152.576 143.57 152.582C142.105 152.576 141.021 153.701 141.016 155.758C141.021 157.826 142.111 158.939 143.57 158.934C144.637 158.939 145.539 158.342 145.762 157.258L147.062 157.27C146.793 158.945 145.428 160.117 143.559 160.117C141.35 160.117 139.738 158.471 139.738 155.758C139.738 153.045 141.361 151.398 143.559 151.398C145.352 151.398 146.775 152.459 147.062 154.281H145.762Z" fill="white"/>
<path d="M177.375 150.77V151.684H167.766V150.77H172.008V148.285H173.121V150.77H177.375ZM168.211 147.805C170.162 147.477 171.973 146.018 171.973 144.406V144.312H168.562V143.398H176.543V144.312H173.133V144.406C173.133 146.018 174.955 147.447 176.953 147.758L176.508 148.637C174.809 148.32 173.244 147.336 172.559 145.953C171.885 147.354 170.332 148.355 168.668 148.684L168.211 147.805ZM184.055 143.598V144.488H178.148V143.598H180.609V142.402H181.711V143.598H184.055ZM178.734 146.926C178.734 145.754 179.719 144.975 181.148 144.969C182.561 144.975 183.568 145.754 183.574 146.926C183.568 148.098 182.561 148.871 181.148 148.871C179.719 148.871 178.734 148.098 178.734 146.926ZM179.777 146.926C179.771 147.605 180.316 148.033 181.148 148.027C181.969 148.033 182.531 147.605 182.543 146.926C182.531 146.246 181.969 145.812 181.148 145.812C180.316 145.812 179.771 146.246 179.777 146.926ZM179.836 151.168C179.83 150.025 181.178 149.363 183.398 149.363C185.596 149.363 186.949 150.025 186.949 151.168C186.949 152.311 185.596 152.979 183.398 152.973C181.178 152.979 179.83 152.311 179.836 151.168ZM180.996 151.168C180.99 151.777 181.887 152.129 183.398 152.117C184.881 152.129 185.766 151.777 185.766 151.168C185.766 150.553 184.881 150.219 183.398 150.219C181.887 150.219 180.99 150.553 180.996 151.168ZM184.078 147.91V147.008H185.777V145.848H184.09V144.945H185.777V142.496H186.891V149.258H185.777V147.91H184.078ZM188.988 152V143.516H192.094C193.904 143.516 194.777 144.482 194.777 145.742C194.777 146.803 194.127 147.336 193.348 147.535V147.617C194.191 147.664 195.105 148.402 195.105 149.715C195.105 151.016 194.215 152 192.234 152H188.988ZM190.277 150.898H192.117C193.336 150.893 193.828 150.359 193.828 149.656C193.828 148.842 193.184 148.191 192.164 148.191H190.277V150.898ZM190.277 147.184H191.988C192.844 147.178 193.512 146.662 193.512 145.848C193.512 145.145 193.025 144.617 192.012 144.617H190.277V147.184Z" fill="white"/>
<path d="M193.111 109.77V110.684H183.502V109.77H187.744V107.285H188.857V109.77H193.111ZM183.947 106.805C185.898 106.477 187.709 105.018 187.709 103.406V103.312H184.299V102.398H192.279V103.312H188.869V103.406C188.869 105.018 190.691 106.447 192.689 106.758L192.244 107.637C190.545 107.32 188.98 106.336 188.295 104.953C187.621 106.354 186.068 107.355 184.404 107.684L183.947 106.805ZM199.791 102.598V103.488H193.885V102.598H196.346V101.402H197.447V102.598H199.791ZM194.471 105.926C194.471 104.754 195.455 103.975 196.885 103.969C198.297 103.975 199.305 104.754 199.311 105.926C199.305 107.098 198.297 107.871 196.885 107.871C195.455 107.871 194.471 107.098 194.471 105.926ZM195.514 105.926C195.508 106.605 196.053 107.033 196.885 107.027C197.705 107.033 198.268 106.605 198.279 105.926C198.268 105.246 197.705 104.812 196.885 104.812C196.053 104.812 195.508 105.246 195.514 105.926ZM195.572 110.168C195.566 109.025 196.914 108.363 199.135 108.363C201.332 108.363 202.686 109.025 202.686 110.168C202.686 111.311 201.332 111.979 199.135 111.973C196.914 111.979 195.566 111.311 195.572 110.168ZM196.732 110.168C196.727 110.777 197.623 111.129 199.135 111.117C200.617 111.129 201.502 110.777 201.502 110.168C201.502 109.553 200.617 109.219 199.135 109.219C197.623 109.219 196.727 109.553 196.732 110.168ZM199.814 106.91V106.008H201.514V104.848H199.826V103.945H201.514V101.496H202.627V108.258H201.514V106.91H199.814ZM205.451 111H204.08L207.127 102.516H208.615L211.674 111H210.303L209.529 108.762H206.225L205.451 111ZM206.594 107.684H209.154L207.9 104.062H207.842L206.594 107.684Z" fill="white"/>
<path d="M204.584 81.5078V89.2422H203.471V86.5117H200.863C200.371 87.1035 199.609 87.4609 198.736 87.4609C197.154 87.4609 195.977 86.3535 195.982 84.8125C195.977 83.2598 197.154 82.1523 198.736 82.1406C199.604 82.1465 200.359 82.5039 200.852 83.0898H203.471V81.5078H204.584ZM197.049 84.8125C197.043 85.8027 197.752 86.4824 198.736 86.4766C199.68 86.4824 200.4 85.8027 200.4 84.8125C200.4 83.8223 199.68 83.1426 198.736 83.1367C197.752 83.1426 197.043 83.8223 197.049 84.8125ZM197.764 91.7734V88.4336H198.877V90.8711H204.865V91.7734H197.764ZM201.344 83.9922C201.426 84.25 201.467 84.5195 201.467 84.8125C201.467 85.0938 201.426 85.3633 201.35 85.6094H203.471V83.9922H201.344ZM214.557 82.1523V83.0781C214.557 84.0742 214.557 85.1582 214.264 86.6523H215.775V87.5664H211.521V92.0078H210.396V87.5664H206.201V86.6523H213.139C213.449 85.1523 213.449 84.0566 213.455 83.0781V83.0664H207.373V82.1523H214.557ZM222.42 82.293V82.8789C222.408 83.582 222.408 84.625 222.15 85.9844L221.049 85.8789C221.277 84.7188 221.312 83.8691 221.324 83.207H217.123V82.293H222.42ZM216.49 86.8867C217.135 86.8867 217.867 86.8809 218.635 86.8633V84.6484H219.736V86.8281C220.861 86.7812 222.021 86.6992 223.076 86.5469L223.146 87.3555C220.955 87.7422 218.447 87.7832 216.596 87.7891L216.49 86.8867ZM218.084 91.7734V88.668H219.197V90.8711H225.221V91.7734H218.084ZM223.744 89.3828V81.4961H224.881V84.8359H226.322V85.7734H224.881V89.3828H223.744Z" fill="white"/>
<path d="M33.2695 211.496V217.742H32.1562V215.082H30.1992V214.168H32.1562V211.496H33.2695ZM24.5156 216.793C26.1445 216.225 27.1465 214.807 27.1406 213.359V213.125H24.8672V212.223H30.5273V213.125H28.2773V213.348C28.2715 214.678 29.2207 215.973 30.8086 216.512L30.2344 217.391C29.0566 216.986 28.1895 216.143 27.7324 215.105C27.2754 216.277 26.3555 217.221 25.1016 217.684L24.5156 216.793ZM26.2031 220.016C26.1973 218.768 27.5449 218.041 29.7539 218.035C31.9512 218.041 33.2988 218.768 33.3047 220.016C33.2988 221.264 31.9512 221.99 29.7539 221.996C27.5449 221.99 26.1973 221.264 26.2031 220.016ZM27.3047 220.016C27.2988 220.725 28.2129 221.129 29.7539 221.117C31.2832 221.129 32.1973 220.725 32.2031 220.016C32.1973 219.301 31.2832 218.896 29.7539 218.902C28.2129 218.896 27.2988 219.301 27.3047 220.016ZM44.4844 216.805V217.707H40.3125V219.746H39.2109V217.707H34.875V216.805H44.4844ZM36.0703 221.773V218.75H37.1836V220.871H43.418V221.773H36.0703ZM36.1055 215.715V211.988H43.2422V215.715H36.1055ZM37.1953 214.836H42.1406V212.867H37.1953V214.836Z" fill="white"/>
</svg>
