<svg width="53" height="60" viewBox="0 0 53 60" fill="none" xmlns="http://www.w3.org/2000/svg">
<path d="M29.3778 59.9234C29.1922 59.9234 29.0066 59.8991 28.825 59.8587C28.2238 59.7132 27.7154 59.3373 27.3927 58.8079C27.3765 58.7796 27.3604 58.7513 27.3442 58.723L7.50874 57.1105C7.08508 57.5146 6.51616 57.7531 5.90689 57.7531C5.58814 57.7531 5.28149 57.6884 4.98694 57.5631C4.41399 57.3166 3.97418 56.8599 3.74823 56.282C3.51824 55.704 3.53035 55.0736 3.77647 54.5037L3.82893 54.3825L0.108767 44.9617C-0.0687682 44.5091 -0.0284159 44.0039 0.225782 43.5876L18.6571 13.143C18.7419 13.0056 18.8468 12.8803 18.9678 12.7752L29.2245 3.89197C30.1162 3.12004 31.129 2.52191 32.2386 2.11372L32.5291 2.00864L33.7193 0.735556C34.1591 0.266742 34.7765 0 35.414 0C36.0071 0 36.568 0.222302 36.9997 0.626453C37.2136 0.828528 37.383 1.06292 37.5041 1.31753L44.6498 1.80252C45.0735 1.39837 45.6465 1.15991 46.2477 1.15991C46.5987 1.15991 46.9497 1.24075 47.2645 1.39432C47.8455 1.67723 48.257 2.17029 48.4507 2.7361L50.3794 3.53227C52.0821 4.23549 52.9092 6.13905 52.2596 7.86882L47.5509 20.4015L47.6034 47.7504C47.6034 48.1545 47.446 48.5465 47.1636 48.8335L41.0064 55.1665C40.8248 55.3524 40.5948 55.4939 40.3446 55.5707L31.6051 58.2259C31.3226 59.2282 30.4148 59.9234 29.3697 59.9234H29.3778Z" fill="#F244C5"/>
<path d="M25.0742 34.9533C25.0742 35.5453 24.9662 36.0973 24.7502 36.6093C24.5342 37.1213 24.2262 37.5653 23.8262 37.9413C23.4342 38.3173 22.9622 38.6133 22.4102 38.8293C21.8662 39.0453 21.2662 39.1533 20.6102 39.1533H17.3342V30.7533H20.6102C21.2662 30.7533 21.8662 30.8613 22.4102 31.0773C22.9622 31.2853 23.4342 31.5773 23.8262 31.9533C24.2262 32.3293 24.5342 32.7733 24.7502 33.2853C24.9662 33.7893 25.0742 34.3373 25.0742 34.9293V34.9533ZM23.1422 34.9773V34.9533C23.1422 34.5853 23.0782 34.2453 22.9502 33.9333C22.8302 33.6213 22.6582 33.3533 22.4342 33.1293C22.2182 32.9053 21.9542 32.7333 21.6422 32.6133C21.3302 32.4853 20.9862 32.4213 20.6102 32.4213H19.1822V37.4853H20.6102C20.9862 37.4853 21.3302 37.4253 21.6422 37.3053C21.9542 37.1853 22.2182 37.0133 22.4342 36.7893C22.6582 36.5653 22.8302 36.3013 22.9502 35.9973C23.0782 35.6933 23.1422 35.3533 23.1422 34.9773ZM30.0089 36.3093H26.3129V34.5573H30.0089V36.3093ZM30.8993 31.4133L33.3113 30.6933H34.5713V39.1533H32.7473V32.5653L31.2833 32.9253L30.8993 31.4133Z" fill="white"/>
</svg>
