<svg width="347" height="409" viewBox="0 0 347 409" fill="none" xmlns="http://www.w3.org/2000/svg">
<path d="M163.768 374.429L207.95 374.102C213.724 374.057 219.425 372.776 224.658 370.335L251.353 357.899C251.394 357.879 251.434 357.863 251.474 357.847L280.021 346.878C280.558 346.672 280.973 346.24 281.151 345.694L281.482 344.704C281.813 343.714 281.288 342.639 280.304 342.287L270.664 338.86C269.99 338.621 269.24 338.775 268.715 339.264L265.225 342.529C264.342 343.358 262.921 343.164 262.288 342.133L255.465 331.068C255.194 330.631 255.114 330.106 255.235 329.609L257.862 318.753C258.096 317.787 257.555 316.805 256.619 316.486L243.756 312.089C242.674 311.721 240.967 312.501 240.721 313.621L240.136 318.58C240.12 318.644 240.104 318.705 240.084 318.769C239.652 320.063 232.68 337.227 220.886 339.834C220.817 339.85 220.745 339.862 220.676 339.882L195.983 347.343C195.579 347.464 195.224 347.719 194.978 348.062L184.354 361.868C184.14 362.167 183.85 362.397 183.507 362.531L163.038 370.731C162.311 371.022 161.831 371.729 161.831 372.513C161.831 373.58 162.699 374.441 163.76 374.433L163.768 374.429Z" fill="#4BAA43"/>
<path d="M236.214 318.955L223.06 332.85C222.851 333.072 223.113 333.42 223.383 333.278L225.385 332.612C227.511 331.5 231.998 328.19 233.422 326.258C235.657 323.227 236.682 319.275 236.658 319.02C236.573 318.85 236.347 318.818 236.214 318.955Z" fill="#4BAA43"/>
<path d="M232.317 278.342C231.175 277.122 229.75 276.225 228.54 275.93C224.695 274.992 220.022 274.487 215.205 280.889C214.232 282.182 213.453 283.608 212.868 285.116L208.87 295.414C208.753 295.717 209.895 296.844 209.883 297.172L208.624 328.772C208.539 330.934 210.726 332.45 212.715 331.609C212.864 331.549 213.014 331.496 213.171 331.46C213.603 331.355 214.632 331.072 216.036 330.506C218.973 311.644 215.673 289.711 232.313 278.334L232.317 278.342Z" fill="#369149"/>
<path d="M264.358 307.526C262.594 314.514 259.665 325.951 258.753 329.504C258.576 330.203 258.689 330.939 259.072 331.549L263.571 338.755C264.059 339.539 265.152 339.664 265.806 339.009L266.105 338.71C267.186 337.627 267.981 336.285 268.417 334.814L275.918 309.418C276.103 308.795 275.845 308.124 275.292 307.781L270.688 304.944C268.251 303.44 265.06 304.737 264.358 307.518V307.526Z" fill="#4BAA43"/>
<path d="M272.093 331.597L278.359 311.394C280.356 304.96 288.393 302.842 293.288 307.461L309.597 322.851C310.133 323.357 310.234 324.169 309.839 324.791L302.927 335.671C302.382 336.532 301.426 337.045 300.409 337.029L277.031 336.653L272.093 331.593" fill="#4BAA43"/>
<path d="M235.06 284.482L234.164 281.434C233.83 280.299 233.148 279.236 232.317 278.343C215.677 289.719 218.977 311.653 216.04 330.514C221.091 328.481 230.989 322.767 235.205 308.302C237.469 300.53 237.344 292.253 235.06 284.486V284.482Z" fill="#4BAA43"/>
<path d="M154.98 375.456C157.097 375.456 158.813 373.737 158.813 371.616C158.813 369.496 157.097 367.777 154.98 367.777C152.863 367.777 151.147 369.496 151.147 371.616C151.147 373.737 152.863 375.456 154.98 375.456Z" fill="#4BAA43"/>
<path d="M204.129 347.63L199.541 348.596C198.012 348.919 197.064 350.451 197.459 351.962C197.855 353.474 198.359 355.285 198.892 357.144C200.276 361.981 203.774 365.926 208.406 367.866L208.515 367.91C212.606 369.624 217.222 369.579 221.281 367.793L242.92 358.255C244.393 357.608 245.68 356.606 246.677 355.345L248.759 352.702C249.945 351.199 249.259 348.972 247.435 348.394L236.533 344.946C236.101 344.809 235.645 344.785 235.202 344.866L221.2 347.521C221.031 347.553 220.862 347.569 220.692 347.569H204.69C204.5 347.569 204.31 347.59 204.125 347.63H204.129Z" fill="#369149"/>
<path d="M285.234 311.353L286.896 309.967C287.74 309.264 288.954 309.223 289.838 309.874L301.918 318.705C302.725 319.295 303.08 320.321 302.814 321.283L301.696 325.309C301.422 326.295 300.555 326.998 299.53 327.059L298.852 327.099C296.056 327.265 293.364 326.012 291.686 323.769L284.847 314.635C284.084 313.612 284.25 312.174 285.23 311.357L285.234 311.353Z" fill="#369149"/>
<path d="M215.677 345.876L220.216 344.223L220.628 342.982L227.237 345.047L225.582 351.251L224.344 350.839L225.998 356.63L222.282 357.871L220.632 352.464L218.15 353.32L215.677 345.876Z" fill="#DBDBDB"/>
<path d="M273.035 311.689L267.517 309.958L265.789 315.485L271.307 317.216L273.035 311.689Z" fill="#DBDBDB"/>
<path d="M212.778 343.886L201.483 346.947L204.645 358.651L215.94 355.59L212.778 343.886Z" fill="#DBDBDB"/>
<path d="M243.604 333.304L235.587 330.556L229.97 346.998L237.987 349.746L243.604 333.304Z" fill="#DBDBDB"/>
<path d="M254.872 326.493L257.357 319.23L249.34 316.482L241.322 313.734L238.841 321L237.663 324.44L235.706 330.175L243.719 332.923L247.919 334.362L249.88 328.627L245.68 327.188L246.858 323.745L254.872 326.493Z" fill="#DBDBDB"/>
<path d="M257.073 340.052L243.329 335.341L238.888 348.342L252.631 353.053L257.073 340.052Z" fill="#DBDBDB"/>
<path d="M297.823 332.317L290.189 329.698L289.664 331.225L288.518 330.833L293.748 315.54L281.913 311.483L276.034 328.687L280.997 330.389L279.69 334.216L272.435 331.727L269.171 341.289L278.714 344.558L280.804 338.439L287.675 340.796L288.72 337.736L295.208 339.963L297.823 332.317Z" fill="#DBDBDB"/>
<path d="M233.745 301.25L235.783 290.532L229.044 289.246L227.007 299.964L227.176 299.997C225.715 303.917 217.541 325.891 217.448 326.735C222.935 328.821 228.169 322.552 229.884 317.84L235.544 302.377L231.078 300.744L233.745 301.254V301.25Z" fill="#DBDBDB"/>
<path d="M165.293 378.678L161.756 379.501L166.322 399.184L169.859 398.361L165.293 378.678Z" fill="#DBDBDB"/>
<path d="M151.947 380.39L150.34 380.539L151.868 397.038L153.475 396.889L151.947 380.39Z" fill="#DBDBDB"/>
<path opacity="0.3" d="M137.186 409L186.008 406.171L179.956 384.751L230.795 382.326L308.669 345.548L318.986 329.237L287.917 300.138L277.83 308.625L266.129 301.755L262.498 304.584L259.673 315.496L237.885 308.625L239.902 294.076L233.446 275.889L221.745 282.356L198.746 280.739L199.553 283.972L186.472 295.567L161.222 335.299L149.924 337.724L149.521 378.139L134.188 387.03L137.186 409Z" fill="#151515"/>
<path d="M197.378 342.923C197.192 342.923 197.007 342.899 196.825 342.859C196.224 342.713 195.716 342.337 195.393 341.808C195.377 341.78 195.361 341.751 195.344 341.723L175.509 340.11C175.085 340.515 174.516 340.753 173.907 340.753C173.588 340.753 173.282 340.688 172.987 340.563C172.414 340.317 171.974 339.86 171.748 339.282C171.518 338.704 171.531 338.074 171.777 337.504L171.829 337.382L168.109 327.962C167.931 327.509 167.972 327.004 168.226 326.588L186.657 296.143C186.742 296.006 186.847 295.88 186.968 295.775L197.225 286.892C198.116 286.12 199.129 285.522 200.239 285.114L200.529 285.009L201.72 283.736C202.159 283.267 202.777 283 203.414 283C204.007 283 204.568 283.222 205 283.626C205.214 283.829 205.383 284.063 205.504 284.318L212.65 284.803C213.074 284.398 213.647 284.16 214.248 284.16C214.599 284.16 214.95 284.241 215.265 284.394C215.846 284.677 216.257 285.17 216.451 285.736L218.38 286.532C220.082 287.235 220.909 289.139 220.26 290.869L215.551 303.402L215.604 330.75C215.604 331.155 215.446 331.547 215.164 331.833L209.007 338.167C208.825 338.352 208.595 338.494 208.345 338.571L199.605 341.226C199.323 342.228 198.415 342.923 197.37 342.923H197.378Z" fill="#004029"/>
<path d="M199.755 313.036H199.414V310.654C199.414 310.587 199.409 310.521 199.397 310.456C199.18 309.227 198.457 308.45 197.657 307.96C196.069 306.987 193.917 306.987 192.329 307.96C191.53 308.45 190.807 309.227 190.589 310.456C190.578 310.521 190.573 310.588 190.573 310.654V313.036H190.246C189.558 313.036 189 313.51 189 314.094V322.172C189 322.756 189.558 323.23 190.246 323.23H199.755C200.443 323.23 201 322.756 201 322.172V314.094C201 313.51 200.443 313.036 199.755 313.036ZM195.528 318.147V319.736H194.473V318.147C194.168 317.99 193.967 317.701 193.98 317.373C193.997 316.915 194.436 316.542 194.976 316.531C195.551 316.52 196.022 316.914 196.022 317.401C196.022 317.718 195.824 317.995 195.528 318.147ZM197.79 313.036H192.197V310.967C192.197 310.495 192.334 310.029 192.603 309.615C192.977 309.041 193.682 308.439 194.993 308.439C196.305 308.439 197.024 309.054 197.395 309.633C197.658 310.043 197.79 310.504 197.79 310.971V313.036Z" fill="#A6A6A6"/>
</svg>
