<svg width="347" height="409" viewBox="0 0 347 409" fill="none" xmlns="http://www.w3.org/2000/svg">
<path d="M163.768 374.429L207.95 374.102C213.724 374.057 219.425 372.776 224.658 370.335L251.353 357.9C251.393 357.879 251.434 357.863 251.474 357.847L280.021 346.878C280.558 346.672 280.973 346.24 281.151 345.694L281.481 344.704C281.812 343.714 281.288 342.639 280.303 342.287L270.664 338.86C269.99 338.622 269.24 338.775 268.715 339.264L265.225 342.53C264.341 343.358 262.921 343.164 262.288 342.134L255.465 331.068C255.194 330.631 255.114 330.106 255.235 329.609L257.861 318.754C258.095 317.788 257.555 316.806 256.619 316.486L243.755 312.089C242.674 311.721 240.967 312.501 240.721 313.621L240.136 318.58C240.12 318.644 240.104 318.705 240.084 318.77C239.652 320.063 232.68 337.227 220.886 339.834C220.817 339.85 220.744 339.862 220.676 339.882L195.982 347.343C195.579 347.464 195.224 347.719 194.978 348.062L184.354 361.868C184.14 362.167 183.849 362.398 183.506 362.531L163.037 370.731C162.311 371.022 161.831 371.73 161.831 372.514C161.831 373.581 162.699 374.441 163.76 374.433L163.768 374.429Z" fill="#4BAA43"/>
<path d="M236.214 318.955L223.06 332.85C222.851 333.072 223.113 333.42 223.383 333.278L225.385 332.612C227.511 331.5 231.998 328.19 233.422 326.258C235.657 323.227 236.682 319.275 236.658 319.02C236.573 318.85 236.347 318.818 236.214 318.955Z" fill="#4BAA43"/>
<path d="M232.316 278.342C231.174 277.122 229.75 276.225 228.54 275.93C224.694 274.992 220.022 274.487 215.204 280.889C214.232 282.182 213.453 283.608 212.868 285.116L208.87 295.414C208.753 295.717 209.894 296.844 209.882 297.172L208.623 328.772C208.539 330.934 210.726 332.45 212.715 331.609C212.864 331.549 213.013 331.496 213.171 331.46C213.603 331.355 214.631 331.072 216.036 330.506C218.973 311.644 215.672 289.711 232.312 278.334L232.316 278.342Z" fill="#369149"/>
<path d="M264.357 307.526C262.594 314.514 259.665 325.951 258.753 329.504C258.575 330.203 258.688 330.939 259.072 331.549L263.571 338.755C264.059 339.539 265.152 339.664 265.806 339.009L266.104 338.71C267.186 337.627 267.981 336.285 268.416 334.814L275.917 309.418C276.103 308.795 275.845 308.124 275.292 307.781L270.688 304.944C268.251 303.44 265.059 304.737 264.357 307.518V307.526Z" fill="#4BAA43"/>
<path d="M272.092 331.597L278.358 311.394C280.356 304.96 288.393 302.842 293.288 307.461L309.597 322.851C310.133 323.357 310.234 324.169 309.839 324.791L302.927 335.671C302.382 336.532 301.426 337.045 300.409 337.029L277.031 336.653L272.092 331.593" fill="#4BAA43"/>
<path d="M235.06 284.481L234.164 281.434C233.83 280.298 233.148 279.235 232.317 278.342C215.677 289.719 218.977 311.652 216.04 330.514C221.091 328.481 230.989 322.766 235.205 308.302C237.469 300.53 237.344 292.253 235.06 284.485V284.481Z" fill="#4BAA43"/>
<path d="M154.98 375.456C157.097 375.456 158.813 373.737 158.813 371.616C158.813 369.496 157.097 367.777 154.98 367.777C152.863 367.777 151.147 369.496 151.147 371.616C151.147 373.737 152.863 375.456 154.98 375.456Z" fill="#4BAA43"/>
<path d="M204.129 347.63L199.541 348.596C198.012 348.919 197.064 350.451 197.459 351.962C197.854 353.474 198.359 355.285 198.891 357.144C200.275 361.981 203.774 365.926 208.406 367.866L208.515 367.91C212.606 369.624 217.222 369.579 221.281 367.793L242.92 358.255C244.393 357.608 245.68 356.606 246.677 355.345L248.759 352.702C249.945 351.199 249.259 348.972 247.435 348.394L236.533 344.946C236.101 344.809 235.645 344.785 235.201 344.866L221.2 347.521C221.031 347.553 220.861 347.569 220.692 347.569H204.69C204.5 347.569 204.31 347.59 204.125 347.63H204.129Z" fill="#369149"/>
<path d="M285.234 311.353L286.896 309.967C287.74 309.264 288.954 309.223 289.838 309.874L301.918 318.705C302.725 319.295 303.08 320.321 302.814 321.283L301.696 325.309C301.422 326.295 300.554 326.998 299.529 327.059L298.852 327.099C296.055 327.265 293.364 326.012 291.686 323.769L284.847 314.635C284.084 313.612 284.249 312.174 285.23 311.357L285.234 311.353Z" fill="#369149"/>
<path d="M215.677 345.876L220.216 344.223L220.627 342.982L227.236 345.048L225.582 351.251L224.343 350.839L225.998 356.631L222.282 357.871L220.631 352.464L218.15 353.321L215.677 345.876Z" fill="#DBDBDB"/>
<path d="M273.035 311.689L267.517 309.958L265.789 315.485L271.307 317.216L273.035 311.689Z" fill="#DBDBDB"/>
<path d="M212.778 343.886L201.483 346.947L204.644 358.651L215.939 355.59L212.778 343.886Z" fill="#DBDBDB"/>
<path d="M243.604 333.303L235.587 330.556L229.97 346.998L237.986 349.746L243.604 333.303Z" fill="#DBDBDB"/>
<path d="M254.872 326.493L257.357 319.23L249.34 316.482L241.322 313.734L238.841 321L237.663 324.44L235.706 330.175L243.719 332.923L247.919 334.362L249.88 328.627L245.68 327.188L246.858 323.745L254.872 326.493Z" fill="#DBDBDB"/>
<path d="M257.073 340.052L243.329 335.341L238.888 348.342L252.631 353.053L257.073 340.052Z" fill="#DBDBDB"/>
<path d="M297.823 332.317L290.189 329.698L289.664 331.226L288.518 330.834L293.748 315.541L281.913 311.483L276.034 328.688L280.997 330.389L279.69 334.216L272.435 331.727L269.171 341.289L278.714 344.559L280.804 338.44L287.675 340.796L288.72 337.736L295.208 339.963L297.823 332.317Z" fill="#DBDBDB"/>
<path d="M233.745 301.25L235.782 290.532L229.044 289.247L227.006 299.965L227.176 299.997C225.715 303.917 217.541 325.891 217.448 326.736C222.935 328.821 228.168 322.553 229.883 317.84L235.544 302.377L231.078 300.745L233.745 301.254V301.25Z" fill="#DBDBDB"/>
<path d="M165.293 378.678L161.756 379.501L166.321 399.184L169.858 398.361L165.293 378.678Z" fill="#DBDBDB"/>
<path d="M151.947 380.39L150.34 380.539L151.868 397.038L153.475 396.889L151.947 380.39Z" fill="#DBDBDB"/>
<path d="M197.378 342.923C197.192 342.923 197.007 342.899 196.825 342.859C196.224 342.713 195.715 342.337 195.393 341.808C195.377 341.78 195.36 341.751 195.344 341.723L175.509 340.11C175.085 340.515 174.516 340.753 173.907 340.753C173.588 340.753 173.281 340.688 172.987 340.563C172.414 340.317 171.974 339.86 171.748 339.282C171.518 338.704 171.53 338.074 171.776 337.504L171.829 337.382L168.109 327.962C167.931 327.509 167.972 327.004 168.226 326.588L186.657 296.143C186.742 296.006 186.847 295.88 186.968 295.775L197.224 286.892C198.116 286.12 199.129 285.522 200.239 285.114L200.529 285.009L201.719 283.736C202.159 283.267 202.776 283 203.414 283C204.007 283 204.568 283.222 205 283.626C205.214 283.829 205.383 284.063 205.504 284.318L212.65 284.803C213.074 284.398 213.646 284.16 214.248 284.16C214.599 284.16 214.95 284.241 215.264 284.394C215.845 284.677 216.257 285.17 216.451 285.736L218.379 286.532C220.082 287.235 220.909 289.139 220.26 290.869L215.551 303.402L215.603 330.75C215.603 331.155 215.446 331.547 215.164 331.833L209.006 338.167C208.825 338.352 208.595 338.494 208.345 338.571L199.605 341.226C199.323 342.228 198.415 342.923 197.37 342.923H197.378Z" fill="white"/>
<path d="M173.911 338.425L169.549 327.388L187.981 296.943L198.237 288.06C198.984 287.413 199.843 286.904 200.771 286.564L203.12 285.704L191.382 298.556L173.907 338.421L173.911 338.425Z" fill="#4BAA43"/>
<path d="M173.911 338.425L197.265 340.321L205.198 315.506L194.763 314.936L173.911 338.425Z" fill="#A6A6A6"/>
<path d="M194.763 314.936L204.786 315.958L208.082 305.18L199.528 305.669L194.763 314.936Z" fill="#F0F0F0"/>
<path d="M203.124 285.704L214.135 286.455L208.006 306.606L199.117 306.121L203.124 285.704Z" fill="#DBDBDB"/>
<path d="M214.135 286.456L207.102 301.793L197.265 340.321L207.905 337.087L214.062 330.754L214.01 303.123L218.815 290.323C219.166 289.39 218.714 288.347 217.794 287.967L214.135 286.456Z" fill="#4BAA43"/>
<path d="M191.197 298.394L173.911 338.425L194.763 314.936L199.888 306.166L203.124 285.704L191.197 298.394Z" fill="#C6E5F4"/>
<path d="M173.911 339.197C173.81 339.197 173.705 339.177 173.604 339.132C173.213 338.963 173.031 338.506 173.201 338.114L190.539 297.962L202.853 284.79C203.148 284.479 203.636 284.463 203.947 284.754C204.257 285.045 204.274 285.538 203.983 285.849L191.854 298.822L174.621 338.724C174.496 339.015 174.21 339.193 173.911 339.193V339.197Z" fill="#F0F0F0"/>
<path d="M205.318 327.428L203.019 336.885L207.868 335.095V328.54L205.318 327.428Z" fill="#369149"/>
<path d="M208.498 320.081L209.269 328.224L212.626 325.468L210.83 320.262L208.498 320.081Z" fill="#369149"/>
<path d="M177.421 325.04L173.939 332.44L171.712 328.705L175.166 324.421L177.421 325.04Z" fill="#369149"/>
<path d="M185.031 305.677L183.098 308.389L184.256 310.329L186.58 305.289L185.031 305.677Z" fill="#369149"/>
<path d="M189.288 299.085L188.13 299.473L186.968 301.801L187.743 302.573L189.288 299.085Z" fill="#369149"/>
<path d="M186.581 302.961L185.806 304.125H186.968L187.355 302.961H186.581Z" fill="#369149"/>
<path d="M210.907 300.633L209.357 302.961L210.132 305.673L211.682 305.285L210.907 303.345L212.069 301.021L210.907 300.633Z" fill="#369149"/>
<path d="M197.378 341.371C197.317 341.371 197.257 341.363 197.192 341.347C196.777 341.246 196.523 340.826 196.623 340.409L206.166 301.336L213.558 286.14C213.743 285.756 214.207 285.594 214.591 285.784C214.974 285.97 215.135 286.435 214.946 286.819L207.627 301.865L198.124 340.777C198.04 341.133 197.721 341.367 197.374 341.367L197.378 341.371Z" fill="#F0F0F0"/>
</svg>
