<svg width="44" height="52" viewBox="0 0 44 52" fill="none" xmlns="http://www.w3.org/2000/svg">
<path d="M42.9554 46.6309L38.3072 37.2344C38.166 36.9434 37.936 36.7049 37.6576 36.5473L37.4559 36.4341C37.8715 36.1674 38.2588 35.84 38.5977 35.448C38.6139 35.4278 38.63 35.4116 38.6462 35.3914C38.7955 35.3429 38.9407 35.2863 39.0819 35.2217C40.127 34.769 41.055 34.0739 41.8458 33.1605C42.556 32.3441 42.9595 31.2691 42.9837 30.1334L43.0321 28.0157C43.0603 26.7426 42.5923 25.5302 41.7692 24.6976L42.2897 23.2184C42.677 22.1151 42.7416 20.8824 42.4712 19.7549L42.326 19.1527C42.1404 18.3686 41.749 17.6614 41.2123 17.1279C41.2123 17.1279 41.0429 14.7272 41.0429 14.707C40.8896 13.2278 40.7201 12.2538 39.6831 11.2313L39.4854 11.0373C38.856 10.415 38.1943 10.1118 37.468 10.1118C36.6449 10.1118 35.9953 10.5119 35.3456 10.908C35.273 10.9525 35.1963 11.001 35.1237 11.0495L33.7236 9.66727C33.421 9.3682 33.0135 9.20248 32.5898 9.20248C32.5373 9.20248 32.4849 9.20249 32.4324 9.21057L32.1823 9.23482C32.0854 8.98829 31.9281 8.76602 31.7183 8.59224L25.9201 3.7101C25.7426 3.56056 25.5328 3.45145 25.3109 3.39083L13.2224 0.056587C13.0811 0.0161719 12.9359 0 12.7947 0C12.4073 0 12.0321 0.137407 11.7335 0.400105L5.79818 5.59343C5.42293 5.92079 5.22118 6.40174 5.24942 6.89885L0.653699 10.3018C0.238106 10.6089 -0.00398523 11.0939 4.96497e-05 11.6112L0.104948 27.8257C0.104948 28.3915 0.407569 28.9129 0.891755 29.2039L4.54736 31.3863C4.4021 32.3845 4.39403 33.3303 4.46666 33.9244C4.63612 35.3429 5.97168 37.6142 7.61387 38.6085C8.81223 39.3319 10.0025 39.6997 11.1605 39.6997C11.8868 39.6997 12.5889 39.5542 13.2506 39.2632C13.7146 39.0611 14.1585 38.8105 14.5821 38.5074C15.0259 38.657 15.4698 38.7337 15.9136 38.7337C16.4261 38.7337 16.9224 38.6287 17.3904 38.4266C18.0844 38.1235 18.7017 37.6668 19.2263 37.0606C19.7387 36.4705 20.0292 35.6986 20.0494 34.8862V34.6437L22.6317 34.3245C22.5187 34.4255 22.4179 34.5346 22.3372 34.6639C22.0749 35.0802 22.0184 35.5935 22.1798 36.0542L23.5154 39.8856L23.8785 50.2601C23.8946 50.7289 24.1125 51.1654 24.4757 51.4604C24.7662 51.6948 25.1253 51.8201 25.4884 51.8201C25.5812 51.8201 25.678 51.812 25.7708 51.7959L41.7853 48.9345C42.2856 48.8456 42.7133 48.5263 42.9433 48.0696C43.1733 47.6129 43.1733 47.0795 42.9474 46.6228L42.9554 46.6309Z" fill="#F244C5"/>
<path d="M18.8671 20.1597C18.8671 20.7517 18.7591 21.3037 18.5431 21.8157C18.3271 22.3277 18.0191 22.7717 17.6191 23.1477C17.2271 23.5237 16.7551 23.8197 16.2031 24.0357C15.6591 24.2517 15.0591 24.3597 14.4031 24.3597H11.1271V15.9597H14.4031C15.0591 15.9597 15.6591 16.0677 16.2031 16.2837C16.7551 16.4917 17.2271 16.7837 17.6191 17.1597C18.0191 17.5357 18.3271 17.9797 18.5431 18.4917C18.7591 18.9957 18.8671 19.5437 18.8671 20.1357V20.1597ZM16.9351 20.1837V20.1597C16.9351 19.7917 16.8711 19.4517 16.7431 19.1397C16.6231 18.8277 16.4511 18.5597 16.2271 18.3357C16.0111 18.1117 15.7471 17.9397 15.4351 17.8197C15.1231 17.6917 14.7791 17.6277 14.4031 17.6277H12.9751V22.6917H14.4031C14.7791 22.6917 15.1231 22.6317 15.4351 22.5117C15.7471 22.3917 16.0111 22.2197 16.2271 21.9957C16.4511 21.7717 16.6231 21.5077 16.7431 21.2037C16.8711 20.8997 16.9351 20.5597 16.9351 20.1837ZM23.8019 21.5157H20.1059V19.7637H23.8019V21.5157ZM28.1123 17.4957C27.7843 17.4957 27.4923 17.5877 27.2363 17.7717C26.9883 17.9557 26.7083 18.2397 26.3963 18.6237L25.1003 17.5797C25.3083 17.2997 25.5163 17.0517 25.7243 16.8357C25.9403 16.6197 26.1683 16.4397 26.4083 16.2957C26.6563 16.1437 26.9283 16.0317 27.2243 15.9597C27.5203 15.8797 27.8563 15.8397 28.2323 15.8397C28.6803 15.8397 29.0803 15.9037 29.4323 16.0317C29.7923 16.1517 30.0963 16.3277 30.3443 16.5597C30.6003 16.7837 30.7923 17.0557 30.9203 17.3757C31.0563 17.6957 31.1243 18.0517 31.1243 18.4437C31.1243 18.7957 31.0763 19.1117 30.9803 19.3917C30.8923 19.6637 30.7563 19.9237 30.5723 20.1717C30.3963 20.4197 30.1683 20.6677 29.8883 20.9157C29.6083 21.1557 29.2843 21.4197 28.9163 21.7077L27.5483 22.7637H31.2083V24.3597H24.9923V22.8957L27.7883 20.6037C28.0523 20.3877 28.2763 20.1957 28.4603 20.0277C28.6443 19.8517 28.7923 19.6877 28.9043 19.5357C29.0243 19.3757 29.1083 19.2237 29.1563 19.0797C29.2123 18.9277 29.2403 18.7637 29.2403 18.5877C29.2403 18.2277 29.1363 17.9557 28.9283 17.7717C28.7203 17.5877 28.4483 17.4957 28.1123 17.4957Z" fill="white"/>
</svg>
