<svg width="347" height="409" viewBox="0 0 347 409" fill="none" xmlns="http://www.w3.org/2000/svg">
<path d="M68.484 301.763C67.5438 300.93 66.1236 300.971 65.2359 301.856L17.0513 349.639C13.1294 353.543 15.8287 360.247 21.3565 360.332L76.703 361.193C80.8025 361.258 84.0344 357.722 83.6108 353.636L79.5073 314.122C79.2854 312.004 78.1798 310.076 76.4609 308.823L68.488 301.763H68.484Z" fill="#4BAA43"/>
<path d="M52.3567 287.82L28.208 312.376C27.5301 313.063 27.5261 314.166 28.1959 314.861L36.2253 323.215C36.9153 323.935 38.0612 323.943 38.7673 323.235L63.1541 298.708C63.8441 298.016 63.8441 296.893 63.1581 296.198L54.8907 287.82C54.1926 287.112 53.0548 287.112 52.3608 287.82H52.3567Z" fill="#4BAA43"/>
<path d="M57.1179 282.917L74.9279 265.078C75.5775 264.427 76.6266 264.419 77.2843 265.058L99.4923 286.575C100.162 287.226 100.178 288.297 99.5245 288.963L81.7105 307.162C81.0609 307.825 79.9957 307.837 79.334 307.182L57.13 285.306C56.4643 284.651 56.4602 283.576 57.122 282.917H57.1179Z" fill="#4BAA43"/>
<path d="M81.1898 312.319L84.3855 341.855C84.4863 342.792 85.3094 343.483 86.2455 343.423L103.071 342.323C103.107 342.323 103.148 342.323 103.184 342.323H106.049C107.082 342.323 107.893 341.434 107.8 340.408L105.266 312.121C105.197 311.341 104.616 310.699 103.85 310.549L85.3458 306.985C84.6114 306.843 83.8529 307.078 83.3203 307.607L82.598 308.33C81.5489 309.381 81.0325 310.848 81.1939 312.327L81.1898 312.319Z" fill="#4BAA43"/>
<path d="M85.2652 348.98L86.8428 364.164C86.9599 365.291 87.904 366.152 89.0378 366.16L143.763 366.536C144.977 366.544 145.978 365.57 145.998 364.354L146.317 348.167C146.341 346.939 145.365 345.92 144.134 345.896L103.454 345.157C102.47 345.14 101.485 345.177 100.505 345.27L87.2625 346.535C86.0318 346.652 85.1361 347.751 85.2612 348.98H85.2652Z" fill="#4BAA43"/>
<path d="M197.778 284.53L160.25 311.806C158.523 313.063 156.122 312.792 154.718 311.184L150.057 305.849C149.202 304.871 148.75 303.606 148.794 302.304L149.033 295.094C149.089 293.356 150.227 291.841 151.873 291.299L173.335 284.251C173.605 284.162 173.883 284.101 174.166 284.069L196.632 281.567C198.303 281.382 199.138 283.54 197.774 284.526L197.778 284.53Z" fill="#4BAA43"/>
<path d="M153.745 329.69C154.342 331.969 157.28 332.777 158.825 331.003C158.89 330.93 158.95 330.854 159.007 330.773L180.222 301.472C180.803 300.668 179.811 299.669 179.008 300.251L153.463 318.77C153.386 318.826 153.289 318.919 153.176 319.036C152.083 320.204 151.7 321.869 152.103 323.417L153.745 329.69Z" fill="#4BAA43"/>
<path d="M122.245 305.239L108.127 311.042C107.32 311.374 106.824 312.198 106.912 313.071L107.8 321.946C107.901 322.957 108.752 323.729 109.765 323.729H119.856C120.893 323.729 121.753 324.533 121.829 325.567L122.624 336.722C122.786 338.985 124.625 340.763 126.893 340.84L143.396 341.402C144.893 341.455 145.901 339.882 145.232 338.537C144.905 337.882 144.243 337.462 143.513 337.441L134.45 337.219C130.847 337.13 127.861 334.39 127.462 330.797L127.143 327.94C126.768 324.557 128.136 321.219 130.771 319.073L132.522 317.646C132.828 317.396 133.208 317.242 133.603 317.21L151.558 315.241L142.282 303.489C141.871 303.157 141.342 303.004 140.817 303.06L122.782 305.105C122.6 305.126 122.422 305.17 122.253 305.243L122.245 305.239Z" fill="#4BAA43"/>
<path d="M131.808 327.58L132.336 331.302C132.485 332.353 133.304 333.202 134.382 333.424L140.652 334.636L143.065 323.922L134.583 324.347C132.853 324.432 131.569 325.927 131.803 327.576L131.808 327.58Z" fill="#4BAA43"/>
<path d="M86.2134 372.716L88.3196 379.049C88.7231 380.265 89.8973 381.053 91.1763 380.964L145.671 377.226C146.434 377.173 146.785 376.272 146.281 375.698C145.308 374.587 144.509 372.869 145.885 370.796C146.285 370.194 145.845 369.389 145.123 369.381C136.323 369.325 100.812 369.094 88.8926 369.018C86.968 369.006 85.6042 370.893 86.2134 372.72V372.716Z" fill="#4BAA43"/>
<path d="M90.1313 351.009L90.1435 362.705L99.7788 362.992L99.7666 351.291L90.1313 351.009Z" fill="#DBDBDB"/>
<path d="M100.259 354.573L100.331 362.503L111.766 362.111L111.407 350.879L108.486 350.883L108.546 354.218L100.259 354.573Z" fill="#DBDBDB"/>
<path d="M120.106 348.588L119.792 352.015C119.792 352.015 116.891 352.831 116.064 354.868L116.031 356.153C116.031 356.153 116.794 357.713 119.279 359.342V362.196L137.029 363.056L137.194 358.534L138.437 357.718L138.574 355.883L137.61 354.864V349.57L120.106 348.584V348.588Z" fill="#DBDBDB"/>
<path d="M78.4396 299.707L74.1599 295.421L71.595 297.99L75.8746 302.276L78.4396 299.707Z" fill="#DBDBDB"/>
<path d="M64.0537 286.975L67.9474 283.172L71.2681 286.337L68.3428 289.254L73.2855 294.141L89.2354 278.084L80.5685 269.576L77.8046 272.07L74.9842 271.771L68.1572 274.345L63.513 280.468L62.3994 283.798L64.0537 286.975Z" fill="#DBDBDB"/>
<path d="M58.5462 300.906L62.3551 297.293L59.5832 294.359L54.0352 288.487L50.2263 292.1L49.3467 292.932L41.1397 300.708L40.2601 301.541L36.4512 305.154L41.9991 311.026L44.7711 313.96L48.58 310.351L45.8081 307.413L46.6877 306.58L49.4596 309.515L57.6666 301.739L54.8946 298.8L55.7742 297.968L58.5462 300.906Z" fill="#DBDBDB"/>
<path d="M98.4806 287.749L90.4919 279.747L75.3705 294.893L83.3592 302.895L98.4806 287.749Z" fill="#DBDBDB"/>
<path d="M93.7868 299.609L94.5938 304.863L88.5414 305.671L88.1379 303.246L91.7693 299.609H93.7868Z" fill="#DBDBDB"/>
<path d="M104.499 311.533L98.8674 311.981L100.017 326.485L105.648 326.037L104.499 311.533Z" fill="#DBDBDB"/>
<path d="M105.709 326.889L100.078 327.336L100.913 337.864L106.544 337.416L105.709 326.889Z" fill="#DBDBDB"/>
<path d="M163.685 315.788L155.135 323.204L158.305 326.87L166.854 319.455L163.685 315.788Z" fill="#DBDBDB"/>
<path d="M168.239 288.943L168.864 289.978L161.282 294.585L160.657 293.551L156.106 296.315L160.919 304.261L165.471 301.496L164.426 299.77L172.007 295.159L173.052 296.889L177.604 294.124L172.786 286.175L168.239 288.943Z" fill="#DBDBDB"/>
<path d="M91.7572 310.246L92.3988 316.68L85.9752 317.323L85.3337 310.889L82.5254 311.168L83.1629 317.606L83.7238 323.236L86.5361 322.953L92.9596 322.314L95.7679 322.031L95.2111 316.401L94.5695 309.967L91.7572 310.246Z" fill="#DBDBDB"/>
<path d="M93.3753 325.163L94.0128 331.597L87.5892 332.24L87.0163 327.006L84.208 327.285L84.781 332.519L85.3378 338.149L88.1501 337.87L94.5736 337.227L97.3859 336.948L96.8251 331.318L96.1835 324.88L93.3753 325.163Z" fill="#DBDBDB"/>
<path d="M39.0706 310.433L35.3616 306.718L29.9949 312.093L33.7039 315.809L39.0706 310.433Z" fill="#DBDBDB"/>
<path d="M118.4 316.583H109.523V322.645H118.4V316.583Z" fill="#DBDBDB"/>
<path d="M37.8997 331.072L41.5311 334.709L58.3565 318.361L70.6548 329.245L70.8647 333.719L78.9344 332.911L78.7206 315.043L67.322 304.725L63.6341 304.847L37.8997 331.072Z" fill="#DBDBDB"/>
<path opacity="0.3" d="M69.2265 255.682L16.773 311.859L0.22998 361.569L69.2265 370.46L76.4893 387.435L134.188 387.03L149.521 378.139L149.924 337.724L161.222 335.299L186.161 295.935L199.553 283.972L198.746 280.739L173.326 283.568L147.907 291.651L143.468 288.014L126.522 283.164L112.4 295.288V307.817L105.944 311.05L96.2602 309.029L95.421 295.038L102.716 287.61L69.2265 255.682Z" fill="#151515"/>
<path d="M157.955 330.631L153.307 321.234C153.166 320.943 152.936 320.705 152.658 320.547L152.456 320.434C152.871 320.167 153.259 319.84 153.598 319.448C153.614 319.428 153.63 319.412 153.646 319.391C153.795 319.343 153.941 319.286 154.082 319.222C155.127 318.769 156.055 318.074 156.846 317.161C157.556 316.344 157.959 315.269 157.984 314.133L158.032 312.016C158.06 310.743 157.592 309.53 156.769 308.698L157.29 307.218C157.677 306.115 157.742 304.882 157.471 303.755L157.326 303.153C157.14 302.369 156.749 301.661 156.212 301.128C156.212 301.128 156.043 298.727 156.043 298.707C155.89 297.228 155.72 296.254 154.683 295.231L154.485 295.037C153.856 294.415 153.194 294.112 152.468 294.112C151.645 294.112 150.995 294.512 150.346 294.908C150.273 294.952 150.196 295.001 150.124 295.049L148.724 293.667C148.421 293.368 148.013 293.202 147.59 293.202C147.537 293.202 147.485 293.202 147.432 293.211L147.182 293.235C147.085 292.988 146.928 292.766 146.718 292.592L140.92 287.71C140.743 287.561 140.533 287.451 140.311 287.391L128.222 284.057C128.081 284.016 127.936 284 127.795 284C127.407 284 127.032 284.137 126.733 284.4L120.798 289.593C120.423 289.921 120.221 290.402 120.249 290.899L115.654 294.302C115.238 294.609 114.996 295.094 115 295.611L115.105 311.826C115.105 312.392 115.408 312.913 115.892 313.204L119.547 315.386C119.402 316.385 119.394 317.33 119.467 317.924C119.636 319.343 120.972 321.614 122.614 322.608C123.812 323.332 125.003 323.7 126.161 323.7C126.887 323.7 127.589 323.554 128.251 323.263C128.715 323.061 129.158 322.811 129.582 322.507C130.026 322.657 130.47 322.734 130.914 322.734C131.426 322.734 131.922 322.629 132.39 322.427C133.084 322.123 133.702 321.667 134.226 321.061C134.739 320.471 135.029 319.699 135.049 318.886V318.644L137.632 318.324C137.519 318.426 137.418 318.535 137.337 318.664C137.075 319.08 137.018 319.593 137.18 320.054L138.515 323.886L138.878 334.26C138.895 334.729 139.113 335.165 139.476 335.46C139.766 335.695 140.125 335.82 140.488 335.82C140.581 335.82 140.678 335.812 140.771 335.796L156.785 332.934C157.286 332.846 157.713 332.526 157.943 332.07C158.173 331.613 158.173 331.079 157.947 330.623L157.955 330.631Z" fill="#004029"/>
<path d="M140.755 301.346H140.414V298.963C140.414 298.897 140.409 298.831 140.397 298.765C140.18 297.537 139.456 296.76 138.657 296.27C137.069 295.296 134.917 295.296 133.329 296.27C132.53 296.76 131.806 297.537 131.589 298.765C131.577 298.831 131.572 298.897 131.572 298.963V301.346H131.245C130.558 301.346 130 301.82 130 302.404V310.482C130 311.066 130.558 311.54 131.245 311.54H140.755C141.442 311.54 142 311.066 142 310.482V302.404C142 301.82 141.442 301.346 140.755 301.346ZM136.527 306.457V308.045H135.473V306.457C135.168 306.3 134.967 306.011 134.979 305.683C134.996 305.224 135.436 304.852 135.975 304.841C136.551 304.829 137.021 305.223 137.021 305.711C137.021 306.027 136.823 306.304 136.527 306.457ZM138.79 301.346H133.196V299.277C133.196 298.804 133.334 298.338 133.603 297.925C133.977 297.351 134.682 296.749 135.993 296.749C137.305 296.749 138.024 297.364 138.395 297.943C138.657 298.353 138.79 298.814 138.79 299.281V301.346Z" fill="#A6A6A6"/>
</svg>
