<svg width="347" height="409" viewBox="0 0 347 409" fill="none" xmlns="http://www.w3.org/2000/svg">
<path d="M68.484 301.763C67.5438 300.93 66.1236 300.971 65.2359 301.856L17.0513 349.638C13.1294 353.542 15.8287 360.247 21.3565 360.332L76.703 361.193C80.8025 361.258 84.0344 357.721 83.6108 353.635L79.5073 314.122C79.2854 312.004 78.1798 310.076 76.4609 308.823L68.488 301.763H68.484Z" fill="#4BAA43"/>
<path d="M52.3565 287.82L28.2077 312.376C27.5299 313.063 27.5258 314.166 28.1956 314.861L36.225 323.215C36.915 323.934 38.0609 323.942 38.767 323.235L63.1539 298.707C63.8438 298.016 63.8438 296.893 63.1579 296.198L54.8904 287.82C54.1924 287.112 53.0545 287.112 52.3605 287.82H52.3565Z" fill="#4BAA43"/>
<path d="M57.1177 282.917L74.9276 265.078C75.5773 264.427 76.6263 264.419 77.284 265.058L99.492 286.575C100.162 287.226 100.178 288.297 99.5243 288.963L81.7103 307.162C81.0607 307.825 79.9955 307.837 79.3337 307.182L57.1298 285.306C56.464 284.651 56.46 283.576 57.1217 282.917H57.1177Z" fill="#4BAA43"/>
<path d="M81.1898 312.319L84.3855 341.854C84.4863 342.792 85.3094 343.483 86.2455 343.422L103.071 342.323C103.107 342.323 103.148 342.323 103.184 342.323H106.049C107.082 342.323 107.893 341.434 107.8 340.408L105.266 312.121C105.197 311.341 104.616 310.698 103.85 310.549L85.3458 306.984C84.6114 306.843 83.8529 307.077 83.3203 307.607L82.598 308.33C81.5489 309.381 81.0325 310.848 81.1939 312.327L81.1898 312.319Z" fill="#4BAA43"/>
<path d="M85.265 348.98L86.8426 364.164C86.9596 365.291 87.9038 366.152 89.0376 366.16L143.763 366.536C144.977 366.544 145.978 365.57 145.998 364.354L146.317 348.167C146.341 346.939 145.365 345.92 144.134 345.896L103.454 345.157C102.47 345.14 101.485 345.177 100.505 345.27L87.2622 346.535C86.0316 346.652 85.1358 347.751 85.2609 348.98H85.265Z" fill="#4BAA43"/>
<path d="M197.778 284.53L160.249 311.806C158.522 313.063 156.122 312.792 154.717 311.184L150.057 305.849C149.202 304.871 148.75 303.606 148.794 302.304L149.032 295.094C149.089 293.356 150.227 291.841 151.873 291.299L173.334 284.251C173.605 284.162 173.883 284.101 174.166 284.069L196.632 281.567C198.302 281.382 199.137 283.54 197.774 284.526L197.778 284.53Z" fill="#4BAA43"/>
<path d="M153.745 329.689C154.342 331.969 157.28 332.777 158.825 331.003C158.889 330.93 158.95 330.853 159.006 330.773L180.222 301.472C180.803 300.667 179.81 299.669 179.007 300.251L153.463 318.769C153.386 318.826 153.289 318.919 153.176 319.036C152.083 320.204 151.699 321.869 152.103 323.417L153.745 329.689Z" fill="#4BAA43"/>
<path d="M122.245 305.239L108.127 311.042C107.32 311.374 106.824 312.198 106.912 313.071L107.8 321.946C107.901 322.957 108.752 323.729 109.765 323.729H119.856C120.893 323.729 121.753 324.533 121.829 325.567L122.624 336.722C122.786 338.985 124.625 340.763 126.893 340.84L143.396 341.402C144.893 341.455 145.901 339.882 145.232 338.537C144.905 337.882 144.243 337.462 143.513 337.441L134.45 337.219C130.847 337.13 127.861 334.39 127.462 330.797L127.143 327.94C126.768 324.557 128.136 321.219 130.771 319.073L132.522 317.646C132.828 317.396 133.208 317.242 133.603 317.21L151.558 315.241L142.282 303.489C141.871 303.157 141.342 303.004 140.817 303.06L122.782 305.105C122.6 305.126 122.422 305.17 122.253 305.243L122.245 305.239Z" fill="#4BAA43"/>
<path d="M131.808 327.58L132.336 331.302C132.485 332.353 133.304 333.202 134.382 333.424L140.652 334.636L143.065 323.922L134.583 324.347C132.853 324.432 131.569 325.927 131.803 327.576L131.808 327.58Z" fill="#4BAA43"/>
<path d="M86.2132 372.716L88.3194 379.049C88.7229 380.265 89.897 381.053 91.1761 380.964L145.671 377.226C146.434 377.173 146.785 376.272 146.281 375.698C145.308 374.587 144.509 372.869 145.885 370.796C146.285 370.194 145.845 369.389 145.123 369.381C136.322 369.325 100.811 369.094 88.8924 369.018C86.9677 369.006 85.6039 370.893 86.2132 372.72V372.716Z" fill="#4BAA43"/>
<path d="M90.1311 351.008L90.1432 362.704L99.7785 362.991L99.7664 351.291L90.1311 351.008Z" fill="#DBDBDB"/>
<path d="M100.259 354.573L100.331 362.503L111.766 362.111L111.407 350.879L108.486 350.883L108.546 354.218L100.259 354.573Z" fill="#DBDBDB"/>
<path d="M120.106 348.588L119.792 352.015C119.792 352.015 116.89 352.831 116.063 354.868L116.031 356.153C116.031 356.153 116.794 357.713 119.279 359.342V362.195L137.029 363.056L137.194 358.534L138.437 357.717L138.574 355.882L137.61 354.864V349.57L120.106 348.583V348.588Z" fill="#DBDBDB"/>
<path d="M78.4393 299.707L74.1597 295.42L71.5947 297.99L75.8744 302.276L78.4393 299.707Z" fill="#DBDBDB"/>
<path d="M64.0537 286.975L67.9474 283.172L71.2681 286.336L68.3428 289.254L73.2855 294.14L89.2354 278.084L80.5685 269.576L77.8046 272.07L74.9842 271.771L68.1572 274.345L63.513 280.468L62.3994 283.798L64.0537 286.975Z" fill="#DBDBDB"/>
<path d="M58.546 300.906L62.3549 297.293L59.5829 294.359L54.035 288.486L50.226 292.099L49.3464 292.932L41.1395 300.708L40.2599 301.54L36.4509 305.153L41.9989 311.026L44.7709 313.96L48.5798 310.351L45.8078 307.413L46.6874 306.58L49.4594 309.514L57.6663 301.738L54.8944 298.8L55.774 297.968L58.546 300.906Z" fill="#DBDBDB"/>
<path d="M98.4806 287.748L90.4919 279.747L75.3705 294.893L83.3592 302.895L98.4806 287.748Z" fill="#DBDBDB"/>
<path d="M93.7868 299.609L94.5938 304.863L88.5414 305.671L88.1379 303.246L91.7693 299.609H93.7868Z" fill="#DBDBDB"/>
<path d="M104.498 311.533L98.8672 311.981L100.017 326.485L105.648 326.037L104.498 311.533Z" fill="#DBDBDB"/>
<path d="M105.709 326.889L100.078 327.336L100.912 337.864L106.544 337.416L105.709 326.889Z" fill="#DBDBDB"/>
<path d="M163.685 315.788L155.135 323.204L158.304 326.87L166.854 319.455L163.685 315.788Z" fill="#DBDBDB"/>
<path d="M168.238 288.943L168.864 289.978L161.282 294.585L160.657 293.551L156.105 296.315L160.919 304.261L165.47 301.496L164.425 299.77L172.007 295.159L173.052 296.889L177.603 294.124L172.786 286.175L168.238 288.943Z" fill="#DBDBDB"/>
<path d="M91.7572 310.246L92.3988 316.68L85.9752 317.323L85.3337 310.889L82.5254 311.168L83.1629 317.606L83.7238 323.236L86.5361 322.953L92.9596 322.314L95.7679 322.031L95.2111 316.401L94.5695 309.967L91.7572 310.246Z" fill="#DBDBDB"/>
<path d="M93.3753 325.163L94.0128 331.597L87.5892 332.24L87.0163 327.006L84.208 327.285L84.781 332.519L85.3378 338.149L88.1501 337.87L94.5736 337.227L97.3859 336.948L96.8251 331.318L96.1835 324.88L93.3753 325.163Z" fill="#DBDBDB"/>
<path d="M39.0703 310.433L35.3613 306.718L29.9947 312.093L33.7037 315.808L39.0703 310.433Z" fill="#DBDBDB"/>
<path d="M118.399 316.583H109.523V322.645H118.399V316.583Z" fill="#DBDBDB"/>
<path d="M37.8997 331.072L41.5311 334.709L58.3565 318.361L70.6548 329.245L70.8647 333.719L78.9344 332.911L78.7206 315.043L67.322 304.725L63.6341 304.846L37.8997 331.072Z" fill="#DBDBDB"/>
<path d="M157.955 330.631L153.307 321.234C153.166 320.943 152.936 320.705 152.658 320.547L152.456 320.434C152.871 320.167 153.259 319.84 153.598 319.448C153.614 319.428 153.63 319.412 153.646 319.391C153.795 319.343 153.941 319.286 154.082 319.222C155.127 318.769 156.055 318.074 156.846 317.161C157.556 316.344 157.959 315.269 157.984 314.133L158.032 312.016C158.06 310.743 157.592 309.53 156.769 308.698L157.29 307.218C157.677 306.115 157.742 304.882 157.471 303.755L157.326 303.153C157.14 302.369 156.749 301.661 156.212 301.128C156.212 301.128 156.043 298.727 156.043 298.707C155.89 297.228 155.72 296.254 154.683 295.231L154.485 295.037C153.856 294.415 153.194 294.112 152.468 294.112C151.645 294.112 150.995 294.512 150.346 294.908C150.273 294.952 150.196 295.001 150.124 295.049L148.724 293.667C148.421 293.368 148.013 293.202 147.59 293.202C147.537 293.202 147.485 293.202 147.432 293.211L147.182 293.235C147.085 292.988 146.928 292.766 146.718 292.592L140.92 287.71C140.743 287.561 140.533 287.451 140.311 287.391L128.222 284.057C128.081 284.016 127.936 284 127.795 284C127.407 284 127.032 284.137 126.733 284.4L120.798 289.593C120.423 289.921 120.221 290.402 120.249 290.899L115.654 294.302C115.238 294.609 114.996 295.094 115 295.611L115.105 311.826C115.105 312.392 115.408 312.913 115.892 313.204L119.547 315.386C119.402 316.385 119.394 317.33 119.467 317.924C119.636 319.343 120.972 321.614 122.614 322.608C123.812 323.332 125.003 323.7 126.161 323.7C126.887 323.7 127.589 323.554 128.251 323.263C128.715 323.061 129.158 322.811 129.582 322.507C130.026 322.657 130.47 322.734 130.914 322.734C131.426 322.734 131.922 322.629 132.39 322.427C133.084 322.123 133.702 321.667 134.226 321.061C134.739 320.471 135.029 319.699 135.049 318.886V318.644L137.632 318.324C137.519 318.426 137.418 318.535 137.337 318.664C137.075 319.08 137.018 319.593 137.18 320.054L138.515 323.886L138.878 334.26C138.895 334.729 139.113 335.165 139.476 335.46C139.766 335.695 140.125 335.82 140.488 335.82C140.581 335.82 140.678 335.812 140.771 335.796L156.785 332.934C157.286 332.846 157.713 332.526 157.943 332.07C158.173 331.613 158.173 331.079 157.947 330.623L157.955 330.631Z" fill="white"/>
<path d="M122.049 290.576L122.101 291.445L116.8 295.369L127.347 300.906L148.332 300.445L144.624 294.904L140.069 288.717L122.049 290.576Z" fill="#0D725F"/>
<path d="M140.069 288.717L127.984 285.382L122.049 290.576L135.614 295.773L140.069 288.717Z" fill="#13D3BC"/>
<path d="M151.197 297.964L127.347 300.906L129.094 296.44L147.779 294.589L151.197 297.964Z" fill="#13D3BC"/>
<path d="M116.8 295.369L116.908 311.583L127.347 317.815V300.905L116.8 295.369Z" fill="#A6A6A6"/>
<path d="M151.173 314.817L127.347 317.759V300.906L151.173 297.968V314.817Z" fill="#DBDBDB"/>
<path d="M151.173 306.737L127.347 309.68V307.372L151.173 304.43V306.737Z" fill="#F0F0F0"/>
<path d="M145.867 315.528L134.271 316.842V294.912L140.069 288.717L145.867 293.599V315.528Z" fill="#F0F0F0"/>
<path d="M140.17 290.382L144.656 294.161V299.083L135.481 300.126V295.389L140.17 290.378M140.069 288.708L134.271 294.908V301.48L145.867 300.166V293.595L140.069 288.713V288.708Z" fill="#0D725F"/>
<path d="M141.122 292.71L140.299 292.803V291.74L139.903 291.784V292.847L139.08 292.944V293.405L139.903 293.312V294.743L140.299 294.698V293.267L141.122 293.174V292.71Z" fill="#A6A6A6"/>
<path d="M151.173 300.275L127.347 303.218V300.906L151.173 297.968V300.275Z" fill="#F0F0F0"/>
<path d="M144.015 315.738L136.127 316.631V300.841C136.127 298.501 137.757 296.42 139.766 296.193L140.375 296.125C142.385 295.898 144.015 297.608 144.015 299.948V315.738Z" fill="#DBDBDB"/>
<path d="M143.167 315.835L136.974 316.538V300.987C136.974 298.994 138.362 297.224 140.073 297.03C141.783 296.836 143.171 298.295 143.171 300.287V315.839L143.167 315.835Z" fill="#8EC7ED"/>
<path d="M138.693 319.331L140.105 323.393L151.847 321.756L146.085 318.486L138.693 319.331Z" fill="#F0F0F0"/>
<path d="M140.105 323.393L140.48 334.014L156.491 331.152L151.846 321.756L140.105 323.393Z" fill="#DBDBDB"/>
<path d="M129.985 319.909C130.445 319.379 130.712 318.656 130.732 317.908L130.78 315.79C130.801 314.873 130.445 314.016 129.824 313.499L129.643 313.345C129.409 313.151 129.324 312.783 129.437 312.456L130.127 310.492C130.413 309.676 130.462 308.774 130.264 307.938L130.119 307.336C129.977 306.75 129.671 306.244 129.247 305.909C129.066 305.767 128.965 305.517 128.981 305.254L128.799 302.68C128.654 301.294 128.525 300.792 127.916 300.19L127.718 299.996C126.947 299.232 126.475 299.531 125.555 300.097C124.643 300.655 123.695 301.835 123.719 303.039L123.865 304.89C123.869 305.121 123.788 305.343 123.639 305.497C123.005 306.147 122.594 307.053 122.477 308.027L122.364 308.993C122.279 309.7 122.327 310.419 122.501 311.094L122.634 311.615C122.694 311.85 122.654 312.113 122.521 312.311L122.464 312.396C121.238 313.871 121.153 316.655 121.254 317.496C121.367 318.454 122.46 320.28 123.631 320.988C124.926 321.772 126.394 322.156 127.791 321.545C128.593 321.194 129.344 320.64 129.981 319.909H129.985Z" fill="#4BAA43"/>
<path d="M155.809 315.867C156.269 315.338 156.535 314.614 156.555 313.867L156.604 311.749C156.624 310.831 156.269 309.975 155.647 309.457L155.466 309.304C155.232 309.11 155.147 308.742 155.26 308.415L155.95 306.45C156.236 305.634 156.285 304.733 156.087 303.896L155.942 303.294C155.801 302.708 155.494 302.203 155.07 301.867C154.889 301.726 154.788 301.475 154.804 301.213L154.622 298.638C154.477 297.252 154.348 296.751 153.739 296.149L153.541 295.955C152.77 295.191 152.298 295.49 151.378 296.056C150.467 296.613 149.518 297.794 149.543 298.998L149.688 300.849C149.692 301.079 149.611 301.302 149.462 301.455C148.828 302.106 148.417 303.011 148.3 303.985L148.187 304.951C148.102 305.658 148.151 306.378 148.324 307.053L148.457 307.574C148.518 307.808 148.477 308.071 148.344 308.269L148.288 308.354C147.061 309.829 146.976 312.614 147.077 313.454C147.19 314.412 148.284 316.239 149.454 316.946C150.749 317.73 152.218 318.114 153.614 317.504C154.417 317.152 155.167 316.599 155.805 315.867H155.809Z" fill="#4BAA43"/>
<path d="M133.189 319.767C133.451 319.464 133.609 319.048 133.617 318.616L133.645 317.399C133.657 316.87 133.451 316.381 133.096 316.082L132.991 315.993C132.858 315.879 132.81 315.669 132.874 315.483L133.27 314.356C133.435 313.887 133.464 313.37 133.347 312.889L133.262 312.541C133.181 312.206 133.004 311.915 132.761 311.721C132.657 311.64 132.6 311.494 132.608 311.345L132.503 309.866C132.419 309.07 132.346 308.783 131.995 308.435L131.882 308.322C131.438 307.885 131.168 308.055 130.639 308.378C130.115 308.702 129.57 309.377 129.586 310.072L129.671 311.135C129.671 311.268 129.626 311.393 129.542 311.482C129.179 311.858 128.94 312.375 128.876 312.937L128.811 313.495C128.763 313.903 128.791 314.315 128.892 314.703L128.969 315.002C129.005 315.14 128.981 315.289 128.904 315.403L128.872 315.451C128.166 316.3 128.117 317.9 128.178 318.385C128.242 318.935 128.872 319.986 129.546 320.394C130.292 320.842 131.135 321.065 131.938 320.713C132.402 320.511 132.83 320.192 133.197 319.771L133.189 319.767Z" fill="#369149"/>
<path d="M152.557 318.151C152.819 317.848 152.976 317.431 152.984 316.999L153.013 315.782C153.025 315.253 152.819 314.764 152.464 314.465L152.359 314.376C152.226 314.263 152.177 314.053 152.242 313.867L152.637 312.739C152.803 312.27 152.831 311.753 152.714 311.272L152.629 310.924C152.549 310.589 152.371 310.298 152.129 310.104C152.024 310.023 151.968 309.878 151.976 309.728L151.871 308.249C151.786 307.453 151.713 307.166 151.362 306.818L151.249 306.705C150.805 306.269 150.535 306.438 150.007 306.762C149.482 307.085 148.937 307.76 148.953 308.455L149.038 309.518C149.038 309.651 148.994 309.777 148.909 309.866C148.546 310.241 148.308 310.759 148.243 311.321L148.179 311.878C148.13 312.286 148.159 312.699 148.259 313.087L148.336 313.386C148.372 313.523 148.348 313.673 148.272 313.786L148.239 313.834C147.533 314.683 147.485 316.284 147.545 316.768C147.61 317.318 148.239 318.369 148.913 318.777C149.66 319.226 150.503 319.448 151.306 319.096C151.77 318.894 152.198 318.575 152.565 318.155L152.557 318.151Z" fill="#369149"/>
</svg>
