<svg width="347" height="409" viewBox="0 0 347 409" fill="none" xmlns="http://www.w3.org/2000/svg">
<path d="M68.484 301.763C67.5438 300.93 66.1236 300.971 65.2359 301.856L17.0513 349.638C13.1294 353.543 15.8287 360.247 21.3565 360.332L76.703 361.193C80.8025 361.258 84.0344 357.721 83.6108 353.635L79.5073 314.122C79.2854 312.004 78.1798 310.076 76.4609 308.823L68.488 301.763H68.484Z" fill="#4BAA43"/>
<path d="M52.3565 287.82L28.2077 312.376C27.5299 313.063 27.5258 314.166 28.1956 314.861L36.225 323.215C36.915 323.934 38.0609 323.943 38.767 323.235L63.1539 298.707C63.8438 298.016 63.8438 296.893 63.1579 296.198L54.8904 287.82C54.1924 287.112 53.0545 287.112 52.3605 287.82H52.3565Z" fill="#4BAA43"/>
<path d="M57.1177 282.917L74.9276 265.078C75.5773 264.427 76.6263 264.419 77.284 265.058L99.492 286.575C100.162 287.226 100.178 288.297 99.5243 288.963L81.7103 307.162C81.0607 307.825 79.9955 307.837 79.3337 307.182L57.1298 285.306C56.464 284.651 56.46 283.576 57.1217 282.917H57.1177Z" fill="#4BAA43"/>
<path d="M81.1898 312.319L84.3855 341.855C84.4863 342.792 85.3094 343.483 86.2455 343.423L103.071 342.323C103.107 342.323 103.148 342.323 103.184 342.323H106.049C107.082 342.323 107.893 341.434 107.8 340.408L105.266 312.121C105.197 311.341 104.616 310.699 103.85 310.549L85.3458 306.984C84.6114 306.843 83.8529 307.077 83.3203 307.607L82.598 308.33C81.5489 309.381 81.0325 310.848 81.1939 312.327L81.1898 312.319Z" fill="#4BAA43"/>
<path d="M85.265 348.98L86.8426 364.164C86.9596 365.291 87.9038 366.152 89.0376 366.16L143.763 366.536C144.977 366.544 145.978 365.57 145.998 364.354L146.317 348.167C146.341 346.939 145.365 345.92 144.134 345.896L103.454 345.156C102.47 345.14 101.485 345.177 100.505 345.27L87.2622 346.535C86.0316 346.652 85.1358 347.751 85.2609 348.98H85.265Z" fill="#4BAA43"/>
<path d="M197.778 284.53L160.249 311.806C158.522 313.063 156.122 312.792 154.717 311.184L150.057 305.849C149.202 304.871 148.75 303.606 148.794 302.304L149.032 295.094C149.089 293.356 150.227 291.841 151.873 291.299L173.334 284.251C173.605 284.162 173.883 284.101 174.166 284.069L196.632 281.567C198.302 281.382 199.137 283.54 197.774 284.526L197.778 284.53Z" fill="#4BAA43"/>
<path d="M153.745 329.69C154.342 331.969 157.28 332.777 158.825 331.003C158.889 330.93 158.95 330.854 159.006 330.773L180.222 301.472C180.803 300.668 179.81 299.669 179.007 300.251L153.463 318.769C153.386 318.826 153.289 318.919 153.176 319.036C152.083 320.204 151.699 321.869 152.103 323.417L153.745 329.69Z" fill="#4BAA43"/>
<path d="M122.245 305.238L108.127 311.042C107.32 311.373 106.824 312.198 106.912 313.071L107.8 321.946C107.901 322.956 108.752 323.728 109.765 323.728H119.856C120.893 323.728 121.753 324.533 121.829 325.567L122.624 336.722C122.786 338.985 124.625 340.763 126.893 340.84L143.396 341.402C144.893 341.454 145.901 339.882 145.232 338.536C144.905 337.882 144.243 337.461 143.513 337.441L134.45 337.219C130.847 337.13 127.861 334.39 127.462 330.797L127.143 327.94C126.768 324.557 128.136 321.219 130.771 319.073L132.522 317.646C132.828 317.395 133.208 317.242 133.603 317.209L151.558 315.241L142.282 303.488C141.871 303.157 141.342 303.004 140.817 303.06L122.782 305.105C122.6 305.125 122.422 305.17 122.253 305.243L122.245 305.238Z" fill="#4BAA43"/>
<path d="M131.808 327.58L132.336 331.302C132.485 332.353 133.304 333.202 134.382 333.424L140.652 334.636L143.065 323.922L134.583 324.347C132.853 324.432 131.569 325.927 131.803 327.576L131.808 327.58Z" fill="#4BAA43"/>
<path d="M86.2132 372.715L88.3194 379.048C88.7229 380.265 89.897 381.053 91.1761 380.964L145.671 377.226C146.434 377.173 146.785 376.272 146.281 375.698C145.308 374.587 144.509 372.869 145.885 370.796C146.285 370.193 145.845 369.389 145.123 369.381C136.322 369.325 100.811 369.094 88.8924 369.017C86.9677 369.005 85.6039 370.893 86.2132 372.719V372.715Z" fill="#4BAA43"/>
<path d="M90.1311 351.009L90.1432 362.705L99.7785 362.992L99.7664 351.291L90.1311 351.009Z" fill="#DBDBDB"/>
<path d="M100.259 354.573L100.331 362.503L111.766 362.11L111.407 350.879L108.486 350.883L108.546 354.217L100.259 354.573Z" fill="#DBDBDB"/>
<path d="M120.106 348.588L119.792 352.015C119.792 352.015 116.89 352.831 116.063 354.868L116.031 356.153C116.031 356.153 116.794 357.713 119.279 359.342V362.195L137.029 363.056L137.194 358.534L138.437 357.717L138.574 355.883L137.61 354.864V349.57L120.106 348.584V348.588Z" fill="#DBDBDB"/>
<path d="M78.4393 299.707L74.1597 295.421L71.5947 297.99L75.8744 302.276L78.4393 299.707Z" fill="#DBDBDB"/>
<path d="M64.0537 286.975L67.9474 283.172L71.2681 286.336L68.3428 289.254L73.2855 294.141L89.2354 278.084L80.5685 269.576L77.8046 272.07L74.9842 271.771L68.1572 274.345L63.513 280.468L62.3994 283.798L64.0537 286.975Z" fill="#DBDBDB"/>
<path d="M58.546 300.906L62.3549 297.293L59.5829 294.359L54.035 288.486L50.226 292.1L49.3464 292.932L41.1395 300.708L40.2599 301.54L36.4509 305.154L41.9989 311.026L44.7709 313.96L48.5798 310.351L45.8078 307.413L46.6874 306.58L49.4594 309.514L57.6663 301.739L54.8944 298.8L55.774 297.968L58.546 300.906Z" fill="#DBDBDB"/>
<path d="M98.4806 287.748L90.4919 279.747L75.3705 294.893L83.3592 302.895L98.4806 287.748Z" fill="#DBDBDB"/>
<path d="M93.7868 299.609L94.5938 304.863L88.5414 305.671L88.1379 303.246L91.7693 299.609H93.7868Z" fill="#DBDBDB"/>
<path d="M104.498 311.533L98.8672 311.981L100.017 326.485L105.648 326.037L104.498 311.533Z" fill="#DBDBDB"/>
<path d="M105.709 326.888L100.078 327.336L100.912 337.863L106.544 337.416L105.709 326.888Z" fill="#DBDBDB"/>
<path d="M163.685 315.788L155.135 323.204L158.304 326.87L166.854 319.455L163.685 315.788Z" fill="#DBDBDB"/>
<path d="M168.238 288.943L168.864 289.978L161.282 294.585L160.657 293.55L156.105 296.315L160.919 304.26L165.47 301.496L164.425 299.77L172.007 295.159L173.052 296.889L177.603 294.124L172.786 286.175L168.238 288.943Z" fill="#DBDBDB"/>
<path d="M91.7572 310.246L92.3988 316.68L85.9752 317.323L85.3337 310.888L82.5254 311.167L83.1629 317.605L83.7238 323.235L86.5361 322.952L92.9596 322.314L95.7679 322.031L95.2111 316.401L94.5695 309.967L91.7572 310.246Z" fill="#DBDBDB"/>
<path d="M93.3753 325.163L94.0128 331.597L87.5892 332.24L87.0163 327.006L84.208 327.285L84.781 332.519L85.3378 338.148L88.1501 337.87L94.5736 337.227L97.3859 336.948L96.8251 331.318L96.1835 324.88L93.3753 325.163Z" fill="#DBDBDB"/>
<path d="M39.0703 310.433L35.3613 306.718L29.9947 312.093L33.7037 315.809L39.0703 310.433Z" fill="#DBDBDB"/>
<path d="M118.399 316.583H109.523V322.645H118.399V316.583Z" fill="#DBDBDB"/>
<path d="M37.8997 331.072L41.5311 334.709L58.3565 318.361L70.6548 329.245L70.8647 333.719L78.9344 332.911L78.7206 315.043L67.322 304.725L63.6341 304.846L37.8997 331.072Z" fill="#DBDBDB"/>
<path d="M157.955 330.631L153.307 321.234C153.166 320.943 152.936 320.705 152.658 320.547L152.456 320.434C152.871 320.167 153.259 319.84 153.598 319.448C153.614 319.428 153.63 319.412 153.646 319.391C153.795 319.343 153.941 319.286 154.082 319.222C155.127 318.769 156.055 318.074 156.846 317.161C157.556 316.344 157.959 315.269 157.984 314.133L158.032 312.016C158.06 310.743 157.592 309.53 156.769 308.698L157.29 307.218C157.677 306.115 157.742 304.882 157.471 303.755L157.326 303.153C157.14 302.369 156.749 301.661 156.212 301.128C156.212 301.128 156.043 298.727 156.043 298.707C155.89 297.228 155.72 296.254 154.683 295.231L154.485 295.037C153.856 294.415 153.194 294.112 152.468 294.112C151.645 294.112 150.995 294.512 150.346 294.908C150.273 294.952 150.196 295.001 150.124 295.049L148.724 293.667C148.421 293.368 148.013 293.202 147.59 293.202C147.537 293.202 147.485 293.202 147.432 293.211L147.182 293.235C147.085 292.988 146.928 292.766 146.718 292.592L140.92 287.71C140.743 287.561 140.533 287.451 140.311 287.391L128.222 284.057C128.081 284.016 127.936 284 127.795 284C127.407 284 127.032 284.137 126.733 284.4L120.798 289.593C120.423 289.921 120.221 290.402 120.249 290.899L115.654 294.302C115.238 294.609 114.996 295.094 115 295.611L115.105 311.826C115.105 312.392 115.408 312.913 115.892 313.204L119.547 315.386C119.402 316.385 119.394 317.33 119.467 317.924C119.636 319.343 120.972 321.614 122.614 322.608C123.812 323.332 125.003 323.7 126.161 323.7C126.887 323.7 127.589 323.554 128.251 323.263C128.715 323.061 129.158 322.811 129.582 322.507C130.026 322.657 130.47 322.734 130.914 322.734C131.426 322.734 131.922 322.629 132.39 322.427C133.084 322.123 133.702 321.667 134.226 321.061C134.739 320.471 135.029 319.699 135.049 318.886V318.644L137.632 318.324C137.519 318.426 137.418 318.535 137.337 318.664C137.075 319.08 137.018 319.593 137.18 320.054L138.515 323.886L138.878 334.26C138.895 334.729 139.113 335.165 139.476 335.46C139.766 335.695 140.125 335.82 140.488 335.82C140.581 335.82 140.678 335.812 140.771 335.796L156.785 332.934C157.286 332.846 157.713 332.526 157.943 332.07C158.173 331.613 158.173 331.079 157.947 330.623L157.955 330.631Z" fill="#F244C5"/>
<path d="M133.867 304.16C133.867 304.752 133.759 305.304 133.543 305.816C133.327 306.328 133.019 306.772 132.619 307.148C132.227 307.524 131.755 307.82 131.203 308.036C130.659 308.252 130.059 308.36 129.403 308.36H126.127V299.96H129.403C130.059 299.96 130.659 300.068 131.203 300.284C131.755 300.492 132.227 300.784 132.619 301.16C133.019 301.536 133.327 301.98 133.543 302.492C133.759 302.996 133.867 303.544 133.867 304.136V304.16ZM131.935 304.184V304.16C131.935 303.792 131.871 303.452 131.743 303.14C131.623 302.828 131.451 302.56 131.227 302.336C131.011 302.112 130.747 301.94 130.435 301.82C130.123 301.692 129.779 301.628 129.403 301.628H127.975V306.692H129.403C129.779 306.692 130.123 306.632 130.435 306.512C130.747 306.392 131.011 306.22 131.227 305.996C131.451 305.772 131.623 305.508 131.743 305.204C131.871 304.9 131.935 304.56 131.935 304.184ZM138.802 305.516H135.106V303.764H138.802V305.516ZM143.112 301.496C142.784 301.496 142.492 301.588 142.236 301.772C141.988 301.956 141.708 302.24 141.396 302.624L140.1 301.58C140.308 301.3 140.516 301.052 140.724 300.836C140.94 300.62 141.168 300.44 141.408 300.296C141.656 300.144 141.928 300.032 142.224 299.96C142.52 299.88 142.856 299.84 143.232 299.84C143.68 299.84 144.08 299.904 144.432 300.032C144.792 300.152 145.096 300.328 145.344 300.56C145.6 300.784 145.792 301.056 145.92 301.376C146.056 301.696 146.124 302.052 146.124 302.444C146.124 302.796 146.076 303.112 145.98 303.392C145.892 303.664 145.756 303.924 145.572 304.172C145.396 304.42 145.168 304.668 144.888 304.916C144.608 305.156 144.284 305.42 143.916 305.708L142.548 306.764H146.208V308.36H139.992V306.896L142.788 304.604C143.052 304.388 143.276 304.196 143.46 304.028C143.644 303.852 143.792 303.688 143.904 303.536C144.024 303.376 144.108 303.224 144.156 303.08C144.212 302.928 144.24 302.764 144.24 302.588C144.24 302.228 144.136 301.956 143.928 301.772C143.72 301.588 143.448 301.496 143.112 301.496Z" fill="white"/>
</svg>
