<svg width="39" height="32" viewBox="0 0 39 32" fill="none" xmlns="http://www.w3.org/2000/svg">
<path d="M32.4333 31.1277C32.3728 31.1277 32.3083 31.1277 32.2477 31.1155L4.9114 27.951L1.48175 27.6722C1.04195 27.6358 0.638458 27.4216 0.360051 27.0781C0.0816438 26.7345 -0.043444 26.294 0.0130443 25.8575L2.62361 5.20546C2.5752 5.1125 2.53888 5.01551 2.5066 4.91043L2.28469 4.13447C2.16364 3.71416 2.22013 3.2615 2.43801 2.88564C2.6559 2.50574 3.01903 2.23091 3.4427 2.12583L6.95708 1.23672C7.08619 1.20439 7.21935 1.1882 7.3525 1.1882C7.61073 1.1882 7.86897 1.25288 8.10299 1.37412L20.0987 7.69504L23.9843 7.36767L24.0287 2.6472L23.9843 2.3845C23.839 1.50345 24.4362 0.670913 25.3158 0.52946L28.4227 0.0202272C28.5114 0.00406124 28.5962 0 28.6849 0C29.1409 0 29.5766 0.193999 29.8873 0.537527L30.8799 1.64894L35.9033 4.90234L36.9887 5.0721C37.4164 5.13677 37.7997 5.37522 38.0539 5.72683C38.3081 6.07844 38.409 6.51896 38.3364 6.94332L38.1992 7.73949C38.1588 7.97389 38.0701 8.18405 37.949 8.36996L38.639 23.6549C38.6551 24.0429 38.5341 24.4268 38.292 24.734L33.7003 30.5255C33.3937 30.9135 32.9256 31.1357 32.4374 31.1357L32.4333 31.1277Z" fill="#F244C5"/>
<path d="M16.8786 18.5285C16.8786 19.1205 16.7706 19.6725 16.5546 20.1845C16.3386 20.6965 16.0306 21.1405 15.6306 21.5165C15.2386 21.8925 14.7666 22.1885 14.2146 22.4045C13.6706 22.6205 13.0706 22.7285 12.4146 22.7285H9.13862V14.3285H12.4146C13.0706 14.3285 13.6706 14.4365 14.2146 14.6525C14.7666 14.8605 15.2386 15.1525 15.6306 15.5285C16.0306 15.9045 16.3386 16.3485 16.5546 16.8605C16.7706 17.3645 16.8786 17.9125 16.8786 18.5045V18.5285ZM14.9466 18.5525V18.5285C14.9466 18.1605 14.8826 17.8205 14.7546 17.5085C14.6346 17.1965 14.4626 16.9285 14.2386 16.7045C14.0226 16.4805 13.7586 16.3085 13.4466 16.1885C13.1346 16.0605 12.7906 15.9965 12.4146 15.9965H10.9866V21.0605H12.4146C12.7906 21.0605 13.1346 21.0005 13.4466 20.8805C13.7586 20.7605 14.0226 20.5885 14.2386 20.3645C14.4626 20.1405 14.6346 19.8765 14.7546 19.5725C14.8826 19.2685 14.9466 18.9285 14.9466 18.5525ZM21.8133 19.8845H18.1173V18.1325H21.8133V19.8845ZM26.6638 15.9125H23.3638V14.3285H29.0398V15.7205L26.9158 17.7485C27.2038 17.7965 27.4838 17.8725 27.7558 17.9765C28.0278 18.0805 28.2678 18.2285 28.4758 18.4205C28.6838 18.6045 28.8518 18.8365 28.9798 19.1165C29.1078 19.3885 29.1718 19.7205 29.1718 20.1125C29.1718 20.5125 29.0998 20.8805 28.9558 21.2165C28.8198 21.5525 28.6198 21.8445 28.3558 22.0925C28.0998 22.3405 27.7838 22.5325 27.4078 22.6685C27.0318 22.8045 26.6118 22.8725 26.1478 22.8725C25.3878 22.8725 24.7398 22.7405 24.2038 22.4765C23.6758 22.2045 23.2318 21.8525 22.8718 21.4205L24.1438 20.2085C24.4318 20.5365 24.7318 20.7885 25.0438 20.9645C25.3638 21.1325 25.7398 21.2165 26.1718 21.2165C26.5238 21.2165 26.8078 21.1245 27.0238 20.9405C27.2478 20.7565 27.3598 20.5045 27.3598 20.1845C27.3598 19.8325 27.2158 19.5645 26.9278 19.3805C26.6478 19.1965 26.2438 19.1045 25.7158 19.1045H24.9478L24.6598 17.9285L26.6638 15.9125Z" fill="white"/>
</svg>
