<svg width="347" height="409" viewBox="0 0 347 409" fill="none" xmlns="http://www.w3.org/2000/svg">
<path d="M78.5915 261.016L121.692 218.233C122.148 217.78 122.874 217.756 123.354 218.18L140.567 233.174C140.874 233.441 141.027 233.845 140.979 234.249L139.091 249.753C139.058 250.023 138.933 250.278 138.739 250.472L137.38 251.834C137.15 252.064 136.839 252.194 136.516 252.194H133.539C133.187 252.194 132.853 252.343 132.623 252.61L103.579 285.577C103.115 286.102 102.304 286.134 101.804 285.641L78.5915 262.766C78.1073 262.285 78.1032 261.501 78.5915 261.02V261.016Z" fill="#4BAA43"/>
<path d="M118.287 275.226L120.966 270.376L123.911 267.527C125.005 266.468 126.244 265.587 127.579 264.912L136.359 260.487C137.404 259.816 138.756 260.499 138.913 261.78L142.254 288.571C142.343 289.299 142.004 290.01 141.395 290.366L127.341 298.574C125.396 299.71 123.318 300.562 121.156 301.116L116.879 302.207C114.684 302.769 112.372 302.001 110.871 300.219L107.99 296.796C107.51 296.226 107.425 295.393 107.784 294.726L118.287 275.226Z" fill="#4BAA43"/>
<path d="M154.169 289.291L168.65 284.299C171.071 283.463 173.577 282.897 176.119 282.61L198.21 280.117C199.84 279.931 201.171 278.726 201.514 277.118C201.885 275.38 201.014 273.614 199.408 272.858L194.239 270.417C191.358 269.055 188.26 268.206 185.084 267.911L175.949 267.058C174.004 266.877 172.511 265.256 172.483 263.304L171.922 247.574C171.902 246.047 170.974 244.677 169.566 244.095L148.266 236.23C145.821 235.215 143.113 236.937 142.988 239.588L142.932 261.558C142.92 261.821 142.932 262.083 142.976 262.342L146.583 284.744C147.156 288.288 150.775 290.463 154.169 289.295V289.291Z" fill="#4BAA43"/>
<path d="M133.783 264.368L129.218 268.94L132.071 271.798L136.636 267.226L133.783 264.368Z" fill="#DBDBDB"/>
<path d="M127.954 211.738L141.286 197.221C142.714 195.665 145.135 195.584 146.668 197.035L171.757 220.827C173.286 222.278 174.186 224.275 174.259 226.38L174.319 228.118C174.452 231.994 171.801 235.409 168.021 236.238L167.71 236.306C163.748 237.175 159.62 236.856 155.839 235.393L146.083 231.618C144.626 231.056 143.283 230.244 142.105 229.218L128.257 217.158C126.651 215.759 126.514 213.306 127.954 211.738Z" fill="#4BAA43"/>
<path d="M159.487 226.861L155.819 230.535C154.919 231.436 155.182 232.96 156.332 233.51L159.031 234.791C160.649 235.559 162.553 235.437 164.058 234.468L165.418 233.591C166.387 232.968 166.552 231.614 165.765 230.774L162.13 226.906C161.416 226.146 160.221 226.13 159.487 226.865V226.861Z" fill="#369149"/>
<path d="M104.29 239.098L87.4407 257.62L101.16 270.141L118.009 251.62L104.29 239.098Z" fill="#369149"/>
<path d="M103.563 310.068L106.868 307.17L107.695 307.999L137.009 277.809L127.515 268.299L123.585 272.126L121.971 270.51L99.4358 293.526V297.556L101.09 299.314L99.8514 300.554L102.325 303.036L99.4358 305.921L103.563 310.068Z" fill="#DBDBDB"/>
<path d="M132.19 228.071L126.408 222.761L123.338 226.116L129.119 231.425L132.19 228.071Z" fill="#DBDBDB"/>
<path d="M133.535 217.704L131.332 215.238L129.792 216.618L131.996 219.084L133.535 217.704Z" fill="#DBDBDB"/>
<path d="M171.45 225.071L158.999 212.397L157.453 213.872L149.634 205.91L151.474 204.144L146.26 198.842L131.251 213.634L131.832 214.224L136.464 218.94L136.948 219.506L140.184 216.317L139.704 215.747L145.708 209.823L153.527 217.784L154.395 218.665L160.185 224.562L158.805 226.162L167.492 235.005L174.21 227.71L171.45 225.071Z" fill="#DBDBDB"/>
<path d="M126.441 245.388L110.701 231.554L108.05 234.597L123.79 248.435L104.427 270.663L111.113 276.511L130.476 254.279L133.131 251.232L126.441 245.388Z" fill="#DBDBDB"/>
<path d="M132.639 238.82L126.254 233.241L123.336 236.591L129.722 242.17L132.639 238.82Z" fill="#DBDBDB"/>
<path d="M120.025 234.391L116.072 230.937L114.215 233.069L118.168 236.522L120.025 234.391Z" fill="#DBDBDB"/>
<path opacity="0.3" d="M69.2266 255.682L102.716 287.609L95.421 295.038L96.2603 309.029L105.944 311.05L112.4 307.817V295.288L126.522 283.164L143.468 288.014L147.907 291.651L173.327 283.568L198.746 280.739L202.378 279.122V272.656L189.87 266.594L175.344 265.785V243.557L180.993 239.92L182.607 225.37L134.995 185.359L69.2266 255.682Z" fill="#151515"/>
<path d="M167.433 261.128C167.373 261.128 167.308 261.128 167.248 261.116L139.911 257.951L136.482 257.672C136.042 257.636 135.638 257.422 135.36 257.078C135.082 256.735 134.957 256.294 135.013 255.858L137.624 235.205C137.575 235.113 137.539 235.016 137.507 234.91L137.285 234.134C137.164 233.714 137.22 233.261 137.438 232.886C137.656 232.506 138.019 232.231 138.443 232.126L141.957 231.237C142.086 231.204 142.219 231.188 142.352 231.188C142.611 231.188 142.869 231.253 143.103 231.374L155.099 237.695L158.984 237.368L159.029 232.647L158.984 232.384C158.839 231.503 159.436 230.671 160.316 230.529L163.423 230.02C163.511 230.004 163.596 230 163.685 230C164.141 230 164.577 230.194 164.887 230.538L165.88 231.649L170.903 234.902L171.989 235.072C172.416 235.137 172.8 235.375 173.054 235.727C173.308 236.078 173.409 236.519 173.336 236.943L173.199 237.739C173.159 237.974 173.07 238.184 172.949 238.37L173.639 253.655C173.655 254.043 173.534 254.427 173.292 254.734L168.7 260.525C168.394 260.913 167.926 261.136 167.437 261.136L167.433 261.128Z" fill="#004029"/>
<path d="M158.754 245.399H158.414V243.017C158.414 242.95 158.408 242.884 158.397 242.818C158.18 241.59 157.456 240.813 156.657 240.323C155.069 239.349 152.917 239.349 151.329 240.323C150.53 240.813 149.806 241.59 149.589 242.818C149.577 242.884 149.572 242.95 149.572 243.017V245.399H149.245C148.557 245.399 148 245.873 148 246.457V254.535C148 255.119 148.557 255.593 149.245 255.593H158.754C159.442 255.593 160 255.119 160 254.535V246.457C160 245.873 159.442 245.399 158.754 245.399ZM154.527 250.51V252.098H153.472V250.51C153.168 250.353 152.967 250.064 152.979 249.736C152.996 249.277 153.435 248.905 153.975 248.894C154.551 248.882 155.021 249.276 155.021 249.764C155.021 250.081 154.823 250.357 154.527 250.51ZM156.79 245.399H151.196V243.33C151.196 242.858 151.333 242.392 151.603 241.978C151.976 241.404 152.681 240.802 153.993 240.802C155.304 240.802 156.024 241.417 156.395 241.996C156.657 242.406 156.79 242.867 156.79 243.334V245.399Z" fill="#A6A6A6"/>
</svg>
