<svg width="347" height="409" viewBox="0 0 347 409" fill="none" xmlns="http://www.w3.org/2000/svg">
<path d="M78.5915 261.017L121.692 218.233C122.148 217.781 122.874 217.756 123.354 218.181L140.567 233.175C140.874 233.441 141.027 233.846 140.979 234.25L139.091 249.753C139.058 250.024 138.933 250.278 138.739 250.472L137.38 251.834C137.15 252.065 136.839 252.194 136.516 252.194H133.539C133.187 252.194 132.853 252.343 132.623 252.61L103.579 285.577C103.115 286.102 102.304 286.135 101.804 285.641L78.5915 262.767C78.1073 262.286 78.1032 261.502 78.5915 261.021V261.017Z" fill="#4BAA43"/>
<path d="M118.287 275.226L120.966 270.376L123.911 267.527C125.005 266.468 126.243 265.587 127.579 264.912L136.359 260.487C137.404 259.816 138.755 260.499 138.913 261.78L142.254 288.571C142.343 289.299 142.004 290.01 141.394 290.366L127.341 298.574C125.396 299.71 123.318 300.562 121.155 301.116L116.878 302.207C114.683 302.769 112.371 302.001 110.87 300.219L107.99 296.796C107.509 296.226 107.425 295.393 107.784 294.726L118.287 275.226Z" fill="#4BAA43"/>
<path d="M154.169 289.291L168.65 284.299C171.071 283.463 173.577 282.897 176.119 282.61L198.21 280.117C199.84 279.931 201.171 278.726 201.514 277.118C201.885 275.38 201.014 273.614 199.408 272.858L194.239 270.417C191.358 269.055 188.26 268.206 185.084 267.911L175.949 267.058C174.004 266.877 172.511 265.256 172.483 263.304L171.922 247.574C171.902 246.047 170.974 244.677 169.566 244.095L148.266 236.23C145.821 235.215 143.113 236.937 142.988 239.588L142.932 261.558C142.92 261.821 142.932 262.083 142.976 262.342L146.583 284.744C147.156 288.288 150.775 290.463 154.169 289.295V289.291Z" fill="#4BAA43"/>
<path d="M133.783 264.368L129.218 268.94L132.071 271.798L136.636 267.226L133.783 264.368Z" fill="#DBDBDB"/>
<path d="M127.954 211.738L141.286 197.221C142.714 195.665 145.135 195.584 146.668 197.035L171.757 220.828C173.286 222.279 174.186 224.275 174.259 226.381L174.319 228.119C174.452 231.994 171.801 235.409 168.021 236.238L167.71 236.307C163.748 237.176 159.62 236.856 155.839 235.393L146.083 231.619C144.626 231.057 143.283 230.244 142.105 229.218L128.257 217.158C126.651 215.76 126.514 213.306 127.954 211.738Z" fill="#4BAA43"/>
<path d="M159.487 226.862L155.819 230.536C154.919 231.437 155.182 232.961 156.332 233.51L159.031 234.791C160.649 235.559 162.553 235.438 164.058 234.468L165.418 233.591C166.387 232.969 166.552 231.615 165.765 230.774L162.13 226.906C161.416 226.147 160.221 226.13 159.487 226.866V226.862Z" fill="#369149"/>
<path d="M104.29 239.098L87.4407 257.62L101.16 270.141L118.009 251.62L104.29 239.098Z" fill="#369149"/>
<path d="M103.563 310.068L106.868 307.17L107.695 307.999L137.008 277.809L127.514 268.299L123.584 272.127L121.97 270.51L99.4355 293.526V297.556L101.09 299.314L99.8511 300.555L102.325 303.036L99.4355 305.922L103.563 310.068Z" fill="#DBDBDB"/>
<path d="M132.19 228.072L126.408 222.762L123.338 226.116L129.119 231.426L132.19 228.072Z" fill="#DBDBDB"/>
<path d="M133.535 217.704L131.332 215.238L129.792 216.618L131.996 219.084L133.535 217.704Z" fill="#DBDBDB"/>
<path d="M171.45 225.071L158.999 212.397L157.453 213.872L149.634 205.91L151.474 204.144L146.26 198.842L131.251 213.634L131.832 214.224L136.464 218.94L136.948 219.506L140.184 216.317L139.704 215.747L145.708 209.823L153.527 217.784L154.395 218.665L160.185 224.562L158.805 226.162L167.492 235.005L174.21 227.71L171.45 225.071Z" fill="#DBDBDB"/>
<path d="M126.441 245.388L110.701 231.554L108.05 234.597L123.79 248.435L104.427 270.663L111.113 276.511L130.476 254.279L133.131 251.232L126.441 245.388Z" fill="#DBDBDB"/>
<path d="M132.639 238.82L126.254 233.241L123.336 236.591L129.722 242.171L132.639 238.82Z" fill="#DBDBDB"/>
<path d="M120.025 234.391L116.072 230.937L114.215 233.069L118.168 236.523L120.025 234.391Z" fill="#DBDBDB"/>
<path d="M167.433 261.128C167.373 261.128 167.308 261.128 167.248 261.116L139.911 257.951L136.482 257.672C136.042 257.636 135.638 257.422 135.36 257.078C135.082 256.735 134.957 256.294 135.013 255.858L137.624 235.205C137.575 235.113 137.539 235.016 137.507 234.91L137.285 234.134C137.164 233.714 137.22 233.261 137.438 232.886C137.656 232.506 138.019 232.231 138.443 232.126L141.957 231.237C142.086 231.204 142.219 231.188 142.352 231.188C142.611 231.188 142.869 231.253 143.103 231.374L155.099 237.695L158.984 237.368L159.029 232.647L158.984 232.384C158.839 231.503 159.436 230.671 160.316 230.529L163.423 230.02C163.511 230.004 163.596 230 163.685 230C164.141 230 164.577 230.194 164.887 230.538L165.88 231.649L170.903 234.902L171.989 235.072C172.416 235.137 172.8 235.375 173.054 235.727C173.308 236.078 173.409 236.519 173.336 236.943L173.199 237.739C173.159 237.974 173.07 238.184 172.949 238.37L173.639 253.655C173.655 254.043 173.534 254.427 173.292 254.734L168.7 260.525C168.394 260.913 167.926 261.136 167.437 261.136L167.433 261.128Z" fill="white"/>
<path d="M155.26 239.78L142.312 233.237L140.069 256.347L155.438 257.955L155.26 239.78Z" fill="#DBDBDB"/>
<path d="M140.069 256.347L136.615 256.064L139.399 234.046L142.34 233.326L140.069 256.347Z" fill="#F0F0F0"/>
<path d="M154.34 240.031L142.268 233.67L139.06 234.47L138.838 233.694L142.357 232.805L154.715 239.316L154.34 240.031Z" fill="#0D725F"/>
<path d="M145.798 240.132L160.715 239.251L160.76 258.509L145.157 256.532L145.798 240.132Z" fill="#8EC7ED"/>
<path d="M160.647 232.526L160.413 258.036L167.434 259.511V236.402L163.536 232.049L160.647 232.526Z" fill="#F0F0F0"/>
<path d="M167.264 236.281L171.275 237.065L172.025 253.724L167.433 259.511L167.264 236.281Z" fill="#DBDBDB"/>
<path d="M163.536 232.049L171.275 237.065L167.433 236.402L163.536 232.049Z" fill="#13D3BC"/>
<path d="M163.612 251.238L141.78 250.907L141.755 249.428L163.584 249.759L163.612 251.238Z" fill="#6D6D6D"/>
<path d="M140.069 256.347L167.433 259.511L160.614 254.633L145.27 253.999L140.069 256.347Z" fill="#A6A6A6"/>
<path d="M171.61 237.461L167.228 236.778L163.382 232.486L160.711 232.926L160.582 232.126L163.689 231.617L167.639 236.03L171.747 236.665L171.61 237.461Z" fill="#0D725F"/>
<path d="M160.679 238.851L145.359 240.137L145.427 240.943L160.746 239.657L160.679 238.851Z" fill="#6D6D6D"/>
<path d="M160.775 242.798L145.403 242.957L145.412 243.765L160.784 243.607L160.775 242.798Z" fill="#6D6D6D"/>
<path d="M145.333 246.398L145.328 247.207L160.753 247.312L160.758 246.503L145.333 246.398Z" fill="#6D6D6D"/>
<path d="M166.715 258.38L165.674 258.877C164.851 259.269 163.875 259.176 163.14 258.638L162.317 258.036C162.002 257.806 161.881 257.397 162.019 257.034L162.079 256.872C162.111 256.783 162.204 256.727 162.301 256.743L162.475 256.771C162.64 256.795 162.761 256.626 162.688 256.476L162.551 256.209C162.414 255.943 162.414 255.627 162.551 255.365L162.769 254.936C162.813 254.851 162.91 254.807 163.003 254.831C163.156 254.872 163.294 254.73 163.249 254.577L163.233 254.528C163.148 254.241 163.185 253.93 163.33 253.671L164.314 251.897C164.383 251.772 164.557 251.756 164.649 251.865L165.287 252.612C165.335 252.669 165.347 252.75 165.323 252.818L165.117 253.36C165.081 253.457 165.121 253.562 165.21 253.611C165.287 253.651 165.384 253.639 165.448 253.578L165.614 253.417C165.723 253.312 165.904 253.356 165.949 253.501L166.106 253.995C166.231 254.378 166.094 254.795 165.775 255.037C165.642 255.138 165.678 255.348 165.84 255.397L166.3 255.538C166.364 255.559 166.417 255.607 166.437 255.676L166.606 256.229C166.683 256.484 166.578 256.755 166.352 256.892C166.187 256.993 166.239 257.244 166.429 257.272L166.727 257.313C166.8 257.321 166.864 257.373 166.893 257.442L166.986 257.688C167.09 257.963 166.965 258.27 166.703 258.396L166.715 258.38Z" fill="#4BAA43"/>
<path d="M139.181 256.432L139.867 256.759C140.412 257.018 141.049 256.957 141.538 256.601L142.078 256.205C142.284 256.056 142.365 255.785 142.272 255.546L142.232 255.437C142.207 255.377 142.147 255.344 142.086 255.352L141.969 255.369C141.86 255.385 141.78 255.272 141.828 255.175L141.917 255.001C142.006 254.827 142.006 254.621 141.917 254.443L141.772 254.16C141.743 254.104 141.679 254.075 141.618 254.091C141.517 254.12 141.425 254.023 141.457 253.926L141.465 253.893C141.522 253.704 141.497 253.501 141.4 253.328L140.755 252.16C140.711 252.079 140.598 252.067 140.537 252.139L140.117 252.632C140.085 252.669 140.077 252.721 140.093 252.766L140.226 253.122C140.251 253.186 140.226 253.255 140.166 253.287C140.113 253.316 140.053 253.307 140.008 253.267L139.9 253.162C139.827 253.093 139.71 253.122 139.678 253.219L139.573 253.542C139.492 253.792 139.581 254.071 139.791 254.229C139.879 254.294 139.855 254.435 139.75 254.467L139.448 254.56C139.403 254.572 139.371 254.609 139.359 254.649L139.246 255.013C139.193 255.179 139.262 255.361 139.411 255.449C139.52 255.514 139.488 255.68 139.359 255.7L139.161 255.724C139.113 255.732 139.072 255.765 139.052 255.809L138.992 255.971C138.923 256.149 139.004 256.351 139.177 256.436L139.181 256.432Z" fill="#4BAA43"/>
</svg>
