<svg width="347" height="409" viewBox="0 0 347 409" fill="none" xmlns="http://www.w3.org/2000/svg">
<path d="M78.5915 261.016L121.692 218.233C122.148 217.78 122.874 217.756 123.354 218.181L140.567 233.175C140.874 233.441 141.027 233.845 140.979 234.25L139.091 249.753C139.058 250.024 138.933 250.278 138.739 250.472L137.38 251.834C137.15 252.065 136.839 252.194 136.516 252.194H133.539C133.187 252.194 132.853 252.343 132.623 252.61L103.579 285.577C103.115 286.102 102.304 286.134 101.804 285.641L78.5915 262.766C78.1073 262.285 78.1032 261.501 78.5915 261.02V261.016Z" fill="#4BAA43"/>
<path d="M118.287 275.226L120.966 270.376L123.911 267.527C125.005 266.468 126.243 265.587 127.579 264.912L136.359 260.487C137.404 259.816 138.755 260.499 138.913 261.78L142.254 288.571C142.342 289.299 142.004 290.01 141.394 290.366L127.341 298.574C125.396 299.71 123.318 300.562 121.155 301.116L116.878 302.207C114.683 302.769 112.371 302.001 110.87 300.219L107.99 296.796C107.509 296.226 107.425 295.393 107.784 294.727L118.287 275.226Z" fill="#4BAA43"/>
<path d="M154.169 289.291L168.65 284.299C171.071 283.463 173.577 282.897 176.119 282.61L198.21 280.117C199.84 279.931 201.171 278.726 201.514 277.118C201.885 275.38 201.014 273.614 199.408 272.858L194.239 270.417C191.358 269.055 188.26 268.206 185.084 267.911L175.949 267.058C174.004 266.877 172.511 265.256 172.483 263.304L171.922 247.574C171.902 246.047 170.974 244.677 169.566 244.095L148.266 236.23C145.821 235.215 143.113 236.937 142.988 239.588L142.932 261.558C142.92 261.821 142.932 262.083 142.976 262.342L146.583 284.744C147.156 288.288 150.775 290.463 154.169 289.295V289.291Z" fill="#4BAA43"/>
<path d="M133.783 264.368L129.218 268.941L132.071 271.798L136.636 267.226L133.783 264.368Z" fill="#DBDBDB"/>
<path d="M127.954 211.738L141.286 197.221C142.714 195.665 145.135 195.584 146.668 197.035L171.757 220.828C173.286 222.279 174.186 224.275 174.259 226.381L174.319 228.119C174.452 231.994 171.801 235.409 168.021 236.238L167.71 236.307C163.748 237.176 159.62 236.856 155.839 235.393L146.083 231.618C144.626 231.057 143.283 230.244 142.105 229.218L128.257 217.158C126.651 215.76 126.514 213.306 127.954 211.738Z" fill="#4BAA43"/>
<path d="M159.487 226.862L155.819 230.535C154.919 231.437 155.182 232.96 156.332 233.51L159.031 234.791C160.649 235.559 162.553 235.438 164.058 234.468L165.418 233.591C166.387 232.968 166.552 231.614 165.765 230.774L162.13 226.906C161.416 226.146 160.221 226.13 159.487 226.866V226.862Z" fill="#369149"/>
<path d="M104.29 239.098L87.4407 257.62L101.16 270.141L118.009 251.62L104.29 239.098Z" fill="#369149"/>
<path d="M103.563 310.068L106.868 307.17L107.695 307.999L137.008 277.809L127.514 268.299L123.584 272.127L121.97 270.51L99.4355 293.526V297.556L101.09 299.314L99.8511 300.554L102.325 303.036L99.4355 305.922L103.563 310.068Z" fill="#DBDBDB"/>
<path d="M132.19 228.072L126.408 222.762L123.338 226.116L129.119 231.426L132.19 228.072Z" fill="#DBDBDB"/>
<path d="M133.535 217.704L131.332 215.238L129.792 216.618L131.996 219.084L133.535 217.704Z" fill="#DBDBDB"/>
<path d="M171.45 225.071L158.999 212.397L157.453 213.872L149.634 205.911L151.474 204.144L146.26 198.842L131.251 213.634L131.832 214.224L136.464 218.94L136.948 219.506L140.184 216.317L139.704 215.748L145.708 209.823L153.527 217.784L154.395 218.665L160.185 224.562L158.805 226.162L167.492 235.005L174.21 227.71L171.45 225.071Z" fill="#DBDBDB"/>
<path d="M126.441 245.388L110.701 231.554L108.05 234.597L123.79 248.435L104.427 270.663L111.113 276.512L130.476 254.279L133.131 251.232L126.441 245.388Z" fill="#DBDBDB"/>
<path d="M132.639 238.82L126.254 233.241L123.336 236.591L129.722 242.171L132.639 238.82Z" fill="#DBDBDB"/>
<path d="M120.025 234.391L116.072 230.937L114.215 233.069L118.168 236.523L120.025 234.391Z" fill="#DBDBDB"/>
<path d="M167.433 261.128C167.373 261.128 167.308 261.128 167.248 261.116L139.911 257.951L136.482 257.672C136.042 257.636 135.638 257.422 135.36 257.078C135.082 256.735 134.957 256.294 135.013 255.858L137.624 235.205C137.575 235.113 137.539 235.016 137.507 234.91L137.285 234.134C137.164 233.714 137.22 233.261 137.438 232.886C137.656 232.506 138.019 232.231 138.443 232.126L141.957 231.237C142.086 231.204 142.219 231.188 142.352 231.188C142.611 231.188 142.869 231.253 143.103 231.374L155.099 237.695L158.984 237.368L159.029 232.647L158.984 232.384C158.839 231.503 159.436 230.671 160.316 230.529L163.423 230.02C163.511 230.004 163.596 230 163.685 230C164.141 230 164.577 230.194 164.887 230.538L165.88 231.649L170.903 234.902L171.989 235.072C172.416 235.137 172.8 235.375 173.054 235.727C173.308 236.078 173.409 236.519 173.336 236.943L173.199 237.739C173.159 237.974 173.07 238.184 172.949 238.37L173.639 253.655C173.655 254.043 173.534 254.427 173.292 254.734L168.7 260.525C168.394 260.913 167.926 261.136 167.437 261.136L167.433 261.128Z" fill="#F244C5"/>
<path d="M151.879 248.529C151.879 249.121 151.771 249.673 151.555 250.185C151.339 250.697 151.031 251.141 150.631 251.517C150.239 251.893 149.767 252.189 149.215 252.405C148.671 252.621 148.071 252.729 147.415 252.729H144.139V244.329H147.415C148.071 244.329 148.671 244.437 149.215 244.653C149.767 244.861 150.239 245.153 150.631 245.529C151.031 245.905 151.339 246.349 151.555 246.861C151.771 247.365 151.879 247.913 151.879 248.505V248.529ZM149.947 248.553V248.529C149.947 248.161 149.883 247.821 149.755 247.509C149.635 247.197 149.463 246.929 149.239 246.705C149.023 246.481 148.759 246.309 148.447 246.189C148.135 246.061 147.791 245.997 147.415 245.997H145.987V251.061H147.415C147.791 251.061 148.135 251.001 148.447 250.881C148.759 250.761 149.023 250.589 149.239 250.365C149.463 250.141 149.635 249.877 149.755 249.573C149.883 249.269 149.947 248.929 149.947 248.553ZM156.813 249.885H153.117V248.133H156.813V249.885ZM161.664 245.913H158.364V244.329H164.04V245.721L161.916 247.749C162.204 247.797 162.484 247.873 162.756 247.977C163.028 248.081 163.268 248.229 163.476 248.421C163.684 248.605 163.852 248.837 163.98 249.117C164.108 249.389 164.172 249.721 164.172 250.113C164.172 250.513 164.1 250.881 163.956 251.217C163.82 251.553 163.62 251.845 163.356 252.093C163.1 252.341 162.784 252.533 162.408 252.669C162.032 252.805 161.612 252.873 161.148 252.873C160.388 252.873 159.74 252.741 159.204 252.477C158.676 252.205 158.232 251.853 157.872 251.421L159.144 250.209C159.432 250.537 159.732 250.789 160.044 250.965C160.364 251.133 160.74 251.217 161.172 251.217C161.524 251.217 161.808 251.125 162.024 250.941C162.248 250.757 162.36 250.505 162.36 250.185C162.36 249.833 162.216 249.565 161.928 249.381C161.648 249.197 161.244 249.105 160.716 249.105H159.948L159.66 247.929L161.664 245.913Z" fill="white"/>
</svg>
