<svg width="47" height="30" viewBox="0 0 47 30" fill="none" xmlns="http://www.w3.org/2000/svg">
<path d="M1.64244 29.4585C1.21475 29.4585 0.807221 29.2888 0.504605 28.9856C0.201988 28.6825 0.0325262 28.2703 0.0284913 27.8419L0.000244141 7.93752C0.000244141 7.55357 0.133396 7.18579 0.379524 6.8948L5.66522 0.618337C5.97995 0.242477 6.43589 0.0444506 6.8999 0.0444506C7.15813 0.0444506 7.4204 0.109107 7.6625 0.238435L12.9119 3.06344C13.0531 3.14023 13.1822 3.23319 13.2912 3.34635L14.6146 4.68004L20.9131 4.67198L22.3818 2.41681C22.6803 1.96012 23.1887 1.6853 23.7334 1.6853H23.7375C24.2822 1.6853 24.7946 1.96417 25.0891 2.4249L26.5296 4.66388L32.2713 4.65579L33.5907 3.31806C33.7036 3.2049 33.8327 3.10791 33.9699 3.03113L39.2112 0.193984C39.4533 0.0606146 39.7156 0 39.9779 0C40.4459 0 40.9019 0.202076 41.2206 0.581977L46.4297 6.84226C46.6717 7.13325 46.8049 7.49698 46.8049 7.87688L46.8331 27.7813C46.8331 28.2097 46.6637 28.6219 46.3611 28.925C46.0585 29.2281 45.6469 29.3979 45.2192 29.4019L34.7245 29.414C33.8327 29.414 33.1105 28.6906 33.1105 27.8015V26.5688L27.728 26.5769C27.5666 26.6295 27.3971 26.6577 27.2196 26.6577L20.2432 26.6658C20.0697 26.6658 19.9003 26.6375 19.7389 26.585L13.7431 26.5931V27.8257C13.7431 28.2541 13.5776 28.6664 13.275 28.9695C12.9724 29.2726 12.5608 29.4423 12.1331 29.4464L1.63841 29.4625L1.64244 29.4585Z" fill="#F244C5"/>
<path d="M19.9689 14.875C19.9689 15.467 19.8609 16.019 19.6449 16.531C19.4289 17.043 19.1209 17.487 18.7209 17.863C18.3289 18.239 17.8569 18.535 17.3049 18.751C16.7609 18.967 16.1609 19.075 15.5049 19.075H12.2289V10.675H15.5049C16.1609 10.675 16.7609 10.783 17.3049 10.999C17.8569 11.207 18.3289 11.499 18.7209 11.875C19.1209 12.251 19.4289 12.695 19.6449 13.207C19.8609 13.711 19.9689 14.259 19.9689 14.851V14.875ZM18.0369 14.899V14.875C18.0369 14.507 17.9729 14.167 17.8449 13.855C17.7249 13.543 17.5529 13.275 17.3289 13.051C17.1129 12.827 16.8489 12.655 16.5369 12.535C16.2249 12.407 15.8809 12.343 15.5049 12.343H14.0769V17.407H15.5049C15.8809 17.407 16.2249 17.347 16.5369 17.227C16.8489 17.107 17.1129 16.935 17.3289 16.711C17.5529 16.487 17.7249 16.223 17.8449 15.919C17.9729 15.615 18.0369 15.275 18.0369 14.899ZM24.9037 16.231H21.2077V14.479H24.9037V16.231ZM30.4861 10.615H32.0461V15.763H33.1741V17.263H32.0461V19.075H30.2821V17.263H26.1781L25.8781 15.955L30.4861 10.615ZM30.2821 15.763V13.147L28.0501 15.763H30.2821Z" fill="white"/>
</svg>
