<svg width="347" height="409" viewBox="0 0 347 409" fill="none" xmlns="http://www.w3.org/2000/svg">
<path d="M231.388 271.051C225.042 269.851 210.411 267.495 197.06 268.396C193.59 268.63 191.354 264.775 193.239 261.849L208.333 238.428C208.688 237.878 209.16 237.422 209.717 237.086C213.877 234.589 232.01 225.079 246.378 239.483C247.625 240.732 247.944 242.635 247.209 244.24L236.025 268.646C235.214 270.421 233.297 271.415 231.384 271.051H231.388Z" fill="#4BAA43"/>
<path d="M203.959 241.213L189.833 262.932C189.107 264.048 187.868 264.718 186.541 264.718H180.012C177.874 264.718 176.127 263.005 176.082 260.863L175.8 246.803C175.772 245.384 176.506 244.062 177.72 243.339L187.61 237.459C188.296 237.05 189.091 236.86 189.89 236.917L202.249 237.782C203.939 237.899 204.879 239.795 203.955 241.213H203.959Z" fill="#4BAA43"/>
<path d="M194.776 196.845L211.993 209.633C214.833 211.742 218.505 212.365 221.878 211.318L238.058 206.29C239.055 205.979 240.104 206.593 240.326 207.612L241.476 212.914C241.714 214.001 240.903 215.04 239.793 215.072L229.181 215.396C228.814 215.408 228.459 215.529 228.169 215.751L221.253 220.945C220.809 221.28 220.236 221.385 219.699 221.232L194.836 214.171C194.058 213.949 193.227 214.284 192.815 214.984L187.606 223.887C187.089 224.772 185.935 225.039 185.084 224.469C184.556 224.117 184.257 223.511 184.297 222.877L184.717 216.176C184.931 212.745 185.867 209.398 187.469 206.355L192.145 197.452C192.654 196.486 193.904 196.199 194.78 196.849L194.776 196.845Z" fill="#4BAA43"/>
<path d="M177.418 248.342V257.314H181.122V256.078H189.466V257.626H192.863V248.342H189.466V250.509H186.993V252.056H183.284V250.509H181.122V248.342H177.418Z" fill="#DBDBDB"/>
<path d="M227.943 213.525L224.868 215.941L222.6 213.229L219.276 216.022L220.595 217.388L219.764 218.087L220.51 218.9L218.445 220.553L215.535 229.767L220.034 230.935L221.935 224.19L223.815 222.622L226.736 225.58L227.055 225.314L228.161 224.384L230.376 222.525L228.249 219.777L230.464 217.918L237.025 218.071V213.525H227.943Z" fill="#DBDBDB"/>
<path d="M190.221 226.457V222.82H184.168V226.457V230.903H190.221H200.308V226.457H190.221Z" fill="#DBDBDB"/>
<path d="M213.511 215.398L189.43 207.243L186.716 215.283L210.797 223.438L213.511 215.398Z" fill="#DBDBDB"/>
<path d="M196.68 235.753H183.167V243.731H196.68V235.753Z" fill="#DBDBDB"/>
<path d="M194.642 265.459C194.215 265.459 193.807 265.289 193.505 264.986C193.202 264.683 193.033 264.27 193.028 263.842L193 243.938C193 243.554 193.133 243.186 193.38 242.895L198.665 236.618C198.98 236.242 199.436 236.044 199.9 236.044C200.158 236.044 200.42 236.109 200.662 236.238L205.912 239.063C206.053 239.14 206.182 239.233 206.291 239.346L207.615 240.68L213.913 240.672L215.382 238.417C215.68 237.96 216.189 237.685 216.733 237.685H216.737C217.282 237.685 217.795 237.964 218.089 238.425L219.53 240.664L225.271 240.656L226.591 239.318C226.704 239.205 226.833 239.108 226.97 239.031L232.211 236.194C232.453 236.061 232.716 236 232.978 236C233.446 236 233.902 236.202 234.221 236.582L239.43 242.842C239.672 243.133 239.805 243.497 239.805 243.877L239.833 263.781C239.833 264.21 239.664 264.622 239.361 264.925C239.058 265.228 238.647 265.398 238.219 265.402L227.724 265.414C226.833 265.414 226.11 264.691 226.11 263.801V262.569L220.728 262.577C220.567 262.629 220.397 262.658 220.22 262.658L213.243 262.666C213.07 262.666 212.9 262.638 212.739 262.585L206.743 262.593V263.826C206.743 264.254 206.578 264.666 206.275 264.969C205.972 265.273 205.561 265.442 205.133 265.446L194.638 265.463L194.642 265.459Z" fill="white"/>
<path d="M232.986 237.758L227.745 240.595L225.949 242.414L216.637 242.426H216.261L206.949 242.438L205.149 240.627L199.9 237.802L200.198 249.539L232.72 249.494L232.986 237.758Z" fill="#13D3BC"/>
<path d="M205.109 244.063L206.949 242.438L204.471 249.911L205.109 244.063Z" fill="#0D725F"/>
<path d="M225.949 242.414L228.245 244.527L228.213 249.179L225.949 242.414Z" fill="#0D725F"/>
<path d="M232.088 247.723L201.367 247.766L201.385 261.111L232.107 261.068L232.088 247.723Z" fill="#DBDBDB"/>
<path d="M205.133 263.963L194.643 263.979L194.614 244.075L199.9 237.802L205.109 244.063L205.133 263.963Z" fill="#F0F0F0"/>
<path d="M220.018 260.976L213.449 260.984L213.429 244.887L216.738 239.811L219.998 244.879L220.018 260.976Z" fill="#F0F0F0"/>
<path d="M238.219 263.918L227.728 263.935L227.7 244.03L232.986 237.758L238.195 244.018L238.219 263.918Z" fill="#F0F0F0"/>
<path d="M215.769 246.158L214.918 246.159L214.922 249.311L215.773 249.31L215.769 246.158Z" fill="#8EC7ED"/>
<path d="M217.153 246.159L216.302 246.161L216.306 249.313L217.158 249.312L217.153 246.159Z" fill="#8EC7ED"/>
<path d="M218.541 246.158L217.69 246.159L217.694 249.311L218.545 249.31L218.541 246.158Z" fill="#8EC7ED"/>
<path d="M198.92 246.399L198.068 246.4L198.073 249.552L198.924 249.551L198.92 246.399Z" fill="#8EC7ED"/>
<path d="M200.304 246.397L199.452 246.398L199.457 249.55L200.308 249.549L200.304 246.397Z" fill="#8EC7ED"/>
<path d="M201.692 246.395L200.84 246.396L200.845 249.548L201.696 249.547L201.692 246.395Z" fill="#8EC7ED"/>
<path d="M232.006 246.352L231.154 246.354L231.159 249.506L232.01 249.505L232.006 246.352Z" fill="#8EC7ED"/>
<path d="M233.39 246.35L232.538 246.352L232.543 249.504L233.394 249.503L233.39 246.35Z" fill="#8EC7ED"/>
<path d="M233.387 241.84L232.536 241.841L232.54 244.994L233.392 244.992L233.387 241.84Z" fill="#8EC7ED"/>
<path d="M234.778 246.345L233.926 246.346L233.931 249.498L234.782 249.497L234.778 246.345Z" fill="#8EC7ED"/>
<path d="M230.839 251.891L229.988 251.892L229.992 255.044L230.844 255.043L230.839 251.891Z" fill="#8EC7ED"/>
<path d="M232.546 251.893L231.695 251.894L231.699 255.046L232.551 255.045L232.546 251.893Z" fill="#8EC7ED"/>
<path d="M234.257 251.886L233.406 251.887L233.41 255.04L234.261 255.038L234.257 251.886Z" fill="#8EC7ED"/>
<path d="M235.968 251.888L235.116 251.889L235.121 255.042L235.972 255.04L235.968 251.888Z" fill="#8EC7ED"/>
<path d="M230.843 257.226L229.991 257.227L229.996 260.379L230.847 260.378L230.843 257.226Z" fill="#8EC7ED"/>
<path d="M232.554 257.223L231.702 257.225L231.707 260.377L232.558 260.376L232.554 257.223Z" fill="#8EC7ED"/>
<path d="M234.264 257.221L233.413 257.222L233.417 260.375L234.269 260.373L234.264 257.221Z" fill="#8EC7ED"/>
<path d="M235.971 257.219L235.12 257.22L235.124 260.372L235.976 260.371L235.971 257.219Z" fill="#8EC7ED"/>
<path d="M195.006 263.434L194.981 244.333L199.896 238.498L204.742 244.321V244.394L204.766 263.421L195.006 263.434ZM195.385 244.483L195.409 263.029L204.363 263.017L204.338 244.471L199.896 239.128L195.385 244.483Z" fill="#A6A6A6"/>
<path d="M228.092 263.434L228.067 244.333L232.982 238.498L237.828 244.321V244.394L237.852 263.421L228.092 263.434ZM228.471 244.483L228.495 263.029L237.448 263.017L237.424 244.471L232.982 239.128L228.471 244.483Z" fill="#A6A6A6"/>
<path d="M197.749 251.937L196.898 251.938L196.902 255.091L197.754 255.09L197.749 251.937Z" fill="#8EC7ED"/>
<path d="M199.456 251.939L198.605 251.94L198.609 255.093L199.46 255.092L199.456 251.939Z" fill="#8EC7ED"/>
<path d="M201.167 251.932L200.315 251.934L200.32 255.086L201.171 255.085L201.167 251.932Z" fill="#8EC7ED"/>
<path d="M202.878 251.934L202.026 251.936L202.031 255.088L202.882 255.087L202.878 251.934Z" fill="#8EC7ED"/>
<path d="M197.757 257.272L196.906 257.273L196.91 260.426L197.761 260.425L197.757 257.272Z" fill="#8EC7ED"/>
<path d="M199.468 257.27L198.616 257.271L198.621 260.423L199.472 260.422L199.468 257.27Z" fill="#8EC7ED"/>
<path d="M201.179 257.267L200.327 257.269L200.332 260.421L201.183 260.42L201.179 257.267Z" fill="#8EC7ED"/>
<path d="M202.885 257.265L202.034 257.266L202.038 260.419L202.89 260.417L202.885 257.265Z" fill="#8EC7ED"/>
<path d="M215.781 251.803L214.93 251.804L214.934 254.957L215.785 254.955L215.781 251.803Z" fill="#8EC7ED"/>
<path d="M217.165 251.805L216.314 251.807L216.318 254.959L217.169 254.958L217.165 251.805Z" fill="#8EC7ED"/>
<path d="M218.553 251.799L217.702 251.8L217.706 254.953L218.557 254.951L218.553 251.799Z" fill="#8EC7ED"/>
<path d="M213.247 261.186L213.227 244.826L216.738 239.443L220.2 244.818V244.879L220.22 261.178L213.247 261.186ZM213.631 244.947L213.651 260.782L219.816 260.774L219.796 244.939L216.734 240.187L213.627 244.947H213.631Z" fill="#A6A6A6"/>
<path d="M208.083 261.122L208.861 261.639C209.475 262.047 210.201 261.955 210.75 261.389L211.363 260.762C211.597 260.524 211.686 260.095 211.585 259.716L211.541 259.546C211.516 259.453 211.448 259.396 211.375 259.412L211.246 259.441C211.125 259.465 211.032 259.287 211.089 259.134L211.189 258.855C211.29 258.576 211.29 258.248 211.189 257.97L211.024 257.521C210.992 257.432 210.919 257.388 210.851 257.412C210.738 257.456 210.633 257.307 210.665 257.145L210.677 257.093C210.738 256.794 210.713 256.47 210.604 256.195L209.87 254.34C209.818 254.211 209.688 254.191 209.62 254.304L209.144 255.088C209.107 255.149 209.099 255.229 209.116 255.302L209.269 255.868C209.297 255.969 209.269 256.082 209.2 256.131C209.144 256.175 209.071 256.159 209.023 256.098L208.898 255.933C208.817 255.824 208.684 255.872 208.648 256.022L208.53 256.535C208.438 256.935 208.539 257.371 208.777 257.622C208.877 257.727 208.849 257.945 208.728 257.998L208.385 258.143C208.337 258.164 208.3 258.216 208.284 258.285L208.159 258.863C208.103 259.13 208.179 259.412 208.349 259.554C208.474 259.659 208.434 259.922 208.292 259.95L208.071 259.99C208.014 260.002 207.97 260.051 207.949 260.128L207.881 260.386C207.804 260.673 207.897 260.993 208.091 261.122H208.083Z" fill="#4BAA43"/>
<path d="M198.71 263.595C198.98 263.284 199.137 262.864 199.145 262.423L199.174 261.183C199.186 260.645 198.976 260.144 198.613 259.841L198.508 259.752C198.371 259.639 198.322 259.42 198.387 259.231L198.79 258.079C198.96 257.602 198.988 257.072 198.871 256.583L198.786 256.228C198.706 255.884 198.524 255.589 198.278 255.391C198.173 255.306 198.112 255.161 198.121 255.007L198.016 253.5C197.931 252.687 197.854 252.392 197.495 252.041L197.378 251.928C196.926 251.479 196.648 251.657 196.111 251.988C195.579 252.316 195.022 253.007 195.038 253.714L195.123 254.797C195.123 254.93 195.078 255.064 194.99 255.153C194.618 255.537 194.376 256.062 194.308 256.636L194.243 257.202C194.195 257.618 194.223 258.038 194.324 258.434L194.404 258.737C194.441 258.875 194.417 259.028 194.336 259.146L194.304 259.198C193.585 260.063 193.537 261.692 193.593 262.185C193.662 262.747 194.3 263.818 194.985 264.23C195.744 264.691 196.603 264.913 197.423 264.557C197.895 264.351 198.334 264.028 198.706 263.599L198.71 263.595Z" fill="#4BAA43"/>
<path d="M234.394 263.595C234.124 263.284 233.967 262.864 233.958 262.423L233.93 261.183C233.918 260.645 234.128 260.144 234.491 259.841L234.596 259.752C234.733 259.639 234.782 259.42 234.717 259.231L234.314 258.079C234.144 257.602 234.116 257.072 234.233 256.583L234.318 256.228C234.398 255.884 234.58 255.589 234.826 255.391C234.931 255.306 234.991 255.161 234.983 255.007L235.088 253.5C235.173 252.687 235.25 252.392 235.609 252.041L235.726 251.928C236.178 251.479 236.456 251.657 236.993 251.988C237.525 252.316 238.082 253.007 238.066 253.714L237.981 254.797C237.981 254.93 238.026 255.064 238.114 255.153C238.486 255.537 238.728 256.062 238.796 256.636L238.861 257.202C238.909 257.618 238.881 258.038 238.78 258.434L238.699 258.737C238.663 258.875 238.687 259.028 238.768 259.146L238.8 259.198C239.519 260.063 239.567 261.692 239.51 262.185C239.442 262.747 238.804 263.818 238.118 264.23C237.36 264.691 236.5 264.913 235.681 264.557C235.209 264.351 234.769 264.028 234.398 263.599L234.394 263.595Z" fill="#4BAA43"/>
<path d="M221.136 259.412C221.293 259.291 221.382 259.141 221.382 258.984C221.382 258.753 220.934 258.543 220.542 258.41C220.175 258.281 220.038 257.961 219.816 257.771C219.332 257.359 218.67 257.104 217.94 257.104C216.964 257.104 216.338 257.606 215.64 258.24C214.716 259.077 214.018 259.012 213.792 259.837C213.752 259.978 213.772 260.087 213.832 260.18C213.332 260.285 212.977 260.548 212.977 260.859C212.977 261.259 213.578 261.587 214.321 261.587C214.805 261.587 215.229 261.449 215.467 261.239C215.604 261.118 215.797 261.106 215.931 261.227C215.931 261.227 215.939 261.235 215.943 261.235C216.382 261.635 217.399 261.809 217.948 261.809C218.299 261.809 218.638 261.748 218.949 261.643C219.485 261.457 219.961 261.51 220.627 261.514C220.631 261.514 220.639 261.514 220.643 261.514C221.684 261.514 222.524 261.037 222.524 260.447C222.524 259.958 221.939 259.542 221.144 259.42L221.136 259.412Z" fill="#4BAA43"/>
</svg>
