<svg width="347" height="409" viewBox="0 0 347 409" fill="none" xmlns="http://www.w3.org/2000/svg">
<path d="M231.388 271.052C225.042 269.851 210.411 267.495 197.06 268.396C193.59 268.631 191.354 264.775 193.239 261.849L208.333 238.429C208.688 237.879 209.16 237.422 209.717 237.087C213.877 234.589 232.01 225.08 246.378 239.483C247.625 240.732 247.944 242.636 247.209 244.24L236.025 268.647C235.214 270.421 233.297 271.415 231.384 271.052H231.388Z" fill="#4BAA43"/>
<path d="M203.959 241.213L189.833 262.932C189.107 264.048 187.868 264.718 186.541 264.718H180.012C177.874 264.718 176.127 263.005 176.082 260.863L175.8 246.803C175.772 245.384 176.506 244.062 177.72 243.339L187.61 237.459C188.296 237.05 189.091 236.86 189.89 236.917L202.249 237.782C203.939 237.899 204.879 239.795 203.955 241.213H203.959Z" fill="#4BAA43"/>
<path d="M194.776 196.846L211.993 209.633C214.833 211.743 218.505 212.365 221.878 211.318L238.058 206.291C239.055 205.979 240.104 206.594 240.326 207.612L241.476 212.915C241.714 214.002 240.903 215.04 239.793 215.073L229.181 215.396C228.814 215.408 228.459 215.529 228.169 215.752L221.253 220.945C220.809 221.28 220.236 221.386 219.699 221.232L194.836 214.171C194.058 213.949 193.227 214.285 192.815 214.984L187.606 223.887C187.089 224.772 185.935 225.039 185.084 224.469C184.556 224.118 184.257 223.511 184.297 222.877L184.717 216.176C184.931 212.745 185.867 209.398 187.469 206.355L192.145 197.452C192.654 196.486 193.904 196.199 194.78 196.85L194.776 196.846Z" fill="#4BAA43"/>
<path d="M177.418 248.342V257.314H181.122V256.078H189.466V257.626H192.863V248.342H189.466V250.509H186.993V252.056H183.284V250.509H181.122V248.342H177.418Z" fill="#DBDBDB"/>
<path d="M227.943 213.525L224.868 215.942L222.6 213.23L219.276 216.022L220.595 217.388L219.764 218.088L220.51 218.9L218.445 220.553L215.535 229.768L220.034 230.936L221.935 224.19L223.815 222.622L226.736 225.581L227.055 225.314L228.161 224.384L230.376 222.525L228.249 219.777L230.464 217.918L237.025 218.071V213.525H227.943Z" fill="#DBDBDB"/>
<path d="M190.221 226.458V222.82H184.168V226.458V230.903H190.221H200.308V226.458H190.221Z" fill="#DBDBDB"/>
<path d="M213.511 215.398L189.43 207.243L186.716 215.283L210.797 223.438L213.511 215.398Z" fill="#DBDBDB"/>
<path d="M196.68 235.753H183.167V243.731H196.68V235.753Z" fill="#DBDBDB"/>
<path d="M194.642 265.459C194.215 265.459 193.807 265.289 193.505 264.986C193.202 264.683 193.033 264.27 193.028 263.842L193 243.938C193 243.554 193.133 243.186 193.38 242.895L198.665 236.618C198.98 236.242 199.436 236.044 199.9 236.044C200.158 236.044 200.42 236.109 200.662 236.238L205.912 239.063C206.053 239.14 206.182 239.233 206.291 239.346L207.615 240.68L213.913 240.672L215.382 238.417C215.68 237.96 216.189 237.685 216.733 237.685H216.737C217.282 237.685 217.795 237.964 218.089 238.425L219.53 240.664L225.271 240.656L226.591 239.318C226.704 239.205 226.833 239.108 226.97 239.031L232.211 236.194C232.453 236.061 232.716 236 232.978 236C233.446 236 233.902 236.202 234.221 236.582L239.43 242.842C239.672 243.133 239.805 243.497 239.805 243.877L239.833 263.781C239.833 264.21 239.664 264.622 239.361 264.925C239.058 265.228 238.647 265.398 238.219 265.402L227.724 265.414C226.833 265.414 226.111 264.691 226.111 263.801V262.569L220.728 262.577C220.567 262.629 220.397 262.658 220.22 262.658L213.243 262.666C213.07 262.666 212.9 262.638 212.739 262.585L206.743 262.593V263.826C206.743 264.254 206.578 264.666 206.275 264.969C205.972 265.273 205.561 265.442 205.133 265.446L194.638 265.463L194.642 265.459Z" fill="#F244C5"/>
<path d="M212.969 250.875C212.969 251.467 212.861 252.019 212.645 252.531C212.429 253.043 212.121 253.487 211.721 253.863C211.329 254.239 210.857 254.535 210.305 254.751C209.761 254.967 209.161 255.075 208.505 255.075H205.229V246.675H208.505C209.161 246.675 209.761 246.783 210.305 246.999C210.857 247.207 211.329 247.499 211.721 247.875C212.121 248.251 212.429 248.695 212.645 249.207C212.861 249.711 212.969 250.259 212.969 250.851V250.875ZM211.037 250.899V250.875C211.037 250.507 210.973 250.167 210.845 249.855C210.725 249.543 210.553 249.275 210.329 249.051C210.113 248.827 209.849 248.655 209.537 248.535C209.225 248.407 208.881 248.343 208.505 248.343H207.077V253.407H208.505C208.881 253.407 209.225 253.347 209.537 253.227C209.849 253.107 210.113 252.935 210.329 252.711C210.553 252.487 210.725 252.223 210.845 251.919C210.973 251.615 211.037 251.275 211.037 250.899ZM217.904 252.231H214.208V250.479H217.904V252.231ZM223.486 246.615H225.046V251.763H226.174V253.263H225.046V255.075H223.282V253.263H219.178L218.878 251.955L223.486 246.615ZM223.282 251.763V249.147L221.05 251.763H223.282Z" fill="white"/>
</svg>
