<svg width="65" height="33" viewBox="0 0 65 33" fill="none" xmlns="http://www.w3.org/2000/svg">
<path d="M3.93769 32.6149C3.55841 32.6149 3.18722 32.4816 2.89267 32.231C2.52953 31.9238 2.32374 31.4712 2.32374 30.9983V9.89763C2.32374 9.59048 2.40848 9.29951 2.56181 9.05297L0.89136 8.21233C0.221569 7.87689 -0.12948 7.12517 0.0440195 6.39366C0.21752 5.66619 0.867142 5.14887 1.6136 5.14887H6.1125L10.3895 3.70607C10.5549 3.64949 10.7284 3.62119 10.9019 3.62119H25.5203L31.5282 0.210166C31.7744 0.0687134 32.0487 0 32.3231 0C32.5975 0 32.8678 0.0687095 33.1139 0.206121L39.1743 3.61715H54.3334C54.5513 3.61715 54.7651 3.66161 54.9669 3.74648L58.2392 5.14485H63.1093C63.8557 5.14485 64.5094 5.6581 64.6788 6.38961C64.8523 7.11708 64.5013 7.87284 63.8315 8.20829L62.2498 9.00043C62.4193 9.25505 62.5161 9.56221 62.5161 9.88957V17.7503C62.5161 18.304 62.2337 18.8213 61.7656 19.1163C60.7367 19.771 59.6998 20.4904 58.6991 21.1856C56.3065 22.8466 53.8331 24.5683 51.0006 25.7282C50.9643 25.7444 50.9239 25.7565 50.8836 25.7686C45.7471 27.4297 40.3687 27.7207 35.1717 27.9995C31.3911 28.2057 27.4812 28.4158 23.7934 29.1635C17.967 30.3234 12.0317 31.2974 6.29407 32.2391L4.19189 32.5866C4.10312 32.6028 4.01838 32.6068 3.92961 32.6068L3.93769 32.6149Z" fill="#F244C5"/>
<path d="M29.8261 16.57C29.8261 17.162 29.7181 17.714 29.5021 18.226C29.2861 18.738 28.9781 19.182 28.5781 19.558C28.1861 19.934 27.7141 20.23 27.1621 20.446C26.6181 20.662 26.0181 20.77 25.3621 20.77H22.0861V12.37H25.3621C26.0181 12.37 26.6181 12.478 27.1621 12.694C27.7141 12.902 28.1861 13.194 28.5781 13.57C28.9781 13.946 29.2861 14.39 29.5021 14.902C29.7181 15.406 29.8261 15.954 29.8261 16.546V16.57ZM27.8941 16.594V16.57C27.8941 16.202 27.8301 15.862 27.7021 15.55C27.5821 15.238 27.4101 14.97 27.1861 14.746C26.9701 14.522 26.7061 14.35 26.3941 14.23C26.0821 14.102 25.7381 14.038 25.3621 14.038H23.9341V19.102H25.3621C25.7381 19.102 26.0821 19.042 26.3941 18.922C26.7061 18.802 26.9701 18.63 27.1861 18.406C27.4101 18.182 27.5821 17.918 27.7021 17.614C27.8301 17.31 27.8941 16.97 27.8941 16.594ZM34.7608 17.926H31.0648V16.174H34.7608V17.926ZM36.4433 16.51L36.6833 12.37H41.8433V13.99H38.2673L38.1713 15.442C38.3393 15.402 38.5073 15.37 38.6753 15.346C38.8433 15.314 39.0433 15.298 39.2753 15.298C39.6913 15.298 40.0753 15.35 40.4273 15.454C40.7873 15.558 41.0993 15.718 41.3633 15.934C41.6273 16.15 41.8353 16.43 41.9873 16.774C42.1393 17.11 42.2153 17.518 42.2153 17.998C42.2153 18.446 42.1393 18.85 41.9873 19.21C41.8353 19.57 41.6193 19.878 41.3393 20.134C41.0673 20.382 40.7313 20.574 40.3313 20.71C39.9393 20.846 39.5033 20.914 39.0233 20.914C38.3433 20.914 37.7513 20.802 37.2473 20.578C36.7433 20.354 36.2873 20.046 35.8793 19.654L36.9953 18.322C37.3153 18.61 37.6353 18.834 37.9553 18.994C38.2753 19.154 38.6233 19.234 38.9993 19.234C39.4313 19.234 39.7713 19.134 40.0193 18.934C40.2753 18.734 40.4033 18.442 40.4033 18.058C40.4033 17.69 40.2673 17.406 39.9953 17.206C39.7313 17.006 39.3713 16.906 38.9153 16.906C38.6513 16.906 38.3993 16.938 38.1593 17.002C37.9273 17.058 37.7113 17.13 37.5113 17.218L36.4433 16.51Z" fill="white"/>
</svg>
