<svg width="347" height="409" viewBox="0 0 347 409" fill="none" xmlns="http://www.w3.org/2000/svg">
<path d="M240.055 304.705L239.45 306.52C239.261 307.089 239.575 307.704 240.148 307.886L257.401 313.285C257.987 313.467 258.604 313.123 258.757 312.529L260.714 305.012C260.823 304.596 260.67 304.151 260.331 303.889L256.159 300.676C255.844 300.433 255.424 300.385 255.061 300.55L248.202 303.674C247.262 304.103 246.233 304.293 245.208 304.228L241.141 303.973C240.657 303.941 240.209 304.244 240.055 304.705Z" fill="#4BAA43"/>
<path d="M239.938 281.923L258.095 286.975C259.818 287.456 261.134 288.846 261.517 290.596L263.47 299.532C263.635 300.296 263.458 301.1 262.969 301.71C262.441 302.373 261.747 303.113 261.303 303.113C260.9 303.113 258.462 300.328 256.59 298.885C255.767 298.251 254.658 298.129 253.709 298.562L247.641 301.326C246.806 301.706 245.894 301.872 244.978 301.811L242.016 301.613C241.193 301.557 240.628 300.777 240.818 299.972C241.379 297.58 241.899 292.192 239.333 282.533C239.236 282.165 239.571 281.826 239.938 281.927V281.923Z" fill="#4BAA43"/>
<path d="M254.432 302.967L247.738 305.699C246.818 306.075 246.834 307.388 247.762 307.74L255.352 310.626C256.207 310.949 257.171 310.573 257.579 309.753L258.103 308.702C258.337 308.233 258.354 307.683 258.148 307.198L256.744 303.913C256.36 303.02 255.332 302.595 254.432 302.963V302.967Z" fill="#369149"/>
<path d="M253.291 298.482L248.371 300.303L250.189 305.231L255.109 303.41L253.291 298.482Z" fill="#DBDBDB"/>
<path d="M239.067 278.682L260.383 284.833C261.339 285.108 262.336 284.566 262.626 283.617L267.686 267.054C267.953 266.181 267.533 265.244 266.702 264.864L259.08 261.372C255.759 259.852 252.132 259.133 248.484 259.275L244.631 259.424C243.961 259.448 243.356 259.844 243.065 260.447L236.69 273.569C236.432 274.103 236.432 274.729 236.698 275.263L237.937 277.744C238.163 278.201 238.57 278.54 239.063 278.682H239.067Z" fill="#4BAA43"/>
<path d="M279.347 300.704L270.281 301.743C269.337 301.852 269.103 303.121 269.946 303.561L276.422 306.932C276.878 307.17 277.439 307.009 277.697 306.564L280.287 302.155C280.691 301.468 280.138 300.615 279.347 300.704Z" fill="#4BAA43"/>
<path d="M293.732 294.391L294.676 302.906C294.748 303.565 295.039 304.18 295.503 304.652L309.564 319.064C310.888 320.418 313.123 320.204 314.16 318.616L324.03 303.525C326.2 300.207 326.717 296.068 325.434 292.314L318.586 272.333C318.336 271.597 317.804 270.991 317.11 270.643L306.466 265.312C305.715 264.937 305.158 264.258 304.932 263.445L293.707 222.468C293.219 220.69 291.246 219.781 289.58 220.573L278.088 226.041C277.18 226.474 276.555 227.338 276.422 228.333L271.411 266.545C271.394 266.674 271.366 266.804 271.334 266.933L270.761 269.059C269.551 273.553 271.35 278.318 275.228 280.88L292.416 292.245C293.151 292.73 293.631 293.518 293.728 294.395L293.732 294.391Z" fill="#4BAA43"/>
<path d="M301.144 238.821L307.914 263.231C308.031 263.656 308.346 263.999 308.761 264.157L312.114 265.418C313.151 265.81 314.205 264.876 313.942 263.797L312.026 255.908C311.299 252.913 310.061 250.068 308.37 247.494L302.318 238.287C301.91 237.665 300.946 238.105 301.144 238.821Z" fill="#4BAA43"/>
<path d="M249.259 175.11L256.417 195.932C256.699 196.748 256.591 197.65 256.126 198.381L254.577 200.822C254.226 201.372 253.702 201.784 253.084 201.99L243.489 205.195C242.606 205.49 242.081 206.404 242.275 207.321L243.17 211.585C243.417 212.765 243.324 213.993 242.892 215.121L237.945 228.131C237.453 229.424 237.965 230.883 239.156 231.586L250.623 238.36C251.878 239.099 252.366 240.675 251.753 241.997L246.846 252.602C246.023 254.376 247.201 256.433 249.146 256.619L255.485 257.233C256.937 257.375 258.362 257.723 259.718 258.264L266.436 260.956C268.138 261.639 270.031 260.543 270.293 258.725L274.796 226.292C274.937 225.31 275.579 224.473 276.491 224.085L290.334 217.728C291.335 217.303 292.005 216.342 292.057 215.254L292.743 191.935C292.767 191.434 292.658 190.933 292.428 190.488L278.238 163.155C277.564 161.854 276.006 161.284 274.651 161.838L250.877 171.566C249.485 172.136 248.779 173.696 249.267 175.118L249.259 175.11Z" fill="#4BAA43"/>
<path d="M271.935 230.422L272.036 231.578C272.367 235.393 275.211 238.509 278.976 239.184L280.788 239.508C282.745 239.859 284.419 241.112 285.307 242.89L288.979 250.25C290.137 252.566 290.576 255.176 290.249 257.747L289.249 265.563C288.974 267.713 286.917 269.16 284.806 268.691L278.032 267.184C277.907 267.155 277.778 267.143 277.649 267.151L271.741 267.446C270.769 267.495 270.035 266.578 270.293 265.64L270.656 264.302C270.858 263.567 271.455 263.005 272.201 262.855L281.889 260.915C282.579 260.778 283.063 260.16 283.035 259.452L282.862 255.096C282.757 252.428 280.868 250.165 278.266 249.587L276.535 249.203C275.881 249.058 275.417 248.476 275.417 247.805V246.419C275.417 245.004 274.61 243.715 273.339 243.096L264.632 238.877C263.623 238.388 263.083 237.269 263.325 236.173L264.931 228.939C265.173 227.84 266.044 226.987 267.146 226.765L268.614 226.47C269.082 226.377 269.567 226.522 269.906 226.862L270.6 227.557C271.366 228.325 271.838 229.335 271.931 230.418L271.935 230.422Z" fill="#369149"/>
<path d="M249.114 264.278L244.615 278.658L262.029 283.774L264.047 277.473L259.528 275.913L259.762 275.024L259.273 274.709L261.206 268.008L254.516 266.068L253.278 270.11L251.502 269.645L252.66 265.207L249.114 264.278Z" fill="#DBDBDB"/>
<path d="M249.138 231.372L248.504 232.362L242.9 228.773L242.69 229.101L240.37 232.734L239.737 233.728L242.375 235.417L243.009 234.427L245.975 236.327L245.131 237.648L248.428 239.762L252.434 233.486L249.138 231.372Z" fill="#DBDBDB"/>
<path d="M257.593 241.035L252.554 243.619L254.499 247.425L259.538 244.841L257.593 241.035Z" fill="#DBDBDB"/>
<path d="M264.071 210.724L257.801 219.854L267.622 226.619L273.892 217.489L264.071 210.724ZM266.431 222.21L262.34 219.389L265.265 215.129L269.357 217.95L266.431 222.21Z" fill="#DBDBDB"/>
<path d="M294.954 258.098L294.676 251.232L294.627 250.019L294.268 241.136L291.847 241.233L291.569 234.367L279.472 234.856L279.928 246.164L281.542 246.099L281.853 253.77L283.87 253.689L284.064 258.535L284.306 264.593L295.192 264.153L300.433 263.942L300.191 257.884L294.95 258.094L294.954 258.098ZM291.226 245.711L291.403 250.153L286.565 250.347L286.388 245.905L291.226 245.711Z" fill="#DBDBDB"/>
<path opacity="0.3" d="M318.986 329.237L338.93 297.859L316.738 231.578L293.566 217.691L294.373 190.613L277.83 158.686L247.568 171.214L257.656 180.106L257.252 199.909L240.709 205.163L242.323 212.842L235.06 231.433L250.393 241.536L240.709 261.34V264.977L237.695 267.285L233.446 275.889L239.902 294.076L237.885 308.625L259.673 315.496L262.497 304.584L266.129 301.755L277.83 308.625L287.917 300.138L318.986 329.237Z" fill="#151515"/>
<path d="M266.938 298.615C266.558 298.615 266.187 298.482 265.893 298.231C265.53 297.924 265.324 297.471 265.324 296.998V275.898C265.324 275.59 265.408 275.3 265.562 275.053L263.891 274.212C263.222 273.877 262.871 273.125 263.044 272.394C263.218 271.666 263.867 271.149 264.614 271.149H269.112L273.389 269.706C273.555 269.649 273.728 269.621 273.902 269.621H288.52L294.528 266.21C294.774 266.069 295.049 266 295.323 266C295.597 266 295.868 266.069 296.114 266.206L302.174 269.617H317.333C317.551 269.617 317.765 269.662 317.967 269.746L321.239 271.145H326.109C326.856 271.145 327.509 271.658 327.679 272.39C327.852 273.117 327.501 273.873 326.832 274.208L325.25 275C325.419 275.255 325.516 275.562 325.516 275.89V283.75C325.516 284.304 325.234 284.821 324.766 285.116C323.737 285.771 322.7 286.49 321.699 287.186C319.306 288.847 316.833 290.568 314.001 291.728C313.964 291.744 313.924 291.756 313.884 291.769C308.747 293.43 303.369 293.721 298.172 294C294.391 294.206 290.481 294.416 286.793 295.163C280.967 296.323 275.032 297.297 269.294 298.239L267.192 298.587C267.103 298.603 267.018 298.607 266.93 298.607L266.938 298.615Z" fill="#004029"/>
<path d="M299.755 278.962H299.414V276.579C299.414 276.513 299.409 276.446 299.397 276.381C299.18 275.152 298.456 274.376 297.657 273.886C296.069 272.912 293.917 272.912 292.329 273.886C291.53 274.376 290.806 275.152 290.589 276.381C290.577 276.446 290.572 276.513 290.572 276.579V278.962H290.245C289.558 278.962 289 279.435 289 280.02V288.097C289 288.682 289.558 289.155 290.245 289.155H299.755C300.442 289.155 301 288.682 301 288.097V280.02C301 279.435 300.442 278.962 299.755 278.962ZM295.527 284.073V285.661H294.473V284.073C294.168 283.915 293.967 283.626 293.979 283.298C293.996 282.84 294.436 282.467 294.975 282.456C295.551 282.445 296.021 282.839 296.021 283.327C296.021 283.643 295.823 283.92 295.527 284.073ZM297.79 278.962H292.196V276.893C292.196 276.42 292.334 275.954 292.603 275.541C292.977 274.967 293.682 274.364 294.993 274.364C296.305 274.364 297.024 274.979 297.395 275.559C297.657 275.969 297.79 276.43 297.79 276.896V278.962Z" fill="#A6A6A6"/>
</svg>
