<svg width="347" height="409" viewBox="0 0 347 409" fill="none" xmlns="http://www.w3.org/2000/svg">
<path d="M240.055 304.705L239.45 306.52C239.26 307.09 239.575 307.704 240.148 307.886L257.401 313.285C257.986 313.467 258.604 313.124 258.757 312.529L260.714 305.012C260.823 304.596 260.669 304.151 260.331 303.889L256.158 300.676C255.844 300.433 255.424 300.385 255.061 300.55L248.202 303.675C247.262 304.103 246.233 304.293 245.208 304.228L241.141 303.974C240.656 303.941 240.209 304.244 240.055 304.705Z" fill="#4BAA43"/>
<path d="M239.938 281.923L258.095 286.975C259.818 287.456 261.134 288.846 261.517 290.596L263.47 299.532C263.635 300.296 263.458 301.1 262.969 301.71C262.441 302.373 261.747 303.113 261.303 303.113C260.9 303.113 258.462 300.328 256.59 298.885C255.767 298.251 254.658 298.13 253.709 298.562L247.641 301.326C246.806 301.706 245.894 301.872 244.978 301.811L242.016 301.613C241.193 301.557 240.628 300.777 240.818 299.973C241.379 297.58 241.899 292.193 239.333 282.533C239.236 282.166 239.571 281.826 239.938 281.927V281.923Z" fill="#4BAA43"/>
<path d="M254.432 302.967L247.738 305.699C246.818 306.075 246.834 307.388 247.762 307.74L255.352 310.626C256.207 310.949 257.171 310.573 257.579 309.753L258.103 308.702C258.337 308.233 258.354 307.683 258.148 307.198L256.744 303.913C256.36 303.02 255.332 302.595 254.432 302.963V302.967Z" fill="#369149"/>
<path d="M253.291 298.482L248.371 300.303L250.189 305.231L255.109 303.41L253.291 298.482Z" fill="#DBDBDB"/>
<path d="M239.067 278.682L260.383 284.833C261.339 285.108 262.336 284.566 262.626 283.616L267.686 267.054C267.953 266.181 267.533 265.244 266.702 264.864L259.08 261.372C255.759 259.852 252.132 259.133 248.484 259.274L244.631 259.424C243.961 259.448 243.356 259.844 243.065 260.446L236.69 273.569C236.432 274.103 236.432 274.729 236.698 275.262L237.937 277.744C238.163 278.201 238.57 278.54 239.063 278.682H239.067Z" fill="#4BAA43"/>
<path d="M279.347 300.704L270.281 301.742C269.336 301.851 269.102 303.121 269.946 303.561L276.422 306.932C276.878 307.17 277.438 307.008 277.697 306.564L280.287 302.155C280.691 301.468 280.138 300.615 279.347 300.704Z" fill="#4BAA43"/>
<path d="M293.731 294.391L294.676 302.907C294.748 303.565 295.039 304.18 295.503 304.653L309.564 319.065C310.888 320.419 313.123 320.204 314.16 318.616L324.029 303.525C326.2 300.207 326.717 296.069 325.433 292.314L318.586 272.333C318.336 271.597 317.803 270.991 317.109 270.643L306.465 265.313C305.715 264.937 305.158 264.258 304.932 263.445L293.707 222.469C293.219 220.69 291.246 219.781 289.579 220.573L278.088 226.041C277.18 226.474 276.555 227.339 276.422 228.333L271.41 266.545C271.394 266.675 271.366 266.804 271.334 266.933L270.761 269.059C269.55 273.553 271.35 278.318 275.227 280.881L292.416 292.245C293.15 292.73 293.63 293.518 293.727 294.395L293.731 294.391Z" fill="#4BAA43"/>
<path d="M301.144 238.821L307.914 263.231C308.031 263.656 308.346 263.999 308.761 264.157L312.114 265.418C313.151 265.81 314.205 264.876 313.942 263.797L312.026 255.908C311.299 252.913 310.061 250.068 308.37 247.494L302.318 238.287C301.91 237.665 300.946 238.105 301.144 238.821Z" fill="#4BAA43"/>
<path d="M249.259 175.11L256.417 195.932C256.699 196.748 256.59 197.65 256.126 198.381L254.577 200.822C254.226 201.372 253.701 201.784 253.084 201.99L243.489 205.195C242.605 205.49 242.081 206.404 242.274 207.321L243.17 211.585C243.416 212.765 243.324 213.993 242.892 215.121L237.945 228.131C237.453 229.424 237.965 230.883 239.156 231.586L250.623 238.36C251.878 239.099 252.366 240.675 251.752 241.997L246.846 252.602C246.023 254.376 247.201 256.433 249.146 256.619L255.485 257.233C256.937 257.375 258.362 257.723 259.717 258.264L266.435 260.956C268.138 261.639 270.03 260.543 270.293 258.725L274.796 226.292C274.937 225.31 275.578 224.473 276.49 224.085L290.334 217.728C291.335 217.303 292.004 216.342 292.057 215.254L292.743 191.935C292.767 191.434 292.658 190.933 292.428 190.488L278.237 163.155C277.564 161.854 276.006 161.284 274.65 161.838L250.877 171.566C249.485 172.136 248.779 173.696 249.267 175.118L249.259 175.11Z" fill="#4BAA43"/>
<path d="M271.935 230.422L272.036 231.578C272.367 235.393 275.211 238.509 278.976 239.184L280.787 239.507C282.744 239.859 284.419 241.112 285.307 242.89L288.978 250.25C290.136 252.565 290.576 255.176 290.249 257.747L289.249 265.563C288.974 267.713 286.916 269.16 284.806 268.691L278.032 267.183C277.907 267.155 277.777 267.143 277.648 267.151L271.741 267.446C270.769 267.495 270.034 266.577 270.293 265.64L270.656 264.302C270.858 263.566 271.455 263.005 272.201 262.855L281.889 260.915C282.579 260.778 283.063 260.159 283.035 259.452L282.861 255.095C282.756 252.428 280.868 250.165 278.266 249.587L276.535 249.203C275.881 249.057 275.417 248.475 275.417 247.805V246.418C275.417 245.004 274.61 243.715 273.339 243.096L264.632 238.877C263.623 238.388 263.082 237.268 263.324 236.173L264.93 228.939C265.172 227.839 266.044 226.987 267.146 226.764L268.614 226.469C269.082 226.376 269.566 226.522 269.905 226.861L270.599 227.557C271.366 228.324 271.838 229.335 271.931 230.418L271.935 230.422Z" fill="#369149"/>
<path d="M249.114 264.278L244.615 278.658L262.029 283.774L264.047 277.473L259.528 275.913L259.762 275.024L259.273 274.709L261.206 268.008L254.516 266.068L253.278 270.11L251.502 269.645L252.66 265.207L249.114 264.278Z" fill="#DBDBDB"/>
<path d="M249.138 231.372L248.504 232.362L242.9 228.773L242.69 229.101L240.37 232.734L239.737 233.728L242.375 235.418L243.009 234.427L245.975 236.327L245.131 237.649L248.428 239.762L252.434 233.486L249.138 231.372Z" fill="#DBDBDB"/>
<path d="M257.593 241.035L252.554 243.619L254.499 247.425L259.538 244.841L257.593 241.035Z" fill="#DBDBDB"/>
<path d="M264.071 210.724L257.801 219.854L267.622 226.619L273.892 217.49L264.071 210.724ZM266.431 222.21L262.34 219.389L265.265 215.129L269.357 217.95L266.431 222.21Z" fill="#DBDBDB"/>
<path d="M294.954 258.098L294.676 251.232L294.627 250.019L294.268 241.136L291.847 241.233L291.569 234.367L279.472 234.856L279.928 246.164L281.542 246.099L281.853 253.77L283.87 253.689L284.064 258.535L284.306 264.593L295.192 264.153L300.433 263.942L300.191 257.884L294.95 258.094L294.954 258.098ZM291.226 245.711L291.403 250.153L286.565 250.347L286.388 245.905L291.226 245.711Z" fill="#DBDBDB"/>
<path d="M266.938 298.615C266.558 298.615 266.187 298.482 265.893 298.231C265.53 297.924 265.324 297.471 265.324 296.998V275.898C265.324 275.59 265.408 275.3 265.562 275.053L263.891 274.212C263.222 273.877 262.871 273.125 263.044 272.394C263.218 271.666 263.867 271.149 264.614 271.149H269.112L273.389 269.706C273.555 269.649 273.728 269.621 273.902 269.621H288.52L294.528 266.21C294.774 266.069 295.049 266 295.323 266C295.597 266 295.868 266.069 296.114 266.206L302.174 269.617H317.333C317.551 269.617 317.765 269.662 317.967 269.746L321.239 271.145H326.109C326.856 271.145 327.509 271.658 327.679 272.39C327.852 273.117 327.501 273.873 326.832 274.208L325.25 275C325.419 275.255 325.516 275.562 325.516 275.89V283.75C325.516 284.304 325.234 284.821 324.766 285.116C323.737 285.771 322.7 286.49 321.699 287.186C319.306 288.847 316.833 290.568 314.001 291.728C313.964 291.744 313.924 291.756 313.884 291.769C308.747 293.43 303.369 293.721 298.172 294C294.391 294.206 290.481 294.416 286.793 295.163C280.967 296.323 275.032 297.297 269.294 298.239L267.192 298.587C267.103 298.603 267.018 298.607 266.93 298.607L266.938 298.615Z" fill="white"/>
<path d="M305.511 291.764C306.475 291.57 307.533 291.473 308.497 291.38C314.174 291.069 318.471 287.359 323.059 284.32V273.687H267.494V296.913C273.934 295.854 280.273 294.84 286.934 293.506C293.289 292.253 299.16 292.734 305.515 291.772L305.511 291.764Z" fill="#C6E5F4"/>
<path d="M269.185 273.683H267.49V276.932H269.185V273.683Z" fill="#DBDBDB"/>
<path d="M323.055 273.683H321.324V276.932H323.055V273.683Z" fill="#DBDBDB"/>
<path d="M268.152 273.181L273.906 271.246H317.341L323.055 273.683L268.152 273.181Z" fill="#13D3BC"/>
<path d="M323.228 274.22H267.503L264.614 272.77H326.117L323.228 274.22Z" fill="#F0F0F0"/>
<path d="M304.252 275.675V272.648L295.331 267.625L286.483 272.648V275.675H290.937V292.904C293.951 292.585 296.901 292.512 299.895 292.326V275.675H304.256H304.252Z" fill="#F0F0F0"/>
<path d="M303.401 288.899L302.937 276.185V273.606L295.331 269.326L287.794 273.606V276.185L287.693 288.899" fill="#F0F0F0"/>
<path d="M303.199 288.907L302.735 276.193V273.723L295.335 269.557L287.996 273.723V276.185L287.895 288.899L287.491 288.895L287.592 276.185V273.485L295.331 269.092L303.139 273.485V276.185L303.602 288.891L303.199 288.907Z" fill="#A6A6A6"/>
<path d="M286.479 275.38V293.587C286.628 293.559 286.777 293.527 286.93 293.498C288.399 293.207 289.844 293.013 291.272 292.868V275.38H286.479Z" fill="#DBDBDB"/>
<path d="M299.891 275.453V292.326C301.331 292.237 302.78 292.12 304.252 291.938V275.453H299.891Z" fill="#DBDBDB"/>
<path d="M282.569 276.027V294.339C284.009 294.072 285.462 293.793 286.926 293.502C288.044 293.28 289.146 293.114 290.235 292.985V276.031H282.565L282.569 276.027Z" fill="#F0F0F0"/>
<path d="M300.415 275.897V292.294C302.09 292.181 303.78 292.027 305.511 291.764C306.338 291.599 307.238 291.506 308.085 291.421V275.897H300.415Z" fill="#F0F0F0"/>
<path d="M295.363 272.575C297.417 272.575 299.088 274.248 299.088 276.305V280.185H291.639V276.305C291.639 274.248 293.31 272.575 295.363 272.575Z" fill="#A6A6A6"/>
<path d="M295.363 273.388C293.653 273.388 292.265 274.778 292.265 276.492V292.779C294.343 292.601 296.392 292.52 298.458 292.411V276.492C298.458 274.778 297.07 273.388 295.359 273.388H295.363Z" fill="#8EC7ED"/>
<path d="M300.06 286.793H290.667V288.64H300.06V286.793Z" fill="#A6A6A6"/>
<path d="M295.807 271.872H294.924V273.905H295.807V271.872Z" fill="#A6A6A6"/>
<path d="M285.998 279.482H284.893V281.552H285.998V279.482Z" fill="#8EC7ED"/>
<path d="M287.806 279.482H286.7V281.552H287.806V279.482Z" fill="#8EC7ED"/>
<path d="M285.998 285.04H284.893V292.003H285.998V285.04Z" fill="#8EC7ED"/>
<path d="M287.806 285.04H286.7V292.003H287.806V285.04Z" fill="#8EC7ED"/>
<path d="M274.285 275.897V295.786C276.508 295.414 278.74 295.034 280.991 294.626V275.897H274.285Z" fill="#F0F0F0"/>
<path d="M316.563 275.898H309.857V291.235C312.29 290.863 314.477 289.881 316.563 288.649V275.894V275.898Z" fill="#F0F0F0"/>
<path d="M303.917 279.482H302.812V281.552H303.917V279.482Z" fill="#8EC7ED"/>
<path d="M305.725 279.482H304.619V281.552H305.725V279.482Z" fill="#8EC7ED"/>
<path d="M303.917 283.1H302.812V289.748H303.917V283.1Z" fill="#8EC7ED"/>
<path d="M305.725 283.1H304.619V289.748H305.725V283.1Z" fill="#8EC7ED"/>
<path d="M266.938 275.897V296.998C269.181 296.63 271.408 296.267 273.644 295.895V275.897H266.938Z" fill="#F0F0F0"/>
<path d="M323.91 275.897H317.204V288.26C319.476 286.858 321.647 285.197 323.91 283.758V275.897Z" fill="#F0F0F0"/>
<path d="M306.649 292.181L307.46 292.565C308.101 292.872 308.86 292.799 309.433 292.379L310.074 291.91C310.317 291.732 310.413 291.413 310.304 291.13L310.256 291.005C310.228 290.936 310.159 290.891 310.083 290.904L309.945 290.924C309.816 290.944 309.719 290.811 309.78 290.693L309.885 290.487C309.99 290.281 309.99 290.035 309.885 289.829L309.715 289.493C309.683 289.428 309.606 289.392 309.534 289.412C309.413 289.445 309.308 289.331 309.34 289.214L309.352 289.178C309.417 288.956 309.389 288.713 309.276 288.511L308.509 287.129C308.457 287.032 308.319 287.02 308.251 287.105L307.754 287.687C307.718 287.731 307.706 287.792 307.726 287.848L307.884 288.269C307.912 288.341 307.884 288.426 307.811 288.467C307.75 288.499 307.674 288.491 307.625 288.442L307.496 288.317C307.411 288.236 307.27 288.273 307.234 288.382L307.109 288.766C307.012 289.065 307.117 289.388 307.367 289.578C307.472 289.655 307.444 289.82 307.319 289.857L306.96 289.966C306.907 289.982 306.871 290.023 306.855 290.071L306.721 290.499C306.661 290.697 306.742 290.908 306.919 291.017C307.048 291.094 307.008 291.292 306.859 291.312L306.625 291.344C306.568 291.352 306.52 291.393 306.496 291.445L306.423 291.635C306.342 291.849 306.439 292.088 306.645 292.185L306.649 292.181Z" fill="#4BAA43"/>
<path d="M283.469 295.01L282.658 295.394C282.016 295.701 281.257 295.628 280.685 295.208L280.043 294.739C279.801 294.561 279.704 294.242 279.813 293.959L279.861 293.834C279.89 293.765 279.958 293.721 280.035 293.733L280.172 293.753C280.301 293.773 280.398 293.64 280.338 293.523L280.233 293.316C280.128 293.11 280.128 292.864 280.233 292.658L280.402 292.322C280.434 292.258 280.511 292.221 280.584 292.241C280.705 292.274 280.81 292.161 280.777 292.043L280.765 292.007C280.701 291.785 280.729 291.542 280.842 291.34L281.609 289.958C281.661 289.861 281.798 289.849 281.867 289.934L282.363 290.516C282.399 290.56 282.411 290.621 282.391 290.677L282.234 291.098C282.206 291.17 282.234 291.255 282.307 291.296C282.367 291.328 282.444 291.32 282.492 291.271L282.621 291.146C282.706 291.065 282.847 291.102 282.884 291.211L283.009 291.595C283.105 291.894 283.001 292.217 282.75 292.407C282.645 292.484 282.674 292.65 282.799 292.686L283.158 292.795C283.21 292.811 283.247 292.852 283.263 292.9L283.396 293.329C283.456 293.527 283.376 293.737 283.198 293.846C283.069 293.923 283.11 294.121 283.259 294.141L283.493 294.173C283.549 294.181 283.598 294.222 283.622 294.274L283.695 294.464C283.775 294.678 283.678 294.917 283.473 295.014L283.469 295.01Z" fill="#4BAA43"/>
<path d="M266.474 297.156L266.885 297.406C267.393 297.718 268.015 297.77 268.568 297.552L269.705 297.107C269.778 297.079 269.863 297.079 269.935 297.107L270.363 297.277C270.698 297.41 271.061 297.455 271.416 297.406L271.872 297.346C272.163 297.305 272.433 297.172 272.639 296.966L272.857 296.748C272.945 296.659 272.974 296.521 272.925 296.4L272.776 296.036C272.594 295.596 272.147 295.321 271.67 295.353C271.545 295.361 271.428 295.297 271.368 295.188L271.069 294.622C270.916 294.331 270.658 294.108 270.347 293.995L269.835 293.813C269.455 293.68 269.04 293.716 268.689 293.915L268.229 294.177C267.89 294.371 267.656 294.703 267.583 295.087L267.531 295.369C267.511 295.475 267.442 295.563 267.341 295.604L266.405 295.996C266.32 296.032 266.256 296.101 266.227 296.19L266.179 296.339C266.078 296.647 266.199 296.982 266.478 297.152L266.474 297.156Z" fill="#4BAA43"/>
</svg>
