<svg width="60" height="31" viewBox="0 0 60 31" fill="none" xmlns="http://www.w3.org/2000/svg">
<path d="M36.7859 30.1253C36.576 30.1253 36.3743 30.0849 36.1887 30.0122H14.8522C13.9605 30.0122 13.2383 29.2888 13.2383 28.3956V27.7409H9.30427L1.78728 27.6277C0.911705 27.6156 0.209635 26.9083 0.19753 26.0313L-0.000175313 10.6493C-0.0042102 10.2088 0.169295 9.78448 0.484016 9.47328C0.786632 9.17825 1.19012 9.01254 1.61378 9.01254C1.62992 9.01254 2.17866 9.02871 2.17866 9.02871L2.16656 8.81451C2.14235 8.37399 2.30374 7.94154 2.61039 7.61822C2.91705 7.29894 3.33667 7.11708 3.78051 7.11708H4.02664L4.01857 6.89883C4.00243 6.45023 4.17594 6.01375 4.49469 5.69447C4.79731 5.39136 5.20482 5.22566 5.63252 5.22566C5.65673 5.22566 5.78989 5.2297 5.78989 5.2297V5.15292C5.78585 4.64369 6.01987 4.16274 6.41933 3.85558L10.6035 0.638552C10.89 0.416269 11.237 0.303113 11.588 0.303113C11.8745 0.303113 12.161 0.379892 12.4192 0.533469L16.9544 3.2534C17.023 3.1362 17.1077 3.02708 17.2086 2.93009C17.3781 2.76035 17.5838 2.63101 17.8098 2.55422C18.4998 1.03462 19.9927 0 21.6833 0C23.3739 0 24.9919 1.1195 25.6415 2.74014C26.0248 2.99071 26.2992 3.40698 26.3597 3.88388C26.6543 3.52418 27.1021 3.29382 27.6065 3.29382H36.6204V1.63276C36.6204 0.739586 37.3427 0.0161571 38.2344 0.0161571H42.8382C43.7299 0.0161571 44.4521 0.739586 44.4521 1.63276V2.75629L47.785 0.565808C48.0553 0.387982 48.3619 0.299067 48.6686 0.299067C48.9753 0.299067 49.3061 0.392027 49.5805 0.581977L54.2609 3.79901C54.7048 4.10212 54.967 4.6073 54.963 5.14482V5.22161C55.8144 5.29032 56.468 6.02183 56.4438 6.87863L56.4358 7.109C56.8392 7.12517 57.2266 7.29087 57.5131 7.57782C57.8237 7.88901 57.9972 8.30933 57.9892 8.74985V8.99638L58.2192 9.00042C59.1028 9.01659 59.8089 9.7481 59.8008 10.6332L59.6354 26.0151C59.6273 26.8962 58.9132 27.6075 58.0336 27.6156L47.1757 27.7085C47.095 27.7207 47.0103 27.7287 46.9215 27.7287H44.44V28.4966C44.44 29.3898 43.7178 30.1132 42.8261 30.1132H36.7737L36.7859 30.1253Z" fill="#F244C5"/>
<path d="M28.1325 16.5493C28.1325 17.1413 28.0245 17.6933 27.8085 18.2053C27.5925 18.7173 27.2845 19.1613 26.8845 19.5373C26.4925 19.9133 26.0205 20.2093 25.4685 20.4253C24.9245 20.6413 24.3245 20.7493 23.6685 20.7493H20.3925V12.3493H23.6685C24.3245 12.3493 24.9245 12.4573 25.4685 12.6733C26.0205 12.8813 26.4925 13.1733 26.8845 13.5493C27.2845 13.9253 27.5925 14.3693 27.8085 14.8813C28.0245 15.3853 28.1325 15.9333 28.1325 16.5253V16.5493ZM26.2005 16.5733V16.5493C26.2005 16.1813 26.1365 15.8413 26.0085 15.5293C25.8885 15.2173 25.7165 14.9493 25.4925 14.7253C25.2765 14.5013 25.0125 14.3293 24.7005 14.2093C24.3885 14.0813 24.0445 14.0173 23.6685 14.0173H22.2405V19.0813H23.6685C24.0445 19.0813 24.3885 19.0213 24.7005 18.9013C25.0125 18.7813 25.2765 18.6093 25.4925 18.3853C25.7165 18.1613 25.8885 17.8973 26.0085 17.5933C26.1365 17.2893 26.2005 16.9493 26.2005 16.5733ZM33.0672 17.9053H29.3712V16.1533H33.0672V17.9053ZM40.6297 13.1293L39.6577 14.5573C39.5217 14.4533 39.3897 14.3613 39.2617 14.2813C39.1337 14.1933 39.0017 14.1213 38.8657 14.0653C38.7297 14.0093 38.5857 13.9653 38.4337 13.9333C38.2817 13.9013 38.1177 13.8853 37.9417 13.8853C37.6777 13.8853 37.4457 13.9373 37.2457 14.0413C37.0537 14.1373 36.8857 14.2733 36.7417 14.4493C36.6057 14.6173 36.4977 14.8213 36.4177 15.0613C36.3377 15.3013 36.2817 15.5573 36.2497 15.8293C36.4577 15.6933 36.6937 15.5693 36.9577 15.4573C37.2297 15.3453 37.5737 15.2893 37.9897 15.2893C38.4057 15.2893 38.7937 15.3493 39.1537 15.4693C39.5137 15.5813 39.8257 15.7493 40.0897 15.9733C40.3537 16.1973 40.5617 16.4773 40.7137 16.8133C40.8657 17.1493 40.9417 17.5373 40.9417 17.9773C40.9417 18.4093 40.8577 18.8053 40.6897 19.1653C40.5297 19.5173 40.3057 19.8253 40.0177 20.0893C39.7377 20.3453 39.4017 20.5453 39.0097 20.6893C38.6177 20.8253 38.1937 20.8933 37.7377 20.8933C37.1857 20.8933 36.7177 20.8173 36.3337 20.6653C35.9497 20.5133 35.6097 20.2893 35.3137 19.9933C35.0097 19.6893 34.7657 19.2933 34.5817 18.8053C34.4057 18.3093 34.3177 17.6413 34.3177 16.8013C34.3177 16.1533 34.3897 15.5493 34.5337 14.9893C34.6857 14.4293 34.9137 13.9453 35.2177 13.5373C35.5217 13.1213 35.9057 12.7973 36.3697 12.5653C36.8337 12.3253 37.3777 12.2053 38.0017 12.2053C38.2897 12.2053 38.5537 12.2253 38.7937 12.2653C39.0337 12.3053 39.2577 12.3653 39.4657 12.4453C39.6737 12.5253 39.8737 12.6253 40.0657 12.7453C40.2577 12.8573 40.4457 12.9853 40.6297 13.1293ZM39.1057 18.0613C39.1057 17.7013 38.9737 17.4053 38.7097 17.1733C38.4537 16.9413 38.0977 16.8253 37.6417 16.8253C37.1857 16.8253 36.8297 16.9413 36.5737 17.1733C36.3257 17.3973 36.2017 17.6893 36.2017 18.0493C36.2017 18.4173 36.3297 18.7213 36.5857 18.9613C36.8497 19.1933 37.2097 19.3093 37.6657 19.3093C38.1217 19.3093 38.4737 19.1933 38.7217 18.9613C38.9777 18.7293 39.1057 18.4293 39.1057 18.0613Z" fill="white"/>
</svg>
