<svg width="347" height="409" viewBox="0 0 347 409" fill="none" xmlns="http://www.w3.org/2000/svg">
<path d="M146.329 194.166L151.639 198.822C152.898 199.925 154.831 199.731 155.843 198.397L172.794 176.092C173.762 174.819 173.516 173.001 172.241 172.031L166.746 167.848C165.479 166.882 163.675 167.124 162.703 168.389L145.938 190.221C145.006 191.434 145.175 193.16 146.325 194.166H146.329Z" fill="#4BAA43"/>
<path d="M169.344 187.069L171.249 188.338C171.709 188.645 172.33 188.528 172.641 188.071L178.818 179.136C179.113 178.707 179.04 178.125 178.645 177.79L177.325 176.654C176.885 176.274 176.22 176.347 175.864 176.808L169.106 185.61C168.747 186.075 168.86 186.746 169.348 187.073L169.344 187.069Z" fill="#4BAA43"/>
<path d="M162.158 193.507L157.191 201.133C156.929 201.533 156.985 202.067 157.324 202.402L157.99 203.069C158.406 203.486 159.092 203.461 159.475 203.013L165.374 196.118C165.737 195.698 165.689 195.063 165.273 194.695L163.675 193.297C163.211 192.893 162.497 192.99 162.162 193.507H162.158Z" fill="#4BAA43"/>
<path d="M180.581 180.57L162.912 203.639C162.166 204.613 162.202 205.975 162.993 206.909L165.777 210.19C167.028 211.661 169.384 211.31 170.147 209.532C173.012 202.835 178.887 189.037 181.985 181.37C182.34 180.489 181.158 179.814 180.581 180.57Z" fill="#4BAA43"/>
<path d="M185.096 179.851L173.641 210.797C172.971 212.607 173.464 214.648 174.888 215.949L179.851 220.488C180.638 221.207 181.913 220.694 181.977 219.627L182.433 212.405C182.821 209.851 183.668 207.386 184.939 205.138L191.867 192.877C194.029 189.053 196.64 185.501 199.646 182.3L225.804 154.462C226.853 153.347 228.152 152.502 229.597 151.993L233.817 150.514C234.866 150.146 235.698 149.333 236.089 148.291L267.755 79.3427C268.219 78.3323 267.888 77.132 266.968 76.5096L261.4 72.7146C259.612 71.4981 257.284 71.4132 255.412 72.5004L235.524 84.0672C234.249 84.8108 232.667 84.7946 231.405 84.0308L218.432 76.1741C217.141 75.3901 215.459 75.7942 214.664 77.0794L201.49 98.3216C200.211 100.387 199.259 102.638 198.67 104.998L192.871 128.233C191.96 131.882 190.265 135.285 187.896 138.207L168.549 162.105C167.851 162.965 168.004 164.23 168.884 164.901L184.12 176.512C185.137 177.288 185.532 178.642 185.084 179.843L185.096 179.851Z" fill="#4BAA43"/>
<path d="M198.355 194.396L212.731 205.268C216.116 207.83 220.531 208.598 224.582 207.337L249.158 199.679C252.075 198.769 253.701 195.661 252.79 192.743L247.064 174.391C246.624 172.98 245.587 171.841 244.227 171.271L237.215 168.325C235.258 167.504 234.14 165.423 234.532 163.337L235.976 155.626C236.117 154.87 235.419 154.228 234.677 154.434L230.755 155.525C229.621 155.84 228.592 156.463 227.789 157.324L197.951 189.15L198.355 194.404V194.396Z" fill="#4BAA43"/>
<path d="M221.841 120.197L209.355 114.505L200.664 133.634L213.15 139.325L221.841 120.197Z" fill="#369149"/>
<path d="M153.435 198.017L148.548 194.364L167.254 168.894L172.136 172.548L153.435 198.017Z" fill="#DBDBDB"/>
<path d="M203.548 160.824L208.063 154.139L193.69 144.399L187.344 140.095L182.829 146.779L173.544 160.52L170.784 164.602L177.135 168.907L186.492 175.248L189.252 171.166L179.895 164.821L189.175 151.084L203.548 160.824Z" fill="#DBDBDB"/>
<path d="M231.398 103.752L202.959 100.289L201.888 109.116L230.327 112.578L231.398 103.752Z" fill="#DBDBDB"/>
<path d="M251.603 106.304L253.94 101.878L256.312 97.3761L258.668 92.9142L260.343 90.1499L247.625 82.4185L244.046 88.3231L247.94 90.6874L247.008 92.4535L243.158 90.4126L240.786 94.9148L244.635 96.9517L243.687 98.7461L239.487 96.8911L236.707 103.212L250.32 109.218L251.603 106.304Z" fill="#DBDBDB"/>
<path d="M254.584 74.4084L251.068 81.2319L262.183 86.9782L265.699 80.1546L254.584 74.4084Z" fill="#DBDBDB"/>
<path d="M219.496 93.0567L207.953 91.1384L206.698 98.7137L218.242 100.632L219.496 93.0567Z" fill="#DBDBDB"/>
<path d="M225.336 96.4932L220.559 95.6995L220.031 98.8891L224.807 99.6828L225.336 96.4932Z" fill="#DBDBDB"/>
<path d="M230.915 97.4193L226.139 96.6255L225.611 99.8151L230.387 100.609L230.915 97.4193Z" fill="#DBDBDB"/>
<path d="M228.199 84.1215L216.348 78.0417L211.566 87.3943L223.417 93.4741L228.199 84.1215Z" fill="#DBDBDB"/>
<path opacity="0.3" d="M216.27 63.8557L234.427 70.3221L245.724 64.664L258.463 69.3683L270.164 77.4513L239.095 148.178L236.674 165.556L247.568 171.214L257.656 180.105L257.252 199.909L240.709 205.163L216.5 210.417L202.378 200.717H194.711V192.634L184.221 208.8L182.607 225.37L134.995 185.359L180.71 136.397L183.991 106.696L216.27 63.8557Z" fill="#151515"/>
<path d="M231.786 202.125C231.576 202.125 231.374 202.085 231.189 202.012H209.852C208.961 202.012 208.238 201.289 208.238 200.396V199.741H204.304L196.787 199.628C195.912 199.616 195.21 198.908 195.198 198.031L195 182.649C194.996 182.209 195.169 181.784 195.484 181.473C195.787 181.178 196.19 181.013 196.614 181.013C196.63 181.013 197.179 181.029 197.179 181.029L197.167 180.815C197.142 180.374 197.304 179.942 197.61 179.618C197.917 179.299 198.337 179.117 198.781 179.117H199.027L199.019 178.899C199.002 178.45 199.176 178.014 199.495 177.694C199.797 177.391 200.205 177.226 200.633 177.226C200.657 177.226 200.79 177.23 200.79 177.23V177.153C200.786 176.644 201.02 176.163 201.419 175.856L205.603 172.639C205.89 172.416 206.237 172.303 206.588 172.303C206.874 172.303 207.161 172.38 207.419 172.533L211.954 175.253C212.023 175.136 212.108 175.027 212.209 174.93C212.378 174.76 212.584 174.631 212.81 174.554C213.5 173.035 214.993 172 216.683 172C218.374 172 219.992 173.119 220.642 174.74C221.025 174.991 221.299 175.407 221.36 175.884C221.654 175.524 222.102 175.294 222.607 175.294H231.62V173.633C231.62 172.74 232.343 172.016 233.234 172.016H237.838C238.73 172.016 239.452 172.74 239.452 173.633V174.756L242.785 172.566C243.055 172.388 243.362 172.299 243.669 172.299C243.975 172.299 244.306 172.392 244.58 172.582L249.261 175.799C249.705 176.102 249.967 176.607 249.963 177.145V177.222C250.814 177.29 251.468 178.022 251.444 178.879L251.436 179.109C251.839 179.125 252.227 179.291 252.513 179.578C252.824 179.889 252.997 180.309 252.989 180.75V180.996L253.219 181C254.103 181.017 254.809 181.748 254.801 182.633L254.635 198.015C254.627 198.896 253.913 199.607 253.034 199.616L242.176 199.709C242.095 199.721 242.01 199.729 241.921 199.729H239.44V200.497C239.44 201.39 238.718 202.113 237.826 202.113H231.774L231.786 202.125Z" fill="#004029"/>
<path d="M229.754 186.43H229.414V184.048C229.414 183.981 229.408 183.915 229.397 183.85C229.18 182.621 228.456 181.845 227.657 181.354C226.069 180.381 223.917 180.381 222.329 181.354C221.53 181.845 220.806 182.621 220.589 183.85C220.577 183.915 220.572 183.982 220.572 184.048V186.43H220.245C219.557 186.43 219 186.904 219 187.488V195.566C219 196.15 219.557 196.624 220.245 196.624H229.754C230.442 196.624 231 196.15 231 195.566V187.488C231 186.904 230.442 186.43 229.754 186.43ZM225.527 191.541V193.13H224.472V191.541C224.168 191.384 223.967 191.095 223.979 190.767C223.996 190.309 224.435 189.936 224.975 189.925C225.551 189.914 226.021 190.308 226.021 190.796C226.021 191.112 225.823 191.389 225.527 191.541ZM227.79 186.43H222.196V184.361C222.196 183.889 222.333 183.423 222.603 183.009C222.976 182.435 223.681 181.833 224.993 181.833C226.304 181.833 227.024 182.448 227.395 183.027C227.657 183.437 227.79 183.898 227.79 184.365V186.43Z" fill="#A6A6A6"/>
</svg>
