<svg width="347" height="409" viewBox="0 0 347 409" fill="none" xmlns="http://www.w3.org/2000/svg">
<path d="M146.329 194.166L151.639 198.822C152.898 199.925 154.831 199.731 155.843 198.398L172.794 176.093C173.762 174.819 173.516 173.001 172.241 172.031L166.746 167.848C165.479 166.882 163.675 167.124 162.703 168.389L145.938 190.222C145.006 191.434 145.175 193.16 146.325 194.166H146.329Z" fill="#4BAA43"/>
<path d="M169.344 187.069L171.249 188.338C171.709 188.645 172.33 188.528 172.641 188.072L178.818 179.136C179.113 178.707 179.04 178.125 178.645 177.79L177.325 176.654C176.885 176.274 176.22 176.347 175.864 176.808L169.106 185.61C168.747 186.075 168.86 186.746 169.348 187.073L169.344 187.069Z" fill="#4BAA43"/>
<path d="M162.158 193.507L157.191 201.133C156.929 201.533 156.985 202.067 157.324 202.402L157.99 203.069C158.406 203.486 159.092 203.461 159.475 203.013L165.374 196.118C165.737 195.698 165.689 195.063 165.273 194.695L163.675 193.297C163.211 192.893 162.497 192.99 162.162 193.507H162.158Z" fill="#4BAA43"/>
<path d="M180.581 180.57L162.912 203.639C162.166 204.613 162.202 205.975 162.993 206.909L165.777 210.19C167.028 211.661 169.384 211.31 170.147 209.532C173.012 202.835 178.887 189.037 181.985 181.37C182.34 180.489 181.158 179.814 180.581 180.57Z" fill="#4BAA43"/>
<path d="M185.096 179.851L173.641 210.797C172.971 212.607 173.464 214.648 174.888 215.95L179.851 220.488C180.638 221.208 181.913 220.694 181.977 219.627L182.433 212.405C182.821 209.851 183.668 207.386 184.939 205.139L191.867 192.877C194.029 189.054 196.64 185.501 199.646 182.3L225.804 154.462C226.853 153.347 228.152 152.502 229.597 151.993L233.817 150.514C234.866 150.146 235.698 149.334 236.089 148.291L267.755 79.3429C268.219 78.3325 267.888 77.1322 266.968 76.5098L261.4 72.7148C259.612 71.4984 257.284 71.4135 255.412 72.5006L235.524 84.0674C234.249 84.8111 232.667 84.7949 231.405 84.031L218.432 76.1744C217.141 75.3903 215.459 75.7945 214.664 77.0797L201.49 98.3218C200.211 100.387 199.259 102.638 198.67 104.998L192.871 128.233C191.96 131.882 190.265 135.285 187.896 138.207L168.549 162.105C167.851 162.966 168.004 164.231 168.884 164.901L184.12 176.513C185.137 177.289 185.532 178.643 185.084 179.843L185.096 179.851Z" fill="#4BAA43"/>
<path d="M198.355 194.396L212.731 205.268C216.116 207.83 220.531 208.598 224.582 207.337L249.158 199.679C252.075 198.769 253.701 195.661 252.79 192.743L247.064 174.391C246.624 172.98 245.587 171.841 244.227 171.271L237.215 168.325C235.258 167.504 234.14 165.423 234.532 163.337L235.976 155.626C236.117 154.87 235.419 154.228 234.677 154.434L230.755 155.525C229.621 155.84 228.592 156.463 227.789 157.324L197.951 189.15L198.355 194.404V194.396Z" fill="#4BAA43"/>
<path d="M221.841 120.197L209.355 114.505L200.664 133.634L213.15 139.325L221.841 120.197Z" fill="#369149"/>
<path d="M153.435 198.018L148.548 194.364L167.254 168.895L172.136 172.548L153.435 198.018Z" fill="#DBDBDB"/>
<path d="M203.548 160.824L208.063 154.139L193.69 144.399L187.344 140.095L182.829 146.779L173.544 160.52L170.784 164.602L177.135 168.907L186.492 175.248L189.252 171.166L179.895 164.821L189.175 151.084L203.548 160.824Z" fill="#DBDBDB"/>
<path d="M231.398 103.752L202.959 100.29L201.888 109.116L230.327 112.578L231.398 103.752Z" fill="#DBDBDB"/>
<path d="M251.603 106.304L253.94 101.878L256.312 97.3761L258.668 92.9142L260.343 90.1499L247.625 82.4185L244.046 88.3231L247.94 90.6874L247.008 92.4535L243.158 90.4126L240.786 94.9148L244.635 96.9517L243.687 98.7461L239.487 96.8911L236.707 103.212L250.32 109.218L251.603 106.304Z" fill="#DBDBDB"/>
<path d="M254.584 74.4084L251.068 81.2319L262.183 86.9782L265.699 80.1546L254.584 74.4084Z" fill="#DBDBDB"/>
<path d="M219.496 93.0569L207.953 91.1387L206.698 98.714L218.242 100.632L219.496 93.0569Z" fill="#DBDBDB"/>
<path d="M225.336 96.4935L220.559 95.6997L220.031 98.8893L224.807 99.6831L225.336 96.4935Z" fill="#DBDBDB"/>
<path d="M230.915 97.4193L226.139 96.6255L225.611 99.8151L230.387 100.609L230.915 97.4193Z" fill="#DBDBDB"/>
<path d="M228.199 84.1217L216.348 78.042L211.566 87.3946L223.417 93.4743L228.199 84.1217Z" fill="#DBDBDB"/>
<path d="M231.786 202.125C231.576 202.125 231.374 202.085 231.189 202.012H209.852C208.961 202.012 208.238 201.289 208.238 200.396V199.741H204.304L196.787 199.628C195.912 199.616 195.21 198.908 195.198 198.031L195 182.649C194.996 182.209 195.169 181.784 195.484 181.473C195.787 181.178 196.19 181.013 196.614 181.013C196.63 181.013 197.179 181.029 197.179 181.029L197.167 180.815C197.142 180.374 197.304 179.942 197.61 179.618C197.917 179.299 198.337 179.117 198.781 179.117H199.027L199.019 178.899C199.002 178.45 199.176 178.014 199.495 177.694C199.797 177.391 200.205 177.226 200.633 177.226C200.657 177.226 200.79 177.23 200.79 177.23V177.153C200.786 176.644 201.02 176.163 201.419 175.856L205.603 172.639C205.89 172.416 206.237 172.303 206.588 172.303C206.874 172.303 207.161 172.38 207.419 172.533L211.954 175.253C212.023 175.136 212.108 175.027 212.209 174.93C212.378 174.76 212.584 174.631 212.81 174.554C213.5 173.035 214.993 172 216.683 172C218.374 172 219.992 173.119 220.642 174.74C221.025 174.991 221.299 175.407 221.36 175.884C221.654 175.524 222.102 175.294 222.607 175.294H231.62V173.633C231.62 172.74 232.343 172.016 233.234 172.016H237.838C238.73 172.016 239.452 172.74 239.452 173.633V174.756L242.785 172.566C243.055 172.388 243.362 172.299 243.669 172.299C243.975 172.299 244.306 172.392 244.58 172.582L249.261 175.799C249.705 176.102 249.967 176.607 249.963 177.145V177.222C250.814 177.29 251.468 178.022 251.444 178.879L251.436 179.109C251.839 179.125 252.227 179.291 252.513 179.578C252.824 179.889 252.997 180.309 252.989 180.75V180.996L253.219 181C254.103 181.017 254.809 181.748 254.801 182.633L254.635 198.015C254.627 198.896 253.913 199.607 253.034 199.616L242.176 199.709C242.095 199.721 242.01 199.729 241.921 199.729H239.44V200.497C239.44 201.39 238.718 202.113 237.826 202.113H231.774L231.786 202.125Z" fill="white"/>
<path d="M216.683 176.442H214.012C214.012 174.894 215.219 173.621 216.683 173.621C218.148 173.621 219.354 174.894 219.354 176.442H216.683Z" fill="#0D725F"/>
<path d="M215.856 176.098L213.342 176.082V179.562L216.296 179.865L215.856 176.098Z" fill="#F0F0F0"/>
<path d="M206.588 173.924L202.404 177.141L202.42 178.919L200.637 178.842L200.701 180.738H198.785L198.881 182.702L196.618 182.629L196.816 198.011L204.308 198.124L212.79 178.2L211.349 176.781L206.588 173.924Z" fill="#F0F0F0"/>
<path d="M243.669 173.924L248.349 177.141L248.337 178.729L249.83 178.842L249.773 180.774L251.379 180.738L251.351 182.589L253.191 182.629L253.026 198.011L239.803 198.124L238.117 178.2L239.319 176.781L243.669 173.924Z" fill="#F0F0F0"/>
<path d="M237.027 179.392L239.351 176.781V178.826L240.114 178.256V180.98L240.913 180.415V183.478L241.929 182.799V198.124H237.027V179.392Z" fill="#A6A6A6"/>
<path d="M215.856 176.098V178.632L211.349 176.781V178.826L209.267 178.256V180.98L207.084 180.414V183.478L204.308 182.799V198.124H215.856V198.807H219.758V176.098H215.856Z" fill="#DBDBDB"/>
<path d="M234.279 176.918H222.603V181.287H234.279V176.918Z" fill="#C6E5F4"/>
<path d="M234.796 180.172H222.663V182.043H234.796V180.172Z" fill="#8EC7ED"/>
<path d="M234.057 185.106H217.337V189.475H234.057V185.106Z" fill="#C6E5F4"/>
<path d="M234.057 181.473H217.337V185.842H234.057V181.473Z" fill="#C6E5F4"/>
<path d="M233.977 188.748H215.416V193.117H233.977V188.748Z" fill="#C6E5F4"/>
<path d="M233.864 192.389H212.786V196.758H233.864V192.389Z" fill="#C6E5F4"/>
<path d="M233.739 196.027H209.852V200.396H233.739V196.027Z" fill="#C6E5F4"/>
<path d="M220.875 196.706H220.545H218.971V200.282H220.545H220.875H222.449V196.706H220.875Z" fill="#8EC7ED"/>
<path d="M222.877 192.826H222.542H220.968V196.402H222.542H222.877H224.446V192.826H222.877Z" fill="#8EC7ED"/>
<path d="M224.035 189.192H223.7H222.13V192.769H223.7H224.035H225.608V189.192H224.035Z" fill="#8EC7ED"/>
<path d="M225.019 185.563H224.685H223.115V189.14H224.685H225.019H226.593V185.563H225.019Z" fill="#8EC7ED"/>
<path d="M234.8 184.743H216.594V185.927H234.8V184.743Z" fill="#6D6D6D"/>
<path d="M234.796 188.384H214.589V189.568H234.796V188.384Z" fill="#6D6D6D"/>
<path d="M234.796 192.021H211.85V193.206H234.796V192.021Z" fill="#6D6D6D"/>
<path d="M234.796 195.663H208.791V196.847H234.796V195.663Z" fill="#6D6D6D"/>
<path d="M237.834 175.985H233.23V200.509H237.834V175.985Z" fill="#DBDBDB"/>
<path d="M237.834 173.641H233.23V177.064H237.834V173.641Z" fill="#13D3BC"/>
<path d="M231.786 200.509H233.936V184.783H232.912V188.417H232.573V192.543H232.153V196.176H231.758L231.786 200.509Z" fill="#6D6D6D"/>
<path d="M246.251 197.361C246.594 196.969 246.759 196.459 246.715 195.95L246.59 194.503C246.537 193.877 246.17 193.315 245.617 193L245.456 192.907C245.246 192.79 245.145 192.543 245.214 192.317L245.634 190.935C245.807 190.361 245.779 189.742 245.549 189.185L245.383 188.78C245.222 188.388 244.927 188.065 244.548 187.863C244.387 187.778 244.282 187.616 244.274 187.435L243.923 185.693C243.693 184.759 243.548 184.424 242.991 184.052L242.813 183.931C242.111 183.462 241.74 183.692 241.022 184.137C240.308 184.577 239.605 185.442 239.722 186.259L239.989 187.511C240.013 187.669 239.961 187.827 239.848 187.94C239.371 188.425 239.097 189.067 239.077 189.738L239.057 190.405C239.045 190.894 239.137 191.379 239.335 191.828L239.488 192.175C239.557 192.333 239.541 192.515 239.448 192.656L239.408 192.721C238.5 193.804 238.649 195.708 238.798 196.273C238.968 196.92 240.021 198.096 241.05 198.5C242.192 198.953 243.443 199.119 244.556 198.613C245.198 198.322 245.779 197.898 246.251 197.356V197.361Z" fill="#369149"/>
<path d="M202.408 198.173L201.996 198.423C201.488 198.735 200.867 198.787 200.314 198.569L199.176 198.124C199.103 198.096 199.019 198.096 198.946 198.124L198.518 198.294C198.183 198.427 197.82 198.472 197.465 198.423L197.009 198.363C196.719 198.322 196.448 198.189 196.243 197.983L196.025 197.765C195.936 197.676 195.908 197.538 195.956 197.417L196.105 197.053C196.287 196.613 196.735 196.338 197.211 196.37C197.336 196.378 197.453 196.314 197.514 196.205L197.812 195.639C197.965 195.348 198.224 195.126 198.534 195.012L199.047 194.831C199.426 194.697 199.842 194.734 200.193 194.932L200.653 195.194C200.992 195.388 201.226 195.72 201.298 196.104L201.351 196.387C201.371 196.492 201.439 196.581 201.54 196.621L202.476 197.013C202.561 197.049 202.626 197.118 202.654 197.207L202.702 197.356C202.803 197.664 202.682 197.999 202.404 198.169L202.408 198.173Z" fill="#4BAA43"/>
<path d="M249.164 198.084C249.374 197.785 249.475 197.397 249.447 197.005L249.37 195.901C249.338 195.425 249.116 194.996 248.777 194.754L248.676 194.685C248.547 194.596 248.486 194.406 248.531 194.232L248.789 193.177C248.894 192.737 248.878 192.268 248.737 191.844L248.636 191.537C248.535 191.238 248.357 190.991 248.127 190.837C248.03 190.773 247.966 190.647 247.962 190.51L247.748 189.18C247.607 188.465 247.518 188.21 247.179 187.928L247.07 187.835C246.642 187.475 246.416 187.653 245.977 187.992C245.541 188.328 245.113 188.986 245.186 189.613L245.347 190.571C245.359 190.688 245.327 190.809 245.262 190.898C244.972 191.27 244.807 191.759 244.794 192.272L244.782 192.781C244.774 193.153 244.831 193.525 244.952 193.869L245.045 194.131C245.085 194.252 245.077 194.39 245.02 194.499L244.996 194.548C244.443 195.376 244.532 196.827 244.625 197.259C244.73 197.752 245.371 198.65 245.997 198.961C246.691 199.304 247.453 199.434 248.135 199.046C248.527 198.823 248.882 198.5 249.168 198.088L249.164 198.084Z" fill="#4BAA43"/>
</svg>
