<svg width="347" height="409" viewBox="0 0 347 409" fill="none" xmlns="http://www.w3.org/2000/svg">
<path d="M146.329 194.166L151.639 198.822C152.898 199.925 154.831 199.731 155.843 198.398L172.794 176.093C173.762 174.819 173.516 173.001 172.241 172.031L166.746 167.848C165.479 166.882 163.675 167.124 162.703 168.389L145.938 190.222C145.006 191.434 145.175 193.16 146.325 194.166H146.329Z" fill="#4BAA43"/>
<path d="M169.344 187.069L171.249 188.338C171.709 188.645 172.33 188.528 172.641 188.072L178.818 179.136C179.113 178.707 179.04 178.125 178.645 177.79L177.325 176.654C176.885 176.274 176.22 176.347 175.864 176.808L169.106 185.61C168.747 186.075 168.86 186.746 169.348 187.073L169.344 187.069Z" fill="#4BAA43"/>
<path d="M162.158 193.507L157.191 201.134C156.929 201.534 156.985 202.067 157.324 202.403L157.99 203.069C158.406 203.486 159.092 203.462 159.475 203.013L165.374 196.118C165.737 195.698 165.689 195.063 165.273 194.695L163.675 193.297C163.211 192.893 162.497 192.99 162.162 193.507H162.158Z" fill="#4BAA43"/>
<path d="M180.581 180.57L162.912 203.639C162.166 204.613 162.202 205.975 162.993 206.909L165.777 210.191C167.028 211.662 169.384 211.31 170.147 209.532C173.012 202.835 178.887 189.037 181.985 181.371C182.34 180.49 181.158 179.815 180.581 180.57Z" fill="#4BAA43"/>
<path d="M185.096 179.851L173.641 210.797C172.971 212.607 173.464 214.648 174.888 215.95L179.851 220.488C180.638 221.208 181.913 220.694 181.977 219.627L182.433 212.405C182.821 209.851 183.668 207.386 184.939 205.139L191.867 192.877C194.029 189.054 196.64 185.501 199.646 182.3L225.804 154.462C226.853 153.347 228.152 152.502 229.597 151.993L233.817 150.514C234.866 150.146 235.698 149.334 236.089 148.291L267.755 79.3429C268.219 78.3325 267.888 77.1322 266.968 76.5098L261.4 72.7148C259.612 71.4984 257.284 71.4135 255.412 72.5006L235.524 84.0674C234.249 84.8111 232.667 84.7949 231.405 84.031L218.432 76.1744C217.141 75.3903 215.459 75.7945 214.664 77.0797L201.49 98.3218C200.211 100.387 199.259 102.638 198.67 104.998L192.871 128.233C191.96 131.882 190.265 135.285 187.896 138.207L168.549 162.105C167.851 162.966 168.004 164.231 168.884 164.901L184.12 176.513C185.137 177.289 185.532 178.643 185.084 179.843L185.096 179.851Z" fill="#4BAA43"/>
<path d="M198.355 194.396L212.731 205.268C216.116 207.83 220.531 208.598 224.582 207.337L249.158 199.679C252.075 198.769 253.701 195.661 252.79 192.743L247.064 174.391C246.624 172.98 245.587 171.841 244.227 171.271L237.215 168.325C235.258 167.504 234.14 165.423 234.532 163.337L235.976 155.626C236.117 154.87 235.419 154.228 234.677 154.434L230.755 155.525C229.621 155.84 228.592 156.463 227.789 157.324L197.951 189.15L198.355 194.404V194.396Z" fill="#4BAA43"/>
<path d="M221.841 120.197L209.355 114.505L200.664 133.634L213.15 139.325L221.841 120.197Z" fill="#369149"/>
<path d="M153.435 198.018L148.548 194.364L167.254 168.895L172.136 172.548L153.435 198.018Z" fill="#DBDBDB"/>
<path d="M203.548 160.824L208.063 154.139L193.69 144.399L187.344 140.095L182.829 146.779L173.544 160.52L170.784 164.602L177.135 168.907L186.492 175.248L189.252 171.166L179.895 164.821L189.175 151.084L203.548 160.824Z" fill="#DBDBDB"/>
<path d="M231.398 103.752L202.959 100.29L201.888 109.116L230.327 112.578L231.398 103.752Z" fill="#DBDBDB"/>
<path d="M251.603 106.304L253.94 101.878L256.312 97.3761L258.668 92.9142L260.343 90.1499L247.625 82.4185L244.046 88.3231L247.94 90.6874L247.008 92.4535L243.158 90.4126L240.786 94.9148L244.635 96.9517L243.687 98.7461L239.487 96.8911L236.707 103.212L250.32 109.218L251.603 106.304Z" fill="#DBDBDB"/>
<path d="M254.584 74.4084L251.068 81.2319L262.183 86.9782L265.699 80.1546L254.584 74.4084Z" fill="#DBDBDB"/>
<path d="M219.496 93.0569L207.953 91.1387L206.698 98.714L218.242 100.632L219.496 93.0569Z" fill="#DBDBDB"/>
<path d="M225.336 96.4935L220.559 95.6997L220.031 98.8893L224.807 99.6831L225.336 96.4935Z" fill="#DBDBDB"/>
<path d="M230.915 97.4193L226.139 96.6255L225.611 99.8151L230.387 100.609L230.915 97.4193Z" fill="#DBDBDB"/>
<path d="M228.199 84.1217L216.348 78.042L211.566 87.3946L223.417 93.4743L228.199 84.1217Z" fill="#DBDBDB"/>
<path d="M231.786 202.125C231.576 202.125 231.374 202.085 231.189 202.012H209.852C208.961 202.012 208.238 201.289 208.238 200.396V199.741H204.304L196.787 199.628C195.912 199.616 195.21 198.908 195.198 198.031L195 182.649C194.996 182.209 195.169 181.784 195.484 181.473C195.787 181.178 196.19 181.013 196.614 181.013C196.63 181.013 197.179 181.029 197.179 181.029L197.167 180.815C197.142 180.374 197.304 179.942 197.61 179.618C197.917 179.299 198.337 179.117 198.781 179.117H199.027L199.019 178.899C199.002 178.45 199.176 178.014 199.495 177.694C199.797 177.391 200.205 177.226 200.633 177.226C200.657 177.226 200.79 177.23 200.79 177.23V177.153C200.786 176.644 201.02 176.163 201.419 175.856L205.603 172.639C205.89 172.416 206.237 172.303 206.588 172.303C206.874 172.303 207.161 172.38 207.419 172.533L211.954 175.253C212.023 175.136 212.108 175.027 212.209 174.93C212.378 174.76 212.584 174.631 212.81 174.554C213.5 173.035 214.993 172 216.683 172C218.374 172 219.992 173.119 220.642 174.74C221.025 174.991 221.299 175.407 221.36 175.884C221.654 175.524 222.102 175.294 222.607 175.294H231.62V173.633C231.62 172.74 232.343 172.016 233.234 172.016H237.838C238.73 172.016 239.452 172.74 239.452 173.633V174.756L242.785 172.566C243.055 172.388 243.362 172.299 243.669 172.299C243.975 172.299 244.306 172.392 244.58 172.582L249.261 175.799C249.705 176.102 249.967 176.607 249.963 177.145V177.222C250.814 177.29 251.468 178.022 251.444 178.879L251.436 179.109C251.839 179.125 252.227 179.291 252.513 179.578C252.824 179.889 252.997 180.309 252.989 180.75V180.996L253.219 181C254.103 181.017 254.809 181.748 254.801 182.633L254.635 198.015C254.627 198.896 253.913 199.607 253.034 199.616L242.176 199.709C242.095 199.721 242.01 199.729 241.921 199.729H239.44V200.497C239.44 201.39 238.718 202.113 237.826 202.113H231.774L231.786 202.125Z" fill="#F244C5"/>
<path d="M223.133 188.549C223.133 189.141 223.025 189.693 222.809 190.205C222.593 190.717 222.285 191.161 221.885 191.537C221.493 191.913 221.021 192.209 220.469 192.425C219.925 192.641 219.325 192.749 218.669 192.749H215.393V184.349H218.669C219.325 184.349 219.925 184.457 220.469 184.673C221.021 184.881 221.493 185.173 221.885 185.549C222.285 185.925 222.593 186.369 222.809 186.881C223.025 187.385 223.133 187.933 223.133 188.525V188.549ZM221.201 188.573V188.549C221.201 188.181 221.137 187.841 221.009 187.529C220.889 187.217 220.717 186.949 220.493 186.725C220.277 186.501 220.013 186.329 219.701 186.209C219.389 186.081 219.045 186.017 218.669 186.017H217.241V191.081H218.669C219.045 191.081 219.389 191.021 219.701 190.901C220.013 190.781 220.277 190.609 220.493 190.385C220.717 190.161 220.889 189.897 221.009 189.593C221.137 189.289 221.201 188.949 221.201 188.573ZM228.067 189.905H224.371V188.153H228.067V189.905ZM235.63 185.129L234.658 186.557C234.522 186.453 234.39 186.361 234.262 186.281C234.134 186.193 234.002 186.121 233.866 186.065C233.73 186.009 233.586 185.965 233.434 185.933C233.282 185.901 233.118 185.885 232.942 185.885C232.678 185.885 232.446 185.937 232.246 186.041C232.054 186.137 231.886 186.273 231.742 186.449C231.606 186.617 231.498 186.821 231.418 187.061C231.338 187.301 231.282 187.557 231.25 187.829C231.458 187.693 231.694 187.569 231.958 187.457C232.23 187.345 232.574 187.289 232.99 187.289C233.406 187.289 233.794 187.349 234.154 187.469C234.514 187.581 234.826 187.749 235.09 187.973C235.354 188.197 235.562 188.477 235.714 188.813C235.866 189.149 235.942 189.537 235.942 189.977C235.942 190.409 235.858 190.805 235.69 191.165C235.53 191.517 235.306 191.825 235.018 192.089C234.738 192.345 234.402 192.545 234.01 192.689C233.618 192.825 233.194 192.893 232.738 192.893C232.186 192.893 231.718 192.817 231.334 192.665C230.95 192.513 230.61 192.289 230.314 191.993C230.01 191.689 229.766 191.293 229.582 190.805C229.406 190.309 229.318 189.641 229.318 188.801C229.318 188.153 229.39 187.549 229.534 186.989C229.686 186.429 229.914 185.945 230.218 185.537C230.522 185.121 230.906 184.797 231.37 184.565C231.834 184.325 232.378 184.205 233.002 184.205C233.29 184.205 233.554 184.225 233.794 184.265C234.034 184.305 234.258 184.365 234.466 184.445C234.674 184.525 234.874 184.625 235.066 184.745C235.258 184.857 235.446 184.985 235.63 185.129ZM234.106 190.061C234.106 189.701 233.974 189.405 233.71 189.173C233.454 188.941 233.098 188.825 232.642 188.825C232.186 188.825 231.83 188.941 231.574 189.173C231.326 189.397 231.202 189.689 231.202 190.049C231.202 190.417 231.33 190.721 231.586 190.961C231.85 191.193 232.21 191.309 232.666 191.309C233.122 191.309 233.474 191.193 233.722 190.961C233.978 190.729 234.106 190.429 234.106 190.061Z" fill="white"/>
</svg>
