<svg width="55" height="33" viewBox="0 0 55 33" fill="none" xmlns="http://www.w3.org/2000/svg">
<path d="M31.0121 32.8615C30.9153 32.8615 30.8144 32.8534 30.7176 32.8332L15.3729 29.9758L7.43629 29.119C6.61721 29.0301 5.99583 28.339 5.99583 27.5105V21.1371L1.43238 20.6238C0.617332 20.5308 0 19.8397 0 19.0193V17.8675C0 17.2168 0.391393 16.6267 0.99259 16.3762L5.99987 14.2786V2.20666C5.99987 1.36198 6.65353 0.658753 7.49682 0.594089L15.494 0.00403312C15.5343 0.00403312 15.5747 0 15.611 0C15.9822 0 16.3413 0.129326 16.6318 0.363733L20.8119 3.77879C21.1468 4.05362 21.3567 4.44565 21.397 4.87405H22.9706C23.3862 4.87405 23.7856 5.0357 24.0842 5.32265L26.1743 7.32723C26.5334 7.67076 26.7109 8.15574 26.6666 8.65285L26.6181 9.14188L27.2798 9.15803C27.8649 9.1742 28.3733 9.49753 28.6436 9.97442C28.8494 9.54198 29.2408 9.2025 29.7411 9.08933L33.4895 8.22445C33.6106 8.19616 33.7316 8.18404 33.8527 8.18404C34.0221 8.18404 34.1876 8.21233 34.353 8.26486L35.4949 8.63669C35.7087 8.04259 36.2534 7.62227 36.895 7.57377L40.0261 7.3434C40.2439 6.82609 40.7241 6.44215 41.3091 6.3694L48.1241 5.50452C48.1927 5.49644 48.2572 5.4924 48.3258 5.4924C48.4065 5.4924 48.4832 5.49643 48.5639 5.50856L53.4703 6.23603C54.2611 6.35324 54.8462 7.03221 54.8462 7.83647V28.4077C54.8462 29.1554 54.3337 29.8061 53.6075 29.9799L48.8019 31.1317L46.0824 31.9036C45.9372 31.944 45.7919 31.9642 45.6426 31.9642C45.5821 31.9642 45.5175 31.9642 45.457 31.9521L40.942 31.4308L31.2461 32.8574C31.1695 32.8695 31.0888 32.8736 31.0121 32.8736V32.8615ZM28.918 15.483L29.4183 15.4749L28.8817 12.7833L28.918 15.483Z" fill="#F244C5"/>
<path d="M27.8906 21.0529C27.8906 21.6449 27.7826 22.1969 27.5666 22.7089C27.3506 23.2209 27.0426 23.6649 26.6426 24.0409C26.2506 24.4169 25.7786 24.7129 25.2266 24.9289C24.6826 25.1449 24.0826 25.2529 23.4266 25.2529H20.1506V16.8529H23.4266C24.0826 16.8529 24.6826 16.9609 25.2266 17.1769C25.7786 17.3849 26.2506 17.6769 26.6426 18.0529C27.0426 18.4289 27.3506 18.8729 27.5666 19.3849C27.7826 19.8889 27.8906 20.4369 27.8906 21.0289V21.0529ZM25.9586 21.0769V21.0529C25.9586 20.6849 25.8946 20.3449 25.7666 20.0329C25.6466 19.7209 25.4746 19.4529 25.2506 19.2289C25.0346 19.0049 24.7706 18.8329 24.4586 18.7129C24.1466 18.5849 23.8026 18.5209 23.4266 18.5209H21.9986V23.5849H23.4266C23.8026 23.5849 24.1466 23.5249 24.4586 23.4049C24.7706 23.2849 25.0346 23.1129 25.2506 22.8889C25.4746 22.6649 25.6466 22.4009 25.7666 22.0969C25.8946 21.7929 25.9586 21.4529 25.9586 21.0769ZM32.8253 22.4089H29.1293V20.6569H32.8253V22.4089ZM34.2437 18.4489V16.8529H40.2917V18.2449L36.5237 25.2529H34.4357L38.1917 18.4489H34.2437Z" fill="white"/>
</svg>
