<svg width="347" height="409" viewBox="0 0 347 409" fill="none" xmlns="http://www.w3.org/2000/svg">
<path d="M295.999 192.703V206.735C295.999 208.077 297.552 208.82 298.593 207.975L302.858 204.524C305.114 202.701 306.248 199.828 305.852 196.954L305.227 192.416C305.025 190.936 303.794 189.817 302.31 189.748L299.227 189.607C297.468 189.526 295.999 190.932 295.999 192.699V192.703Z" fill="#4BAA43"/>
<path d="M282.644 160.12L286.489 167.338C288.373 170.879 293.191 171.489 295.898 168.53L298.525 165.661C298.936 165.212 298.973 164.537 298.618 164.044L284.229 144.144C283.543 143.194 282.05 143.59 281.925 144.758L281.118 152.219C280.824 154.947 281.356 157.695 282.644 160.116V160.12Z" fill="#4BAA43"/>
<path d="M240.971 148.586L239.099 161.725C238.865 163.353 239.757 164.938 241.266 165.588L244.308 166.894C246.148 167.682 248.222 167.726 250.094 167.015L271.822 158.738C274.316 157.788 276.143 155.622 276.668 153.003L285.024 111.161C286.38 104.363 290.12 98.277 295.563 94.0011L303.774 87.5509C306.167 85.6716 307.24 82.5636 306.522 79.6053L291.815 33.8555C291.161 31.1598 289.12 29.0218 286.461 28.2418L281.175 26.6939C277.257 25.5461 273.121 27.6356 271.721 31.479L260.258 61.9237C258.991 65.3994 260.343 69.2873 263.494 71.2151L268.772 74.4443C270.963 75.786 271.818 78.5464 270.773 80.8945L241.568 146.524C241.278 147.179 241.076 147.874 240.975 148.586H240.971Z" fill="#4BAA43"/>
<path d="M284.112 136.065L289.031 112.721C290.411 106.182 293.857 100.265 298.856 95.8441L308.055 87.7126C310.283 85.7443 311.122 82.6324 310.19 79.8074L293.921 30.5738C293.199 28.3914 293.614 25.9907 295.023 24.1721L304.307 12.2133C307.434 8.18793 312.994 6.99164 317.493 9.37209L325.377 13.5429C328.932 15.4222 331.256 19.0151 331.518 23.0324L334.786 72.7388C335.279 80.2479 334.714 87.7894 333.104 95.1408L324.651 133.717C322.686 142.685 313.519 148.08 304.739 145.433L286.376 139.896C284.738 139.403 283.753 137.738 284.104 136.061L284.112 136.065Z" fill="#4BAA43"/>
<path d="M298.973 21.7393L293.74 33.4475L305.691 38.8106L307.474 34.8176L317.832 39.4653L316.048 43.4583L327.467 48.5829L332.704 36.8787L298.973 21.7393Z" fill="#DBDBDB"/>
<path d="M286.623 45.917L272.405 43.457L268.889 63.8476L283.107 66.3075L286.623 45.917Z" fill="#DBDBDB"/>
<path d="M330.591 63.2439L313.811 61.2158L312.659 70.7734L329.44 72.8014L330.591 63.2439Z" fill="#DBDBDB"/>
<path d="M330.409 55.5296L327.458 55.1025L326.605 61.0185L329.556 61.4455L330.409 55.5296Z" fill="#DBDBDB"/>
<path d="M316.022 58.0672L313.071 57.6401L312.787 59.6121L315.738 60.0391L316.022 58.0672Z" fill="#DBDBDB"/>
<path d="M312.994 181.253L313.809 178.622C316.859 179.996 320.063 181.006 323.364 181.451L325.143 175.558C325.143 175.558 309.145 174.1 292.105 152.421L287.207 155.816C287.207 155.816 296.451 168.785 309.439 176.363L308.035 180.897C303.714 180.78 299.074 181.152 294.224 182.275L295.7 188.208C295.7 188.208 314.144 182.482 333.447 195.362L336.828 189.287C336.828 189.287 327.177 182.882 312.994 181.249V181.253Z" fill="#DBDBDB"/>
<path d="M333.753 199.566L320.444 193.739L318.02 199.294L331.329 205.121L333.753 199.566Z" fill="#DBDBDB"/>
<path d="M307.012 141.861C306.915 141.861 306.814 141.853 306.718 141.833L291.373 138.976L283.436 138.119C282.617 138.03 281.996 137.339 281.996 136.51V130.137L277.432 129.624C276.617 129.531 276 128.84 276 128.019V126.867C276 126.217 276.391 125.627 276.993 125.376L282 123.279V111.207C282 110.362 282.654 109.659 283.497 109.594L291.494 109.004C291.534 109.004 291.575 109 291.611 109C291.982 109 292.341 109.129 292.632 109.364L296.812 112.779C297.147 113.054 297.357 113.446 297.397 113.874H298.971C299.386 113.874 299.786 114.036 300.084 114.323L302.174 116.327C302.533 116.671 302.711 117.156 302.667 117.653L302.618 118.142L303.28 118.158C303.865 118.174 304.373 118.498 304.644 118.974C304.849 118.542 305.241 118.202 305.741 118.089L309.49 117.224C309.611 117.196 309.732 117.184 309.853 117.184C310.022 117.184 310.188 117.212 310.353 117.265L311.495 117.637C311.709 117.043 312.253 116.622 312.895 116.574L316.026 116.343C316.244 115.826 316.724 115.442 317.309 115.369L324.124 114.505C324.193 114.496 324.257 114.492 324.326 114.492C324.407 114.492 324.483 114.496 324.564 114.509L329.47 115.236C330.261 115.353 330.846 116.032 330.846 116.836V137.408C330.846 138.155 330.334 138.806 329.607 138.98L324.802 140.132L322.082 140.904C321.937 140.944 321.792 140.964 321.643 140.964C321.582 140.964 321.518 140.964 321.457 140.952L316.942 140.431L307.246 141.857C307.169 141.87 307.089 141.874 307.012 141.874V141.861ZM304.918 124.483L305.418 124.475L304.882 121.783L304.918 124.483Z" fill="white"/>
<path d="M308.921 126.047L302.106 126.136L289.561 134.421L291.607 137.38L307.012 140.245L316.918 138.79L321.643 139.336L324.394 138.556L326.368 136.422L308.921 126.047Z" fill="#A6A6A6"/>
<path d="M299.515 119.674L303.239 119.763L303.332 126.5L298.922 128.456L299.515 119.674Z" fill="#F0F0F0"/>
<path d="M291.881 115.487H298.967L297.514 132.053L292.696 131.964L291.881 115.487Z" fill="#F0F0F0"/>
<path d="M309.853 118.785L310.829 127.769L310.466 134.575L314.916 134.312L313.871 120.094L309.853 118.785Z" fill="#F0F0F0"/>
<path d="M319.597 118.425L316.51 117.916L315.235 126.613L317.325 135.621L322.417 134.7L319.597 118.425Z" fill="#F0F0F0"/>
<path d="M313.008 118.17L316.51 117.916L315.235 126.613L317.325 135.621L313.601 135.108L311.329 125.59L313.008 118.17Z" fill="#DBDBDB"/>
<path d="M324.394 138.555L317.507 136.62V116.958L324.326 116.093L324.394 138.555Z" fill="#DBDBDB"/>
<path d="M324.326 116.093L329.232 116.82V137.396L324.394 138.555L324.326 116.093Z" fill="#F0F0F0"/>
<path d="M295.787 133.783L291.607 137.38V110.617L295.787 114.028V133.783Z" fill="#DBDBDB"/>
<path d="M291.607 110.617L283.61 111.207V136.515L291.607 137.38V110.617Z" fill="#F0F0F0"/>
<path d="M298.966 115.487L301.061 117.487L299.967 128.775L297.514 132.053L298.966 115.487Z" fill="#DBDBDB"/>
<path d="M277.61 126.864L291.607 125.926L298.24 124.831L301.081 123.655L302.057 124.318V125.469L298.422 126.472L297.696 128.201L292.515 128.109L290.517 129.475L277.61 128.02V126.864Z" fill="#0D725F"/>
<path d="M283.699 124.317L291.607 124.77L295.605 123.679H298.24L300.423 123.133L300.693 121.767L301.787 122.406L302.057 124.317L298.422 125.316L297.696 127.045L292.515 126.956L290.517 128.322L277.61 126.863L283.699 124.317Z" fill="#13D3BC"/>
<path d="M319.435 121.868L318.1 121.86L318.12 118.591L319.456 118.51L319.435 121.868Z" fill="#8EC7ED"/>
<path d="M321.328 121.872L319.899 121.868L319.92 118.481L321.348 118.396L321.328 121.872Z" fill="#8EC7ED"/>
<path d="M323.531 121.88L321.981 121.876L322.002 118.356L323.551 118.263L323.531 121.88Z" fill="#8EC7ED"/>
<path d="M319.403 126.969L318.068 126.831L318.088 123.558L319.423 123.606L319.403 126.969Z" fill="#8EC7ED"/>
<path d="M321.3 127.158L319.867 127.013L319.887 123.622L321.32 123.675L321.3 127.158Z" fill="#8EC7ED"/>
<path d="M323.503 127.381L321.953 127.227L321.973 123.699L323.523 123.756L323.503 127.381Z" fill="#8EC7ED"/>
<path d="M319.371 132.198L318.035 131.932L318.056 128.65L319.391 128.832L319.371 132.198Z" fill="#8EC7ED"/>
<path d="M321.267 132.578L319.835 132.291L319.855 128.893L321.288 129.091L321.267 132.578Z" fill="#8EC7ED"/>
<path d="M323.47 133.023L321.921 132.711L321.941 129.179L323.49 129.389L323.47 133.023Z" fill="#8EC7ED"/>
<path d="M294.875 117.653L295.428 117.681V115.527L294.875 115.256V117.653Z" fill="#8EC7ED"/>
<path d="M293.907 117.601L294.657 117.641V115.151L293.903 114.784L293.907 117.601Z" fill="#8EC7ED"/>
<path d="M292.394 117.524L293.511 117.58L293.503 114.59L292.385 114.04L292.394 117.524Z" fill="#8EC7ED"/>
<path d="M312.786 120.769L313.855 120.696L313.432 122.871L312.403 122.762L312.786 120.769Z" fill="#8EC7ED"/>
<path d="M314.428 120.724L315.627 120.644L315.15 123.052L313.992 122.931L314.428 120.724Z" fill="#8EC7ED"/>
<path d="M317.934 136.782C318.104 136.584 318.205 136.317 318.213 136.034L318.229 135.246C318.237 134.902 318.104 134.583 317.874 134.393L317.805 134.336C317.717 134.264 317.688 134.126 317.729 134.005L317.987 133.274C318.092 132.97 318.112 132.635 318.039 132.324L317.987 132.098C317.934 131.879 317.822 131.689 317.664 131.568C317.596 131.516 317.559 131.423 317.563 131.326L317.495 130.368C317.442 129.85 317.394 129.665 317.164 129.438L317.091 129.365C316.805 129.083 316.627 129.192 316.284 129.402C315.945 129.612 315.59 130.048 315.602 130.497L315.659 131.188C315.659 131.273 315.631 131.358 315.574 131.414C315.34 131.657 315.183 131.992 315.142 132.356L315.102 132.716C315.07 132.979 315.09 133.249 315.154 133.5L315.203 133.694C315.227 133.783 315.211 133.88 315.158 133.953L315.138 133.985C314.682 134.535 314.65 135.573 314.686 135.884C314.731 136.24 315.134 136.923 315.574 137.186C316.058 137.477 316.603 137.622 317.123 137.392C317.422 137.263 317.705 137.056 317.939 136.782H317.934Z" fill="#4BAA43"/>
<path d="M305.535 130.465C305.378 130.327 305.289 130.137 305.289 129.935V129.369C305.289 129.127 305.422 128.893 305.64 128.751L305.705 128.711C305.789 128.658 305.822 128.557 305.785 128.472L305.559 127.955C305.467 127.741 305.454 127.498 305.531 127.276L305.588 127.114C305.64 126.957 305.753 126.819 305.902 126.726C305.967 126.686 306.003 126.621 305.999 126.548L306.084 125.861C306.144 125.49 306.193 125.356 306.415 125.191L306.483 125.138C306.758 124.928 306.923 125.005 307.238 125.146C307.553 125.288 307.875 125.595 307.855 125.914L307.791 126.407C307.791 126.468 307.815 126.528 307.863 126.565C308.081 126.734 308.218 126.969 308.251 127.231L308.283 127.49C308.307 127.68 308.283 127.87 308.218 128.052L308.166 128.193C308.142 128.258 308.154 128.327 308.202 128.379L308.222 128.404C308.642 128.787 308.646 129.527 308.606 129.753C308.557 130.008 308.162 130.505 307.746 130.703C307.286 130.921 306.77 131.035 306.286 130.885C306.007 130.796 305.749 130.655 305.531 130.465H305.535Z" fill="#4BAA43"/>
<path d="M289.541 125.025L289.811 125.19C290.142 125.393 290.554 125.429 290.913 125.287L291.659 124.996C291.708 124.976 291.764 124.976 291.813 124.996L292.091 125.106C292.309 125.19 292.547 125.223 292.781 125.19L293.08 125.15C293.269 125.126 293.447 125.037 293.584 124.899L293.725 124.758C293.786 124.697 293.802 124.608 293.77 124.532L293.669 124.293C293.548 124.002 293.257 123.824 292.942 123.845C292.862 123.849 292.781 123.808 292.745 123.736L292.547 123.364C292.446 123.174 292.277 123.028 292.071 122.955L291.736 122.838C291.49 122.749 291.216 122.774 290.986 122.907L290.683 123.081C290.461 123.206 290.308 123.424 290.259 123.675L290.223 123.861C290.211 123.929 290.162 123.986 290.098 124.014L289.485 124.273C289.428 124.297 289.388 124.342 289.368 124.398L289.335 124.495C289.267 124.697 289.347 124.916 289.529 125.029L289.541 125.025Z" fill="#4BAA43"/>
<path d="M306.104 119.654L309.853 118.785L310.829 127.769L310.466 134.575L306.693 132.029L307.601 127.183L306.104 119.654Z" fill="#DBDBDB"/>
</svg>
