<svg width="347" height="409" viewBox="0 0 347 409" fill="none" xmlns="http://www.w3.org/2000/svg">
<path d="M295.999 192.703V206.735C295.999 208.077 297.552 208.82 298.593 207.976L302.858 204.524C305.114 202.702 306.248 199.828 305.852 196.955L305.227 192.416C305.025 190.937 303.794 189.817 302.31 189.749L299.227 189.607C297.468 189.526 295.999 190.933 295.999 192.699V192.703Z" fill="#4BAA43"/>
<path d="M282.644 160.12L286.489 167.338C288.373 170.879 293.191 171.489 295.898 168.531L298.525 165.661C298.936 165.213 298.973 164.538 298.618 164.045L284.229 144.144C283.543 143.195 282.05 143.591 281.925 144.759L281.118 152.219C280.824 154.947 281.356 157.695 282.644 160.116V160.12Z" fill="#4BAA43"/>
<path d="M240.971 148.586L239.099 161.725C238.865 163.354 239.757 164.938 241.266 165.588L244.308 166.894C246.148 167.682 248.222 167.726 250.094 167.015L271.822 158.738C274.316 157.788 276.143 155.622 276.668 153.003L285.024 111.162C286.38 104.364 290.12 98.2772 295.563 94.0013L303.774 87.5511C306.167 85.6718 307.24 82.5639 306.522 79.6055L291.815 33.8557C291.161 31.16 289.12 29.0221 286.461 28.242L281.175 26.6942C277.257 25.5464 273.121 27.6358 271.721 31.4793L260.258 61.9239C258.991 65.3996 260.343 69.2875 263.494 71.2153L268.772 74.4445C270.963 75.7863 271.818 78.5466 270.773 80.8947L241.568 146.525C241.278 147.179 241.076 147.875 240.975 148.586H240.971Z" fill="#4BAA43"/>
<path d="M284.112 136.065L289.031 112.722C290.411 106.182 293.857 100.266 298.856 95.8443L308.055 87.7128C310.283 85.7446 311.122 82.6326 310.19 79.8076L293.921 30.5741C293.199 28.3916 293.614 25.991 295.023 24.1723L304.307 12.2135C307.434 8.18817 312.994 6.99189 317.493 9.37233L325.377 13.5432C328.932 15.4225 331.256 19.0154 331.518 23.0326L334.786 72.739C335.279 80.2481 334.714 87.7896 333.104 95.1411L324.651 133.717C322.686 142.685 313.519 148.081 304.739 145.434L286.376 139.897C284.738 139.404 283.753 137.739 284.104 136.061L284.112 136.065Z" fill="#4BAA43"/>
<path d="M298.973 21.7393L293.74 33.4475L305.691 38.8106L307.474 34.8176L317.832 39.4653L316.048 43.4583L327.467 48.5829L332.704 36.8787L298.973 21.7393Z" fill="#DBDBDB"/>
<path d="M286.623 45.9172L272.405 43.4573L268.889 63.8478L283.107 66.3078L286.623 45.9172Z" fill="#DBDBDB"/>
<path d="M330.591 63.2441L313.811 61.2161L312.659 70.7736L329.44 72.8016L330.591 63.2441Z" fill="#DBDBDB"/>
<path d="M330.409 55.53L327.458 55.103L326.605 61.019L329.556 61.446L330.409 55.53Z" fill="#DBDBDB"/>
<path d="M316.022 58.0674L313.071 57.6404L312.787 59.6124L315.738 60.0394L316.022 58.0674Z" fill="#DBDBDB"/>
<path d="M312.994 181.253L313.809 178.622C316.859 179.997 320.063 181.007 323.364 181.451L325.143 175.559C325.143 175.559 309.145 174.1 292.105 152.421L287.207 155.816C287.207 155.816 296.451 168.785 309.439 176.363L308.035 180.898C303.714 180.781 299.074 181.152 294.224 182.276L295.7 188.209C295.7 188.209 314.144 182.482 333.447 195.362L336.828 189.288C336.828 189.288 327.177 182.882 312.994 181.249V181.253Z" fill="#DBDBDB"/>
<path d="M333.753 199.566L320.444 193.739L318.02 199.294L331.329 205.121L333.753 199.566Z" fill="#DBDBDB"/>
<path d="M307.012 141.861C306.915 141.861 306.814 141.853 306.718 141.833L291.373 138.976L283.436 138.119C282.617 138.03 281.996 137.339 281.996 136.51V130.137L277.432 129.624C276.617 129.531 276 128.84 276 128.019V126.867C276 126.217 276.391 125.627 276.993 125.376L282 123.279V111.207C282 110.362 282.654 109.659 283.497 109.594L291.494 109.004C291.534 109.004 291.575 109 291.611 109C291.982 109 292.341 109.129 292.632 109.364L296.812 112.779C297.147 113.054 297.357 113.446 297.397 113.874H298.971C299.386 113.874 299.786 114.036 300.084 114.323L302.174 116.327C302.533 116.671 302.711 117.156 302.667 117.653L302.618 118.142L303.28 118.158C303.865 118.174 304.373 118.498 304.644 118.974C304.849 118.542 305.241 118.202 305.741 118.089L309.49 117.224C309.611 117.196 309.732 117.184 309.853 117.184C310.022 117.184 310.188 117.212 310.353 117.265L311.495 117.637C311.709 117.043 312.253 116.622 312.895 116.574L316.026 116.343C316.244 115.826 316.724 115.442 317.309 115.369L324.124 114.505C324.193 114.496 324.257 114.492 324.326 114.492C324.407 114.492 324.483 114.496 324.564 114.509L329.47 115.236C330.261 115.353 330.846 116.032 330.846 116.836V137.408C330.846 138.155 330.334 138.806 329.607 138.98L324.802 140.132L322.082 140.904C321.937 140.944 321.792 140.964 321.643 140.964C321.582 140.964 321.518 140.964 321.457 140.952L316.942 140.431L307.246 141.857C307.169 141.87 307.089 141.874 307.012 141.874V141.861ZM304.918 124.483L305.418 124.475L304.882 121.783L304.918 124.483Z" fill="#F244C5"/>
<path d="M303.891 130.053C303.891 130.645 303.783 131.197 303.567 131.709C303.351 132.221 303.043 132.665 302.643 133.041C302.251 133.417 301.779 133.713 301.227 133.929C300.683 134.145 300.083 134.253 299.427 134.253H296.151V125.853H299.427C300.083 125.853 300.683 125.961 301.227 126.177C301.779 126.385 302.251 126.677 302.643 127.053C303.043 127.429 303.351 127.873 303.567 128.385C303.783 128.889 303.891 129.437 303.891 130.029V130.053ZM301.959 130.077V130.053C301.959 129.685 301.895 129.345 301.767 129.033C301.647 128.721 301.475 128.453 301.251 128.229C301.035 128.005 300.771 127.833 300.459 127.713C300.147 127.585 299.803 127.521 299.427 127.521H297.999V132.585H299.427C299.803 132.585 300.147 132.525 300.459 132.405C300.771 132.285 301.035 132.113 301.251 131.889C301.475 131.665 301.647 131.401 301.767 131.097C301.895 130.793 301.959 130.453 301.959 130.077ZM308.825 131.409H305.129V129.657H308.825V131.409ZM310.244 127.449V125.853H316.292V127.245L312.524 134.253H310.436L314.192 127.449H310.244Z" fill="white"/>
</svg>
