<svg width="40" height="40" viewBox="0 0 40 40" fill="none" xmlns="http://www.w3.org/2000/svg">
<rect opacity="0.5" width="40" height="40" rx="8" fill="#151515"/>
<path d="M20.0176 8C20.3964 8 20.7598 8.15804 21.0277 8.43935C21.2956 8.72065 21.4461 9.10219 21.4461 9.50002V26.8793L27.579 20.4397C27.8484 20.1664 28.2093 20.0152 28.5838 20.0187C28.9584 20.0221 29.3167 20.1798 29.5816 20.4579C29.8464 20.7361 29.9967 21.1123 29.9999 21.5056C30.0032 21.8989 29.8592 22.2778 29.599 22.5607L21.0276 31.5608C20.7597 31.842 20.3964 32 20.0176 32C19.6387 32 19.2755 31.842 19.0076 31.5608L10.4361 22.5607C10.2997 22.4223 10.1909 22.2568 10.116 22.0738C10.0411 21.8908 10.0017 21.694 10.0001 21.4948C9.99841 21.2956 10.0346 21.0981 10.1064 20.9137C10.1782 20.7294 10.2843 20.5619 10.4184 20.4211C10.5526 20.2802 10.7121 20.1689 10.8876 20.0934C11.0632 20.018 11.2513 19.9801 11.441 19.9818C11.6307 19.9835 11.8181 20.0249 11.9924 20.1035C12.1667 20.1821 12.3243 20.2964 12.4561 20.4397L18.589 26.8793V9.50002C18.589 9.10219 18.7395 8.72065 19.0074 8.43935C19.2753 8.15804 19.6387 8 20.0176 8Z" fill="white"/>
</svg>
