<svg width="12" height="12" viewBox="0 0 12 12" fill="none" xmlns="http://www.w3.org/2000/svg">
<path d="M8.33398 4.66663C8.5992 4.66663 8.85355 4.56127 9.04109 4.37373C9.22863 4.1862 9.33398 3.93184 9.33398 3.66663C9.33398 3.40141 9.22863 3.14706 9.04109 2.95952C8.85355 2.77198 8.5992 2.66663 8.33398 2.66663C8.06877 2.66663 7.81441 2.77198 7.62688 2.95952C7.43934 3.14706 7.33398 3.40141 7.33398 3.66663C7.33398 3.93184 7.43934 4.1862 7.62688 4.37373C7.81441 4.56127 8.06877 4.66663 8.33398 4.66663Z" fill="#FF566A"/>
<path d="M0 1.33333C0 0.979711 0.140476 0.640573 0.390524 0.390524C0.640573 0.140476 0.979711 0 1.33333 0H10.6667C11.0203 0 11.3594 0.140476 11.6095 0.390524C11.8595 0.640573 12 0.979711 12 1.33333V10.6667C12 11.0203 11.8595 11.3594 11.6095 11.6095C11.3594 11.8595 11.0203 12 10.6667 12H1.33333C0.979711 12 0.640573 11.8595 0.390524 11.6095C0.140476 11.3594 0 11.0203 0 10.6667V1.33333ZM10.6667 1.33333H1.33333V6.61333L3.58333 4.81333C3.70158 4.71866 3.84853 4.66708 4 4.66708C4.15147 4.66708 4.29843 4.71866 4.41667 4.81333L7.28333 7.10667L8.19533 6.19533C8.32035 6.07035 8.48989 6.00014 8.66667 6.00014C8.84344 6.00014 9.01298 6.07035 9.138 6.19533L10.6667 7.724V1.33333ZM1.33333 10.6667H10.6667V9.60933L8.66667 7.60933L7.80467 8.47133C7.68867 8.5874 7.53394 8.65661 7.3701 8.66572C7.20625 8.67482 7.04481 8.62317 6.91667 8.52067L4 6.18667L1.33333 8.32V10.6667Z" fill="#FF566A"/>
</svg>
