<svg width="147" height="56" viewBox="0 0 147 56" fill="none" xmlns="http://www.w3.org/2000/svg">
<g clip-path="url(#clip0_691_3498)">
<path d="M124.134 15.7246C126.672 15.7246 128.503 16.8478 128.503 19.3815C128.503 20.6816 128.326 22.1541 128.092 23.3967C127.857 24.5774 126.5 31.1263 126.5 32.6033C126.5 33.5496 126.796 34.2571 128.622 34.2571C129.922 34.2571 131.28 33.5496 132.637 31.542L134.526 16.3171C135.649 15.9059 137.475 15.844 138.718 15.844C141.256 15.844 142.556 16.9052 142.556 19.1472C142.556 19.7972 142.436 20.916 142.202 22.5123L140.491 34.6683V40.2179C140.491 47.302 137.541 52.0202 127.154 52.0202C120.84 52.0202 115.409 50.1895 115.409 45.6481C115.409 43.0524 116.709 41.2217 119.778 41.2217C120.605 41.2217 121.313 41.3411 122.436 41.633C122.67 44.9981 124.324 46.3556 128.277 46.3556C131.642 46.3556 132.292 44.9981 132.292 41.0448C132.292 40.5717 132.412 36.8528 132.412 35.8534C130.758 38.3917 128.932 39.9836 124.797 39.9836C120.017 39.9836 117.656 36.561 118.186 32.8421L119.778 21.3316L117.948 21.3891C117.594 20.801 117.359 20.0316 117.359 19.2666C117.359 16.6709 120.075 15.7246 124.147 15.7246M124.147 11.7448C121.37 11.7448 119.208 12.1295 117.527 12.921C114.892 14.1636 113.38 16.4763 113.38 19.2622C113.38 20.7081 113.791 22.1895 114.538 23.4321C114.755 23.7947 115.029 24.1175 115.339 24.3872L114.246 32.2893C113.937 34.4428 114.277 36.5831 115.184 38.4226C112.84 39.8244 111.434 42.3891 111.434 45.6437C111.434 49.3361 113.481 52.3474 117.205 54.1251C120.442 55.6728 124.404 55.9956 127.159 55.9956C133.234 55.9956 137.617 54.5452 140.557 51.5647C143.193 48.8894 144.475 45.175 144.475 40.2135V34.9469L146.147 23.0783C146.416 21.2565 146.54 20.0095 146.54 19.1472C146.54 14.7208 143.471 11.8642 138.722 11.8642C136.255 11.8642 134.486 12.0941 133.155 12.5805C132.155 12.9476 131.359 13.6949 130.922 14.6368C129.471 12.8193 127.092 11.7448 124.143 11.7448H124.147Z" fill="#8AC8A3"/>
<path d="M140.478 40.2135C140.478 47.2975 137.528 52.0158 127.141 52.0158C120.826 52.0158 115.396 50.1851 115.396 45.6437C115.396 43.048 116.696 41.2173 119.765 41.2173C120.592 41.2173 121.299 41.3367 122.423 41.6286C122.657 44.9937 124.311 46.3512 128.264 46.3512C131.629 46.3512 132.279 44.9937 132.279 41.0404C132.279 40.5673 132.399 36.8484 132.399 35.849C130.745 38.3872 128.918 39.9792 124.784 39.9792C120.004 39.9792 117.642 36.5565 118.173 32.8376L119.765 21.3272L117.934 21.3847C117.581 20.7966 117.346 20.0272 117.346 19.2577C117.346 16.662 120.061 15.7157 124.134 15.7157C126.672 15.7157 128.503 16.8389 128.503 19.3727C128.503 20.6728 128.326 22.1453 128.092 23.3879C127.857 24.5685 126.5 31.1175 126.5 32.5944C126.5 33.5407 126.796 34.2483 128.622 34.2483C129.922 34.2483 131.28 33.5407 132.637 31.5332L134.526 16.3083C135.649 15.897 137.475 15.8351 138.718 15.8351C141.256 15.8351 142.556 16.8964 142.556 19.1383C142.556 19.7884 142.436 20.9071 142.202 22.5035L140.491 34.6595V40.2091L140.478 40.2135Z" fill="#37AE75"/>
<path d="M143.299 14.6324C142.171 13.6728 140.628 13.1908 138.709 13.1908C136.4 13.1908 134.778 13.3942 133.601 13.8276C132.668 14.1725 132.009 15.0038 131.886 15.9899L131.505 19.0367L131.129 18.9305C130.917 15.3576 128.224 13.0714 124.129 13.0714C121.556 13.0714 119.575 13.4163 118.076 14.1238C115.891 15.1542 114.689 16.9804 114.689 19.2666C114.689 20.4782 115.033 21.7164 115.657 22.7556C115.922 23.1978 116.303 23.5427 116.745 23.7638L115.538 32.4751C115.197 34.8453 115.745 37.1845 117.05 38.9975C114.366 39.935 112.738 42.3405 112.738 45.6437C112.738 51.295 118.12 54.669 127.136 54.669C132.841 54.669 136.913 53.3468 139.589 50.6317C141.968 48.2173 143.126 44.808 143.126 40.2135V34.8497L144.811 22.8749C145.068 21.1327 145.191 19.9388 145.191 19.1428C145.191 16.7461 144.157 15.3664 143.29 14.628L143.299 14.6324ZM142.193 22.5123L140.482 34.6684V40.218C140.482 47.302 137.533 52.0202 127.145 52.0202C120.831 52.0202 115.401 50.1895 115.401 45.6482C115.401 43.0525 116.701 41.2218 119.769 41.2218C120.596 41.2218 121.304 41.3412 122.427 41.633C122.661 44.9981 124.315 46.3557 128.268 46.3557C131.634 46.3557 132.284 44.9981 132.284 41.0449C132.284 40.5717 132.403 36.8528 132.403 35.8535C130.749 38.3917 128.923 39.9836 124.788 39.9836C120.008 39.9836 117.647 36.561 118.178 32.8421L119.769 21.3317L117.939 21.3892C117.585 20.801 117.351 20.0316 117.351 19.2666C117.351 16.6709 120.066 15.7246 124.138 15.7246C126.677 15.7246 128.507 16.8478 128.507 19.3816C128.507 20.6816 128.33 22.1542 128.096 23.3967C127.862 24.5774 126.504 31.1264 126.504 32.6033C126.504 33.5496 126.8 34.2571 128.627 34.2571C129.927 34.2571 131.284 33.5496 132.642 31.542L134.53 16.3171C135.653 15.9059 137.479 15.844 138.722 15.844C141.26 15.844 142.56 16.9053 142.56 19.1472C142.56 19.7972 142.441 20.916 142.207 22.5123H142.193ZM125.275 42.628C127.013 42.5793 128.432 42.2742 129.617 41.7878C129.582 42.9552 129.462 43.4151 129.396 43.5919C129.268 43.6317 128.941 43.7025 128.268 43.7025C126.513 43.7025 125.858 43.3841 125.624 43.194C125.483 43.079 125.368 42.8888 125.279 42.628H125.275Z" fill="#EAF3E7"/>
<path d="M106.654 15.6052C108.542 15.6052 110.253 16.0164 111.434 16.7284L109.723 29.8307C109.426 31.8958 109.369 32.957 109.369 33.6646C109.369 34.2527 109.546 34.6684 110.43 34.6684C110.961 34.6684 111.907 34.6109 112.553 34.434C113.203 34.9646 113.437 35.5572 113.437 36.4416C113.437 39.1567 110.426 40.4567 105.531 40.4567C103.289 40.4567 101.754 39.5104 101.754 37.0341C101.754 36.9147 101.812 36.3841 101.874 36.0878C100.516 39.1567 97.7435 40.3948 94.144 40.3948C88.5369 40.3948 86.295 37.5603 86.295 31.1883C86.295 20.7435 91.3095 15.6671 97.8054 15.6671C100.463 15.6671 102.289 16.1402 103.412 17.4978C103.886 15.9634 105.066 15.6096 106.658 15.6096M97.5711 34.7303C98.8711 34.7303 100.052 34.2571 100.874 33.3727L102.409 21.5704C101.639 21.2742 100.874 21.1592 99.928 21.1592C96.3285 21.1592 94.6172 24.2281 94.6172 30.0695C94.6172 33.6115 95.1478 34.7303 97.5666 34.7303M106.654 11.6298C105.681 11.6298 104.226 11.7138 102.811 12.4302C101.069 11.7979 99.2558 11.6917 97.801 11.6917C93.2773 11.6917 89.2666 13.5843 86.5073 17.0246C83.7214 20.4959 82.3108 25.2628 82.3108 31.1927C82.3108 35.4687 83.1863 38.5022 85.0613 40.7442C87.0821 43.1586 90.1377 44.379 94.1396 44.379C95.8376 44.379 98.2697 44.127 100.551 42.9773C101.843 43.9191 103.536 44.4365 105.531 44.4365C108.679 44.4365 111.142 43.9811 113.061 43.048C115.829 41.6993 117.417 39.2938 117.417 36.446C117.417 34.3456 116.63 32.6342 115.073 31.3607C114.644 31.007 114.149 30.7549 113.632 30.609C113.641 30.5382 113.649 30.4719 113.663 30.4011C113.663 30.3835 113.667 30.3702 113.667 30.3525L115.378 17.2502C115.582 15.6804 114.839 14.1371 113.481 13.3234C111.668 12.2356 109.241 11.6342 106.654 11.6342V11.6298Z" fill="#8AC8A3"/>
<path d="M105.531 41.7789C103.324 41.7789 101.759 40.9785 100.985 39.5149C98.9595 41.2748 96.3063 41.717 94.144 41.717C87.8825 41.717 84.9684 38.3696 84.9684 31.1838C84.9684 18.7625 91.5969 14.3361 97.8054 14.3361C99.4813 14.3361 101.471 14.4909 103.076 15.4725C104.235 14.2786 105.911 14.2786 106.658 14.2786C108.772 14.2786 110.713 14.7429 112.119 15.5875C112.57 15.8572 112.818 16.3746 112.752 16.8964L111.04 29.9987C110.788 31.772 110.718 32.7448 110.704 33.3329C111.213 33.3152 111.828 33.2533 112.212 33.1472C112.327 33.1162 112.447 33.0986 112.562 33.0986C112.862 33.0986 113.163 33.2003 113.402 33.3993C114.339 34.1643 114.773 35.1282 114.773 36.4327C114.773 38.427 113.574 41.7745 105.539 41.7745L105.531 41.7789ZM99.9235 22.4814C98.9374 22.4814 95.9393 22.4814 95.9393 30.0651C95.9393 33.3993 96.3506 33.3993 97.5622 33.3993C98.3582 33.3993 99.0701 33.1649 99.614 32.7271L100.936 22.5433C100.631 22.4991 100.299 22.477 99.9235 22.477V22.4814Z" fill="#37AE75"/>
<path d="M106.654 15.6052C108.542 15.6052 110.253 16.0164 111.434 16.7284L109.723 29.8307C109.426 31.8958 109.369 32.957 109.369 33.6646C109.369 34.2527 109.546 34.6684 110.43 34.6684C110.961 34.6684 111.907 34.6109 112.553 34.434C113.203 34.9646 113.437 35.5572 113.437 36.4416C113.437 39.1567 110.426 40.4567 105.531 40.4567C103.289 40.4567 101.754 39.5104 101.754 37.0341C101.754 36.9147 101.812 36.3841 101.874 36.0878C100.516 39.1567 97.7436 40.3948 94.1441 40.3948C88.537 40.3948 86.295 37.5603 86.295 31.1883C86.295 20.7435 91.3096 15.6671 97.8055 15.6671C100.463 15.6671 102.289 16.1402 103.413 17.4978C103.886 15.9634 105.066 15.6096 106.658 15.6096M97.5711 34.7303C98.8712 34.7303 100.052 34.2571 100.874 33.3727L102.409 21.5704C101.639 21.2742 100.874 21.1592 99.928 21.1592C96.3285 21.1592 94.6172 24.2281 94.6172 30.0695C94.6172 33.6115 95.1478 34.7303 97.5667 34.7303M106.654 12.9564C105.128 12.9564 103.877 13.2704 102.917 13.8895C101.255 13.1421 99.3974 13.0139 97.8055 13.0139C93.693 13.0139 90.0493 14.7296 87.5465 17.8516C84.9552 21.0796 83.6418 25.5679 83.6418 31.1883C83.6418 35.1327 84.4157 37.8964 86.0828 39.8863C87.8648 42.0133 90.5048 43.048 94.1441 43.048C97.0183 43.048 99.1497 42.367 100.728 41.3721C101.843 42.4864 103.488 43.1055 105.535 43.1055C108.436 43.1055 110.775 42.681 112.486 41.8497C114.812 40.7176 116.095 38.7941 116.095 36.4372C116.095 34.7303 115.489 33.3992 114.238 32.3778C113.76 31.9842 113.163 31.7764 112.557 31.7764C112.42 31.7764 112.283 31.7852 112.146 31.8073C112.195 31.3696 112.261 30.8389 112.349 30.2022C112.349 30.1933 112.349 30.18 112.349 30.1712L114.061 17.0689C114.198 16.0209 113.702 14.995 112.796 14.451C111.186 13.4826 109.002 12.952 106.649 12.952L106.654 12.9564ZM97.3854 32.0727C97.3279 31.7587 97.266 31.1661 97.266 30.0651C97.266 27.0095 97.7789 25.4927 98.2079 24.7587C98.5262 24.2104 98.8844 23.9362 99.4328 23.8433L98.3803 31.9267C98.1415 32.024 97.8629 32.0727 97.5623 32.0727C97.4959 32.0727 97.434 32.0727 97.381 32.0727H97.3854Z" fill="#EAF3E7"/>
<path d="M77.5926 3.97978C79.2464 3.97978 80.8958 4.39103 81.8996 5.16045L78.5964 29.8307C78.3001 31.8958 78.2426 32.957 78.2426 33.6646C78.2426 34.2527 78.4195 34.6684 79.3039 34.6684C79.8345 34.6684 80.7808 34.6109 81.4264 34.434C82.0765 34.9646 82.3108 35.5572 82.3108 36.4416C82.3108 39.1567 79.2994 40.4567 74.4043 40.4567C72.1624 40.4567 70.6279 39.5104 70.6279 37.0341C70.6279 36.9147 70.6854 36.3841 70.7473 36.0878C69.3898 39.1567 66.6172 40.3948 63.0177 40.3948C57.4106 40.3948 55.1687 37.5603 55.1687 31.1882C55.1687 20.7435 60.1832 15.6671 66.6791 15.6671C69.3367 15.6671 70.8092 16.0783 71.9324 17.144L73.0556 8.58749C73.5288 4.8686 74.6475 3.98421 77.6014 3.98421M66.4492 34.7303C67.7492 34.7303 68.9299 34.2571 69.7524 33.3727L71.2868 21.5704C70.5174 21.2742 69.7524 21.1592 68.8061 21.1592C65.2066 21.1592 63.4953 24.228 63.4953 30.0695C63.4953 33.6115 64.0259 34.7303 66.4447 34.7303M77.5926 0C75.9299 0 73.4978 0.212255 71.6229 2.02969C69.8497 3.74542 69.3456 6.16425 69.1024 8.08339L68.6204 11.7625C67.9615 11.705 67.307 11.6873 66.6791 11.6873C62.1554 11.6873 58.1447 13.5799 55.3854 17.0202C52.5995 20.4915 51.1889 25.2584 51.1889 31.1882C51.1889 35.4643 52.0645 38.4978 53.9394 40.7397C55.9602 43.1541 59.0158 44.3746 63.0177 44.3746C64.7157 44.3746 67.1478 44.1226 69.4296 42.9728C70.7208 43.9147 72.4144 44.4321 74.4087 44.4321C77.5572 44.4321 80.0202 43.9766 81.9394 43.0436C84.7075 41.6949 86.295 39.2893 86.295 36.4416C86.295 34.3411 85.5079 32.6298 83.9514 31.3563C83.5224 31.0025 83.0272 30.7505 82.5098 30.6045C82.5187 30.5338 82.5275 30.4675 82.5408 30.3967C82.5408 30.3834 82.5408 30.3746 82.5452 30.3613L85.8484 5.69109C86.0386 4.27606 85.4549 2.86987 84.3228 2.00316C82.6602 0.734049 80.2104 0.00442198 77.597 0.00442198L77.5926 0Z" fill="#8AC8A3"/>
<path d="M74.4043 41.7789C72.1977 41.7789 70.6279 40.9785 69.8541 39.5149C68.4125 40.7707 66.2546 41.7214 63.0133 41.7214C56.7517 41.7214 53.8376 38.374 53.8376 31.1883C53.8376 18.7669 60.4662 14.3405 66.6702 14.3405C68.439 14.3405 69.7833 14.5262 70.8711 14.9463L71.729 8.41505C72.2685 4.16552 73.8029 2.65762 77.5881 2.65762C79.6311 2.65762 81.4927 3.18826 82.7044 4.11246C83.0802 4.39988 83.2748 4.87304 83.2129 5.34177L79.9097 30.012C79.6576 31.7852 79.5869 32.7536 79.5736 33.3418C80.0821 33.3241 80.6968 33.2622 81.0815 33.156C81.1965 33.1251 81.3158 33.1074 81.4308 33.1074C81.7315 33.1074 82.0322 33.2091 82.271 33.4081C83.2085 34.1731 83.6418 35.1371 83.6418 36.4416C83.6418 38.4359 82.4435 41.7833 74.4087 41.7833L74.4043 41.7789ZM68.7972 22.4814C67.8111 22.4814 64.813 22.4814 64.813 30.0651C64.813 33.3993 65.2243 33.3993 66.4359 33.3993C67.2318 33.3993 67.9438 33.1649 68.4877 32.7271L69.8098 22.5433C69.5047 22.4991 69.1731 22.477 68.7972 22.477V22.4814Z" fill="#37AE75"/>
<path d="M77.5925 3.97979C79.2464 3.97979 80.8958 4.39103 81.8996 5.16046L78.5963 29.8307C78.3001 31.8958 78.2426 32.957 78.2426 33.6646C78.2426 34.2527 78.4194 34.6684 79.3038 34.6684C79.8345 34.6684 80.7808 34.6109 81.4264 34.434C82.0764 34.9646 82.3108 35.5572 82.3108 36.4416C82.3108 39.1567 79.2994 40.4567 74.4043 40.4567C72.1623 40.4567 70.6279 39.5104 70.6279 37.0341C70.6279 36.9147 70.6854 36.3841 70.7473 36.0878C69.3898 39.1567 66.6172 40.3948 63.0177 40.3948C57.4106 40.3948 55.1687 37.5603 55.1687 31.1883C55.1687 20.7435 60.1832 15.6671 66.6791 15.6671C69.3367 15.6671 70.8092 16.0783 71.9324 17.144L73.0556 8.58749C73.5287 4.86861 74.6475 3.98421 77.6014 3.98421M66.4491 34.7303C67.7492 34.7303 68.9299 34.2571 69.7524 33.3727L71.2868 21.5704C70.5174 21.2742 69.7524 21.1592 68.8061 21.1592C65.2066 21.1592 63.4953 24.2281 63.4953 30.0695C63.4953 33.6115 64.0259 34.7303 66.4447 34.7303M77.5925 1.3266C76.036 1.3266 74.0594 1.51674 72.5426 2.98042C71.0745 4.39987 70.6456 6.43841 70.4157 8.247L69.7612 13.2483C68.7441 13.0537 67.7006 13.0095 66.6747 13.0095C62.5622 13.0095 58.9185 14.7252 56.4157 17.8471C53.8244 21.0752 52.511 25.5635 52.511 31.1838C52.511 35.1282 53.2849 37.892 54.952 39.8819C56.734 42.0088 59.374 43.0436 63.0133 43.0436C65.8875 43.0436 68.0189 42.3626 69.5976 41.3677C70.7119 42.482 72.3569 43.1011 74.4043 43.1011C77.3051 43.1011 79.6443 42.6766 81.3556 41.8452C83.6816 40.7132 84.964 38.7896 84.964 36.4327C84.964 34.7258 84.3582 33.3948 83.1068 32.3733C82.6292 31.9798 82.0322 31.772 81.4264 31.772C81.2893 31.772 81.1522 31.7808 81.0152 31.8029C81.0638 31.3651 81.1301 30.8345 81.2186 30.1977C81.2186 30.1889 81.2186 30.1845 81.2186 30.1756L84.5218 5.50537C84.65 4.56349 84.2609 3.62161 83.5047 3.04675C82.072 1.9501 79.9141 1.32217 77.5837 1.32217L77.5925 1.3266ZM66.259 32.0726C66.2015 31.7587 66.1396 31.1661 66.1396 30.0651C66.1396 27.0095 66.6525 25.4927 67.0815 24.7587C67.3999 24.2104 67.758 23.9362 68.3064 23.8433L67.2539 31.9267C67.0152 32.024 66.7366 32.0726 66.4359 32.0726C66.3695 32.0726 66.3076 32.0726 66.2546 32.0726H66.259Z" fill="#EAF3E7"/>
<path d="M50.0657 23.2773C50.7732 24.0468 51.1889 25.223 51.1889 26.1118C51.1889 28.4157 49.597 29.3576 47.4125 29.415L29.4106 30.242C28.5262 29.2957 28.2299 28.2344 28.2299 27.2925C28.2299 25.6387 29.0568 24.5199 31.1219 24.4005L46.9968 23.5161L50.0657 23.2818M50.0657 19.302C49.964 19.302 49.8623 19.302 49.7606 19.3152L46.7315 19.5496L30.8964 20.434C26.8547 20.6639 24.2457 23.3614 24.2457 27.3013C24.2457 29.4372 25.024 31.4005 26.5009 32.9747C27.2571 33.7795 28.3051 34.2306 29.4018 34.2306C29.4637 34.2306 29.5256 34.2306 29.5831 34.2306L47.5496 33.4081C52.1042 33.2666 55.1554 30.3437 55.1554 26.1251C55.1554 24.1662 54.3196 22.048 52.9798 20.5932C52.2236 19.7751 51.1623 19.3108 50.0568 19.3108L50.0657 19.302Z" fill="#8AC8A3"/>
<path d="M29.4062 31.5685C29.0392 31.5685 28.6898 31.4182 28.4378 31.1484C27.4296 30.0739 26.8989 28.7385 26.8989 27.2925C26.8989 24.8029 28.4466 23.2243 31.0423 23.0783L46.9217 22.1939L49.964 21.9596C49.9994 21.9596 50.0303 21.9596 50.0657 21.9596C50.4327 21.9596 50.7865 22.1143 51.0385 22.3885C51.9318 23.3569 52.5111 24.825 52.5111 26.1207C52.5111 28.933 50.6184 30.6665 47.4435 30.7505L29.4681 31.5774C29.4681 31.5774 29.4283 31.5774 29.4062 31.5774V31.5685Z" fill="#37AE75"/>
<path d="M50.0657 23.2773C50.7732 24.0467 51.1889 25.223 51.1889 26.1118C51.1889 28.4157 49.597 29.3575 47.4125 29.415L29.4106 30.2419C28.5262 29.2956 28.2299 28.2344 28.2299 27.2925C28.2299 25.6386 29.0568 24.5199 31.1219 24.4005L46.9968 23.5161L50.0657 23.2817M50.0657 20.6285C49.9994 20.6285 49.9286 20.6285 49.8623 20.6374L46.82 20.8717L30.9716 21.7561C27.6418 21.9463 25.5723 24.0688 25.5723 27.2969C25.5723 29.0922 26.2268 30.7372 27.4694 32.0638C27.9735 32.5989 28.6721 32.904 29.4062 32.904C29.446 32.904 29.4858 32.904 29.53 32.904L47.5054 32.0771C51.3525 31.9621 53.8376 29.6273 53.8376 26.1206C53.8376 24.5066 53.1213 22.6892 52.0114 21.4864C51.5073 20.9381 50.7997 20.633 50.0613 20.633L50.0657 20.6285Z" fill="#EAF3E7"/>
<path d="M31.8339 8.17183C32.307 8.82186 32.5414 9.82565 32.5414 10.6526C32.5414 13.0714 30.7726 14.2521 27.5268 14.2521C27.1731 14.2521 16.609 14.1327 16.609 14.1327L15.6627 21.2742H29.2956C29.7069 22.0392 29.7688 22.7511 29.7688 23.3967C29.7688 25.4618 28.5306 27.1156 25.6387 27.1156C22.1586 27.1156 14.9551 27.0581 14.9551 27.0581L14.0708 34.434H30.2994C30.5338 34.9071 30.7107 35.6721 30.7107 36.3797C30.7107 39.2141 28.3493 40.2754 17.374 40.2754C7.10613 40.2754 4.92167 39.506 4.92167 36.7334C4.92167 35.2565 5.27543 32.0107 5.86797 27.7612C6.27922 25.0461 7.75616 13.7745 7.75616 13.7745L4.51042 13.6551C4.09918 13.0051 3.97979 12.2401 3.97979 11.4706C3.97979 9.52496 5.45673 8.22489 8.70246 8.22489H27.7037L31.8339 8.16741M31.8339 4.18762C31.8339 4.18762 31.7941 4.18762 31.7764 4.18762L27.6728 4.24511H8.70246C2.27732 4.24953 0 8.14088 0 11.4751C0 13.1642 0.375869 14.5749 1.15414 15.7953C1.65382 16.578 2.40114 17.1529 3.259 17.4359C2.79469 20.9248 2.17562 25.5768 1.93241 27.1642C1.93241 27.1819 1.92798 27.1996 1.92356 27.2173C1.27353 31.909 0.941883 35.1106 0.941883 36.7334C0.941883 38.6349 1.62287 42.0221 6.17309 43.362C8.35313 44.0032 11.4927 44.2552 17.374 44.2552C23.2552 44.2552 26.952 43.9457 29.3575 43.1851C33.9962 41.7214 34.6905 38.2944 34.6905 36.3797C34.6905 35.0884 34.3809 33.6955 33.8591 32.6519C33.187 31.3032 31.8073 30.4498 30.2994 30.4498H29.1143C31.9533 29.3045 33.7486 26.7176 33.7486 23.3923C33.7486 22.4239 33.6513 20.9558 32.8023 19.3816C32.422 18.674 31.8427 18.1124 31.1529 17.7498C35.0486 16.5957 36.5256 13.5445 36.5256 10.6481C36.5256 9.80796 36.3841 7.65003 35.0575 5.82818C34.3102 4.79786 33.1118 4.18762 31.8383 4.18762H31.8339Z" fill="#8AC8A3"/>
<path d="M17.3784 41.602C7.79594 41.602 3.59948 41.1421 3.59948 36.7334C3.59948 34.8629 4.12127 30.724 4.55462 27.5799C4.87301 25.4795 5.84142 18.1788 6.25267 15.048L4.46618 14.9817C4.02841 14.964 3.63043 14.7385 3.39606 14.367C2.9008 13.5843 2.65759 12.638 2.65759 11.4706C2.65759 10.3961 3.09537 6.89831 8.70687 6.89831H27.7081C27.7081 6.89831 31.8338 6.84082 31.8383 6.84082C32.2628 6.84082 32.6608 7.04423 32.9128 7.38915C33.6203 8.3664 33.8724 9.71069 33.8724 10.6481C33.8724 15.0967 29.4371 15.5742 27.5312 15.5742C27.2438 15.5742 20.5489 15.4991 17.7764 15.4681L17.1838 19.9432H29.3045C29.7909 19.9432 30.2419 20.2129 30.4719 20.6418C31.029 21.6722 31.1042 22.614 31.1042 23.3967C31.1042 26.4612 28.964 28.4422 25.6475 28.4422C23.0518 28.4422 18.3379 28.4068 16.1402 28.3936L15.5742 33.1074H30.3083C30.8124 33.1074 31.2722 33.3904 31.4933 33.8415C31.8338 34.5224 32.0461 35.4997 32.0461 36.3841C32.0461 40.8503 27.5224 41.6065 17.3828 41.6065L17.3784 41.602Z" fill="#37AE75"/>
<path d="M31.8339 8.17183C32.307 8.82186 32.5414 9.82565 32.5414 10.6526C32.5414 13.0714 30.7726 14.2521 27.5269 14.2521C27.1731 14.2521 16.609 14.1327 16.609 14.1327L15.6627 21.2742H29.2956C29.7069 22.0392 29.7688 22.7511 29.7688 23.3967C29.7688 25.4618 28.5306 27.1156 25.6387 27.1156C22.1586 27.1156 14.9552 27.0581 14.9552 27.0581L14.0708 34.434H30.2994C30.5338 34.9071 30.7107 35.6721 30.7107 36.3797C30.7107 39.2142 28.3493 40.2754 17.374 40.2754C7.10613 40.2754 4.92167 39.506 4.92167 36.7334C4.92167 35.2565 5.27543 32.0107 5.86798 27.7612C6.27922 25.0461 7.75616 13.7745 7.75616 13.7745L4.51043 13.6551C4.09918 13.0051 3.97979 12.2401 3.97979 11.4706C3.97979 9.52496 5.45673 8.2249 8.70247 8.2249H27.7037L31.8339 8.16741M31.8339 5.51422C31.8339 5.51422 31.8073 5.51422 31.7941 5.51422L27.6816 5.57171H8.70247C3.26343 5.57171 1.3266 8.61845 1.3266 11.4706C1.3266 12.8989 1.63614 14.0796 2.2729 15.079C2.74163 15.8174 3.54201 16.2729 4.41314 16.3039L4.74479 16.3171C4.28048 19.8414 3.5199 25.5591 3.24574 27.3588C3.24574 27.3721 3.24574 27.3809 3.24132 27.3942C2.60013 32.024 2.2729 35.168 2.2729 36.729C2.2729 39.4485 3.71447 41.2483 6.55338 42.084C8.60076 42.6854 11.6387 42.9242 17.3784 42.9242C23.1181 42.9242 26.7265 42.6235 28.964 41.916C31.8869 40.9918 33.3727 39.1301 33.3727 36.3752C33.3727 35.283 33.1118 34.1112 32.6785 33.2401C32.2274 32.3424 31.3121 31.772 30.3039 31.772H17.0644L17.3121 29.7202C19.7353 29.7378 23.4454 29.76 25.6431 29.76C29.7025 29.76 32.4264 27.1996 32.4264 23.3879C32.4264 22.4946 32.338 21.3051 31.6349 20.0051C31.1706 19.1472 30.2729 18.6121 29.3001 18.6121H18.6961L18.9349 16.8035C22.1099 16.8389 27.2704 16.8964 27.5313 16.8964C34.6462 16.8964 35.199 12.1118 35.199 10.6437C35.199 9.17562 34.7435 7.65004 33.9829 6.60645C33.4833 5.92104 32.6873 5.51422 31.8383 5.51422H31.8339Z" fill="#EAF3E7"/>
</g>
<defs>
<clipPath id="clip0_691_3498">
<rect width="146.527" height="56" fill="white"/>
</clipPath>
</defs>
</svg>
