<svg width="32" height="16" viewBox="0 0 32 16" fill="none" xmlns="http://www.w3.org/2000/svg">
<g clip-path="url(#clip0_442_1139)">
<path d="M2.35075 15.0253C1.79028 15.0253 1.25456 14.8088 0.879673 14.4326C0.504789 14.0553 0.322914 13.5502 0.382302 13.0463L1.66903 1.95888C1.77544 1.04449 2.62171 0.354858 3.63748 0.354858H27.7525C28.313 0.354858 28.8487 0.57133 29.2236 0.947495C29.5985 1.32484 29.7804 1.82994 29.721 2.33386L28.433 13.4201C28.3266 14.3345 27.4804 15.0241 26.4646 15.0241H2.35075V15.0253Z" fill="#EAF3E7"/>
<path d="M26.4659 15.3802H2.35086C1.68894 15.3802 1.05547 15.1235 0.611302 14.6775C0.160946 14.2245 -0.0568083 13.6153 0.0137144 13.0072L1.30044 1.91986C1.42788 0.825669 2.43252 0 3.63759 0H27.7527C28.4146 0 29.048 0.256691 29.4922 0.702647C29.9426 1.1557 30.1603 1.7649 30.0898 2.37291L28.8031 13.4591C28.6756 14.5533 27.671 15.379 26.4659 15.379V15.3802ZM3.63759 0.709744C2.81112 0.709744 2.12321 1.26334 2.03784 1.99911L0.75111 13.0853C0.704095 13.4851 0.848852 13.8873 1.14826 14.1878C1.45386 14.4942 1.89185 14.6704 2.35086 14.6704H26.4659C27.2924 14.6704 27.9803 14.1168 28.0657 13.381L29.3524 2.29484C29.3994 1.89502 29.2547 1.49283 28.9553 1.19237C28.6497 0.885997 28.2117 0.709744 27.7527 0.709744H3.63759Z" fill="#37AE75"/>
<path d="M10.3767 5.02381C9.78534 5.02381 8.69286 5.00607 8.69286 5.00607L7.72533 12.4205C7.29601 12.54 6.97309 12.592 6.38169 12.592C5.41417 12.592 5.14569 12.3011 5.14569 11.5298C5.14569 11.2731 5.23477 10.4001 5.43273 8.94396C5.55769 8.15615 5.98825 5.00607 5.98825 5.00607L3.49892 4.9895C3.37396 4.80142 3.31952 4.42407 3.31952 4.20169C3.31952 3.63626 3.7674 3.27665 4.75224 3.27665H10.4299L11.6833 3.25891C11.8268 3.44699 11.8985 3.72143 11.8985 3.96156C11.8985 4.66421 11.3616 5.02381 10.3767 5.02381Z" fill="#37AE75"/>
<path d="M13.6691 12.6098C12.798 12.708 12.2722 12.2845 12.2722 11.5475C12.2722 11.2565 12.3254 10.7775 12.3798 10.4179L12.9886 7.07852L12.1646 7.09508C12.021 6.92356 11.9852 6.70117 11.9852 6.47878C11.9852 5.72527 12.6842 5.45084 14.2778 5.45084C15.4593 5.45084 15.7105 5.77614 15.6029 6.47878L15.1909 9.14979C15.0659 9.9376 15.004 10.3185 14.9397 10.7077C14.8036 11.5345 14.8036 12.4809 13.6678 12.6086L13.6691 12.6098ZM14.7294 4.44182C14.0662 4.44182 13.476 4.21943 13.476 3.37957C13.476 2.6438 14.0489 2.07837 14.9978 2.07837C15.8392 2.07837 16.2153 2.54089 16.2153 3.17374C16.2153 3.92725 15.6598 4.44063 14.7281 4.44063L14.7294 4.44182Z" fill="#37AE75"/>
<path d="M20.1188 12.5246C19.922 12.5246 19.5632 12.5246 19.4024 12.508L18.9372 15.864C18.597 15.9834 18.0414 16.0012 17.6653 16.0012C16.8772 16.0012 16.5011 15.6924 16.5011 15.0418C16.5011 14.8538 16.5543 14.5285 16.626 14.0659L17.5936 7.07969L16.7695 7.09625C16.6446 6.92472 16.6087 6.70234 16.6087 6.47995C16.6087 5.72644 17.3078 5.45201 18.9013 5.45201C19.9406 5.45201 20.2264 5.67439 20.1373 6.23982L20.0297 6.87386C20.5134 5.67557 21.3548 5.41888 22.2864 5.41888C24.0235 5.41888 24.7943 6.41253 24.7943 8.26141C24.7943 10.9502 22.9669 12.5258 20.12 12.5258L20.1188 12.5246ZM21.2112 7.06194C20.746 7.06194 20.334 7.25002 20.1002 7.54102L19.5991 10.949C19.7785 10.9998 19.9926 11.0176 20.2982 11.0176C21.4265 11.0176 22.2864 10.2641 22.2864 8.55122C22.2864 7.47241 21.9635 7.06194 21.2112 7.06194Z" fill="#37AE75"/>
<path d="M26.4027 12.6251C25.7952 12.424 25.3226 12.0396 25.6059 11.2553C25.8534 10.5728 26.5747 10.2262 27.4556 10.5172C28.245 10.7786 28.4219 11.3251 28.2116 11.9059C27.9542 12.6169 27.2688 12.9114 26.4039 12.624L26.4027 12.6251ZM29.4228 9.21837C29.142 9.71046 28.7646 9.86187 27.9901 9.60636C27.6251 9.48571 27.2428 9.22902 27.082 9.01254L28.9997 4.75171C29.4389 3.77463 29.9548 3.52267 30.7751 3.79474C31.3529 3.98637 31.6795 4.20876 32 4.63934L29.4228 9.21837Z" fill="#004029"/>
</g>
<defs>
<clipPath id="clip0_442_1139">
<rect width="32" height="16" fill="white"/>
</clipPath>
</defs>
</svg>
