<svg width="40" height="40" viewBox="0 0 40 40" fill="none" xmlns="http://www.w3.org/2000/svg">
<circle cx="20" cy="20" r="20" fill="#D9D9D9"/>
<path d="M20 8.8C18.5855 8.8 17.229 9.39 16.2288 10.4402C15.2286 11.4904 14.6667 12.9148 14.6667 14.4C14.6667 15.8852 15.2286 17.3096 16.2288 18.3598C17.229 19.41 18.5855 20 20 20C21.4145 20 22.771 19.41 23.7712 18.3598C24.7714 17.3096 25.3333 15.8852 25.3333 14.4C25.3333 12.9148 24.7714 11.4904 23.7712 10.4402C22.771 9.39 21.4145 8.8 20 8.8ZM12 14.4C12 12.1722 12.8429 10.0356 14.3431 8.4603C15.8434 6.885 17.8783 6 20 6C22.1217 6 24.1566 6.885 25.6569 8.4603C27.1571 10.0356 28 12.1722 28 14.4C28 16.6278 27.1571 18.7644 25.6569 20.3397C24.1566 21.915 22.1217 22.8 20 22.8C17.8783 22.8 15.8434 21.915 14.3431 20.3397C12.8429 18.7644 12 16.6278 12 14.4ZM14.6667 28.4C13.6058 28.4 12.5884 28.8425 11.8382 29.6301C11.0881 30.4178 10.6667 31.4861 10.6667 32.6C10.6667 32.9713 10.5262 33.3274 10.2761 33.59C10.0261 33.8525 9.68696 34 9.33333 34C8.97971 34 8.64057 33.8525 8.39052 33.59C8.14048 33.3274 8 32.9713 8 32.6C8 30.7435 8.70238 28.963 9.95262 27.6503C11.2029 26.3375 12.8986 25.6 14.6667 25.6H25.3333C27.1014 25.6 28.7971 26.3375 30.0474 27.6503C31.2976 28.963 32 30.7435 32 32.6C32 32.9713 31.8595 33.3274 31.6095 33.59C31.3594 33.8525 31.0203 34 30.6667 34C30.313 34 29.9739 33.8525 29.7239 33.59C29.4738 33.3274 29.3333 32.9713 29.3333 32.6C29.3333 31.4861 28.9119 30.4178 28.1618 29.6301C27.4116 28.8425 26.3942 28.4 25.3333 28.4H14.6667Z" fill="#151515"/>
</svg>
