<svg width="233" height="219" viewBox="0 0 233 219" fill="none" xmlns="http://www.w3.org/2000/svg">
<path d="M139.039 184.732L231.731 167.108L232.384 137.733L187.343 127.942V105.748L196.482 91.387L195.829 64.6237L128.595 0L0 126.636L43.0824 172.33L41.1241 210.19L81.5955 218.023L139.039 184.732Z" fill="#369149"/>
<path d="M22.9837 126.114L92.712 57.0121C93.4496 56.281 94.6246 56.2419 95.4014 56.9273L123.248 81.1448C123.744 81.5757 123.992 82.2284 123.914 82.8812L120.859 107.921C120.807 108.359 120.605 108.77 120.291 109.083L118.091 111.283C117.719 111.655 117.217 111.864 116.695 111.864H111.877C111.309 111.864 110.767 112.105 110.395 112.536L63.4094 165.782C62.6588 166.631 61.3467 166.683 60.5373 165.887L22.9837 128.94C22.2004 128.163 22.1939 126.897 22.9837 126.12V126.114Z" fill="#4BAA43"/>
<path d="M87.2029 149.064L91.5373 141.231L96.3025 136.629C98.0715 134.918 100.075 133.495 102.236 132.405L116.44 125.257C118.131 124.174 120.318 125.277 120.572 127.346L125.977 170.618C126.121 171.793 125.572 172.942 124.587 173.516L101.851 186.774C98.7046 188.608 95.3429 189.986 91.8441 190.88L84.9248 192.642C81.3737 193.55 77.6334 192.309 75.2051 189.431L70.5444 183.902C69.7676 182.981 69.6305 181.637 70.2115 180.56L87.2029 149.064Z" fill="#4BAA43"/>
<path d="M145.247 171.781L168.674 163.719C172.591 162.368 176.644 161.454 180.757 160.991L216.496 156.963C219.133 156.663 221.287 154.718 221.842 152.12C222.442 149.313 221.032 146.46 218.434 145.24L210.073 141.297C205.412 139.097 200.399 137.726 195.261 137.25L180.483 135.872C177.336 135.579 174.921 132.961 174.875 129.808L173.968 104.403C173.936 101.935 172.434 99.7224 170.156 98.7824L135.697 86.0796C131.741 84.4412 127.361 87.222 127.158 91.5041L127.067 126.988C127.047 127.413 127.067 127.837 127.139 128.255L132.975 164.437C133.901 170.162 139.757 173.674 145.247 171.788V171.781Z" fill="#4BAA43"/>
<path d="M102.843 46.5218L124.41 23.0745C126.721 20.5614 130.638 20.4308 133.118 22.7743L173.707 61.2025C176.181 63.5459 177.637 66.7706 177.754 70.1715L177.852 72.9784C178.067 79.2384 173.779 84.7542 167.662 86.0924L167.16 86.2034C160.75 87.6068 154.072 87.0911 147.955 84.7281L132.172 78.6313C129.815 77.724 127.641 76.4119 125.735 74.7539L103.332 55.2754C100.734 53.0169 100.512 49.0546 102.843 46.5218Z" fill="#4BAA43"/>
<path d="M153.856 70.9489L147.923 76.8825C146.467 78.3382 146.891 80.7991 148.752 81.6869L153.119 83.7562C155.736 84.9964 158.817 84.8005 161.252 83.2339L163.452 81.8174C165.019 80.8122 165.286 78.6254 164.013 77.2677L158.132 71.0207C156.977 69.7935 155.044 69.7674 153.856 70.9554V70.9489Z" fill="#369149"/>
<path d="M64.5547 90.714L37.296 120.629L59.4909 140.853L86.7496 110.938L64.5547 90.714Z" fill="#369149"/>
<path d="M63.384 205.34L68.7301 200.66L70.0683 201.998L117.492 153.237L102.126 137.877L95.7741 144.059L93.1631 141.448L56.7062 178.622V185.131L59.376 187.97L57.372 189.974L61.38 193.982L56.7062 198.643L63.384 205.34Z" fill="#DBDBDB"/>
<path d="M109.699 72.9064L100.346 64.3301L95.3783 69.7474L104.731 78.3237L109.699 72.9064Z" fill="#DBDBDB"/>
<path d="M111.877 56.1496L108.311 52.166L105.821 54.395L109.387 58.3785L111.877 56.1496Z" fill="#DBDBDB"/>
<path d="M173.211 68.0558L153.067 47.5851L150.567 49.9677L137.916 37.1082L140.893 34.2557L132.459 25.6914L108.176 49.5826L109.116 50.5356L116.61 58.1534L117.393 59.0672L122.628 53.9169L121.845 52.9965L131.565 43.427L144.209 56.2865L145.619 57.716L154.986 67.2333L152.747 69.8182L166.807 84.1007L177.676 72.3183L173.211 68.0558Z" fill="#DBDBDB"/>
<path d="M100.396 100.871L74.9315 78.5273L70.6429 83.4426L96.1007 105.793L64.7745 141.695L75.5974 151.141L106.924 115.232L111.219 110.31L100.396 100.871Z" fill="#DBDBDB"/>
<path d="M110.422 90.2672L100.092 81.2559L95.3716 86.6668L105.702 95.6781L110.422 90.2672Z" fill="#DBDBDB"/>
<path d="M90.0138 83.1116L83.6191 77.5332L80.6154 80.9765L87.0101 86.5549L90.0138 83.1116Z" fill="#DBDBDB"/>
<path d="M167.877 127.028C167.78 127.028 167.675 127.028 167.577 127.008L123.352 121.897L117.804 121.447C117.092 121.388 116.44 121.042 115.989 120.487C115.539 119.932 115.336 119.221 115.428 118.516L119.651 85.1596C119.573 85.0094 119.514 84.8528 119.462 84.6831L119.103 83.4298C118.907 82.7509 118.998 82.0198 119.351 81.4127C119.703 80.7991 120.291 80.3552 120.976 80.1855L126.662 78.7494C126.871 78.6972 127.086 78.6711 127.302 78.6711C127.719 78.6711 128.137 78.7755 128.516 78.9714L147.922 89.1806L154.209 88.6519L154.28 81.0276L154.209 80.6033C153.974 79.1803 154.94 77.8355 156.363 77.6071L161.389 76.7846C161.533 76.7585 161.67 76.752 161.813 76.752C162.551 76.752 163.256 77.0653 163.759 77.6201L165.364 79.4152L173.491 84.67L175.247 84.9442C175.939 85.0486 176.559 85.4337 176.97 86.0017C177.382 86.5696 177.545 87.281 177.427 87.9664L177.205 89.2524C177.14 89.631 176.997 89.9704 176.801 90.2707L177.917 114.958C177.943 115.585 177.747 116.205 177.356 116.701L169.927 126.055C169.431 126.682 168.674 127.041 167.884 127.041L167.877 127.028Z" fill="white"/>
<path d="M148.176 92.5487L127.229 81.9805L123.606 119.306L148.47 121.904L148.176 92.5487Z" fill="#DBDBDB"/>
<path d="M123.607 119.306L118.013 118.856L122.523 83.2869L127.282 82.125L123.607 119.306Z" fill="#F0F0F0"/>
<path d="M146.695 92.9546L127.158 82.6801L121.975 83.9726L121.616 82.7193L127.308 81.2832L147.302 91.7993L146.695 92.9546Z" fill="#0D725F"/>
<path d="M132.876 93.1164L157.002 91.6934L157.074 122.798L131.838 119.606L132.876 93.1164Z" fill="#8EC7ED"/>
<path d="M156.898 80.8328L156.513 122.035L167.877 124.418V87.0928L161.572 80.0625L156.898 80.8328Z" fill="#F0F0F0"/>
<path d="M167.604 86.8965L174.092 88.1628L175.306 115.07L167.878 124.417L167.604 86.8965Z" fill="#DBDBDB"/>
<path d="M161.572 80.0625L174.092 88.1633L167.878 87.0928L161.572 80.0625Z" fill="#13D3BC"/>
<path d="M161.696 111.055L126.375 110.52L126.329 108.131L161.65 108.666L161.696 111.055Z" fill="#6D6D6D"/>
<path d="M123.606 119.306L167.877 124.417L156.839 116.539L132.014 115.514L123.606 119.306Z" fill="#A6A6A6"/>
<path d="M174.634 88.8023L167.545 87.6991L161.324 80.7667L157.003 81.4782L156.794 80.1858L161.82 79.3633L168.211 86.4915L174.856 87.5163L174.634 88.8023Z" fill="#0D725F"/>
<path d="M156.937 91.0482L132.153 93.125L132.262 94.426L157.046 92.3492L156.937 91.0482Z" fill="#6D6D6D"/>
<path d="M157.105 97.4255L132.236 97.6816L132.25 98.9871L157.119 98.731L157.105 97.4255Z" fill="#6D6D6D"/>
<path d="M132.121 103.237L132.112 104.543L157.067 104.713L157.076 103.407L132.121 103.237Z" fill="#6D6D6D"/>
<path d="M166.715 122.589L165.031 123.392C163.699 124.025 162.12 123.875 160.932 123.007L159.6 122.034C159.091 121.662 158.895 121.003 159.117 120.415L159.215 120.154C159.267 120.011 159.417 119.919 159.574 119.945L159.854 119.991C160.122 120.03 160.318 119.756 160.2 119.515L159.979 119.084C159.757 118.653 159.757 118.144 159.979 117.72L160.331 117.028C160.403 116.891 160.559 116.819 160.71 116.858C160.958 116.923 161.18 116.695 161.108 116.447L161.082 116.368C160.945 115.905 161.003 115.402 161.238 114.984L162.831 112.119C162.942 111.916 163.223 111.89 163.373 112.067L164.404 113.274C164.483 113.366 164.502 113.496 164.463 113.607L164.13 114.482C164.071 114.639 164.137 114.808 164.28 114.887C164.404 114.952 164.561 114.932 164.665 114.834L164.933 114.573C165.109 114.403 165.403 114.475 165.475 114.71L165.729 115.507C165.932 116.127 165.71 116.799 165.194 117.191C164.979 117.354 165.037 117.693 165.299 117.772L166.043 118C166.147 118.033 166.232 118.111 166.265 118.222L166.539 119.116C166.663 119.528 166.493 119.965 166.128 120.187C165.86 120.35 165.945 120.755 166.252 120.801L166.735 120.866C166.852 120.879 166.957 120.964 167.002 121.075L167.152 121.473C167.322 121.917 167.12 122.413 166.695 122.615L166.715 122.589Z" fill="#4BAA43"/>
<path d="M122.171 119.444L123.281 119.972C124.162 120.39 125.194 120.292 125.984 119.718L126.858 119.078C127.191 118.837 127.322 118.399 127.172 118.014L127.106 117.838C127.067 117.74 126.969 117.688 126.871 117.701L126.682 117.727C126.506 117.753 126.375 117.57 126.453 117.414L126.597 117.133C126.741 116.852 126.741 116.519 126.597 116.232L126.362 115.775C126.316 115.684 126.212 115.638 126.114 115.664C125.951 115.71 125.801 115.553 125.853 115.397L125.866 115.344C125.957 115.037 125.918 114.711 125.762 114.43L124.717 112.544C124.645 112.413 124.463 112.394 124.365 112.511L123.686 113.308C123.634 113.366 123.62 113.451 123.647 113.523L123.862 114.098C123.901 114.202 123.862 114.313 123.764 114.365C123.679 114.411 123.581 114.398 123.51 114.333L123.333 114.163C123.216 114.052 123.026 114.098 122.974 114.254L122.805 114.776C122.674 115.181 122.818 115.632 123.157 115.886C123.301 115.991 123.261 116.219 123.092 116.271L122.602 116.421C122.53 116.441 122.478 116.5 122.459 116.565L122.276 117.152C122.191 117.42 122.302 117.714 122.543 117.857C122.72 117.962 122.667 118.23 122.459 118.262L122.139 118.301C122.06 118.314 121.995 118.367 121.962 118.438L121.865 118.7C121.754 118.987 121.884 119.313 122.165 119.45L122.171 119.444Z" fill="#4BAA43"/>
<path d="M111.041 170.512C111.041 171.66 111.773 172.82 113.139 173.336L112.553 174.191C111.574 173.816 110.889 173.102 110.514 172.24C110.127 173.213 109.412 174.057 108.393 174.496L107.783 173.629C109.201 173.014 109.963 171.678 109.963 170.512V169.152H111.041V170.512ZM109.717 177.074C109.705 175.879 111.07 175.17 113.268 175.164C115.459 175.17 116.836 175.879 116.842 177.074C116.836 178.27 115.459 178.979 113.268 178.973C111.07 178.979 109.705 178.27 109.717 177.074ZM110.818 177.074C110.807 177.742 111.738 178.129 113.268 178.117C114.791 178.129 115.723 177.742 115.729 177.074C115.723 176.4 114.791 176.014 113.268 176.02C111.738 176.014 110.807 176.4 110.818 177.074ZM113.467 174.637V168.695H114.498V171.238H115.729V168.508H116.783V174.965H115.729V172.152H114.498V174.637H113.467ZM126.463 168.496V171.109H127.963V172.059H126.463V174.684H125.35V168.496H126.463ZM118.131 173.688C118.945 173.688 119.889 173.682 120.873 173.658V173.066C119.666 172.955 118.916 172.469 118.928 171.684C118.916 170.828 119.9 170.324 121.424 170.324C122.936 170.324 123.914 170.828 123.92 171.684C123.914 172.463 123.176 172.949 121.986 173.066V173.611C122.924 173.57 123.873 173.494 124.752 173.371L124.846 174.098C122.59 174.467 120.094 174.484 118.248 174.484L118.131 173.688ZM118.4 170.02V169.246H120.873V168.402H121.986V169.246H124.459V170.02H118.4ZM119.525 175.902V175.129H126.463V177.32H120.662V178.117H126.85V178.891H119.549V176.605H125.361V175.902H119.525ZM119.982 171.684C119.982 172.105 120.527 172.363 121.424 172.363C122.309 172.363 122.859 172.105 122.854 171.684C122.859 171.279 122.309 171.051 121.424 171.051C120.527 171.051 119.982 171.279 119.982 171.684ZM134.42 169.293V169.879C134.408 170.582 134.408 171.625 134.15 172.984L133.049 172.879C133.277 171.719 133.312 170.869 133.324 170.207H129.123V169.293H134.42ZM128.49 173.887C129.135 173.887 129.867 173.881 130.635 173.863V171.648H131.736V173.828C132.861 173.781 134.021 173.699 135.076 173.547L135.146 174.355C132.955 174.742 130.447 174.783 128.596 174.789L128.49 173.887ZM130.084 178.773V175.668H131.197V177.871H137.221V178.773H130.084ZM135.744 176.383V168.496H136.881V171.836H138.322V172.773H136.881V176.383H135.744Z" fill="white"/>
<path d="M44.2422 100.672V101.551H39.9531V104.996H38.8633V101.551H34.6328V100.672H44.2422ZM35.8281 99.4766V94.918H36.9297V96.2891H41.9219V94.918H43.0352V99.4766H35.8281ZM36.9297 98.5859H41.9219V97.1797H36.9297V98.5859ZM54.6133 99.7109V100.625H45.0156V99.7109H49.2461V98.1758H50.3477V99.7109H54.6133ZM45.5664 97.8711C47.5762 97.6133 49.2285 96.4297 49.2344 95.1055V94.6602H50.3594V95.1055C50.3535 96.4473 52 97.6133 54.0273 97.8711L53.5938 98.75C51.9297 98.4805 50.459 97.6719 49.791 96.5117C49.123 97.6719 47.6523 98.4805 45.9766 98.75L45.5664 97.8711ZM46.082 102.43V101.551H53.418V104.996H52.293V102.43H46.082ZM64.082 94.4961V105.02H62.9688V94.4961H64.082ZM55.75 98.9609C55.75 96.7168 56.8809 95.2871 58.4688 95.2812C60.0273 95.2871 61.1758 96.7168 61.1758 98.9609C61.1758 101.229 60.0273 102.658 58.4688 102.652C56.8809 102.658 55.75 101.229 55.75 98.9609ZM56.8281 98.9609C56.8223 100.631 57.4902 101.656 58.4688 101.656C59.4297 101.656 60.0977 100.631 60.0977 98.9609C60.0977 97.3145 59.4297 96.2832 58.4688 96.2773C57.4902 96.2832 56.8223 97.3145 56.8281 98.9609ZM73.9844 94.4961V98.8906H75.5664V99.8281H73.9844V104.996H72.8711V94.4961H73.9844ZM65.6289 102.137C66.4551 102.137 67.416 102.137 68.418 102.107V101.041C67.2344 100.865 66.4609 100.15 66.4727 99.1367C66.4609 97.9531 67.4863 97.1738 68.9805 97.168C70.4688 97.1738 71.5059 97.9531 71.5117 99.1367C71.5059 100.15 70.7207 100.871 69.5312 101.041V102.066C70.4629 102.02 71.4004 101.943 72.2734 101.82L72.3438 102.641C70.0703 103.045 67.6152 103.068 65.8047 103.062L65.6289 102.137ZM65.8281 96.6289V95.7383H68.418V94.5195H69.5312V95.7383H72.1211V96.6289H65.8281ZM67.5156 99.1367C67.5156 99.8047 68.1016 100.221 68.9805 100.215C69.8594 100.221 70.4395 99.8047 70.4453 99.1367C70.4395 98.4629 69.8594 98.0352 68.9805 98.0352C68.1016 98.0352 67.5156 98.4629 67.5156 99.1367ZM37.8496 111.023V111.82C37.8555 112.641 37.8555 113.59 37.5801 114.855H39.0684V115.77H29.459V114.855H36.4551C36.7363 113.631 36.748 112.734 36.748 111.938H30.666V111.023H37.8496ZM30.6309 120.867V117.105H37.8613V120.867H30.6309ZM31.7207 119.965H36.7598V117.984H31.7207V119.965ZM48.0801 110.508V113.66H49.6152V114.598H48.0801V118.23H46.9668V110.508H48.0801ZM40.252 112.09V111.176H45.0332V114.27H41.377V115.734C43.1992 115.734 44.4883 115.658 46.0176 115.395L46.1348 116.309C44.5117 116.59 43.123 116.643 41.1074 116.648H40.2637V113.414H43.9434V112.09H40.252ZM41.4824 120.773V117.633H42.6074V119.871H48.5488V120.773H41.4824ZM59.7754 115.359V116.262H55.5332V117.27C57.4551 117.375 58.5977 118.02 58.6035 119.121C58.5977 120.311 57.2383 120.979 54.9824 120.973C52.6973 120.979 51.3379 120.311 51.3379 119.121C51.3379 118.02 52.4805 117.369 54.4316 117.27V116.262H50.2012V115.359H59.7754ZM50.7051 113.93C52.5918 113.736 54.0801 112.881 54.2324 111.867H51.0801V110.977H58.9199V111.867H55.7324C55.8848 112.887 57.3613 113.736 59.2832 113.93L58.8848 114.809C57.0625 114.598 55.5566 113.83 54.9883 112.717C54.4082 113.83 52.9141 114.598 51.0918 114.809L50.7051 113.93ZM52.4629 119.121C52.457 119.76 53.377 120.129 54.9824 120.117C56.5645 120.129 57.4902 119.76 57.4902 119.121C57.4902 118.471 56.5645 118.119 54.9824 118.113C53.377 118.119 52.457 118.471 52.4629 119.121ZM66.8418 111.562V112.453H60.584V111.562H63.1621V110.449H64.2754V111.562H66.8418ZM61.1582 114.832C61.1523 113.684 62.1953 112.934 63.7129 112.922C65.2246 112.934 66.2559 113.684 66.2559 114.832C66.2559 115.986 65.2246 116.742 63.7129 116.742C62.1953 116.742 61.1523 115.986 61.1582 114.832ZM61.8848 118.5V117.598H68.8223V120.996H67.709V118.5H61.8848ZM62.2363 114.832C62.2246 115.482 62.8223 115.875 63.7129 115.875C64.6035 115.875 65.2012 115.482 65.2129 114.832C65.2012 114.188 64.6035 113.783 63.7129 113.777C62.8223 113.783 62.2246 114.188 62.2363 114.832ZM67.709 117.059V110.496H68.8223V113.344H70.3457V114.27H68.8223V117.059H67.709ZM79.4746 111.504V112.629C79.4629 113.947 79.4629 115.33 79.0879 117.34L77.998 117.223C78.3672 115.324 78.3672 113.918 78.3613 112.629V112.406H71.9277V111.504H79.4746ZM70.9434 119.578V118.652H73.2051V115.254H74.3184V118.652H75.8301V115.254H76.9199V118.652H80.5176V119.578H70.9434Z" fill="white"/>
<path d="M140.729 134.562V135.453H134.471V134.562H137.049V133.449H138.162V134.562H140.729ZM135.045 137.832C135.039 136.684 136.082 135.934 137.6 135.922C139.111 135.934 140.143 136.684 140.143 137.832C140.143 138.986 139.111 139.742 137.6 139.742C136.082 139.742 135.039 138.986 135.045 137.832ZM135.771 141.5V140.598H142.709V143.996H141.596V141.5H135.771ZM136.123 137.832C136.111 138.482 136.709 138.875 137.6 138.875C138.49 138.875 139.088 138.482 139.1 137.832C139.088 137.188 138.49 136.783 137.6 136.777C136.709 136.783 136.111 137.188 136.123 137.832ZM141.596 140.059V133.496H142.709V136.344H144.232V137.27H142.709V140.059H141.596ZM148.041 135.512C148.041 136.66 148.773 137.82 150.139 138.336L149.553 139.191C148.574 138.816 147.889 138.102 147.514 137.24C147.127 138.213 146.412 139.057 145.393 139.496L144.783 138.629C146.201 138.014 146.963 136.678 146.963 135.512V134.152H148.041V135.512ZM146.717 142.074C146.705 140.879 148.07 140.17 150.268 140.164C152.459 140.17 153.836 140.879 153.842 142.074C153.836 143.27 152.459 143.979 150.268 143.973C148.07 143.979 146.705 143.27 146.717 142.074ZM147.818 142.074C147.807 142.742 148.738 143.129 150.268 143.117C151.791 143.129 152.723 142.742 152.729 142.074C152.723 141.4 151.791 141.014 150.268 141.02C148.738 141.014 147.807 141.4 147.818 142.074ZM150.467 139.637V133.695H151.498V136.238H152.729V133.508H153.783V139.965H152.729V137.152H151.498V139.637H150.467ZM164.799 138.805V139.707H160.627V141.746H159.525V139.707H155.189V138.805H164.799ZM156.385 143.773V140.75H157.498V142.871H163.732V143.773H156.385ZM156.42 137.715V133.988H163.557V137.715H156.42ZM157.51 136.836H162.455V134.867H157.51V136.836ZM173.799 133.496V137.891H175.381V138.828H173.799V143.996H172.686V133.496H173.799ZM165.443 141.137C166.27 141.137 167.23 141.137 168.232 141.107V140.041C167.049 139.865 166.275 139.15 166.287 138.137C166.275 136.953 167.301 136.174 168.795 136.168C170.283 136.174 171.32 136.953 171.326 138.137C171.32 139.15 170.535 139.871 169.346 140.041V141.066C170.277 141.02 171.215 140.943 172.088 140.82L172.158 141.641C169.885 142.045 167.43 142.068 165.619 142.062L165.443 141.137ZM165.643 135.629V134.738H168.232V133.52H169.346V134.738H171.936V135.629H165.643ZM167.33 138.137C167.33 138.805 167.916 139.221 168.795 139.215C169.674 139.221 170.254 138.805 170.26 138.137C170.254 137.463 169.674 137.035 168.795 137.035C167.916 137.035 167.33 137.463 167.33 138.137ZM181.791 134.293V134.879C181.779 135.582 181.779 136.625 181.521 137.984L180.42 137.879C180.648 136.719 180.684 135.869 180.695 135.207H176.494V134.293H181.791ZM175.861 138.887C176.506 138.887 177.238 138.881 178.006 138.863V136.648H179.107V138.828C180.232 138.781 181.393 138.699 182.447 138.547L182.518 139.355C180.326 139.742 177.818 139.783 175.967 139.789L175.861 138.887ZM177.455 143.773V140.668H178.568V142.871H184.592V143.773H177.455ZM183.115 141.383V133.496H184.252V136.836H185.693V137.773H184.252V141.383H183.115Z" fill="white"/>
<path d="M128.785 61.5625V62.4531H122.527V61.5625H125.105V60.4492H126.219V61.5625H128.785ZM123.102 64.832C123.096 63.6836 124.139 62.9336 125.656 62.9219C127.168 62.9336 128.199 63.6836 128.199 64.832C128.199 65.9863 127.168 66.7422 125.656 66.7422C124.139 66.7422 123.096 65.9863 123.102 64.832ZM123.828 68.5V67.5977H130.766V70.9961H129.652V68.5H123.828ZM124.18 64.832C124.168 65.4824 124.766 65.875 125.656 65.875C126.547 65.875 127.145 65.4824 127.156 64.832C127.145 64.1875 126.547 63.7832 125.656 63.7773C124.766 63.7832 124.168 64.1875 124.18 64.832ZM129.652 67.0586V60.4961H130.766V63.3438H132.289V64.2695H130.766V67.0586H129.652ZM138.734 61.293V61.8789C138.723 62.582 138.723 63.625 138.465 64.9844L137.363 64.8789C137.592 63.7188 137.627 62.8691 137.639 62.207H133.438V61.293H138.734ZM132.805 65.8867C133.449 65.8867 134.182 65.8809 134.949 65.8633V63.6484H136.051V65.8281C137.176 65.7812 138.336 65.6992 139.391 65.5469L139.461 66.3555C137.27 66.7422 134.762 66.7832 132.91 66.7891L132.805 65.8867ZM134.398 70.7734V67.668H135.512V69.8711H141.535V70.7734H134.398ZM140.059 68.3828V60.4961H141.195V63.8359H142.637V64.7734H141.195V68.3828H140.059Z" fill="white"/>
</svg>
