<svg width="175" height="161" viewBox="0 0 175 161" fill="none" xmlns="http://www.w3.org/2000/svg">
<path d="M109.762 27.4161L67.9855 0L45.1387 40.4714L45.7915 81.5955L36 92.6925L37.3055 133.817L64.0689 134.469L73.2076 153.4L114.984 160.58L143.053 150.136L174.386 90.7342L150.234 70.4986L160.025 48.3046L154.15 17.6246L109.762 27.4161Z" fill="#369149"/>
<path d="M131.884 136.454C121.616 134.515 97.9469 130.71 76.3469 132.165C70.7332 132.544 67.1169 126.317 70.1653 121.591L94.5852 83.7628C95.1596 82.8751 95.9233 82.1374 96.8242 81.5956C103.554 77.5616 132.889 62.202 156.134 85.4665C158.151 87.4836 158.667 90.5581 157.479 93.1496L139.384 132.57C138.072 135.436 134.972 137.041 131.878 136.454H131.884Z" fill="#4BAA43"/>
<path d="M87.5098 88.2601L64.6566 123.34C63.4816 125.141 61.4776 126.225 59.33 126.225H48.7683C45.3086 126.225 42.4822 123.457 42.4104 119.998L41.9534 97.2878C41.9077 94.9966 43.0958 92.8621 45.0606 91.6937L61.0598 82.1959C62.1695 81.5366 63.4555 81.2298 64.748 81.3212L84.7421 82.7181C87.4772 82.9074 88.9981 85.9689 87.5033 88.2601H87.5098Z" fill="#4BAA43"/>
<path d="M72.6525 16.5998L100.506 37.2533C105.101 40.6607 111.042 41.666 116.499 39.9753L142.675 31.8549C144.287 31.3523 145.984 32.3445 146.343 33.9895L148.203 42.5537C148.589 44.3097 147.277 45.9873 145.481 46.0395L128.314 46.5617C127.72 46.5813 127.145 46.7771 126.675 47.1362L115.487 55.5242C114.769 56.066 113.842 56.2357 112.974 55.9876L72.7504 44.5838C71.4906 44.2248 70.1459 44.7666 69.4801 45.8959L61.0529 60.2763C60.2173 61.7059 58.3504 62.1367 56.9731 61.2163C56.118 60.6484 55.6349 59.6692 55.7002 58.6444L56.3791 47.8216C56.725 42.2796 58.2395 36.8747 60.8309 31.9594L68.3965 17.579C69.219 16.0189 71.2425 15.5554 72.659 16.6064L72.6525 16.5998Z" fill="#4BAA43"/>
<path d="M44.5708 99.7683V114.266H50.5697V112.269H64.0624V114.769H69.5652V99.7683H64.0624V103.267H60.0674V105.767H54.0685V103.267H50.5697V99.7683H44.5708Z" fill="#DBDBDB"/>
<path d="M126.31 43.5327L121.342 47.4428L117.667 43.0627L112.295 47.5668L114.423 49.7797L113.085 50.9024L114.292 52.2145L110.95 54.8908L106.237 69.7673L113.522 71.6538L116.59 60.7657L119.632 58.2264L124.365 63.0047L124.874 62.5804L126.669 61.079L130.253 58.0698L126.806 53.6375L130.39 50.6348L141.01 50.8828V43.5327H126.31Z" fill="#DBDBDB"/>
<path d="M65.2895 64.421V58.5461H55.498V64.421V71.6014H65.2895H81.6086V64.421H65.2895Z" fill="#DBDBDB"/>
<path d="M102.97 46.5607L64.0122 33.3894L59.6218 46.3753L98.5796 59.5467L102.97 46.5607Z" fill="#DBDBDB"/>
<path d="M75.7336 79.4346H53.8726V92.3201H75.7336V79.4346Z" fill="#DBDBDB"/>
<path d="M72.5811 127.387C71.8891 127.387 71.2298 127.113 70.7403 126.623C70.2507 126.134 69.9765 125.468 69.97 124.776L69.9243 92.6272C69.9243 92.0071 70.1397 91.413 70.5379 90.943L79.0891 80.8056C79.5983 80.1985 80.3359 79.8787 81.0866 79.8787C81.5044 79.8787 81.9287 79.9831 82.3203 80.192L90.8128 84.7548C91.0412 84.8789 91.2501 85.029 91.4264 85.2118L93.5674 87.3659L103.757 87.3528L106.133 83.7104C106.616 82.9728 107.439 82.5289 108.32 82.5289H108.326C109.208 82.5289 110.037 82.9793 110.513 83.7235L112.844 87.3398L122.132 87.3267L124.267 85.1661C124.45 84.9833 124.659 84.8266 124.881 84.7026L133.36 80.1202C133.752 79.9048 134.176 79.8069 134.6 79.8069C135.357 79.8069 136.095 80.1333 136.611 80.7469L145.038 90.8582C145.43 91.3282 145.645 91.9157 145.645 92.5293L145.691 124.678C145.691 125.37 145.416 126.036 144.927 126.525C144.437 127.015 143.772 127.289 143.08 127.295L126.101 127.315C124.659 127.315 123.49 126.147 123.49 124.711V122.72L114.782 122.733C114.521 122.818 114.247 122.863 113.96 122.863L102.674 122.876C102.393 122.876 102.119 122.831 101.858 122.746L92.1575 122.759V124.75C92.1575 125.442 91.8898 126.107 91.4003 126.597C90.9107 127.087 90.2449 127.361 89.5529 127.367L72.5745 127.393L72.5811 127.387Z" fill="white"/>
<path d="M134.619 82.6401L126.134 87.229L123.235 90.16L108.169 90.1796H107.556L92.4966 90.1991L89.5852 87.2747L81.0928 82.7119L81.5758 101.675L134.182 101.603L134.619 82.6401Z" fill="#13D3BC"/>
<path d="M89.5133 92.8231L92.4964 90.199L88.4819 102.269L89.5133 92.8231Z" fill="#0D725F"/>
<path d="M123.235 90.1599L126.95 93.5739L126.891 101.094L123.235 90.1599Z" fill="#0D725F"/>
<path d="M133.168 98.7311L83.4668 98.8005L83.4969 120.355L133.198 120.285L133.168 98.7311Z" fill="#DBDBDB"/>
<path d="M89.5591 124.972L72.5807 124.991L72.5415 92.8493L81.0927 82.7119L89.5134 92.8232L89.5591 124.972Z" fill="#F0F0F0"/>
<path d="M113.639 120.141L103.012 120.161L102.973 94.1546L108.326 85.9624L113.607 94.1416L113.639 120.141Z" fill="#F0F0F0"/>
<path d="M143.085 124.9L126.107 124.92L126.068 92.7775L134.619 82.6401L143.04 92.7514L143.085 124.9Z" fill="#F0F0F0"/>
<path d="M106.767 96.2159L105.39 96.2178L105.397 101.309L106.774 101.307L106.767 96.2159Z" fill="#8EC7ED"/>
<path d="M109.013 96.2124L107.635 96.2144L107.642 101.306L109.02 101.304L109.013 96.2124Z" fill="#8EC7ED"/>
<path d="M111.258 96.2095L109.881 96.2114L109.888 101.303L111.265 101.301L111.258 96.2095Z" fill="#8EC7ED"/>
<path d="M79.5082 96.5999L78.1309 96.6018L78.138 101.693L79.5153 101.691L79.5082 96.5999Z" fill="#8EC7ED"/>
<path d="M81.7533 96.5965L80.376 96.5984L80.3831 101.69L81.7604 101.688L81.7533 96.5965Z" fill="#8EC7ED"/>
<path d="M83.9921 96.5933L82.6147 96.5952L82.6219 101.687L83.9992 101.685L83.9921 96.5933Z" fill="#8EC7ED"/>
<path d="M133.035 96.5249L131.658 96.5269L131.665 101.618L133.042 101.616L133.035 96.5249Z" fill="#8EC7ED"/>
<path d="M135.281 96.5218L133.903 96.5237L133.91 101.615L135.288 101.613L135.281 96.5218Z" fill="#8EC7ED"/>
<path d="M135.264 89.2434L133.886 89.2454L133.893 94.3369L135.271 94.335L135.264 89.2434Z" fill="#8EC7ED"/>
<path d="M137.52 96.5186L136.143 96.5205L136.15 101.612L137.527 101.61L137.52 96.5186Z" fill="#8EC7ED"/>
<path d="M131.141 105.477L129.764 105.479L129.771 110.571L131.149 110.569L131.141 105.477Z" fill="#8EC7ED"/>
<path d="M133.909 105.467L132.532 105.469L132.539 110.56L133.916 110.558L133.909 105.467Z" fill="#8EC7ED"/>
<path d="M136.677 105.469L135.299 105.471L135.306 110.563L136.684 110.561L136.677 105.469Z" fill="#8EC7ED"/>
<path d="M139.438 105.465L138.061 105.467L138.068 110.559L139.445 110.557L139.438 105.465Z" fill="#8EC7ED"/>
<path d="M131.153 114.087L129.775 114.089L129.782 119.181L131.16 119.179L131.153 114.087Z" fill="#8EC7ED"/>
<path d="M133.92 114.083L132.543 114.085L132.55 119.177L133.927 119.175L133.92 114.083Z" fill="#8EC7ED"/>
<path d="M136.682 114.079L135.305 114.081L135.312 119.173L136.689 119.171L136.682 114.079Z" fill="#8EC7ED"/>
<path d="M139.449 114.082L138.072 114.084L138.079 119.175L139.456 119.173L139.449 114.082Z" fill="#8EC7ED"/>
<path d="M73.1744 124.117L73.1353 93.267L81.0859 83.8411L88.9256 93.2474V93.3649L88.9648 124.097L73.1744 124.117ZM73.788 93.5085L73.8272 123.464L88.312 123.444L88.2729 93.4889L81.0859 84.8594L73.788 93.5085Z" fill="#A6A6A6"/>
<path d="M126.701 124.117L126.662 93.267L134.613 83.8411L142.452 93.2474V93.3649L142.492 124.097L126.701 124.117ZM127.315 93.5085L127.354 123.464L141.839 123.444L141.8 93.4889L134.613 84.8594L127.315 93.5085Z" fill="#A6A6A6"/>
<path d="M77.6146 105.552L76.2373 105.554L76.2444 110.645L77.6218 110.643L77.6146 105.552Z" fill="#8EC7ED"/>
<path d="M80.3827 105.541L79.0054 105.543L79.0125 110.635L80.3898 110.633L80.3827 105.541Z" fill="#8EC7ED"/>
<path d="M83.1503 105.544L81.7729 105.546L81.7801 110.637L83.1574 110.636L83.1503 105.544Z" fill="#8EC7ED"/>
<path d="M85.911 105.54L84.5337 105.542L84.5408 110.634L85.9181 110.632L85.911 105.54Z" fill="#8EC7ED"/>
<path d="M77.6264 114.162L76.249 114.164L76.2561 119.255L77.6335 119.253L77.6264 114.162Z" fill="#8EC7ED"/>
<path d="M80.3944 114.158L79.0171 114.159L79.0242 119.251L80.4015 119.249L80.3944 114.158Z" fill="#8EC7ED"/>
<path d="M83.1552 114.154L81.7778 114.156L81.7849 119.247L83.1623 119.245L83.1552 114.154Z" fill="#8EC7ED"/>
<path d="M85.9232 114.157L84.5459 114.158L84.553 119.25L85.9303 119.248L85.9232 114.157Z" fill="#8EC7ED"/>
<path d="M106.78 105.335L105.402 105.337L105.409 110.428L106.787 110.427L106.78 105.335Z" fill="#8EC7ED"/>
<path d="M109.025 105.325L107.647 105.327L107.655 110.418L109.032 110.417L109.025 105.325Z" fill="#8EC7ED"/>
<path d="M111.265 105.328L109.887 105.33L109.894 110.422L111.272 110.42L111.265 105.328Z" fill="#8EC7ED"/>
<path d="M102.686 120.487L102.653 94.0635L108.332 85.3687L113.933 94.0504V94.1483L113.966 120.474L102.686 120.487ZM103.306 94.2593L103.339 119.835L113.313 119.822L113.28 94.2462L108.326 86.5697L103.3 94.2593H103.306Z" fill="#A6A6A6"/>
<path d="M94.3244 120.383L95.5843 121.218C96.5765 121.878 97.7515 121.728 98.6392 120.814L99.6314 119.802C100.01 119.417 100.154 118.725 99.9904 118.111L99.9186 117.837C99.8795 117.687 99.7685 117.596 99.651 117.622L99.4421 117.667C99.2463 117.707 99.0961 117.419 99.1875 117.171L99.3507 116.721C99.5139 116.27 99.5139 115.742 99.3507 115.291L99.0831 114.567C99.0309 114.423 98.9134 114.351 98.8024 114.39C98.6196 114.462 98.4499 114.221 98.5021 113.96L98.5217 113.875C98.6196 113.392 98.5805 112.87 98.4042 112.426L97.2162 109.429C97.1313 109.221 96.9224 109.188 96.8115 109.371L96.0412 110.637C95.9825 110.735 95.9694 110.866 95.9955 110.983L96.2436 111.897C96.2893 112.06 96.2436 112.243 96.1326 112.321C96.0412 112.393 95.9237 112.367 95.8454 112.269L95.643 112.001C95.5125 111.825 95.297 111.903 95.2383 112.145L95.049 112.974C94.8989 113.62 95.0621 114.325 95.4472 114.73C95.6104 114.9 95.5647 115.252 95.3689 115.337L94.814 115.572C94.7357 115.605 94.6769 115.689 94.6508 115.8L94.4485 116.734C94.3571 117.165 94.4811 117.622 94.7553 117.85C94.9576 118.02 94.8923 118.444 94.6639 118.49L94.3049 118.555C94.2135 118.575 94.1417 118.653 94.109 118.777L93.9981 119.195C93.874 119.658 94.0242 120.174 94.3375 120.383H94.3244Z" fill="#4BAA43"/>
<path d="M79.1669 124.371C79.6042 123.868 79.8588 123.19 79.8719 122.478L79.9175 120.474C79.9371 119.606 79.5977 118.796 79.0102 118.307L78.8405 118.163C78.6186 117.98 78.5402 117.628 78.6447 117.321L79.2974 115.461C79.5716 114.691 79.6173 113.835 79.428 113.046L79.2909 112.471C79.1603 111.916 78.8666 111.44 78.4684 111.12C78.2987 110.983 78.2008 110.748 78.2138 110.5L78.0441 108.065C77.907 106.753 77.783 106.276 77.202 105.709L77.0128 105.526C76.2817 104.801 75.8312 105.088 74.9631 105.624C74.1014 106.152 73.2006 107.269 73.2267 108.411L73.3638 110.16C73.3638 110.376 73.292 110.591 73.1484 110.735C72.5478 111.355 72.1562 112.204 72.0452 113.13L71.9408 114.044C71.8624 114.717 71.9081 115.396 72.0713 116.035L72.2019 116.525C72.2606 116.747 72.2215 116.995 72.0909 117.184L72.0387 117.269C70.8768 118.666 70.7984 121.297 70.8898 122.093C71.0008 123 72.0322 124.73 73.1419 125.396C74.369 126.14 75.7594 126.499 77.0846 125.925C77.8483 125.592 78.5598 125.069 79.1603 124.378L79.1669 124.371Z" fill="#4BAA43"/>
<path d="M136.891 124.371C136.454 123.868 136.199 123.19 136.186 122.478L136.14 120.474C136.121 119.606 136.46 118.796 137.048 118.307L137.217 118.163C137.439 117.98 137.518 117.628 137.413 117.321L136.761 115.461C136.486 114.691 136.441 113.835 136.63 113.046L136.767 112.471C136.898 111.916 137.191 111.44 137.59 111.12C137.759 110.983 137.857 110.748 137.844 110.5L138.014 108.065C138.151 106.753 138.275 106.276 138.856 105.709L139.045 105.526C139.776 104.801 140.227 105.088 141.095 105.624C141.957 106.152 142.857 107.269 142.831 108.411L142.694 110.16C142.694 110.376 142.766 110.591 142.91 110.735C143.51 111.355 143.902 112.204 144.013 113.13L144.117 114.044C144.196 114.717 144.15 115.396 143.987 116.035L143.856 116.525C143.797 116.747 143.837 116.995 143.967 117.184L144.019 117.269C145.181 118.666 145.26 121.297 145.168 122.093C145.057 123 144.026 124.73 142.916 125.396C141.689 126.14 140.299 126.499 138.973 125.925C138.21 125.592 137.498 125.069 136.898 124.378L136.891 124.371Z" fill="#4BAA43"/>
<path d="M115.442 117.615C115.696 117.419 115.84 117.178 115.84 116.923C115.84 116.551 115.115 116.212 114.482 115.996C113.888 115.787 113.666 115.272 113.307 114.965C112.524 114.299 111.453 113.888 110.272 113.888C108.692 113.888 107.68 114.697 106.551 115.722C105.056 117.073 103.927 116.969 103.561 118.3C103.496 118.529 103.529 118.705 103.627 118.855C102.817 119.025 102.243 119.449 102.243 119.952C102.243 120.598 103.215 121.127 104.416 121.127C105.2 121.127 105.885 120.905 106.27 120.565C106.492 120.37 106.806 120.35 107.021 120.546C107.021 120.546 107.034 120.559 107.04 120.559C107.752 121.205 109.397 121.486 110.285 121.486C110.853 121.486 111.401 121.388 111.904 121.218C112.772 120.918 113.542 121.003 114.619 121.009C114.626 121.009 114.639 121.009 114.645 121.009C116.329 121.009 117.687 120.239 117.687 119.286C117.687 118.496 116.741 117.824 115.455 117.628L115.442 117.615Z" fill="#4BAA43"/>
<path d="M100.871 128.895V130.137H105.734V128.895H106.848V133.137H103.848V134.168H108.09V135.082H98.5156V134.168H102.746V133.137H99.7695V128.895H100.871ZM99.7227 138.773V135.832H100.848V137.871H107.012V138.773H99.7227ZM100.871 132.234H105.734V131.004H100.871V132.234ZM114.734 129.293V129.879C114.723 130.582 114.723 131.625 114.465 132.984L113.363 132.879C113.592 131.719 113.627 130.869 113.639 130.207H109.438V129.293H114.734ZM108.805 133.887C109.449 133.887 110.182 133.881 110.949 133.863V131.648H112.051V133.828C113.176 133.781 114.336 133.699 115.391 133.547L115.461 134.355C113.27 134.742 110.762 134.783 108.91 134.789L108.805 133.887ZM110.398 138.773V135.668H111.512V137.871H117.535V138.773H110.398ZM116.059 136.383V128.496H117.195V131.836H118.637V132.773H117.195V136.383H116.059Z" fill="white"/>
<path d="M117.535 31.6875C117.535 33.0469 118.537 34.3242 120.16 34.8398L119.586 35.707C118.379 35.3086 117.471 34.4824 116.99 33.4336C116.521 34.5762 115.584 35.4785 114.336 35.918L113.762 35.0391C115.396 34.4824 116.404 33.123 116.41 31.6875V31.2305H114.055V30.3281H119.844V31.2305H117.535V31.6875ZM115.484 39.7734V36.4453H116.609V38.8711H122.668V39.7734H115.484ZM121.238 37.1719V29.5078H122.352V37.1719H121.238ZM127.719 31.418C127.725 32.8418 128.668 34.2129 130.25 34.7695L129.641 35.6367C128.498 35.1973 127.637 34.3301 127.186 33.2461C126.734 34.4531 125.838 35.4082 124.602 35.8828L124.004 35.0039C125.639 34.4238 126.611 32.9648 126.617 31.3828V30.1406H127.719V31.418ZM125.914 39.7734V36.457H127.039V38.8711H133.004V39.7734H125.914ZM129.441 32.8125V31.8984H131.656V29.5078H132.77V37.3359H131.656V32.8125H129.441ZM139.895 30.5039V37.4062H134.973V30.5039H139.895ZM136.074 36.5039H138.816V31.3828H136.074V36.5039ZM141.969 40.0195V29.4961H143.082V40.0195H141.969ZM150.605 30.293V30.8789C150.594 31.582 150.594 32.625 150.336 33.9844L149.234 33.8789C149.463 32.7188 149.498 31.8691 149.51 31.207H145.309V30.293H150.605ZM144.676 34.8867C145.32 34.8867 146.053 34.8809 146.82 34.8633V32.6484H147.922V34.8281C149.047 34.7812 150.207 34.6992 151.262 34.5469L151.332 35.3555C149.141 35.7422 146.633 35.7832 144.781 35.7891L144.676 34.8867ZM146.27 39.7734V36.668H147.383V38.8711H153.406V39.7734H146.27ZM151.93 37.3828V29.4961H153.066V32.8359H154.508V33.7734H153.066V37.3828H151.93Z" fill="white"/>
<path d="M76.125 60.793V61.7422H66.5156V60.793H70.7344V58.5547H67.3594V57.6758H68.9297V54.3711H67.3359V53.4688H75.2461V54.3711H73.6406V57.6758H75.2109V58.5547H71.8359V60.793H76.125ZM70.0312 57.6758H72.5508V54.3711H70.0312V57.6758ZM82.7344 53.293V53.8789C82.7227 54.582 82.7227 55.625 82.4648 56.9844L81.3633 56.8789C81.5918 55.7188 81.627 54.8691 81.6387 54.207H77.4375V53.293H82.7344ZM76.8047 57.8867C77.4492 57.8867 78.1816 57.8809 78.9492 57.8633V55.6484H80.0508V57.8281C81.1758 57.7812 82.3359 57.6992 83.3906 57.5469L83.4609 58.3555C81.2695 58.7422 78.7617 58.7832 76.9102 58.7891L76.8047 57.8867ZM78.3984 62.7734V59.668H79.5117V61.8711H85.5352V62.7734H78.3984ZM84.0586 60.3828V52.4961H85.1953V55.8359H86.6367V56.7734H85.1953V60.3828H84.0586Z" fill="white"/>
<path d="M10.5684 90.0312V90.9453H9.08008V92.2812H10.5684V93.2188H9.08008V94.7188H7.9668V88.4961H9.08008V90.0312H10.5684ZM0.994141 91.6133C0.982422 90.1426 2.17773 89.1055 3.7832 89.1055C5.39453 89.1055 6.57227 90.1426 6.58398 91.6133C6.57227 93.0957 5.39453 94.1211 3.7832 94.1211C2.17773 94.1211 0.982422 93.0957 0.994141 91.6133ZM2.08398 91.6133C2.07227 92.5566 2.79883 93.1836 3.7832 93.1719C4.76758 93.1836 5.48828 92.5566 5.49414 91.6133C5.48828 90.6758 4.76758 90.0605 3.7832 90.0547C2.79883 90.0605 2.07227 90.6758 2.08398 91.6133ZM2.14258 96.0898V95.1875H9.08008V98.9961H7.9668V96.0898H2.14258ZM17.4707 89.5625V90.4531H11.2129V89.5625H13.791V88.4492H14.9043V89.5625H17.4707ZM11.7871 92.832C11.7812 91.6836 12.8242 90.9336 14.3418 90.9219C15.8535 90.9336 16.8848 91.6836 16.8848 92.832C16.8848 93.9863 15.8535 94.7422 14.3418 94.7422C12.8242 94.7422 11.7812 93.9863 11.7871 92.832ZM12.5137 96.5V95.5977H19.4512V98.9961H18.3379V96.5H12.5137ZM12.8652 92.832C12.8535 93.4824 13.4512 93.875 14.3418 93.875C15.2324 93.875 15.8301 93.4824 15.8418 92.832C15.8301 92.1875 15.2324 91.7832 14.3418 91.7773C13.4512 91.7832 12.8535 92.1875 12.8652 92.832ZM18.3379 95.0586V88.4961H19.4512V91.3438H20.9746V92.2695H19.4512V95.0586H18.3379ZM27.4199 89.293V89.8789C27.4082 90.582 27.4082 91.625 27.1504 92.9844L26.0488 92.8789C26.2773 91.7188 26.3125 90.8691 26.3242 90.207H22.123V89.293H27.4199ZM21.4902 93.8867C22.1348 93.8867 22.8672 93.8809 23.6348 93.8633V91.6484H24.7363V93.8281C25.8613 93.7812 27.0215 93.6992 28.0762 93.5469L28.1465 94.3555C25.9551 94.7422 23.4473 94.7832 21.5957 94.7891L21.4902 93.8867ZM23.084 98.7734V95.668H24.1973V97.8711H30.2207V98.7734H23.084ZM28.7441 96.3828V88.4961H29.8809V91.8359H31.3223V92.7734H29.8809V96.3828H28.7441Z" fill="#151515"/>
</svg>
