<svg width="173" height="289" viewBox="0 0 173 289" fill="none" xmlns="http://www.w3.org/2000/svg">
<path d="M1.30553 124.678L24.1523 146.219L0 200.399L5.22211 254.578L45.6935 270.244L54.8322 244.787L77.679 257.189L97.2619 250.009L135.122 288.522L172.604 232.626L142.303 121.414L77.0262 0L16.9719 26.7633L30.0272 67.8875L3.26382 76.3734L12.4025 97.2619L1.30553 124.678Z" fill="#369149"/>
<path d="M12.6437 243.677L11.6646 246.608C11.3578 247.528 11.8669 248.52 12.7938 248.814L40.706 257.535C41.6525 257.829 42.6513 257.274 42.8993 256.314L46.0652 244.173C46.2415 243.501 45.9934 242.783 45.4451 242.358L38.6955 237.169C38.1864 236.777 37.5075 236.699 36.92 236.966L25.823 242.012C24.3021 242.704 22.6375 243.011 20.9795 242.907L14.3996 242.495C13.6163 242.443 12.8918 242.933 12.6437 243.677Z" fill="#4BAA43"/>
<path d="M12.4547 206.887L41.8291 215.047C44.6164 215.823 46.7444 218.069 47.3646 220.895L50.5239 235.328C50.7915 236.562 50.5043 237.861 49.7145 238.846C48.8594 239.917 47.7366 241.112 47.0186 241.112C46.3658 241.112 42.4231 236.614 39.3943 234.284C38.0626 233.259 36.2675 233.063 34.7335 233.761L24.916 238.226C23.5648 238.84 22.0895 239.108 20.6078 239.01L15.8164 238.69C14.4848 238.598 13.571 237.339 13.8778 236.04C14.7851 232.175 15.6272 223.474 11.4756 207.873C11.3189 207.279 11.8607 206.73 12.4547 206.894V206.887Z" fill="#4BAA43"/>
<path d="M35.9018 240.87L25.0724 245.283C23.5841 245.89 23.6102 248.011 25.1115 248.579L37.39 253.24C38.7739 253.762 40.334 253.155 40.9933 251.83L41.8419 250.133C42.2205 249.375 42.2466 248.488 41.9137 247.704L39.6421 242.397C39.022 240.955 37.3574 240.269 35.9018 240.863V240.87Z" fill="#369149"/>
<path d="M34.0556 233.634L26.0957 236.575L29.037 244.535L36.9969 241.594L34.0556 233.634Z" fill="#DBDBDB"/>
<path d="M11.0447 201.645L45.5302 211.58C47.0773 212.024 48.6896 211.15 49.1596 209.616L57.3452 182.865C57.7761 181.455 57.0972 179.941 55.7525 179.327L43.4218 173.688C38.0495 171.233 32.1812 170.071 26.2802 170.3L20.0463 170.541C18.9627 170.58 17.9836 171.22 17.5136 172.193L7.19989 193.388C6.78212 194.25 6.78213 195.261 7.21296 196.123L9.21695 200.131C9.5825 200.869 10.2418 201.417 11.0381 201.645H11.0447Z" fill="#4BAA43"/>
<path d="M76.2166 237.221L61.549 238.899C60.0215 239.075 59.6429 241.124 61.0072 241.836L71.4841 247.28C72.2217 247.665 73.129 247.404 73.5468 246.686L77.7375 239.564C78.3903 238.455 77.496 237.077 76.2166 237.221Z" fill="#4BAA43"/>
<path d="M99.4812 227.025L101.009 240.778C101.126 241.842 101.596 242.834 102.347 243.598L125.096 266.876C127.237 269.063 130.853 268.717 132.531 266.151L148.497 241.777C152.009 236.418 152.845 229.733 150.769 223.669L139.691 191.397C139.287 190.209 138.425 189.229 137.302 188.668L120.082 180.058C118.868 179.451 117.967 178.354 117.602 177.042L99.442 110.859C98.6522 107.986 95.4602 106.518 92.7643 107.797L74.1735 116.629C72.7048 117.327 71.693 118.724 71.4776 120.33L63.3703 182.049C63.3442 182.258 63.2985 182.467 63.2463 182.676L62.3193 186.109C60.361 193.368 63.2724 201.064 69.5454 205.203L97.3532 223.558C98.5412 224.342 99.318 225.615 99.4747 227.031L99.4812 227.025Z" fill="#4BAA43"/>
<path d="M111.472 137.263L122.426 176.69C122.615 177.376 123.124 177.93 123.797 178.185L129.221 180.222C130.899 180.855 132.602 179.347 132.178 177.604L129.077 164.862C127.902 160.025 125.899 155.43 123.163 151.272L113.372 136.402C112.713 135.396 111.153 136.108 111.472 137.263Z" fill="#4BAA43"/>
<path d="M27.5336 34.3614L39.1136 67.9919C39.5706 69.3104 39.3944 70.7661 38.6437 71.9476L36.137 75.8903C35.5691 76.778 34.7205 77.4439 33.7218 77.7768L18.1991 82.9532C16.7695 83.4297 15.9209 84.905 16.2343 86.3867L17.6834 93.2734C18.0816 95.1795 17.9314 97.1639 17.233 98.9851L9.23012 119.998C8.43375 122.086 9.26276 124.443 11.1884 125.579L29.74 136.519C31.7701 137.714 32.5599 140.259 31.5677 142.394L23.6301 159.522C22.2985 162.388 24.2045 165.711 27.3508 166.011L37.6058 167.003C39.9557 167.232 42.26 167.793 44.4533 168.668L55.3218 173.015C58.0765 174.118 61.1379 172.349 61.5622 169.412L68.8471 117.028C69.0755 115.441 70.1134 114.09 71.5887 113.463L93.985 103.195C95.6039 102.51 96.6875 100.956 96.7723 99.2005L97.882 61.536C97.9212 60.7266 97.7449 59.9172 97.3729 59.1991L74.4152 15.0527C73.325 12.9508 70.8054 12.0304 68.6121 12.9247L30.1512 28.6367C27.8992 29.5571 26.7568 32.0768 27.5467 34.3745L27.5336 34.3614Z" fill="#4BAA43"/>
<path d="M64.2191 123.705L64.3823 125.572C64.9176 131.734 69.5196 136.767 75.6099 137.857L78.5408 138.38C81.7067 138.948 84.4156 140.971 85.8517 143.843L91.7919 155.73C93.6653 159.47 94.3768 163.687 93.8481 167.839L92.2292 180.463C91.7853 183.936 88.4562 186.273 85.0423 185.516L74.0824 183.081C73.88 183.035 73.6711 183.016 73.4622 183.029L63.9058 183.505C62.3326 183.584 61.1446 182.102 61.5624 180.587L62.1498 178.427C62.4762 177.239 63.4423 176.331 64.6499 176.09L80.3228 172.956C81.439 172.735 82.2224 171.736 82.1767 170.593L81.8959 163.557C81.7262 159.248 78.6713 155.593 74.461 154.66L71.6606 154.039C70.6031 153.804 69.8525 152.864 69.8525 151.781V149.542C69.8525 147.257 68.5469 145.175 66.4907 144.176L52.4041 137.361C50.7722 136.571 49.8975 134.763 50.2891 132.994L52.8871 121.31C53.2788 119.534 54.6888 118.157 56.4708 117.798L58.8468 117.321C59.604 117.171 60.3874 117.406 60.9357 117.955L62.0585 119.077C63.2987 120.318 64.0624 121.949 64.2126 123.699L64.2191 123.705Z" fill="#369149"/>
<path d="M27.2984 178.387L20.02 201.606L48.1933 209.87L51.4572 199.694L44.1527 197.181L44.5248 195.744L43.735 195.235L46.8682 184.406L36.0388 181.279L34.0349 187.8L31.1692 187.056L33.0361 179.882L27.2984 178.387Z" fill="#DBDBDB"/>
<path d="M27.3378 125.239L26.3195 126.838L17.2461 121.035L16.9066 121.571L13.1532 127.439L12.1284 129.038L16.3975 131.767L17.4223 130.168L22.2201 133.242L20.8559 135.377L26.1955 138.784L32.6774 128.647L27.3378 125.239Z" fill="#DBDBDB"/>
<path d="M41.0202 140.859L32.8682 145.032L36.0153 151.18L44.1674 147.007L41.0202 140.859Z" fill="#DBDBDB"/>
<path d="M51.5033 91.8895L41.3594 106.635L57.2477 117.563L67.3916 102.817L51.5033 91.8895ZM55.322 110.441L48.703 105.885L53.4355 99.0047L60.0546 103.561L55.322 110.441Z" fill="#DBDBDB"/>
<path d="M101.459 168.4L101.009 157.31L100.93 155.351L100.349 141.004L96.4329 141.16L95.9825 130.07L76.4126 130.86L77.1502 149.124L79.7613 149.019L80.2639 161.409L83.5277 161.278L83.8411 169.105L84.2327 178.89L101.844 178.178L110.324 177.839L109.932 168.054L101.453 168.394L101.459 168.4ZM95.4276 148.393L95.7148 155.567L87.8882 155.88L87.601 148.706L95.4276 148.393Z" fill="#DBDBDB"/>
<path d="M55.8377 234.701C55.2241 234.701 54.6235 234.486 54.147 234.081C53.5595 233.585 53.2266 232.854 53.2266 232.09V198.009C53.2266 197.513 53.3637 197.043 53.6117 196.645L50.9093 195.287C49.8257 194.746 49.2578 193.531 49.5385 192.35C49.8192 191.175 50.8701 190.339 52.0777 190.339H59.3561L66.2754 188.009C66.543 187.918 66.8237 187.872 67.1044 187.872H90.754L100.474 182.363C100.872 182.134 101.316 182.023 101.76 182.023C102.204 182.023 102.641 182.134 103.039 182.356L112.844 187.865H137.368C137.72 187.865 138.066 187.937 138.393 188.074L143.687 190.333H151.566C152.773 190.333 153.831 191.162 154.105 192.343C154.386 193.518 153.818 194.739 152.734 195.281L150.175 196.56C150.449 196.972 150.606 197.468 150.606 197.996V210.693C150.606 211.587 150.149 212.422 149.392 212.899C147.727 213.956 146.05 215.118 144.431 216.241C140.56 218.924 136.559 221.705 131.976 223.578C131.917 223.604 131.852 223.624 131.787 223.643C123.477 226.326 114.776 226.796 106.368 227.247C100.252 227.58 93.9265 227.919 87.9602 229.127C78.5343 231 68.9321 232.573 59.6498 234.094L56.2489 234.656C56.1053 234.682 55.9682 234.688 55.8246 234.688L55.8377 234.701Z" fill="white"/>
<path d="M118.242 223.637C119.802 223.324 121.512 223.167 123.072 223.017C132.257 222.514 139.209 216.522 146.63 211.613V194.439H56.7383V231.953C67.1564 230.243 77.4113 228.604 88.1885 226.45C98.4695 224.427 107.967 225.203 118.248 223.65L118.242 223.637Z" fill="#C6E5F4"/>
<path d="M59.4736 194.426H56.7319V199.674H59.4736V194.426Z" fill="#DBDBDB"/>
<path d="M146.624 194.426H143.823V199.674H146.624V194.426Z" fill="#DBDBDB"/>
<path d="M57.8018 193.623L67.1102 190.49H137.38L146.623 194.426L57.8018 193.623Z" fill="#13D3BC"/>
<path d="M146.905 195.3H56.7515L52.0776 192.957H151.578L146.905 195.3Z" fill="#F0F0F0"/>
<path d="M116.205 197.65V192.761L101.773 184.647L87.4575 192.761V197.65H94.664V225.478C99.5402 224.962 104.312 224.845 109.155 224.544V197.65H116.212H116.205Z" fill="#F0F0F0"/>
<path d="M114.834 219.002L114.077 198.473V194.302L101.779 187.389L89.579 194.302V198.473L89.4224 219.002" fill="#F0F0F0"/>
<path d="M114.508 219.015L113.751 198.48V194.491L101.779 187.768L89.9051 194.491V198.473L89.7485 219.009L89.0957 219.002L89.2524 198.466V194.113L101.779 187.017L114.403 194.113V198.473L115.161 218.989L114.508 219.015Z" fill="#A6A6A6"/>
<path d="M87.4507 197.174V226.581C87.6922 226.535 87.9337 226.483 88.1818 226.437C90.5578 225.967 92.8947 225.654 95.2055 225.419V197.174H87.4507Z" fill="#DBDBDB"/>
<path d="M109.148 197.292V224.544C111.479 224.401 113.822 224.211 116.205 223.918V197.292H109.148Z" fill="#DBDBDB"/>
<path d="M81.1257 198.218V227.795C83.456 227.364 85.806 226.914 88.1756 226.444C89.9837 226.085 91.7657 225.817 93.5282 225.608V198.225H81.1191L81.1257 198.218Z" fill="#F0F0F0"/>
<path d="M109.998 198.009V224.492C112.707 224.309 115.442 224.061 118.242 223.637C119.58 223.369 121.036 223.219 122.407 223.082V198.009H109.998Z" fill="#F0F0F0"/>
<path d="M101.824 192.637C105.147 192.637 107.849 195.34 107.849 198.662V204.929H95.7993V198.662C95.7993 195.34 98.5017 192.637 101.824 192.637Z" fill="#A6A6A6"/>
<path d="M101.825 193.949C99.057 193.949 96.8115 196.195 96.8115 198.963V225.269C100.173 224.982 103.489 224.851 106.831 224.675V198.963C106.831 196.195 104.586 193.949 101.818 193.949H101.825Z" fill="#8EC7ED"/>
<path d="M109.423 215.602H94.2266V218.585H109.423V215.602Z" fill="#A6A6A6"/>
<path d="M102.543 191.508H101.113V194.791H102.543V191.508Z" fill="#A6A6A6"/>
<path d="M86.6738 203.793H84.8853V207.135H86.6738V203.793Z" fill="#8EC7ED"/>
<path d="M89.5987 203.793H87.8101V207.135H89.5987V203.793Z" fill="#8EC7ED"/>
<path d="M86.6738 212.768H84.8853V224.015H86.6738V212.768Z" fill="#8EC7ED"/>
<path d="M89.5987 212.768H87.8101V224.015H89.5987V212.768Z" fill="#8EC7ED"/>
<path d="M67.7305 198.009V230.132C71.3272 229.531 74.937 228.918 78.5794 228.259V198.009H67.7305Z" fill="#F0F0F0"/>
<path d="M136.121 198.009H125.272V222.782C129.208 222.181 132.746 220.595 136.121 218.604V198.003V198.009Z" fill="#F0F0F0"/>
<path d="M115.664 203.793H113.875V207.135H115.664V203.793Z" fill="#8EC7ED"/>
<path d="M118.587 203.793H116.799V207.135H118.587V203.793Z" fill="#8EC7ED"/>
<path d="M115.664 209.642H113.875V220.38H115.664V209.642Z" fill="#8EC7ED"/>
<path d="M118.587 209.642H116.799V220.38H118.587V209.642Z" fill="#8EC7ED"/>
<path d="M55.8374 198.009V232.09C59.4668 231.496 63.07 230.909 66.6863 230.308V198.009H55.8374Z" fill="#F0F0F0"/>
<path d="M148.008 198.009H137.159V217.977C140.834 215.712 144.346 213.03 148.008 210.706V198.009Z" fill="#F0F0F0"/>
<path d="M120.082 224.309L121.394 224.929C122.432 225.425 123.66 225.308 124.586 224.629L125.624 223.872C126.016 223.585 126.173 223.069 125.996 222.612L125.918 222.41C125.872 222.299 125.761 222.227 125.637 222.246L125.415 222.279C125.207 222.312 125.05 222.096 125.148 221.907L125.318 221.574C125.487 221.241 125.487 220.843 125.318 220.51L125.043 219.968C124.991 219.864 124.867 219.805 124.75 219.838C124.554 219.89 124.384 219.707 124.436 219.518L124.456 219.459C124.56 219.1 124.515 218.708 124.332 218.382L123.092 216.15C123.007 215.993 122.785 215.973 122.674 216.11L121.871 217.05C121.812 217.122 121.793 217.22 121.825 217.312L122.08 217.99C122.125 218.108 122.08 218.245 121.962 218.31C121.864 218.363 121.74 218.349 121.662 218.271L121.453 218.069C121.316 217.938 121.088 217.997 121.029 218.173L120.827 218.793C120.67 219.276 120.84 219.799 121.244 220.105C121.414 220.229 121.368 220.497 121.166 220.556L120.585 220.732C120.5 220.758 120.441 220.823 120.415 220.902L120.2 221.594C120.102 221.914 120.233 222.253 120.52 222.429C120.729 222.553 120.663 222.873 120.422 222.906L120.043 222.958C119.952 222.971 119.873 223.036 119.834 223.121L119.717 223.428C119.586 223.774 119.743 224.159 120.076 224.316L120.082 224.309Z" fill="#4BAA43"/>
<path d="M82.5812 228.879L81.2691 229.499C80.2312 229.995 79.004 229.877 78.0771 229.199L77.0392 228.441C76.6475 228.154 76.4909 227.638 76.6671 227.181L76.7455 226.979C76.7912 226.868 76.9021 226.796 77.0261 226.816L77.2481 226.849C77.4569 226.881 77.6136 226.666 77.5157 226.476L77.346 226.144C77.1763 225.811 77.1763 225.412 77.346 225.08L77.6201 224.538C77.6724 224.433 77.7964 224.375 77.9139 224.407C78.1097 224.459 78.2794 224.277 78.2272 224.087L78.2076 224.029C78.1032 223.67 78.1489 223.278 78.3317 222.952L79.5719 220.719C79.6568 220.562 79.8787 220.543 79.9897 220.68L80.7926 221.62C80.8513 221.692 80.8709 221.79 80.8383 221.881L80.5837 222.56C80.538 222.677 80.5837 222.814 80.7012 222.88C80.7991 222.932 80.9231 222.919 81.0015 222.841L81.2103 222.638C81.3474 222.508 81.5759 222.566 81.6347 222.743L81.837 223.363C81.9937 223.846 81.8239 224.368 81.4192 224.675C81.2495 224.799 81.2952 225.067 81.4976 225.125L82.0785 225.302C82.1634 225.328 82.2221 225.393 82.2483 225.471L82.4637 226.163C82.5616 226.483 82.431 226.822 82.1438 226.999C81.9349 227.123 82.0002 227.443 82.2417 227.475L82.6203 227.527C82.7117 227.54 82.7901 227.606 82.8292 227.691L82.9467 227.997C83.0773 228.343 82.9206 228.729 82.5877 228.885L82.5812 228.879Z" fill="#4BAA43"/>
<path d="M55.0867 232.345L55.7525 232.75C56.575 233.252 57.5803 233.337 58.4745 232.985L60.3153 232.267C60.4328 232.221 60.5699 232.221 60.6874 232.267L61.3793 232.541C61.9211 232.756 62.5086 232.828 63.0831 232.75L63.8206 232.652C64.2906 232.586 64.728 232.371 65.0609 232.038L65.4134 231.686C65.557 231.542 65.6027 231.32 65.5244 231.124L65.2829 230.537C64.9891 229.825 64.2645 229.381 63.4943 229.434C63.2919 229.447 63.1026 229.342 63.0047 229.166L62.5216 228.252C62.2736 227.782 61.8558 227.423 61.3532 227.24L60.5242 226.947C59.9106 226.731 59.2383 226.79 58.6704 227.11L57.9262 227.534C57.3779 227.847 56.9993 228.383 56.8818 229.003L56.7969 229.46C56.7643 229.629 56.6533 229.773 56.4901 229.838L54.9757 230.471C54.8386 230.53 54.7342 230.641 54.6885 230.785L54.6101 231.026C54.447 231.522 54.6428 232.064 55.0932 232.338L55.0867 232.345Z" fill="#4BAA43"/>
<path d="M105.033 238.359V239.262H100.791V240.27C102.713 240.375 103.855 241.02 103.861 242.121C103.855 243.311 102.496 243.979 100.24 243.973C97.9551 243.979 96.5957 243.311 96.5957 242.121C96.5957 241.02 97.7383 240.369 99.6895 240.27V239.262H95.459V238.359H105.033ZM95.9629 236.93C97.8496 236.736 99.3379 235.881 99.4902 234.867H96.3379V233.977H104.178V234.867H100.99C101.143 235.887 102.619 236.736 104.541 236.93L104.143 237.809C102.32 237.598 100.814 236.83 100.246 235.717C99.666 236.83 98.1719 237.598 96.3496 237.809L95.9629 236.93ZM97.7207 242.121C97.7148 242.76 98.6348 243.129 100.24 243.117C101.822 243.129 102.748 242.76 102.748 242.121C102.748 241.471 101.822 241.119 100.24 241.113C98.6348 241.119 97.7148 241.471 97.7207 242.121ZM108.783 234.105C110.395 234.105 111.572 235.125 111.584 236.602C111.572 238.066 110.395 239.092 108.783 239.098C107.178 239.092 105.982 238.066 105.994 236.602C105.982 235.125 107.178 234.105 108.783 234.105ZM107.084 236.602C107.072 237.533 107.799 238.148 108.783 238.16C109.768 238.148 110.488 237.533 110.494 236.602C110.488 235.676 109.768 235.037 108.783 235.043C107.799 235.037 107.072 235.676 107.084 236.602ZM107.166 241.98C107.166 240.721 108.525 239.982 110.693 239.977C112.838 239.982 114.174 240.721 114.174 241.98C114.174 243.234 112.838 243.979 110.693 243.973C108.525 243.979 107.166 243.234 107.166 241.98ZM108.279 241.98C108.273 242.695 109.176 243.088 110.693 243.082C112.199 243.088 113.09 242.695 113.084 241.98C113.09 241.277 112.199 240.873 110.693 240.879C109.176 240.873 108.273 241.277 108.279 241.98ZM112.967 239.695V233.496H114.08V236.051H115.604V236.965H114.08V239.695H112.967ZM124.709 238.336V239.227H121.533V241.793H125.811V242.707H116.201V241.793H120.432V239.227H117.396V234.305H124.615V235.207H118.51V238.336H124.709ZM130.357 236.168C130.357 238.09 131.436 240.006 133.041 240.727L132.361 241.617C131.172 241.02 130.27 239.836 129.807 238.4C129.344 239.912 128.43 241.189 127.217 241.816L126.514 240.914C128.143 240.135 129.227 238.113 129.232 236.168V234.375H130.357V236.168ZM131.881 237.891V236.988H134.225V233.496H135.326V244.02H134.225V237.891H131.881ZM142.791 234.293V234.879C142.779 235.582 142.779 236.625 142.521 237.984L141.42 237.879C141.648 236.719 141.684 235.869 141.695 235.207H137.494V234.293H142.791ZM136.861 238.887C137.506 238.887 138.238 238.881 139.006 238.863V236.648H140.107V238.828C141.232 238.781 142.393 238.699 143.447 238.547L143.518 239.355C141.326 239.742 138.818 239.783 136.967 239.789L136.861 238.887ZM138.455 243.773V240.668H139.568V242.871H145.592V243.773H138.455ZM144.115 241.383V233.496H145.252V236.836H146.693V237.773H145.252V241.383H144.115Z" fill="white"/>
<path d="M110.447 149.035V150.57H113.072V149.035H114.174V151.016H116.471V148.496H117.584V154.227H116.471V151.941H114.174V153.875H109.334V149.035H110.447ZM110.447 152.973H113.072V151.438H110.447V152.973ZM110.74 158.844V154.719H111.842V155.902H116.471V154.719H117.572V158.844H110.74ZM111.842 157.941H116.471V156.77H111.842V157.941ZM125.471 149.562V150.453H119.213V149.562H121.791V148.449H122.904V149.562H125.471ZM119.787 152.832C119.781 151.684 120.824 150.934 122.342 150.922C123.854 150.934 124.885 151.684 124.885 152.832C124.885 153.986 123.854 154.742 122.342 154.742C120.824 154.742 119.781 153.986 119.787 152.832ZM120.514 156.5V155.598H127.451V158.996H126.338V156.5H120.514ZM120.865 152.832C120.854 153.482 121.451 153.875 122.342 153.875C123.232 153.875 123.83 153.482 123.842 152.832C123.83 152.188 123.232 151.783 122.342 151.777C121.451 151.783 120.854 152.188 120.865 152.832ZM126.338 155.059V148.496H127.451V151.344H128.975V152.27H127.451V155.059H126.338ZM135.42 149.293V149.879C135.408 150.582 135.408 151.625 135.15 152.984L134.049 152.879C134.277 151.719 134.312 150.869 134.324 150.207H130.123V149.293H135.42ZM129.49 153.887C130.135 153.887 130.867 153.881 131.635 153.863V151.648H132.736V153.828C133.861 153.781 135.021 153.699 136.076 153.547L136.146 154.355C133.955 154.742 131.447 154.783 129.596 154.789L129.49 153.887ZM131.084 158.773V155.668H132.197V157.871H138.221V158.773H131.084ZM136.744 156.383V148.496H137.881V151.836H139.322V152.773H137.881V156.383H136.744Z" fill="white"/>
<path d="M71.1543 87.4961V98.0195H70.041V87.4961H71.1543ZM62.8223 91.9609C62.8223 89.7168 63.9531 88.2871 65.541 88.2812C67.0996 88.2871 68.248 89.7168 68.248 91.9609C68.248 94.2285 67.0996 95.6582 65.541 95.6523C63.9531 95.6582 62.8223 94.2285 62.8223 91.9609ZM63.9004 91.9609C63.8945 93.6309 64.5625 94.6562 65.541 94.6562C66.502 94.6562 67.1699 93.6309 67.1699 91.9609C67.1699 90.3145 66.502 89.2832 65.541 89.2773C64.5625 89.2832 63.8945 90.3145 63.9004 91.9609ZM81.0566 87.4961V91.8906H82.6387V92.8281H81.0566V97.9961H79.9434V87.4961H81.0566ZM72.7012 95.1367C73.5273 95.1367 74.4883 95.1367 75.4902 95.1074V94.041C74.3066 93.8652 73.5332 93.1504 73.5449 92.1367C73.5332 90.9531 74.5586 90.1738 76.0527 90.168C77.541 90.1738 78.5781 90.9531 78.584 92.1367C78.5781 93.1504 77.793 93.8711 76.6035 94.041V95.0664C77.5352 95.0195 78.4727 94.9434 79.3457 94.8203L79.416 95.6406C77.1426 96.0449 74.6875 96.0684 72.877 96.0625L72.7012 95.1367ZM72.9004 89.6289V88.7383H75.4902V87.5195H76.6035V88.7383H79.1934V89.6289H72.9004ZM74.5879 92.1367C74.5879 92.8047 75.1738 93.2207 76.0527 93.2148C76.9316 93.2207 77.5117 92.8047 77.5176 92.1367C77.5117 91.4629 76.9316 91.0352 76.0527 91.0352C75.1738 91.0352 74.5879 91.4629 74.5879 92.1367ZM91.9551 94.2344V97.9961H90.8418V95.1133H84.8418V94.2344H91.9551ZM83.3535 90.6133C83.3477 89.1309 84.5254 88.0762 86.1074 88.082C86.998 88.0762 87.7656 88.4219 88.252 88.9961H90.8418V87.4961H91.9551V93.6836H90.8418V92.2422H88.252C87.7598 92.8164 86.998 93.1621 86.1074 93.1562C84.5254 93.1621 83.3477 92.1074 83.3535 90.6133ZM84.4199 90.6133C84.4141 91.5742 85.123 92.2129 86.1074 92.2188C87.0508 92.2129 87.7715 91.5742 87.7715 90.6133C87.7715 89.6758 87.0508 89.0254 86.1074 89.0195C85.123 89.0254 84.4141 89.6758 84.4199 90.6133ZM88.7383 91.3281H90.8418V89.9102H88.7441C88.8027 90.1328 88.8379 90.3672 88.8379 90.6133C88.8379 90.8652 88.8027 91.1055 88.7383 91.3281ZM97.2168 90.168C97.2051 92.0254 98.2891 93.9297 99.8535 94.6914L99.1621 95.582C98.0195 94.9844 97.1348 93.8125 96.6719 92.4121C96.2031 93.9004 95.2832 95.1602 94.0879 95.7812L93.3965 94.8789C95.0078 94.1055 96.0977 92.0898 96.1035 90.168V88.375H97.2168V90.168ZM100.639 97.9961V87.4961H101.752V91.6797H103.439V92.6289H101.752V97.9961H100.639ZM109.791 88.293V88.8789C109.779 89.582 109.779 90.625 109.521 91.9844L108.42 91.8789C108.648 90.7188 108.684 89.8691 108.695 89.207H104.494V88.293H109.791ZM103.861 92.8867C104.506 92.8867 105.238 92.8809 106.006 92.8633V90.6484H107.107V92.8281C108.232 92.7812 109.393 92.6992 110.447 92.5469L110.518 93.3555C108.326 93.7422 105.818 93.7832 103.967 93.7891L103.861 92.8867ZM105.455 97.7734V94.668H106.568V96.8711H112.592V97.7734H105.455ZM111.115 95.3828V87.4961H112.252V90.8359H113.693V91.7734H112.252V95.3828H111.115Z" fill="white"/>
<path d="M42.7832 167.508V173.355H41.7285V167.508H42.7832ZM33.7715 169.312V168.457H35.8105V167.473H36.9238V168.457H38.9629V169.312H33.7715ZM34.1699 171.434C34.1758 170.373 35.0781 169.682 36.373 169.688C37.6504 169.682 38.5586 170.373 38.5645 171.434C38.5586 172.477 37.6504 173.156 36.373 173.145C35.0781 173.156 34.1758 172.477 34.1699 171.434ZM35.1543 171.434C35.1484 172.002 35.6406 172.371 36.373 172.371C37.0938 172.371 37.5859 172.002 37.5801 171.434C37.5859 170.854 37.0938 170.473 36.373 170.484C35.6406 170.473 35.1484 170.854 35.1543 171.434ZM35.7402 174.609V173.777H42.7832V176.191H36.8652V177.047H43.1465V177.891H35.7637V175.406H41.6934V174.609H35.7402ZM38.7168 171.082V170.203H39.7832V167.672H40.8379V173.273H39.7832V171.082H38.7168ZM48.3848 168.328V171.445H45.7598V172.922C47.043 172.916 48.0098 172.857 49.1582 172.641L49.2754 173.531C47.9805 173.777 46.8906 173.812 45.3613 173.824H44.6699V170.613H47.3066V169.207H44.6465V168.328H48.3848ZM46.1934 177.773V174.598H47.2949V176.871H53.459V177.773H46.1934ZM48.7949 171.246V170.32H49.9902V167.695H51.0566V175.125H49.9902V171.246H48.7949ZM52.0996 175.395V167.508H53.1543V175.395H52.0996ZM60.4199 168.293V168.879C60.4082 169.582 60.4082 170.625 60.1504 171.984L59.0488 171.879C59.2773 170.719 59.3125 169.869 59.3242 169.207H55.123V168.293H60.4199ZM54.4902 172.887C55.1348 172.887 55.8672 172.881 56.6348 172.863V170.648H57.7363V172.828C58.8613 172.781 60.0215 172.699 61.0762 172.547L61.1465 173.355C58.9551 173.742 56.4473 173.783 54.5957 173.789L54.4902 172.887ZM56.084 177.773V174.668H57.1973V176.871H63.2207V177.773H56.084ZM61.7441 175.383V167.496H62.8809V170.836H64.3223V171.773H62.8809V175.383H61.7441Z" fill="white"/>
<path d="M50.7852 134.562V135.453H44.5273V134.562H47.1055V133.449H48.2188V134.562H50.7852ZM45.1016 137.832C45.0957 136.684 46.1387 135.934 47.6562 135.922C49.168 135.934 50.1992 136.684 50.1992 137.832C50.1992 138.986 49.168 139.742 47.6562 139.742C46.1387 139.742 45.0957 138.986 45.1016 137.832ZM45.8281 141.5V140.598H52.7656V143.996H51.6523V141.5H45.8281ZM46.1797 137.832C46.168 138.482 46.7656 138.875 47.6562 138.875C48.5469 138.875 49.1445 138.482 49.1562 137.832C49.1445 137.188 48.5469 136.783 47.6562 136.777C46.7656 136.783 46.168 137.188 46.1797 137.832ZM51.6523 140.059V133.496H52.7656V136.344H54.2891V137.27H52.7656V140.059H51.6523ZM60.7344 134.293V134.879C60.7227 135.582 60.7227 136.625 60.4648 137.984L59.3633 137.879C59.5918 136.719 59.627 135.869 59.6387 135.207H55.4375V134.293H60.7344ZM54.8047 138.887C55.4492 138.887 56.1816 138.881 56.9492 138.863V136.648H58.0508V138.828C59.1758 138.781 60.3359 138.699 61.3906 138.547L61.4609 139.355C59.2695 139.742 56.7617 139.783 54.9102 139.789L54.8047 138.887ZM56.3984 143.773V140.668H57.5117V142.871H63.5352V143.773H56.3984ZM62.0586 141.383V133.496H63.1953V136.836H64.6367V137.773H63.1953V141.383H62.0586Z" fill="white"/>
<path d="M13.6426 110.281C15.2129 110.287 16.332 111.717 16.3379 113.961C16.332 116.229 15.2129 117.658 13.6426 117.652C12.0723 117.658 10.9531 116.229 10.959 113.961C10.9531 111.717 12.0723 110.287 13.6426 110.281ZM12.0254 113.961C12.0195 115.631 12.6875 116.656 13.6426 116.656C14.6152 116.656 15.2715 115.631 15.2715 113.961C15.2715 112.314 14.6152 111.283 13.6426 111.277C12.6875 111.283 12.0195 112.314 12.0254 113.961ZM17.8965 119.996V109.496H19.0098V113.609H20.6973V114.547H19.0098V119.996H17.8965ZM26.2051 110.082V113.117H22.7363V114.547C24.5645 114.541 25.5605 114.5 26.7441 114.289L26.8496 115.191C25.5664 115.414 24.4883 115.461 22.3965 115.449H21.6348V112.262H25.1035V110.984H21.623V110.082H26.2051ZM22.8887 118.098C22.8828 116.861 24.2305 116.135 26.4512 116.141C28.6543 116.135 29.9961 116.861 30.002 118.098C29.9961 119.34 28.6543 120.049 26.4512 120.043C24.2305 120.049 22.8828 119.34 22.8887 118.098ZM24.0137 118.098C24.002 118.801 24.8984 119.182 26.4512 119.176C27.9805 119.182 28.9004 118.801 28.9004 118.098C28.9004 117.389 27.9805 117.002 26.4512 117.008C24.8984 117.002 24.002 117.389 24.0137 118.098ZM26.8848 114.125V113.211H28.8418V111.98H26.8848V111.066H28.8418V109.508H29.9551V115.953H28.8418V114.125H26.8848ZM39.834 109.496V112.156H41.3457V113.07H39.834V115.695H38.709V109.496H39.834ZM32.0176 114.934V110.27H36.7051V111.172H33.1191V114.031C35.1875 114.02 36.3535 113.961 37.6777 113.691L37.7832 114.594C36.377 114.881 35.123 114.934 32.8496 114.934H32.0176ZM32.9082 117.934C32.9082 116.65 34.2676 115.9 36.4355 115.895C38.5801 115.9 39.916 116.65 39.916 117.934C39.916 119.229 38.5801 119.979 36.4355 119.973C34.2676 119.979 32.9082 119.229 32.9082 117.934ZM34.0098 117.934C34.0039 118.66 34.918 119.088 36.4355 119.082C37.9238 119.088 38.8438 118.66 38.8496 117.934C38.8438 117.207 37.9238 116.791 36.4355 116.797C34.918 116.791 34.0039 117.207 34.0098 117.934Z" fill="white"/>
<path d="M15.7363 221.105C16.6094 221.1 17.3535 221.428 17.8457 221.973H20.4707V220.496H21.584V226.695H20.4707V225.277H17.8398C17.3477 225.816 16.6035 226.139 15.7363 226.133C14.1543 226.139 12.9766 225.09 12.9824 223.625C12.9766 222.143 14.1543 221.1 15.7363 221.105ZM14.0488 223.625C14.043 224.545 14.752 225.195 15.7363 225.184C16.6914 225.195 17.4004 224.545 17.4004 223.625C17.4004 222.682 16.6914 222.055 15.7363 222.066C14.752 222.055 14.043 222.682 14.0488 223.625ZM14.5176 228.957C14.5117 227.674 15.8711 226.924 18.0684 226.93C20.2539 226.924 21.6133 227.674 21.6191 228.957C21.6133 230.234 20.2539 230.979 18.0684 230.973C15.8711 230.979 14.5117 230.234 14.5176 228.957ZM15.6074 228.957C15.6016 229.678 16.5273 230.1 18.0684 230.094C19.6094 230.1 20.5293 229.678 20.5293 228.957C20.5293 228.207 19.6094 227.791 18.0684 227.785C16.5273 227.791 15.6016 228.207 15.6074 228.957ZM18.3555 222.863C18.4258 223.098 18.4668 223.355 18.4668 223.625C18.4668 223.883 18.4258 224.135 18.3555 224.363H20.4707V222.863H18.3555ZM29.4707 221.562V222.453H23.2129V221.562H25.791V220.449H26.9043V221.562H29.4707ZM23.7871 224.832C23.7812 223.684 24.8242 222.934 26.3418 222.922C27.8535 222.934 28.8848 223.684 28.8848 224.832C28.8848 225.986 27.8535 226.742 26.3418 226.742C24.8242 226.742 23.7812 225.986 23.7871 224.832ZM24.5137 228.5V227.598H31.4512V230.996H30.3379V228.5H24.5137ZM24.8652 224.832C24.8535 225.482 25.4512 225.875 26.3418 225.875C27.2324 225.875 27.8301 225.482 27.8418 224.832C27.8301 224.188 27.2324 223.783 26.3418 223.777C25.4512 223.783 24.8535 224.188 24.8652 224.832ZM30.3379 227.059V220.496H31.4512V223.344H32.9746V224.27H31.4512V227.059H30.3379ZM39.4199 221.293V221.879C39.4082 222.582 39.4082 223.625 39.1504 224.984L38.0488 224.879C38.2773 223.719 38.3125 222.869 38.3242 222.207H34.123V221.293H39.4199ZM33.4902 225.887C34.1348 225.887 34.8672 225.881 35.6348 225.863V223.648H36.7363V225.828C37.8613 225.781 39.0215 225.699 40.0762 225.547L40.1465 226.355C37.9551 226.742 35.4473 226.783 33.5957 226.789L33.4902 225.887ZM35.084 230.773V227.668H36.1973V229.871H42.2207V230.773H35.084ZM40.7441 228.383V220.496H41.8809V223.836H43.3223V224.773H41.8809V228.383H40.7441Z" fill="white"/>
</svg>
