<svg width="40" height="40" viewBox="0 0 40 40" fill="none" xmlns="http://www.w3.org/2000/svg">
<rect opacity="0.5" width="40" height="40" rx="8" fill="#151515"/>
<path d="M20 8C20.3795 8.00008 20.7435 8.15818 21.0118 8.4395L29.5983 17.4395C29.859 17.7224 30.0032 18.1013 29.9999 18.4946C29.9967 18.8879 29.8462 19.2641 29.5808 19.5422C29.3155 19.8203 28.9566 19.9781 28.5813 19.9815C28.2061 19.9849 27.8446 19.8337 27.5747 19.5605L21.4311 13.121L21.4311 30.5C21.4311 30.8978 21.2803 31.2794 21.0119 31.5607C20.7435 31.842 20.3795 32 20 32C19.6204 32 19.2564 31.842 18.9881 31.5607C18.7197 31.2794 18.5689 30.8978 18.5689 30.5L18.5689 13.121L12.4253 19.5605C12.1554 19.8337 11.7939 19.9849 11.4186 19.9815C11.0434 19.9781 10.6845 19.8203 10.4192 19.5422C10.1538 19.2641 10.0033 18.8879 10.0001 18.4946C9.99679 18.1013 10.141 17.7224 10.4017 17.4395L18.9882 8.4395C19.2565 8.15818 19.6205 8.00008 20 8Z" fill="white"/>
</svg>
