<svg width="334" height="218" viewBox="0 0 334 218" fill="none" xmlns="http://www.w3.org/2000/svg">
<path d="M306.518 73.1096L333.282 58.7488L328.712 39.8186L270.616 43.7352L240.589 52.2211L207.298 33.9437L185.104 59.4015L123.092 0L27.4161 94.8858L0 175.829L112.275 190.189L124.025 217.605L217.37 216.953L247.77 208.232L247.117 144.261L268.658 131.206L306.518 73.1096Z" fill="#369149"/>
<path d="M110.793 78.9981C109.272 77.6534 106.975 77.7187 105.539 79.1482L27.5855 156.325C21.2407 162.63 25.6077 173.46 34.5505 173.597L124.09 174.987C130.722 175.092 135.951 169.38 135.266 162.78L128.627 98.9596C128.268 95.5391 126.479 92.4255 123.699 90.4019L110.8 78.9981H110.793Z" fill="#4BAA43"/>
<path d="M84.7025 56.4778L45.6345 96.1398C44.5379 97.2495 44.5314 99.0316 45.615 100.154L58.605 113.647C59.7212 114.809 61.575 114.822 62.7174 113.68L102.17 74.0633C103.287 72.9471 103.287 71.1324 102.177 70.0097L88.8018 56.4778C87.6726 55.3355 85.8318 55.3355 84.709 56.4778H84.7025Z" fill="#4BAA43"/>
<path d="M92.405 48.5595L121.218 19.7465C122.269 18.6955 123.966 18.6825 125.03 19.7139L160.958 54.467C162.042 55.518 162.068 57.2478 161.011 58.3248L132.191 87.7188C131.14 88.7894 129.417 88.809 128.346 87.7515L92.4246 52.4173C91.3475 51.3599 91.341 49.6235 92.4115 48.5595H92.405Z" fill="#4BAA43"/>
<path d="M131.349 96.049L136.519 143.753C136.682 145.267 138.014 146.384 139.528 146.286L166.748 144.51C166.807 144.51 166.872 144.51 166.931 144.51H171.566C173.237 144.51 174.549 143.074 174.399 141.416L170.299 95.7292C170.188 94.4693 169.248 93.4315 168.008 93.19L138.072 87.4326C136.884 87.2041 135.657 87.5827 134.795 88.4378L133.627 89.6062C131.93 91.3034 131.094 93.673 131.355 96.0621L131.349 96.049Z" fill="#4BAA43"/>
<path d="M137.942 155.267L140.494 179.791C140.684 181.613 142.211 183.003 144.045 183.016L232.58 183.623C234.545 183.636 236.163 182.063 236.196 180.098L236.712 153.955C236.751 151.971 235.171 150.326 233.18 150.287L167.369 149.092C165.776 149.066 164.183 149.125 162.597 149.275L141.173 151.318C139.182 151.507 137.733 153.283 137.935 155.267H137.942Z" fill="#4BAA43"/>
<path d="M319.965 51.1643L259.252 95.2194C256.458 97.2495 252.574 96.8121 250.302 94.2141L242.763 85.5976C241.379 84.018 240.648 81.9748 240.72 79.8729L241.105 68.2276C241.196 65.4207 243.037 62.9728 245.7 62.0981L280.421 50.7139C280.858 50.5703 281.308 50.4724 281.765 50.4202L318.111 46.3796C320.814 46.0793 322.165 49.5651 319.959 51.1578L319.965 51.1643Z" fill="#4BAA43"/>
<path d="M248.729 124.104C249.695 127.785 254.447 129.091 256.947 126.225C257.051 126.108 257.149 125.984 257.241 125.853L291.563 78.5278C292.503 77.2288 290.897 75.6165 289.598 76.5565L248.272 106.466C248.148 106.558 247.991 106.708 247.808 106.897C246.039 108.783 245.419 111.473 246.072 113.973L248.729 124.104Z" fill="#4BAA43"/>
<path d="M197.768 84.6112L174.928 93.9849C173.622 94.5202 172.819 95.8518 172.963 97.2618L174.399 111.597C174.562 113.228 175.94 114.475 177.578 114.475H193.904C195.581 114.475 196.972 115.774 197.096 117.445L198.382 135.462C198.643 139.117 201.619 141.989 205.288 142.113L231.986 143.021C234.408 143.105 236.04 140.566 234.956 138.392C234.427 137.335 233.357 136.656 232.175 136.623L217.514 136.264C211.685 136.121 206.854 131.695 206.208 125.892L205.693 121.277C205.085 115.813 207.298 110.422 211.561 106.955L214.394 104.651C214.89 104.246 215.504 103.998 216.143 103.946L245.191 100.767L230.184 81.7847C229.518 81.2495 228.663 81.0014 227.815 81.0928L198.636 84.3958C198.342 84.4284 198.055 84.5002 197.781 84.6177L197.768 84.6112Z" fill="#4BAA43"/>
<path d="M213.238 120.697L214.093 126.708C214.335 128.406 215.66 129.776 217.403 130.135L227.547 132.094L231.45 114.789L217.729 115.474C214.929 115.611 212.853 118.027 213.232 120.69L213.238 120.697Z" fill="#4BAA43"/>
<path d="M139.476 193.604L142.883 203.833C143.536 205.797 145.435 207.07 147.505 206.927L235.667 200.889C236.901 200.804 237.469 199.348 236.653 198.421C235.079 196.626 233.787 193.852 236.013 190.503C236.659 189.531 235.948 188.232 234.779 188.218C220.542 188.127 163.093 187.755 143.81 187.631C140.696 187.611 138.49 190.66 139.476 193.61V193.604Z" fill="#4BAA43"/>
<path d="M145.814 158.537L145.834 177.435L161.422 177.892L161.402 159.001L145.814 158.537Z" fill="#DBDBDB"/>
<path d="M162.199 164.294L162.316 177.102L180.815 176.468L180.234 158.328L175.508 158.335L175.606 163.72L162.199 164.294Z" fill="#DBDBDB"/>
<path d="M194.308 154.628L193.799 160.163C193.799 160.163 189.106 161.482 187.768 164.772L187.715 166.847C187.715 166.847 188.949 169.367 192.97 171.998V176.606L221.685 177.997L221.953 170.692L223.963 169.374L224.185 166.41L222.625 164.765V156.214L194.308 154.621V154.628Z" fill="#DBDBDB"/>
<path d="M126.898 75.6795L119.974 68.7559L115.825 72.9054L122.748 79.829L126.898 75.6795Z" fill="#DBDBDB"/>
<path d="M103.626 55.1132L109.925 48.9772L115.298 54.0818L110.565 58.8013L118.561 66.6932L144.365 40.7589L130.344 27.0117L125.872 31.0458L121.31 30.5562L110.265 34.7143L102.751 44.6037L100.95 49.9825L103.626 55.1132Z" fill="#DBDBDB"/>
<path d="M94.7157 77.6141L100.878 71.7784L96.3933 67.0394L87.4178 57.5547L81.2557 63.3904L79.8327 64.7351L66.5555 77.2943L65.1324 78.6455L58.9703 84.4747L67.9458 93.9594L72.4303 98.6984L78.5924 92.8692L74.1079 88.1236L75.531 86.779L80.0155 91.5245L93.2927 78.9588L88.8082 74.2198L90.2312 72.8686L94.7157 77.6141Z" fill="#DBDBDB"/>
<path d="M159.327 56.3635L146.403 43.4395L121.94 67.9029L134.864 80.827L159.327 56.3635Z" fill="#DBDBDB"/>
<path d="M151.728 75.5195L153.034 84.0055L143.242 85.311L142.589 81.3944L148.464 75.5195H151.728Z" fill="#DBDBDB"/>
<path d="M169.061 94.7766L159.951 95.5L161.811 118.926L170.921 118.202L169.061 94.7766Z" fill="#DBDBDB"/>
<path d="M171.019 119.577L161.909 120.301L163.259 137.304L172.369 136.581L171.019 119.577Z" fill="#DBDBDB"/>
<path d="M264.811 101.644L250.979 113.621L256.107 119.543L269.939 107.565L264.811 101.644Z" fill="#DBDBDB"/>
<path d="M272.176 58.2931L273.188 59.9641L260.923 67.4121L259.911 65.7346L252.548 70.1995L260.335 83.0393L267.698 78.5679L266.008 75.7806L278.273 68.3391L279.964 71.1264L287.327 66.6615L279.533 53.8281L272.176 58.2931Z" fill="#DBDBDB"/>
<path d="M148.445 92.7069L149.483 103.099L139.091 104.13L138.053 93.7383L133.509 94.1952L134.541 104.587L135.448 113.68L139.998 113.223L150.39 112.192L154.933 111.735L154.032 102.642L152.994 92.25L148.445 92.7069Z" fill="#DBDBDB"/>
<path d="M151.062 116.792L152.094 127.184L141.702 128.222L140.775 119.769L136.232 120.226L137.158 128.672L138.059 137.765L142.609 137.315L153.001 136.277L157.551 135.827L156.644 126.734L155.606 116.342L151.062 116.792Z" fill="#DBDBDB"/>
<path d="M63.2132 93.0024L57.2128 87.002L48.5306 95.6842L54.531 101.685L63.2132 93.0024Z" fill="#DBDBDB"/>
<path d="M191.547 102.936H177.186V112.727H191.547V102.936Z" fill="#DBDBDB"/>
<path d="M61.3141 126.337L67.189 132.212L94.4092 105.814L114.305 123.393L114.645 130.619L127.7 129.314L127.354 100.448L108.914 83.7832L102.947 83.979L61.3141 126.337Z" fill="#DBDBDB"/>
<path d="M254.741 126.558L247.221 111.381C246.993 110.911 246.621 110.526 246.17 110.272L245.844 110.089C246.516 109.658 247.143 109.129 247.691 108.496C247.717 108.464 247.743 108.437 247.769 108.405C248.011 108.326 248.246 108.235 248.474 108.131C250.165 107.399 251.666 106.277 252.946 104.801C254.095 103.483 254.747 101.747 254.787 99.9123L254.865 96.4918C254.911 94.4356 254.153 92.4773 252.822 91.1326L253.664 88.7435C254.291 86.9615 254.395 84.9705 253.958 83.1493L253.723 82.1767C253.422 80.9103 252.789 79.768 251.921 78.9063C251.921 78.9063 251.647 75.0289 251.647 74.9962C251.399 72.6071 251.125 71.034 249.447 69.3825L249.127 69.0692C248.109 68.0639 247.038 67.5743 245.863 67.5743C244.532 67.5743 243.481 68.2206 242.43 68.8603C242.312 68.9321 242.188 69.0104 242.071 69.0887L239.806 66.8563C239.316 66.3733 238.657 66.1056 237.971 66.1056C237.887 66.1056 237.802 66.1056 237.717 66.1187L237.312 66.1578C237.155 65.7596 236.901 65.4006 236.561 65.12L227.181 57.2346C226.894 56.993 226.555 56.8168 226.196 56.7188L206.639 51.3335C206.41 51.2683 206.175 51.2422 205.947 51.2422C205.32 51.2422 204.713 51.4641 204.23 51.8884L194.628 60.2764C194.021 60.8052 193.694 61.582 193.74 62.3849L186.305 67.8811C185.633 68.3772 185.241 69.1606 185.248 69.9961L185.417 96.185C185.417 97.0989 185.907 97.9409 186.69 98.4109L192.604 101.936C192.369 103.548 192.356 105.076 192.474 106.035C192.748 108.326 194.909 111.995 197.565 113.601C199.504 114.769 201.43 115.363 203.303 115.363C204.478 115.363 205.614 115.128 206.684 114.658C207.435 114.332 208.153 113.927 208.839 113.438C209.557 113.679 210.275 113.803 210.993 113.803C211.822 113.803 212.625 113.633 213.382 113.307C214.505 112.817 215.503 112.08 216.352 111.101C217.181 110.148 217.651 108.901 217.683 107.589V107.197L221.861 106.681C221.678 106.845 221.515 107.021 221.385 107.23C220.96 107.902 220.869 108.731 221.13 109.475L223.291 115.663L223.878 132.42C223.904 133.177 224.257 133.882 224.844 134.359C225.314 134.737 225.895 134.94 226.483 134.94C226.633 134.94 226.79 134.927 226.94 134.9L252.848 130.279C253.657 130.135 254.349 129.62 254.721 128.882C255.093 128.144 255.093 127.283 254.728 126.545L254.741 126.558Z" fill="white"/>
<path d="M196.652 61.8686L196.737 63.2655L188.159 69.6039L205.222 78.5533L239.173 77.8026L233.174 68.8597L225.804 58.8594L196.652 61.8686Z" fill="#0D725F"/>
<path d="M225.804 58.8599L206.254 53.4746L196.651 61.8691L218.597 70.2572L225.804 58.8599Z" fill="#13D3BC"/>
<path d="M243.807 73.7943L205.222 78.553L208.049 71.3334L238.278 68.3438L243.807 73.7943Z" fill="#13D3BC"/>
<path d="M188.159 69.6035L188.335 95.7924L205.222 105.858V78.5529L188.159 69.6035Z" fill="#A6A6A6"/>
<path d="M243.768 101.021L205.222 105.767V78.5529L243.768 73.8008V101.021Z" fill="#DBDBDB"/>
<path d="M243.768 87.9675L205.222 92.7196V88.9923L243.768 84.2402V87.9675Z" fill="#F0F0F0"/>
<path d="M235.184 102.164L216.424 104.292V68.8663L225.804 58.8594L235.184 66.7448V102.164Z" fill="#F0F0F0"/>
<path d="M225.967 61.556L233.226 67.6593V75.61L218.382 77.2941V69.6437L225.967 61.5494M225.804 58.8535L216.424 68.8669V79.4809L235.184 77.3594V66.7455L225.804 58.86V58.8535Z" fill="#0D725F"/>
<path d="M227.508 65.3088L226.176 65.4655V63.7422L225.536 63.8205V65.5373L224.205 65.6875V66.4316L225.536 66.2814V68.5988L226.176 68.5204V66.2097L227.508 66.0595V65.3088Z" fill="#A6A6A6"/>
<path d="M243.768 77.528L205.222 82.2802V78.5529L243.768 73.8008V77.528Z" fill="#F0F0F0"/>
<path d="M232.188 102.504L219.426 103.947V78.4432C219.426 74.6637 222.064 71.302 225.314 70.9364L226.3 70.8255C229.551 70.4599 232.188 73.2211 232.188 77.0006V102.504Z" fill="#DBDBDB"/>
<path d="M230.817 102.661L220.797 103.797V78.6783C220.797 75.4601 223.043 72.601 225.811 72.2877C228.578 71.9744 230.824 74.3309 230.824 77.549V102.667L230.817 102.661Z" fill="#8EC7ED"/>
<path d="M223.578 108.314L225.863 114.874L244.858 112.231L235.537 106.943L223.578 108.314Z" fill="#F0F0F0"/>
<path d="M225.863 114.874L226.47 132.022L252.371 127.407L244.858 112.23L225.863 114.874Z" fill="#DBDBDB"/>
<path d="M209.492 109.247C210.236 108.392 210.667 107.223 210.699 106.016L210.777 102.595C210.81 101.113 210.236 99.7296 209.23 98.8941L208.937 98.646C208.558 98.3327 208.421 97.7387 208.604 97.2099L209.72 94.0375C210.183 92.7189 210.262 91.2633 209.942 89.9121L209.707 88.9394C209.479 87.9929 208.982 87.177 208.297 86.6352C208.003 86.4067 207.84 86.002 207.866 85.5777L207.572 81.4196C207.337 79.1806 207.129 78.3712 206.143 77.3986L205.823 77.0852C204.576 75.8515 203.813 76.3345 202.324 77.2484C200.849 78.1492 199.315 80.0553 199.354 82.0006L199.589 84.9902C199.596 85.3623 199.465 85.7213 199.224 85.9694C198.199 87.0203 197.533 88.4825 197.344 90.0556L197.161 91.6158C197.024 92.7581 197.102 93.92 197.383 95.0101L197.598 95.8522C197.696 96.2308 197.631 96.6551 197.415 96.975L197.324 97.112C195.34 99.4946 195.203 103.992 195.366 105.35C195.549 106.897 197.317 109.847 199.211 110.99C201.306 112.256 203.682 112.876 205.941 111.891C207.24 111.323 208.454 110.428 209.485 109.247H209.492Z" fill="#4BAA43"/>
<path d="M251.268 102.72C252.013 101.864 252.443 100.696 252.476 99.4884L252.554 96.0679C252.587 94.5861 252.013 93.2023 251.007 92.3667L250.714 92.1187C250.335 91.8054 250.198 91.2113 250.381 90.6826L251.497 87.5102C251.96 86.1916 252.039 84.7359 251.719 83.3847L251.484 82.4121C251.255 81.4656 250.759 80.6496 250.074 80.1078C249.78 79.8794 249.617 79.4746 249.643 79.0503L249.349 74.8922C249.114 72.6533 248.905 71.8438 247.92 70.8712L247.6 70.5579C246.353 69.3242 245.589 69.8072 244.101 70.7211C242.626 71.6219 241.092 73.528 241.131 75.4732L241.366 78.4629C241.373 78.835 241.242 79.194 241 79.442C239.976 80.493 239.31 81.9551 239.12 83.5283L238.938 85.0884C238.801 86.2307 238.879 87.3927 239.16 88.4828L239.375 89.3248C239.473 89.7034 239.408 90.1278 239.192 90.4476L239.101 90.5847C237.116 92.9673 236.979 97.4648 237.143 98.8226C237.325 100.37 239.094 103.32 240.987 104.462C243.083 105.729 245.459 106.349 247.717 105.363C249.016 104.795 250.231 103.901 251.262 102.72H251.268Z" fill="#4BAA43"/>
<path d="M214.674 109.018C215.099 108.529 215.353 107.856 215.366 107.158L215.412 105.193C215.432 104.338 215.099 103.548 214.524 103.065L214.354 102.921C214.139 102.739 214.061 102.399 214.165 102.099L214.805 100.278C215.073 99.5204 215.118 98.6849 214.929 97.9081L214.792 97.3467C214.661 96.8049 214.374 96.3349 213.982 96.0216C213.813 95.891 213.721 95.6561 213.734 95.4145L213.565 93.0254C213.428 91.7395 213.31 91.276 212.742 90.7146L212.559 90.5319C211.841 89.8269 211.404 90.101 210.549 90.6232C209.7 91.1454 208.819 92.2355 208.845 93.3583L208.982 95.0751C208.982 95.2905 208.91 95.4929 208.773 95.6365C208.186 96.2436 207.801 97.0791 207.696 97.9864L207.592 98.8872C207.514 99.5465 207.559 100.212 207.722 100.839L207.846 101.322C207.905 101.544 207.866 101.785 207.742 101.968L207.69 102.047C206.547 103.417 206.469 106.002 206.567 106.786C206.671 107.673 207.69 109.371 208.78 110.03C209.987 110.754 211.352 111.114 212.651 110.546C213.401 110.219 214.093 109.704 214.687 109.025L214.674 109.018Z" fill="#369149"/>
<path d="M246.007 106.407C246.431 105.917 246.686 105.245 246.699 104.546L246.745 102.582C246.764 101.726 246.431 100.937 245.857 100.454L245.687 100.31C245.472 100.127 245.394 99.7878 245.498 99.4875L246.138 97.6663C246.405 96.9091 246.451 96.0736 246.262 95.2968L246.125 94.7354C245.994 94.1936 245.707 93.7236 245.315 93.4103C245.145 93.2797 245.054 93.0447 245.067 92.8032L244.897 90.4141C244.76 89.1282 244.643 88.6647 244.075 88.1033L243.892 87.9205C243.174 87.2156 242.737 87.4897 241.882 88.0119C241.033 88.5341 240.152 89.6242 240.178 90.747L240.315 92.4637C240.315 92.6792 240.243 92.8815 240.106 93.0252C239.519 93.6322 239.133 94.4678 239.029 95.3751L238.925 96.2759C238.846 96.9352 238.892 97.601 239.055 98.2277L239.179 98.7107C239.238 98.9326 239.199 99.1742 239.075 99.3569L239.023 99.4353C237.88 100.806 237.802 103.391 237.9 104.174C238.004 105.062 239.023 106.759 240.113 107.419C241.32 108.143 242.685 108.502 243.984 107.934C244.734 107.608 245.426 107.092 246.02 106.413L246.007 106.407Z" fill="#369149"/>
<path d="M241.842 53.4961V63.9961H240.775V58.5703H239.416V63.457H238.396V53.707H239.416V57.6562H240.775V53.4961H241.842ZM233.182 61.4766V54.7617H237.119V55.6641H234.295V60.5273C235.584 60.5215 236.557 60.4629 237.682 60.2461L237.764 61.1602C236.504 61.4238 235.414 61.4648 233.885 61.4766H233.182ZM251.451 53.4961V56.1445H252.975V57.0469H251.451V59.7305H250.338V53.4961H251.451ZM243.189 58.9102C245.65 58.2188 247.156 56.8477 247.361 55.1484H243.658V54.2461H248.568C248.568 56.959 246.723 58.9219 243.646 59.8125L243.189 58.9102ZM244.619 61.9102C244.607 60.6328 245.99 59.8418 248.1 59.8477C250.215 59.8418 251.568 60.6328 251.568 61.9102C251.568 63.1992 250.215 63.9785 248.1 63.9844C245.99 63.9785 244.607 63.1992 244.619 61.9102ZM245.721 61.9102C245.715 62.6484 246.629 63.0996 248.1 63.1055C249.559 63.0996 250.479 62.6484 250.479 61.9102C250.479 61.1719 249.559 60.7207 248.1 60.7266C246.629 60.7207 245.715 61.1719 245.721 61.9102ZM261.834 53.4961V56.1562H263.346V57.0703H261.834V59.6953H260.709V53.4961H261.834ZM254.018 58.9336V54.2695H258.705V55.1719H255.119V58.0312C257.188 58.0195 258.354 57.9609 259.678 57.6914L259.783 58.5938C258.377 58.8809 257.123 58.9336 254.85 58.9336H254.018ZM254.908 61.9336C254.908 60.6504 256.268 59.9004 258.436 59.8945C260.58 59.9004 261.916 60.6504 261.916 61.9336C261.916 63.2285 260.58 63.9785 258.436 63.9727C256.268 63.9785 254.908 63.2285 254.908 61.9336ZM256.01 61.9336C256.004 62.6602 256.918 63.0879 258.436 63.082C259.924 63.0879 260.844 62.6602 260.85 61.9336C260.844 61.207 259.924 60.791 258.436 60.7969C256.918 60.791 256.004 61.207 256.01 61.9336Z" fill="white"/>
<path d="M297.404 60.3594V61.2617H293.162V62.2695C295.084 62.375 296.227 63.0195 296.232 64.1211C296.227 65.3105 294.867 65.9785 292.611 65.9727C290.326 65.9785 288.967 65.3105 288.967 64.1211C288.967 63.0195 290.109 62.3691 292.061 62.2695V61.2617H287.83V60.3594H297.404ZM288.334 58.9297C290.221 58.7363 291.709 57.8809 291.861 56.8672H288.709V55.9766H296.549V56.8672H293.361C293.514 57.8867 294.99 58.7363 296.912 58.9297L296.514 59.8086C294.691 59.5977 293.186 58.8301 292.617 57.7168C292.037 58.8301 290.543 59.5977 288.721 59.8086L288.334 58.9297ZM290.092 64.1211C290.086 64.7598 291.006 65.1289 292.611 65.1172C294.193 65.1289 295.119 64.7598 295.119 64.1211C295.119 63.4707 294.193 63.1191 292.611 63.1133C291.006 63.1191 290.086 63.4707 290.092 64.1211ZM306.451 55.4961V58.1445H307.975V59.0469H306.451V61.7305H305.338V55.4961H306.451ZM298.189 60.9102C300.65 60.2188 302.156 58.8477 302.361 57.1484H298.658V56.2461H303.568C303.568 58.959 301.723 60.9219 298.646 61.8125L298.189 60.9102ZM299.619 63.9102C299.607 62.6328 300.99 61.8418 303.1 61.8477C305.215 61.8418 306.568 62.6328 306.568 63.9102C306.568 65.1992 305.215 65.9785 303.1 65.9844C300.99 65.9785 299.607 65.1992 299.619 63.9102ZM300.721 63.9102C300.715 64.6484 301.629 65.0996 303.1 65.1055C304.559 65.0996 305.479 64.6484 305.479 63.9102C305.479 63.1719 304.559 62.7207 303.1 62.7266C301.629 62.7207 300.715 63.1719 300.721 63.9102ZM316.834 55.4961V58.1562H318.346V59.0703H316.834V61.6953H315.709V55.4961H316.834ZM309.018 60.9336V56.2695H313.705V57.1719H310.119V60.0312C312.188 60.0195 313.354 59.9609 314.678 59.6914L314.783 60.5938C313.377 60.8809 312.123 60.9336 309.85 60.9336H309.018ZM309.908 63.9336C309.908 62.6504 311.268 61.9004 313.436 61.8945C315.58 61.9004 316.916 62.6504 316.916 63.9336C316.916 65.2285 315.58 65.9785 313.436 65.9727C311.268 65.9785 309.908 65.2285 309.908 63.9336ZM311.01 63.9336C311.004 64.6602 311.918 65.0879 313.436 65.082C314.924 65.0879 315.844 64.6602 315.85 63.9336C315.844 63.207 314.924 62.791 313.436 62.7969C311.918 62.791 311.004 63.207 311.01 63.9336Z" fill="white"/>
<path d="M267.842 88.4961V98.9961H266.775V93.5703H265.416V98.457H264.396V88.707H265.416V92.6562H266.775V88.4961H267.842ZM259.182 96.4766V89.7617H263.119V90.6641H260.295V95.5273C261.584 95.5215 262.557 95.4629 263.682 95.2461L263.764 96.1602C262.504 96.4238 261.414 96.4648 259.885 96.4766H259.182ZM275.471 89.5625V90.4531H269.213V89.5625H271.791V88.4492H272.904V89.5625H275.471ZM269.787 92.832C269.781 91.6836 270.824 90.9336 272.342 90.9219C273.854 90.9336 274.885 91.6836 274.885 92.832C274.885 93.9863 273.854 94.7422 272.342 94.7422C270.824 94.7422 269.781 93.9863 269.787 92.832ZM270.514 96.5V95.5977H277.451V98.9961H276.338V96.5H270.514ZM270.865 92.832C270.854 93.4824 271.451 93.875 272.342 93.875C273.232 93.875 273.83 93.4824 273.842 92.832C273.83 92.1875 273.232 91.7832 272.342 91.7773C271.451 91.7832 270.854 92.1875 270.865 92.832ZM276.338 95.0586V88.4961H277.451V91.3438H278.975V92.2695H277.451V95.0586H276.338ZM288.303 88.5078V96.4648H287.189V95.457H285.08V94.6719H287.189V88.5078H288.303ZM279.525 93.3008C281.465 93.2832 284.084 93.2656 286.322 92.9844L286.393 93.7812C285.496 93.9336 284.553 94.0273 283.627 94.0918V96.1367H282.514V94.1504C281.494 94.1914 280.516 94.1914 279.666 94.1914L279.525 93.3008ZM280.346 90.7578C280.34 89.6445 281.4 88.9062 282.959 88.9062C284.494 88.9062 285.561 89.6445 285.561 90.7578C285.561 91.877 284.494 92.5859 282.959 92.5859C281.406 92.5859 280.34 91.877 280.346 90.7578ZM280.979 98.7734V95.6914H282.08V97.8711H288.561V98.7734H280.979ZM281.4 90.7578C281.395 91.3789 282.027 91.7656 282.959 91.7656C283.855 91.7656 284.5 91.3789 284.506 90.7578C284.5 90.1309 283.855 89.7266 282.959 89.7383C282.027 89.7266 281.395 90.1309 281.4 90.7578Z" fill="white"/>
<path d="M201.08 183.496V186.18H202.604V187.094H201.08V189.824H199.967V183.496H201.08ZM193.24 189.156V184.152H194.33V185.723H197.084V184.152H198.186V189.156H193.24ZM194.143 191.254V190.352H201.08V193.996H199.967V191.254H194.143ZM194.33 188.266H197.084V186.602H194.33V188.266ZM212.775 187.844V188.734H208.533V189.648H211.568V192.109H205.451V193.035H211.861V193.891H204.361V191.301H210.467V190.504H204.35V189.648H207.42V188.734H203.201V187.844H212.775ZM204.432 187.07V183.836H211.545V187.07H204.432ZM205.521 186.191H210.432V184.715H205.521V186.191ZM219.42 184.293V184.879C219.408 185.582 219.408 186.625 219.15 187.984L218.049 187.879C218.277 186.719 218.312 185.869 218.324 185.207H214.123V184.293H219.42ZM213.49 188.887C214.135 188.887 214.867 188.881 215.635 188.863V186.648H216.736V188.828C217.861 188.781 219.021 188.699 220.076 188.547L220.146 189.355C217.955 189.742 215.447 189.783 213.596 189.789L213.49 188.887ZM215.084 193.773V190.668H216.197V192.871H222.221V193.773H215.084ZM220.744 191.383V183.496H221.881V186.836H223.322V187.773H221.881V191.383H220.744Z" fill="white"/>
<path d="M139.85 183.988V184.773C139.855 185.547 139.855 186.473 139.609 187.691H141.068V188.594H136.803V190.387H139.896V193.996H138.783V191.277H132.443V190.387H135.689V188.594H131.459V187.691H138.49C138.736 186.514 138.748 185.641 138.748 184.891H132.666V183.988H139.85ZM150.842 183.496V193.996H149.775V183.496H150.842ZM141.678 191.102C143.166 190.205 143.922 188.295 143.928 186.426V185.582H141.994V184.68H146.799V185.582H144.994V186.426C144.994 188.219 145.721 190.018 147.197 190.867L146.529 191.688C145.527 191.09 144.842 190.018 144.473 188.752C144.098 190.123 143.383 191.295 142.357 191.934L141.678 191.102ZM146.025 188.125V187.211H147.654V183.719H148.709V193.469H147.654V188.125H146.025ZM160.732 184.504V185.629C160.721 186.947 160.721 188.33 160.346 190.34L159.256 190.223C159.625 188.324 159.625 186.918 159.619 185.629V185.406H153.186V184.504H160.732ZM152.201 192.578V191.652H154.463V188.254H155.576V191.652H157.088V188.254H158.178V191.652H161.775V192.578H152.201ZM172.146 188.5V189.402H169.674V190.621H170.975V193.996H169.85V191.5H163.639V190.621H165.021V189.402H162.572V188.5H172.146ZM163.604 185.758C163.598 184.486 165.057 183.725 167.354 183.73C169.645 183.725 171.098 184.486 171.104 185.758C171.098 187.023 169.645 187.791 167.354 187.785C165.057 187.791 163.598 187.023 163.604 185.758ZM164.752 185.758C164.746 186.49 165.736 186.918 167.354 186.918C168.959 186.918 169.961 186.49 169.955 185.758C169.961 185.031 168.959 184.604 167.354 184.609C165.736 184.604 164.746 185.031 164.752 185.758ZM166.135 190.621H168.584V189.402H166.135V190.621ZM178.791 184.293V184.879C178.779 185.582 178.779 186.625 178.521 187.984L177.42 187.879C177.648 186.719 177.684 185.869 177.695 185.207H173.494V184.293H178.791ZM172.861 188.887C173.506 188.887 174.238 188.881 175.006 188.863V186.648H176.107V188.828C177.232 188.781 178.393 188.699 179.447 188.547L179.518 189.355C177.326 189.742 174.818 189.783 172.967 189.789L172.861 188.887ZM174.455 193.773V190.668H175.568V192.871H181.592V193.773H174.455ZM180.115 191.383V183.496H181.252V186.836H182.693V187.773H181.252V191.383H180.115Z" fill="white"/>
<path d="M63.3711 141.672V142.551H59.082V145.996H57.9922V142.551H53.7617V141.672H63.3711ZM54.957 140.477V135.918H56.0586V137.289H61.0508V135.918H62.1641V140.477H54.957ZM56.0586 139.586H61.0508V138.18H56.0586V139.586ZM73.7422 140.711V141.625H64.1445V140.711H68.375V139.176H69.4766V140.711H73.7422ZM64.6953 138.871C66.7051 138.613 68.3574 137.43 68.3633 136.105V135.66H69.4883V136.105C69.4824 137.447 71.1289 138.613 73.1562 138.871L72.7227 139.75C71.0586 139.48 69.5879 138.672 68.9199 137.512C68.252 138.672 66.7812 139.48 65.1055 139.75L64.6953 138.871ZM65.2109 143.43V142.551H72.5469V145.996H71.4219V143.43H65.2109ZM84.125 143.793V144.707H74.5156V143.793H78.7578V141.508H79.8594V143.793H84.125ZM74.9844 141.004C77.1406 140.688 78.6934 139.469 78.7461 137.992H75.3828V137.09H78.7578V135.684H79.8594V137.09H83.2344V137.992H79.8711C79.9238 139.469 81.4766 140.688 83.6328 141.004L83.2109 141.871C81.4531 141.596 79.9883 140.764 79.3027 139.539C78.623 140.764 77.1641 141.596 75.4062 141.871L74.9844 141.004ZM94.4727 140.43V141.344H84.8867V140.43H94.4727ZM86.0234 144.074C86.0234 142.855 87.3887 142.164 89.668 142.164C91.9297 142.164 93.2832 142.855 93.2891 144.074C93.2832 145.293 91.9297 145.979 89.668 145.973C87.3887 145.979 86.0234 145.293 86.0234 144.074ZM86.082 139.516V135.871H93.2891V136.785H87.1836V138.613H93.3594V139.516H86.082ZM87.1484 144.074C87.1426 144.748 88.0625 145.111 89.668 145.117C91.25 145.111 92.1758 144.748 92.1758 144.074C92.1758 143.406 91.25 143.031 89.668 143.02C88.0625 143.031 87.1426 143.406 87.1484 144.074ZM101.527 136.562V137.453H95.2695V136.562H97.8477V135.449H98.9609V136.562H101.527ZM95.8438 139.832C95.8379 138.684 96.8809 137.934 98.3984 137.922C99.9102 137.934 100.941 138.684 100.941 139.832C100.941 140.986 99.9102 141.742 98.3984 141.742C96.8809 141.742 95.8379 140.986 95.8438 139.832ZM96.5703 143.5V142.598H103.508V145.996H102.395V143.5H96.5703ZM96.9219 139.832C96.9102 140.482 97.5078 140.875 98.3984 140.875C99.2891 140.875 99.8867 140.482 99.8984 139.832C99.8867 139.188 99.2891 138.783 98.3984 138.777C97.5078 138.783 96.9102 139.188 96.9219 139.832ZM102.395 142.059V135.496H103.508V138.344H105.031V139.27H103.508V142.059H102.395ZM114.16 136.504V137.629C114.148 138.947 114.148 140.33 113.773 142.34L112.684 142.223C113.053 140.324 113.053 138.918 113.047 137.629V137.406H106.613V136.504H114.16ZM105.629 144.578V143.652H107.891V140.254H109.004V143.652H110.516V140.254H111.605V143.652H115.203V144.578H105.629Z" fill="white"/>
<path d="M9.50391 45.4961V56.0195H8.39062V45.4961H9.50391ZM1.17188 49.9609C1.17188 47.7168 2.30273 46.2871 3.89062 46.2812C5.44922 46.2871 6.59766 47.7168 6.59766 49.9609C6.59766 52.2285 5.44922 53.6582 3.89062 53.6523C2.30273 53.6582 1.17188 52.2285 1.17188 49.9609ZM2.25 49.9609C2.24414 51.6309 2.91211 52.6562 3.89062 52.6562C4.85156 52.6562 5.51953 51.6309 5.51953 49.9609C5.51953 48.3145 4.85156 47.2832 3.89062 47.2773C2.91211 47.2832 2.24414 48.3145 2.25 49.9609ZM19.4062 45.4961V49.8906H20.9883V50.8281H19.4062V55.9961H18.293V45.4961H19.4062ZM11.0508 53.1367C11.877 53.1367 12.8379 53.1367 13.8398 53.1074V52.041C12.6562 51.8652 11.8828 51.1504 11.8945 50.1367C11.8828 48.9531 12.9082 48.1738 14.4023 48.168C15.8906 48.1738 16.9277 48.9531 16.9336 50.1367C16.9277 51.1504 16.1426 51.8711 14.9531 52.041V53.0664C15.8848 53.0195 16.8223 52.9434 17.6953 52.8203L17.7656 53.6406C15.4922 54.0449 13.0371 54.0684 11.2266 54.0625L11.0508 53.1367ZM11.25 47.6289V46.7383H13.8398V45.5195H14.9531V46.7383H17.543V47.6289H11.25ZM12.9375 50.1367C12.9375 50.8047 13.5234 51.2207 14.4023 51.2148C15.2812 51.2207 15.8613 50.8047 15.8672 50.1367C15.8613 49.4629 15.2812 49.0352 14.4023 49.0352C13.5234 49.0352 12.9375 49.4629 12.9375 50.1367ZM33.1875 45.5078V53.1953H32.0742V45.5078H33.1875ZM24.5391 50.8281C26.1855 50.2188 27.1582 48.707 27.1641 47.125V46.082H28.3008V47.125C28.2949 48.6602 29.2676 50.0664 30.8906 50.6289L30.3164 51.5195C29.1035 51.0684 28.207 50.1777 27.7383 49.041C27.2754 50.2598 26.3672 51.2324 25.1367 51.707L24.5391 50.8281ZM26.3203 55.7734V52.4688H27.4453V54.8711H33.5039V55.7734H26.3203ZM38.0508 48.3672C38.0508 50.043 38.7539 51.8301 40.1602 52.6914L39.5391 53.5469C38.5547 52.9551 37.8926 51.9062 37.5293 50.6934C37.1484 52.0234 36.4219 53.1602 35.4023 53.7812L34.7109 52.9492C36.1934 52.0586 36.9785 50.2012 36.9727 48.4141V46.457H38.0508V48.3672ZM39.0234 50.1133V49.1875H40.6523V45.6953H41.707V55.4805H40.6523V50.1133H39.0234ZM42.8203 55.9961V45.4961H43.8867V55.9961H42.8203ZM54.2461 45.4961V55.9961H53.1914V45.4961H54.2461ZM45.1641 52.9609C47.3965 51.6367 48.4629 49.873 48.6562 47.7109H45.6797V46.7969H49.7578C49.7578 47.3359 49.7168 47.8574 49.6348 48.3672H51.0469V45.7656H52.1016V55.4805H51.0469V51.9062H49.2539V50.9922H51.0469V49.2812H49.4297C48.9199 51.0449 47.8008 52.5801 45.8203 53.7578L45.1641 52.9609ZM61.4414 46.293V46.8789C61.4297 47.582 61.4297 48.625 61.1719 49.9844L60.0703 49.8789C60.2988 48.7188 60.334 47.8691 60.3457 47.207H56.1445V46.293H61.4414ZM55.5117 50.8867C56.1562 50.8867 56.8887 50.8809 57.6562 50.8633V48.6484H58.7578V50.8281C59.8828 50.7812 61.043 50.6992 62.0977 50.5469L62.168 51.3555C59.9766 51.7422 57.4688 51.7832 55.6172 51.7891L55.5117 50.8867ZM57.1055 55.7734V52.668H58.2188V54.8711H64.2422V55.7734H57.1055ZM62.7656 53.3828V45.4961H63.9023V48.8359H65.3438V49.7734H63.9023V53.3828H62.7656Z" fill="#151515"/>
<path d="M170.504 20.4961V31.0195H169.391V20.4961H170.504ZM162.172 24.9609C162.172 22.7168 163.303 21.2871 164.891 21.2812C166.449 21.2871 167.598 22.7168 167.598 24.9609C167.598 27.2285 166.449 28.6582 164.891 28.6523C163.303 28.6582 162.172 27.2285 162.172 24.9609ZM163.25 24.9609C163.244 26.6309 163.912 27.6562 164.891 27.6562C165.852 27.6562 166.52 26.6309 166.52 24.9609C166.52 23.3145 165.852 22.2832 164.891 22.2773C163.912 22.2832 163.244 23.3145 163.25 24.9609ZM180.406 20.4961V24.8906H181.988V25.8281H180.406V30.9961H179.293V20.4961H180.406ZM172.051 28.1367C172.877 28.1367 173.838 28.1367 174.84 28.1074V27.041C173.656 26.8652 172.883 26.1504 172.895 25.1367C172.883 23.9531 173.908 23.1738 175.402 23.168C176.891 23.1738 177.928 23.9531 177.934 25.1367C177.928 26.1504 177.143 26.8711 175.953 27.041V28.0664C176.885 28.0195 177.822 27.9434 178.695 27.8203L178.766 28.6406C176.492 29.0449 174.037 29.0684 172.227 29.0625L172.051 28.1367ZM172.25 22.6289V21.7383H174.84V20.5195H175.953V21.7383H178.543V22.6289H172.25ZM173.938 25.1367C173.938 25.8047 174.523 26.2207 175.402 26.2148C176.281 26.2207 176.861 25.8047 176.867 25.1367C176.861 24.4629 176.281 24.0352 175.402 24.0352C174.523 24.0352 173.938 24.4629 173.938 25.1367ZM190.578 23.7539C190.496 22.9629 189.805 22.5117 188.832 22.5117C187.795 22.5117 187.139 23.0449 187.133 23.7656C187.133 24.5684 188.006 24.8848 188.68 25.043L189.5 25.2656C190.584 25.5293 191.943 26.1211 191.949 27.6562C191.943 29.0918 190.801 30.1406 188.797 30.1406C186.898 30.1406 185.703 29.1914 185.621 27.6445H186.91C186.986 28.5703 187.807 29.0098 188.797 29.0156C189.881 29.0098 190.666 28.4648 190.672 27.6328C190.666 26.8945 189.963 26.5957 189.066 26.3555L188.059 26.0859C186.693 25.7109 185.85 25.0195 185.844 23.8359C185.85 22.3711 187.15 21.3984 188.867 21.3984C190.59 21.3984 191.791 22.3828 191.832 23.7539H190.578ZM193.332 30V21.5156H194.621V25.5586H194.727L198.277 21.5156H199.895L196.473 25.3359L199.906 30H198.348L195.617 26.2148L194.621 27.3633V30H193.332ZM204.945 21.1172V21.9961H201.992V22.9688H204.535V23.8242H201.992V24.8906C203.287 24.8848 204.254 24.8496 205.391 24.6328L205.496 25.5C204.201 25.7227 203.158 25.7754 201.629 25.7812H200.949V21.1172H204.945ZM202.391 27.457V26.5781H209.434V29.1094H203.516V30.0234H209.832V30.8906H202.414V28.2891H208.344V27.457H202.391ZM205.016 23.707V22.8164H206.316V20.6836H207.371V26.0508H206.316V23.707H205.016ZM208.379 26.1445V20.5078H209.434V26.1445H208.379ZM214.918 21.6211V25.3594H212.258V27.5156C213.4 27.5098 214.49 27.4629 215.785 27.2344L215.879 28.1484C214.42 28.4121 213.225 28.4414 211.906 28.4531H211.18V24.4688H213.852V22.5234H211.168V21.6211H214.918ZM215.41 25.1133V24.2109H216.652V20.7305H217.707V30.457H216.652V25.1133H215.41ZM218.797 30.9961V20.4961H219.863V30.9961H218.797ZM229.648 20.8242V21.6562C229.643 22.5176 229.643 23.5488 229.391 24.9141L228.277 24.8555C228.377 24.334 228.436 23.8711 228.477 23.4434L222.23 23.7305L222.078 22.8047L228.523 22.6348C228.535 22.3066 228.535 22.0078 228.535 21.7148H222.348V20.8242H229.648ZM221.234 26.4023V25.5H225.02V24.1758H226.145V25.5H230.785V26.4023H221.234ZM222.383 30.8672V27.3516H229.602V30.8672H222.383ZM223.473 29.9648H228.5V28.2305H223.473V29.9648ZM237.441 21.293V21.8789C237.43 22.582 237.43 23.625 237.172 24.9844L236.07 24.8789C236.299 23.7188 236.334 22.8691 236.346 22.207H232.145V21.293H237.441ZM231.512 25.8867C232.156 25.8867 232.889 25.8809 233.656 25.8633V23.6484H234.758V25.8281C235.883 25.7812 237.043 25.6992 238.098 25.5469L238.168 26.3555C235.977 26.7422 233.469 26.7832 231.617 26.7891L231.512 25.8867ZM233.105 30.7734V27.668H234.219V29.8711H240.242V30.7734H233.105ZM238.766 28.3828V20.4961H239.902V23.8359H241.344V24.7734H239.902V28.3828H238.766Z" fill="#151515"/>
<path d="M135.482 140.516V149H134.193V140.516H135.482ZM140.85 144.219V145.297H137.088V144.219H140.85ZM142.467 149V140.516H143.756V144.195H147.975V140.516H149.264V149H147.975V145.297H143.756V149H142.467ZM153.588 149.129C151.783 149.129 150.605 147.816 150.611 145.848C150.605 143.867 151.783 142.555 153.588 142.555C155.381 142.555 156.553 143.867 156.553 145.848C156.553 147.816 155.381 149.129 153.588 149.129ZM151.865 145.848C151.865 147.061 152.422 148.086 153.588 148.086C154.736 148.086 155.287 147.061 155.287 145.848C155.287 144.629 154.736 143.592 153.588 143.586C152.422 143.592 151.865 144.629 151.865 145.848ZM161.826 146.352V142.637H163.068V149H161.85V147.898H161.779C161.486 148.578 160.836 149.082 159.881 149.082C158.65 149.082 157.783 148.256 157.783 146.68V142.637H159.037V146.527C159.037 147.395 159.564 147.945 160.326 147.945C161.023 147.945 161.826 147.436 161.826 146.352ZM168.166 144.371C168.049 143.867 167.65 143.539 166.959 143.539C166.244 143.539 165.734 143.908 165.74 144.395C165.734 144.77 166.033 145.039 166.736 145.203L167.744 145.438C168.916 145.701 169.484 146.258 169.49 147.16C169.484 148.309 168.512 149.129 166.889 149.129C165.359 149.129 164.457 148.449 164.299 147.266H165.576C165.688 147.84 166.121 148.127 166.877 148.121C167.686 148.127 168.207 147.787 168.213 147.254C168.207 146.844 167.902 146.58 167.229 146.422L166.232 146.211C165.084 145.959 164.486 145.344 164.486 144.465C164.486 143.334 165.471 142.555 166.947 142.555C168.365 142.555 169.25 143.275 169.373 144.371H168.166ZM173.451 149.129C171.576 149.129 170.422 147.834 170.428 145.859C170.422 143.902 171.594 142.555 173.369 142.555C174.816 142.555 176.193 143.451 176.193 145.754V146.199H171.67C171.705 147.412 172.42 148.098 173.463 148.098C174.172 148.098 174.635 147.793 174.846 147.406H176.111C175.83 148.438 174.852 149.129 173.451 149.129ZM171.676 145.262H174.963C174.963 144.295 174.336 143.58 173.381 143.586C172.379 143.58 171.729 144.365 171.676 145.262Z" fill="white"/>
<path d="M181.057 122.672V123.551H176.768V126.996H175.678V123.551H171.447V122.672H181.057ZM172.643 121.477V116.918H173.744V118.289H178.736V116.918H179.85V121.477H172.643ZM173.744 120.586H178.736V119.18H173.744V120.586ZM191.428 121.711V122.625H181.83V121.711H186.061V120.176H187.162V121.711H191.428ZM182.381 119.871C184.391 119.613 186.043 118.43 186.049 117.105V116.66H187.174V117.105C187.168 118.447 188.814 119.613 190.842 119.871L190.408 120.75C188.744 120.48 187.273 119.672 186.605 118.512C185.938 119.672 184.467 120.48 182.791 120.75L182.381 119.871ZM182.896 124.43V123.551H190.232V126.996H189.107V124.43H182.896ZM201.799 122.426V123.34H199.361V126.996H198.236V123.34H195.729V126.996H194.58V123.34H192.189V122.426H201.799ZM193.232 119.215C193.238 117.797 194.75 116.895 196.971 116.895C199.191 116.895 200.715 117.797 200.709 119.215C200.715 120.615 199.191 121.5 196.971 121.488C194.75 121.5 193.238 120.615 193.232 119.215ZM194.381 119.215C194.375 120.076 195.412 120.609 196.971 120.609C198.535 120.609 199.566 120.076 199.572 119.215C199.566 118.33 198.535 117.791 196.971 117.785C195.412 117.791 194.375 118.33 194.381 119.215ZM211.268 116.496V126.996H210.154V116.496H211.268ZM202.725 124.125C204.348 123.398 205.426 121.629 205.432 119.871V119.18H203.041V118.289H205.42V116.707H206.521V118.289H208.877V119.18H206.521V119.871C206.527 121.547 207.629 123.258 209.264 123.949L208.654 124.805C207.441 124.277 206.48 123.182 205.994 121.857C205.52 123.264 204.564 124.43 203.346 124.98L202.725 124.125ZM221.674 116.508V124.465H220.561V123.457H218.451V122.672H220.561V116.508H221.674ZM212.896 121.301C214.836 121.283 217.455 121.266 219.693 120.984L219.764 121.781C218.867 121.934 217.924 122.027 216.998 122.092V124.137H215.885V122.15C214.865 122.191 213.887 122.191 213.037 122.191L212.896 121.301ZM213.717 118.758C213.711 117.645 214.771 116.906 216.33 116.906C217.865 116.906 218.932 117.645 218.932 118.758C218.932 119.877 217.865 120.586 216.33 120.586C214.777 120.586 213.711 119.877 213.717 118.758ZM214.35 126.773V123.691H215.451V125.871H221.932V126.773H214.35ZM214.771 118.758C214.766 119.379 215.398 119.766 216.33 119.766C217.227 119.766 217.871 119.379 217.877 118.758C217.871 118.131 217.227 117.727 216.33 117.738C215.398 117.727 214.766 118.131 214.771 118.758Z" fill="white"/>
<path d="M147.447 4.49609V15.0195H146.334V4.49609H147.447ZM139.115 8.96094C139.115 6.7168 140.246 5.28711 141.834 5.28125C143.393 5.28711 144.541 6.7168 144.541 8.96094C144.541 11.2285 143.393 12.6582 141.834 12.6523C140.246 12.6582 139.115 11.2285 139.115 8.96094ZM140.193 8.96094C140.188 10.6309 140.855 11.6562 141.834 11.6562C142.795 11.6562 143.463 10.6309 143.463 8.96094C143.463 7.31445 142.795 6.2832 141.834 6.27734C140.855 6.2832 140.188 7.31445 140.193 8.96094ZM157.35 4.49609V8.89062H158.932V9.82812H157.35V14.9961H156.236V4.49609H157.35ZM148.994 12.1367C149.82 12.1367 150.781 12.1367 151.783 12.1074V11.041C150.6 10.8652 149.826 10.1504 149.838 9.13672C149.826 7.95312 150.852 7.17383 152.346 7.16797C153.834 7.17383 154.871 7.95312 154.877 9.13672C154.871 10.1504 154.086 10.8711 152.896 11.041V12.0664C153.828 12.0195 154.766 11.9434 155.639 11.8203L155.709 12.6406C153.436 13.0449 150.98 13.0684 149.17 13.0625L148.994 12.1367ZM149.193 6.62891V5.73828H151.783V4.51953H152.896V5.73828H155.486V6.62891H149.193ZM150.881 9.13672C150.881 9.80469 151.467 10.2207 152.346 10.2148C153.225 10.2207 153.805 9.80469 153.811 9.13672C153.805 8.46289 153.225 8.03516 152.346 8.03516C151.467 8.03516 150.881 8.46289 150.881 9.13672ZM166.068 6.00781C166.068 7.41406 167.035 8.75 168.623 9.27734L168.014 10.1562C166.883 9.73438 166.027 8.91406 165.564 7.87109C165.107 9.06055 164.205 9.98633 162.951 10.4492L162.354 9.57031C164 8.99023 164.961 7.58398 164.967 6.03125V5.03516H166.068V6.00781ZM163.971 14.8672V11.082H170.674V14.8672H163.971ZM165.061 13.9648H169.572V11.9727H165.061V13.9648ZM169.561 10.6133V4.49609H170.674V7.03906H172.197V7.95312H170.674V10.6133H169.561ZM176.521 6.06641C176.516 7.53711 177.471 8.84961 179.064 9.37109L178.455 10.2383C177.301 9.81641 176.451 9.00781 175.994 7.95312C175.543 9.1543 174.629 10.0977 173.357 10.5547L172.76 9.66406C174.436 9.08984 175.408 7.68945 175.42 6.11328V5.08203H176.521V6.06641ZM174.482 12.9922C174.477 11.7207 175.824 10.9824 178.033 10.9883C180.23 10.9824 181.578 11.7207 181.584 12.9922C181.578 14.2578 180.23 14.9785 178.033 14.9727C175.824 14.9785 174.477 14.2578 174.482 12.9922ZM175.584 12.9922C175.578 13.6895 176.492 14.0996 178.033 14.0938C179.562 14.0996 180.477 13.6895 180.482 12.9922C180.477 12.2715 179.562 11.8555 178.033 11.8555C176.492 11.8555 175.578 12.2715 175.584 12.9922ZM178.221 7.54297V6.62891H180.436V4.49609H181.549V10.6953H180.436V7.54297H178.221ZM191.697 5.50391V6.62891C191.686 7.94727 191.686 9.33008 191.311 11.3398L190.221 11.2227C190.59 9.32422 190.59 7.91797 190.584 6.62891V6.40625H184.15V5.50391H191.697ZM183.166 13.5781V12.6523H185.428V9.25391H186.541V12.6523H188.053V9.25391H189.143V12.6523H192.74V13.5781H183.166ZM203.111 9.5V10.4023H200.639V11.6211H201.939V14.9961H200.814V12.5H194.604V11.6211H195.986V10.4023H193.537V9.5H203.111ZM194.568 6.75781C194.562 5.48633 196.021 4.72461 198.318 4.73047C200.609 4.72461 202.062 5.48633 202.068 6.75781C202.062 8.02344 200.609 8.79102 198.318 8.78516C196.021 8.79102 194.562 8.02344 194.568 6.75781ZM195.717 6.75781C195.711 7.49023 196.701 7.91797 198.318 7.91797C199.924 7.91797 200.926 7.49023 200.92 6.75781C200.926 6.03125 199.924 5.60352 198.318 5.60938C196.701 5.60352 195.711 6.03125 195.717 6.75781ZM197.1 11.6211H199.549V10.4023H197.1V11.6211ZM213.506 9.80469V10.707H209.334V12.7461H208.232V10.707H203.896V9.80469H213.506ZM205.092 14.7734V11.75H206.205V13.8711H212.439V14.7734H205.092ZM205.127 8.71484V4.98828H212.264V8.71484H205.127ZM206.217 7.83594H211.162V5.86719H206.217V7.83594ZM222.506 4.49609V8.89062H224.088V9.82812H222.506V14.9961H221.393V4.49609H222.506ZM214.15 12.1367C214.977 12.1367 215.938 12.1367 216.939 12.1074V11.041C215.756 10.8652 214.982 10.1504 214.994 9.13672C214.982 7.95312 216.008 7.17383 217.502 7.16797C218.99 7.17383 220.027 7.95312 220.033 9.13672C220.027 10.1504 219.242 10.8711 218.053 11.041V12.0664C218.984 12.0195 219.922 11.9434 220.795 11.8203L220.865 12.6406C218.592 13.0449 216.137 13.0684 214.326 13.0625L214.15 12.1367ZM214.35 6.62891V5.73828H216.939V4.51953H218.053V5.73828H220.643V6.62891H214.35ZM216.037 9.13672C216.037 9.80469 216.623 10.2207 217.502 10.2148C218.381 10.2207 218.961 9.80469 218.967 9.13672C218.961 8.46289 218.381 8.03516 217.502 8.03516C216.623 8.03516 216.037 8.46289 216.037 9.13672ZM230.498 5.29297V5.87891C230.486 6.58203 230.486 7.625 230.229 8.98438L229.127 8.87891C229.355 7.71875 229.391 6.86914 229.402 6.20703H225.201V5.29297H230.498ZM224.568 9.88672C225.213 9.88672 225.945 9.88086 226.713 9.86328V7.64844H227.814V9.82812C228.939 9.78125 230.1 9.69922 231.154 9.54688L231.225 10.3555C229.033 10.7422 226.525 10.7832 224.674 10.7891L224.568 9.88672ZM226.162 14.7734V11.668H227.275V13.8711H233.299V14.7734H226.162ZM231.822 12.3828V4.49609H232.959V7.83594H234.4V8.77344H232.959V12.3828H231.822Z" fill="#151515"/>
</svg>
