<svg width="274" height="282" viewBox="0 0 274 282" fill="none" xmlns="http://www.w3.org/2000/svg">
<path d="M176.899 164.497L178.857 146.219L237.606 27.4161L195.829 0L164.771 17.2069L135.396 6.76264L83.1752 75.9557L77.8682 123.927L0 214.759L85.5121 281.341L93.998 247.398L112.275 234.995L139.692 257.189L213.454 231.079L209.537 184.732L176.899 164.497Z" fill="#369149"/>
<path d="M22.2461 217.233L30.8365 224.753C32.8731 226.535 35.9998 226.222 37.6383 224.068L65.0609 188.042C66.6275 185.985 66.2294 183.048 64.1666 181.481L55.276 174.725C53.2263 173.165 50.3084 173.557 48.7353 175.6L21.6129 210.862C20.105 212.821 20.3792 215.608 22.2396 217.233H22.2461Z" fill="#4BAA43"/>
<path d="M59.4796 205.771L62.5607 207.82C63.3048 208.316 64.3101 208.127 64.8127 207.389L74.8066 192.957C75.2831 192.265 75.1656 191.325 74.5259 190.783L72.3913 188.949C71.6798 188.335 70.6028 188.453 70.0283 189.197L59.0945 203.414C58.5136 204.165 58.6963 205.248 59.4862 205.777L59.4796 205.771Z" fill="#4BAA43"/>
<path d="M47.8534 216.169L39.8178 228.487C39.3935 229.133 39.4849 229.995 40.0332 230.537L41.1103 231.614C41.7826 232.286 42.8923 232.247 43.5125 231.522L53.0559 220.386C53.6434 219.707 53.565 218.682 52.8927 218.088L50.3077 215.83C49.5571 215.177 48.4017 215.334 47.8599 216.169H47.8534Z" fill="#4BAA43"/>
<path d="M77.6593 195.274L49.0748 232.534C47.8672 234.107 47.9259 236.307 49.2053 237.815L53.7094 243.115C55.733 245.492 59.5451 244.924 60.7788 242.051C65.4135 231.235 74.9177 208.95 79.9309 196.567C80.5054 195.144 78.5928 194.054 77.6593 195.274Z" fill="#4BAA43"/>
<path d="M84.9633 194.112L66.4313 244.095C65.3477 247.019 66.1441 250.315 68.4483 252.417L76.4773 259.748C77.7502 260.91 79.813 260.081 79.9174 258.358L80.655 246.693C81.2817 242.567 82.6525 238.585 84.7087 234.956L95.9167 215.151C99.4155 208.976 103.639 203.238 108.502 198.068L150.821 153.106C152.518 151.304 154.62 149.94 156.957 149.117L163.785 146.728C165.482 146.134 166.826 144.822 167.46 143.138L218.689 31.7765C219.439 30.1446 218.904 28.2059 217.416 27.2007L208.408 21.0712C205.516 19.1064 201.749 18.9693 198.721 20.7252L166.546 39.4074C164.483 40.6084 161.924 40.5823 159.881 39.3486L138.895 26.6589C136.806 25.3925 134.084 26.0453 132.798 28.1211L111.485 62.4304C109.416 65.766 107.875 69.4019 106.922 73.214L97.542 110.741C96.0668 116.636 93.3252 122.132 89.4935 126.852L58.1934 165.45C57.0641 166.84 57.3122 168.883 58.7352 169.967L83.3836 188.721C85.0286 189.974 85.6683 192.161 84.9437 194.099L84.9633 194.112Z" fill="#4BAA43"/>
<path d="M106.414 217.605L129.672 235.165C135.148 239.303 142.289 240.543 148.843 238.507L188.603 226.137C193.323 224.668 195.953 219.648 194.478 214.936L185.215 185.294C184.504 183.015 182.826 181.175 180.626 180.254L169.281 175.496C166.115 174.17 164.307 170.809 164.94 167.44L167.277 154.986C167.506 153.765 166.376 152.727 165.175 153.06L158.83 154.822C156.996 155.332 155.332 156.337 154.033 157.727L105.761 209.132L106.414 217.618V217.605Z" fill="#4BAA43"/>
<path d="M144.419 97.7495L124.219 88.5564L110.159 119.451L130.359 128.644L144.419 97.7495Z" fill="#369149"/>
<path d="M33.7409 223.454L25.8359 217.553L56.0981 176.416L63.9965 182.317L33.7409 223.454Z" fill="#DBDBDB"/>
<path d="M114.814 163.38L122.118 152.584L98.8735 136.852L88.599 129.9L81.2946 140.697L66.2745 162.891L61.8096 169.484L72.0841 176.436L87.2217 186.677L91.6866 180.085L76.549 169.836L91.5626 147.649L114.814 163.38Z" fill="#DBDBDB"/>
<path d="M159.874 71.1928L113.866 65.6008L112.133 79.8567L158.141 85.4487L159.874 71.1928Z" fill="#DBDBDB"/>
<path d="M192.558 75.3223L196.338 68.1745L200.176 60.9027L203.988 53.6962L206.697 49.2313L186.122 36.7439L180.332 46.2808L186.631 50.0995L185.13 52.952L178.896 49.6556L175.057 56.9274L181.285 60.2173L179.757 63.1156L172.956 60.1194L168.458 70.3286L190.489 80.0287L192.558 75.3223Z" fill="#DBDBDB"/>
<path d="M197.385 23.8114L191.696 34.8325L209.678 44.1136L215.366 33.0925L197.385 23.8114Z" fill="#DBDBDB"/>
<path d="M140.617 53.924L121.942 50.8257L119.912 63.061L138.587 66.1593L140.617 53.924Z" fill="#DBDBDB"/>
<path d="M150.071 59.4755L142.344 58.1935L141.489 63.3452L149.217 64.6272L150.071 59.4755Z" fill="#DBDBDB"/>
<path d="M159.085 60.9699L151.357 59.6879L150.503 64.8396L158.23 66.1216L159.085 60.9699Z" fill="#DBDBDB"/>
<path d="M154.688 39.4972L135.516 29.6775L127.779 44.7834L146.952 54.6031L154.688 39.4972Z" fill="#DBDBDB"/>
<path d="M161.35 230.204C161.01 230.204 160.684 230.138 160.383 230.021H125.865C124.423 230.021 123.254 228.852 123.254 227.41V226.352H116.89L104.729 226.17C103.312 226.15 102.176 225.008 102.157 223.591L101.837 198.747C101.83 198.035 102.111 197.35 102.62 196.847C103.11 196.371 103.763 196.103 104.448 196.103C104.474 196.103 105.362 196.129 105.362 196.129L105.342 195.783C105.303 195.072 105.564 194.373 106.06 193.851C106.557 193.336 107.235 193.042 107.953 193.042H108.352L108.339 192.689C108.312 191.965 108.593 191.26 109.109 190.744C109.598 190.255 110.258 189.987 110.95 189.987C110.989 189.987 111.204 189.993 111.204 189.993V189.869C111.198 189.047 111.576 188.27 112.222 187.774L118.992 182.578C119.455 182.219 120.016 182.036 120.584 182.036C121.048 182.036 121.511 182.16 121.929 182.408L129.266 186.801C129.377 186.612 129.514 186.436 129.677 186.279C129.952 186.005 130.284 185.796 130.65 185.672C131.766 183.218 134.181 181.547 136.917 181.547C139.652 181.547 142.269 183.355 143.32 185.972C143.94 186.377 144.384 187.049 144.482 187.82C144.959 187.239 145.683 186.867 146.499 186.867H161.082V184.184C161.082 182.741 162.25 181.573 163.693 181.573H171.141C172.584 181.573 173.752 182.741 173.752 184.184V185.998L179.144 182.46C179.581 182.173 180.077 182.03 180.573 182.03C181.07 182.03 181.605 182.18 182.049 182.487L189.621 187.683C190.339 188.172 190.763 188.988 190.757 189.856V189.98C192.134 190.091 193.191 191.273 193.152 192.657L193.139 193.029C193.792 193.055 194.419 193.322 194.882 193.786C195.385 194.289 195.665 194.967 195.652 195.679V196.077L196.024 196.084C197.454 196.11 198.596 197.291 198.583 198.721L198.316 223.565C198.303 224.988 197.147 226.137 195.724 226.15L178.158 226.3C178.028 226.32 177.891 226.333 177.747 226.333H173.732V227.573C173.732 229.016 172.564 230.184 171.121 230.184H161.33L161.35 230.204Z" fill="white"/>
<path d="M136.916 188.721H132.595C132.595 186.221 134.546 184.164 136.916 184.164C139.286 184.164 141.237 186.221 141.237 188.721H136.916Z" fill="#0D725F"/>
<path d="M135.578 188.166L131.512 188.14V193.76L136.29 194.25L135.578 188.166Z" fill="#F0F0F0"/>
<path d="M120.585 184.654L113.816 189.85L113.842 192.722L110.957 192.598L111.061 195.66H107.96L108.117 198.832L104.455 198.714L104.775 223.559L116.897 223.741L130.618 191.56L128.294 189.269L120.585 184.654Z" fill="#F0F0F0"/>
<path d="M180.574 184.654L188.146 189.85L188.126 192.415L190.542 192.598L190.45 195.718L193.048 195.66L193.002 198.649L195.979 198.714L195.711 223.559L174.32 223.741L171.592 191.56L173.537 189.269L180.574 184.654Z" fill="#F0F0F0"/>
<path d="M169.829 193.486L173.589 189.269V192.572L174.823 191.652V196.051L176.115 195.137V200.085L177.76 198.989V223.742H169.829V193.486Z" fill="#A6A6A6"/>
<path d="M135.579 188.166V192.259L128.294 189.269V192.572L124.919 191.652V196.051L121.388 195.137V200.085L116.896 198.989V223.742H135.579V224.845H141.891V188.166H135.579Z" fill="#DBDBDB"/>
<path d="M165.383 189.491H146.492V196.547H165.383V189.491Z" fill="#C6E5F4"/>
<path d="M166.219 194.746H146.591V197.768H166.219V194.746Z" fill="#8EC7ED"/>
<path d="M165.024 202.716H137.974V209.772H165.024V202.716Z" fill="#C6E5F4"/>
<path d="M165.024 196.848H137.974V203.904H165.024V196.848Z" fill="#C6E5F4"/>
<path d="M164.894 208.597H134.867V215.654H164.894V208.597Z" fill="#C6E5F4"/>
<path d="M164.711 214.479H130.61V221.535H164.711V214.479Z" fill="#C6E5F4"/>
<path d="M164.509 220.354H125.865V227.41H164.509V220.354Z" fill="#C6E5F4"/>
<path d="M143.699 221.45H143.164H140.618V227.227H143.164H143.699H146.245V221.45H143.699Z" fill="#8EC7ED"/>
<path d="M146.936 215.184H146.394H143.849V220.961H146.394H146.936H149.475V215.184H146.936Z" fill="#8EC7ED"/>
<path d="M148.81 209.315H148.268H145.729V215.092H148.268H148.81H151.355V209.315H148.81Z" fill="#8EC7ED"/>
<path d="M150.402 203.453H149.861H147.321V209.23H149.861H150.402H152.948V203.453H150.402Z" fill="#8EC7ED"/>
<path d="M166.226 202.128H136.773V204.041H166.226V202.128Z" fill="#6D6D6D"/>
<path d="M166.226 208.01H133.535V209.922H166.226V208.01Z" fill="#6D6D6D"/>
<path d="M166.219 213.885H129.097V215.797H166.219V213.885Z" fill="#6D6D6D"/>
<path d="M166.225 219.766H124.154V221.679H166.225V219.766Z" fill="#6D6D6D"/>
<path d="M171.141 187.983H163.693V227.593H171.141V187.983Z" fill="#DBDBDB"/>
<path d="M171.141 184.197H163.693V189.726H171.141V184.197Z" fill="#13D3BC"/>
<path d="M161.349 227.593H164.829V202.194H163.171V208.062H162.622V214.727H161.943V220.595H161.304L161.349 227.593Z" fill="#6D6D6D"/>
<path d="M184.751 222.508C185.306 221.875 185.573 221.052 185.501 220.23L185.299 217.893C185.214 216.881 184.62 215.974 183.726 215.464L183.465 215.314C183.125 215.125 182.962 214.727 183.073 214.361L183.752 212.129C184.033 211.202 183.987 210.203 183.615 209.302L183.347 208.65C183.086 208.016 182.61 207.494 181.996 207.168C181.735 207.031 181.565 206.77 181.552 206.476L180.984 203.662C180.612 202.155 180.377 201.613 179.476 201.012L179.189 200.816C178.053 200.059 177.453 200.431 176.291 201.149C175.136 201.861 174 203.258 174.189 204.576L174.62 206.6C174.659 206.854 174.574 207.109 174.391 207.292C173.621 208.075 173.177 209.113 173.145 210.197L173.112 211.274C173.092 212.064 173.243 212.847 173.562 213.571L173.81 214.133C173.921 214.387 173.895 214.681 173.745 214.91L173.68 215.014C172.211 216.763 172.453 219.838 172.694 220.752C172.968 221.796 174.672 223.696 176.337 224.349C178.184 225.08 180.208 225.347 182.009 224.531C183.047 224.061 183.987 223.376 184.751 222.501V222.508Z" fill="#369149"/>
<path d="M113.828 223.82L113.162 224.225C112.34 224.727 111.335 224.812 110.44 224.46L108.6 223.741C108.482 223.696 108.345 223.696 108.227 223.741L107.536 224.016C106.994 224.231 106.406 224.303 105.832 224.225L105.094 224.127C104.624 224.061 104.187 223.846 103.854 223.513L103.501 223.16C103.358 223.017 103.312 222.795 103.391 222.599L103.632 222.012C103.926 221.3 104.65 220.856 105.421 220.908C105.623 220.922 105.812 220.817 105.91 220.641L106.393 219.727C106.641 219.257 107.059 218.898 107.562 218.715L108.391 218.421C109.004 218.206 109.677 218.265 110.245 218.585L110.989 219.009C111.537 219.322 111.916 219.858 112.033 220.478L112.118 220.935C112.151 221.104 112.262 221.248 112.425 221.313L113.939 221.946C114.076 222.005 114.181 222.116 114.226 222.26L114.305 222.501C114.468 222.997 114.272 223.539 113.822 223.813L113.828 223.82Z" fill="#4BAA43"/>
<path d="M189.464 223.676C189.804 223.193 189.967 222.566 189.921 221.933L189.797 220.151C189.745 219.381 189.386 218.689 188.837 218.297L188.674 218.186C188.465 218.043 188.368 217.736 188.439 217.455L188.857 215.751C189.027 215.04 189.001 214.283 188.772 213.597L188.609 213.101C188.446 212.618 188.159 212.22 187.787 211.972C187.63 211.868 187.525 211.665 187.519 211.443L187.173 209.296C186.944 208.14 186.801 207.729 186.253 207.272L186.076 207.122C185.384 206.541 185.019 206.828 184.307 207.377C183.602 207.918 182.91 208.982 183.028 209.994L183.289 211.541C183.309 211.73 183.256 211.926 183.152 212.07C182.682 212.67 182.414 213.46 182.395 214.289L182.375 215.112C182.362 215.712 182.453 216.313 182.649 216.868L182.799 217.292C182.865 217.488 182.852 217.71 182.76 217.886L182.721 217.964C181.827 219.303 181.97 221.646 182.121 222.344C182.29 223.141 183.328 224.59 184.34 225.093C185.463 225.647 186.696 225.856 187.8 225.23C188.433 224.871 189.007 224.348 189.471 223.683L189.464 223.676Z" fill="#4BAA43"/>
<path d="M134.791 172.234V173.652H139.033V174.566H129.459V173.652H133.689V172.234H134.791ZM129.951 171.906C131.85 171.713 133.338 170.881 133.49 169.867H130.338V168.977H138.178V169.867H134.99C135.148 170.875 136.637 171.713 138.541 171.906L138.143 172.785C136.32 172.574 134.814 171.824 134.24 170.717C133.666 171.824 132.172 172.574 130.35 172.785L129.951 171.906ZM130.596 177.156C130.596 175.979 131.955 175.328 134.24 175.328C136.508 175.328 137.855 175.979 137.861 177.156C137.855 178.328 136.508 178.979 134.24 178.973C131.955 178.979 130.596 178.328 130.596 177.156ZM131.721 177.156C131.715 177.783 132.617 178.129 134.24 178.129C135.84 178.129 136.748 177.783 136.748 177.156C136.748 176.529 135.84 176.189 134.24 176.184C132.617 176.189 131.715 176.529 131.721 177.156ZM148.08 168.496V171.133H149.604V172.07H148.08V174.613H146.967V168.496H148.08ZM139.842 170.418V169.527H142.42V168.402H143.533V169.527H146.1V170.418H139.842ZM140.416 172.691C140.41 171.572 141.441 170.846 142.971 170.852C144.482 170.846 145.514 171.572 145.514 172.691C145.514 173.811 144.482 174.543 142.971 174.531C141.441 174.543 140.41 173.811 140.416 172.691ZM141.365 178.867V175.047H142.467V176.066H146.967V175.047H148.08V178.867H141.365ZM141.494 172.691C141.482 173.318 142.08 173.705 142.971 173.711C143.861 173.705 144.459 173.318 144.471 172.691C144.459 172.076 143.861 171.678 142.971 171.684C142.08 171.678 141.482 172.076 141.494 172.691ZM142.467 177.977H146.967V176.934H142.467V177.977ZM156.049 169.621V170.266C156.043 171.15 156.043 172.504 155.744 174.379L154.643 174.297C154.912 172.621 154.941 171.396 154.947 170.523H150.682V169.621H156.049ZM150.096 175.832C150.752 175.826 151.484 175.82 152.252 175.803V172.621H153.354V175.768C154.467 175.721 155.609 175.65 156.658 175.516L156.717 176.348C154.531 176.699 152.088 176.746 150.225 176.734L150.096 175.832ZM157.256 178.996V168.496H158.381V172.832H159.986V173.781H158.381V178.996H157.256ZM166.842 169.562V170.453H160.584V169.562H163.162V168.449H164.275V169.562H166.842ZM161.158 172.832C161.152 171.684 162.195 170.934 163.713 170.922C165.225 170.934 166.256 171.684 166.256 172.832C166.256 173.986 165.225 174.742 163.713 174.742C162.195 174.742 161.152 173.986 161.158 172.832ZM161.885 176.5V175.598H168.822V178.996H167.709V176.5H161.885ZM162.236 172.832C162.225 173.482 162.822 173.875 163.713 173.875C164.604 173.875 165.201 173.482 165.213 172.832C165.201 172.188 164.604 171.783 163.713 171.777C162.822 171.783 162.225 172.188 162.236 172.832ZM167.709 175.059V168.496H168.822V171.344H170.346V172.27H168.822V175.059H167.709ZM176.791 169.293V169.879C176.779 170.582 176.779 171.625 176.521 172.984L175.42 172.879C175.648 171.719 175.684 170.869 175.695 170.207H171.494V169.293H176.791ZM170.861 173.887C171.506 173.887 172.238 173.881 173.006 173.863V171.648H174.107V173.828C175.232 173.781 176.393 173.699 177.447 173.547L177.518 174.355C175.326 174.742 172.818 174.783 170.967 174.789L170.861 173.887ZM172.455 178.773V175.668H173.568V177.871H179.592V178.773H172.455ZM178.115 176.383V168.496H179.252V171.836H180.693V172.773H179.252V176.383H178.115Z" fill="white"/>
<path d="M46.5371 223.508V231.137H45.4238V223.508H46.5371ZM38.041 226.812C38.0469 225.295 39.2539 224.217 40.8418 224.211C42.4238 224.217 43.6309 225.295 43.6309 226.812C43.6309 228.354 42.4238 229.426 40.8418 229.426C39.2539 229.426 38.0469 228.354 38.041 226.812ZM39.1309 226.812C39.125 227.803 39.8633 228.453 40.8418 228.453C41.8027 228.453 42.541 227.803 42.541 226.812C42.541 225.846 41.8027 225.184 40.8418 225.184C39.8633 225.184 39.125 225.846 39.1309 226.812ZM39.6699 233.773V230.363H40.7949V232.871H46.8535V233.773H39.6699ZM57.7988 228.805V229.707H53.627V231.746H52.5254V229.707H48.1895V228.805H57.7988ZM49.3848 233.773V230.75H50.498V232.871H56.7324V233.773H49.3848ZM49.4199 227.715V223.988H56.5566V227.715H49.4199ZM50.5098 226.836H55.4551V224.867H50.5098V226.836ZM64.4199 224.293V224.879C64.4082 225.582 64.4082 226.625 64.1504 227.984L63.0488 227.879C63.2773 226.719 63.3125 225.869 63.3242 225.207H59.123V224.293H64.4199ZM58.4902 228.887C59.1348 228.887 59.8672 228.881 60.6348 228.863V226.648H61.7363V228.828C62.8613 228.781 64.0215 228.699 65.0762 228.547L65.1465 229.355C62.9551 229.742 60.4473 229.783 58.5957 229.789L58.4902 228.887ZM60.084 233.773V230.668H61.1973V232.871H67.2207V233.773H60.084ZM65.7441 231.383V223.496H66.8809V226.836H68.3223V227.773H66.8809V231.383H65.7441Z" fill="white"/>
<path d="M94.3613 165.504V166.629C94.3496 167.947 94.3496 169.33 93.9746 171.34L92.8848 171.223C93.2539 169.324 93.2539 167.918 93.248 166.629V166.406H86.8145V165.504H94.3613ZM85.8301 173.578V172.652H88.0918V169.254H89.2051V172.652H90.7168V169.254H91.8066V172.652H95.4043V173.578H85.8301ZM105.775 169.5V170.402H103.303V171.621H104.604V174.996H103.479V172.5H97.2676V171.621H98.6504V170.402H96.2012V169.5H105.775ZM97.2324 166.758C97.2266 165.486 98.6855 164.725 100.982 164.73C103.273 164.725 104.727 165.486 104.732 166.758C104.727 168.023 103.273 168.791 100.982 168.785C98.6855 168.791 97.2266 168.023 97.2324 166.758ZM98.3809 166.758C98.375 167.49 99.3652 167.918 100.982 167.918C102.588 167.918 103.59 167.49 103.584 166.758C103.59 166.031 102.588 165.604 100.982 165.609C99.3652 165.604 98.375 166.031 98.3809 166.758ZM99.7637 171.621H102.213V170.402H99.7637V171.621ZM112.42 165.293V165.879C112.408 166.582 112.408 167.625 112.15 168.984L111.049 168.879C111.277 167.719 111.312 166.869 111.324 166.207H107.123V165.293H112.42ZM106.49 169.887C107.135 169.887 107.867 169.881 108.635 169.863V167.648H109.736V169.828C110.861 169.781 112.021 169.699 113.076 169.547L113.146 170.355C110.955 170.742 108.447 170.783 106.596 170.789L106.49 169.887ZM108.084 174.773V171.668H109.197V173.871H115.221V174.773H108.084ZM113.744 172.383V164.496H114.881V167.836H116.322V168.773H114.881V172.383H113.744Z" fill="white"/>
<path d="M103.742 92.6719V93.5508H99.4531V96.9961H98.3633V93.5508H94.1328V92.6719H103.742ZM95.3281 91.4766V86.918H96.4297V88.2891H101.422V86.918H102.535V91.4766H95.3281ZM96.4297 90.5859H101.422V89.1797H96.4297V90.5859ZM114.113 91.7109V92.625H104.516V91.7109H108.746V90.1758H109.848V91.7109H114.113ZM105.066 89.8711C107.076 89.6133 108.729 88.4297 108.734 87.1055V86.6602H109.859V87.1055C109.854 88.4473 111.5 89.6133 113.527 89.8711L113.094 90.75C111.43 90.4805 109.959 89.6719 109.291 88.5117C108.623 89.6719 107.152 90.4805 105.477 90.75L105.066 89.8711ZM105.582 94.4297V93.5508H112.918V96.9961H111.793V94.4297H105.582ZM123.582 86.4961V97.0195H122.469V86.4961H123.582ZM115.25 90.9609C115.25 88.7168 116.381 87.2871 117.969 87.2812C119.527 87.2871 120.676 88.7168 120.676 90.9609C120.676 93.2285 119.527 94.6582 117.969 94.6523C116.381 94.6582 115.25 93.2285 115.25 90.9609ZM116.328 90.9609C116.322 92.6309 116.99 93.6562 117.969 93.6562C118.93 93.6562 119.598 92.6309 119.598 90.9609C119.598 89.3145 118.93 88.2832 117.969 88.2773C116.99 88.2832 116.322 89.3145 116.328 90.9609ZM133.484 86.4961V90.8906H135.066V91.8281H133.484V96.9961H132.371V86.4961H133.484ZM125.129 94.1367C125.955 94.1367 126.916 94.1367 127.918 94.1074V93.041C126.734 92.8652 125.961 92.1504 125.973 91.1367C125.961 89.9531 126.986 89.1738 128.48 89.168C129.969 89.1738 131.006 89.9531 131.012 91.1367C131.006 92.1504 130.221 92.8711 129.031 93.041V94.0664C129.963 94.0195 130.9 93.9434 131.773 93.8203L131.844 94.6406C129.57 95.0449 127.115 95.0684 125.305 95.0625L125.129 94.1367ZM125.328 88.6289V87.7383H127.918V86.5195H129.031V87.7383H131.621V88.6289H125.328ZM127.016 91.1367C127.016 91.8047 127.602 92.2207 128.48 92.2148C129.359 92.2207 129.939 91.8047 129.945 91.1367C129.939 90.4629 129.359 90.0352 128.48 90.0352C127.602 90.0352 127.016 90.4629 127.016 91.1367ZM92.1641 103.023V103.82C92.1699 104.641 92.1699 105.59 91.8945 106.855H93.3828V107.77H83.7734V106.855H90.7695C91.0508 105.631 91.0625 104.734 91.0625 103.938H84.9805V103.023H92.1641ZM84.9453 112.867V109.105H92.1758V112.867H84.9453ZM86.0352 111.965H91.0742V109.984H86.0352V111.965ZM102.395 102.508V105.66H103.93V106.598H102.395V110.23H101.281V102.508H102.395ZM94.5664 104.09V103.176H99.3477V106.27H95.6914V107.734C97.5137 107.734 98.8027 107.658 100.332 107.395L100.449 108.309C98.8262 108.59 97.4375 108.643 95.4219 108.648H94.5781V105.414H98.2578V104.09H94.5664ZM95.7969 112.773V109.633H96.9219V111.871H102.863V112.773H95.7969ZM113.012 103.504V104.535C113.006 105.83 113.006 107.283 112.613 109.434L111.488 109.316C111.893 107.283 111.893 105.795 111.898 104.535V104.406H105.523V103.504H113.012ZM104.516 111.578V110.652H108.16V106.949H109.262V110.652H114.09V111.578H104.516ZM124.473 107.43V108.344H114.887V107.43H124.473ZM116.023 111.074C116.023 109.855 117.389 109.164 119.668 109.164C121.93 109.164 123.283 109.855 123.289 111.074C123.283 112.293 121.93 112.979 119.668 112.973C117.389 112.979 116.023 112.293 116.023 111.074ZM116.082 106.516V102.871H123.289V103.785H117.184V105.613H123.359V106.516H116.082ZM117.148 111.074C117.143 111.748 118.062 112.111 119.668 112.117C121.25 112.111 122.176 111.748 122.176 111.074C122.176 110.406 121.25 110.031 119.668 110.02C118.062 110.031 117.143 110.406 117.148 111.074ZM131.527 103.562V104.453H125.27V103.562H127.848V102.449H128.961V103.562H131.527ZM125.844 106.832C125.838 105.684 126.881 104.934 128.398 104.922C129.91 104.934 130.941 105.684 130.941 106.832C130.941 107.986 129.91 108.742 128.398 108.742C126.881 108.742 125.838 107.986 125.844 106.832ZM126.57 110.5V109.598H133.508V112.996H132.395V110.5H126.57ZM126.922 106.832C126.91 107.482 127.508 107.875 128.398 107.875C129.289 107.875 129.887 107.482 129.898 106.832C129.887 106.188 129.289 105.783 128.398 105.777C127.508 105.783 126.91 106.188 126.922 106.832ZM132.395 109.059V102.496H133.508V105.344H135.031V106.27H133.508V109.059H132.395ZM144.16 103.504V104.629C144.148 105.947 144.148 107.33 143.773 109.34L142.684 109.223C143.053 107.324 143.053 105.918 143.047 104.629V104.406H136.613V103.504H144.16ZM135.629 111.578V110.652H137.891V107.254H139.004V110.652H140.516V107.254H141.605V110.652H145.203V111.578H135.629Z" fill="white"/>
<path d="M225.271 72.2812C226.842 72.2871 227.961 73.7168 227.967 75.9609C227.961 78.2285 226.842 79.6582 225.271 79.6523C223.701 79.6582 222.582 78.2285 222.588 75.9609C222.582 73.7168 223.701 72.2871 225.271 72.2812ZM223.654 75.9609C223.648 77.6309 224.316 78.6562 225.271 78.6562C226.244 78.6562 226.9 77.6309 226.9 75.9609C226.9 74.3145 226.244 73.2832 225.271 73.2773C224.316 73.2832 223.648 74.3145 223.654 75.9609ZM229.525 81.9961V71.4961H230.639V75.6094H232.326V76.5469H230.639V81.9961H229.525ZM236.475 73.418C236.475 74.8242 237.453 76.1484 239.053 76.6875L238.479 77.5664C237.301 77.1562 236.422 76.3184 235.959 75.2578C235.502 76.4414 234.6 77.3555 233.369 77.8125L232.748 76.9336C234.412 76.3652 235.367 74.9473 235.373 73.3828V72.1406H236.475V73.418ZM234.436 81.7734V78.4805H235.572V80.8711H241.537V81.7734H234.436ZM239.967 79.2305V71.4844H241.08V74.6484H242.604V75.5977H241.08V79.2305H239.967ZM247.936 78.0938C250.209 78.0938 251.645 78.8145 251.65 80.0391C251.645 81.2578 250.209 81.9785 247.936 81.9727C245.686 81.9785 244.244 81.2578 244.244 80.0391C244.244 78.8145 245.686 78.0938 247.936 78.0938ZM243.213 77.2266V76.3242H247.045V74.3555H248.135V76.3242H252.764V77.2266H243.213ZM244.326 72.9023V72.0117H251.568V72.8906C251.574 73.7285 251.574 74.5957 251.275 75.6797L250.186 75.5625C250.467 74.4902 250.467 73.7168 250.467 72.9023H244.326ZM245.357 80.0391C245.346 80.7188 246.348 81.1113 247.936 81.1172C249.541 81.1113 250.537 80.7188 250.549 80.0391C250.537 79.3477 249.541 78.9434 247.936 78.9375C246.348 78.9434 245.346 79.3477 245.357 80.0391ZM259.842 72.5625V73.4531H253.584V72.5625H256.162V71.4492H257.275V72.5625H259.842ZM254.158 75.832C254.152 74.6836 255.195 73.9336 256.713 73.9219C258.225 73.9336 259.256 74.6836 259.256 75.832C259.256 76.9863 258.225 77.7422 256.713 77.7422C255.195 77.7422 254.152 76.9863 254.158 75.832ZM254.885 79.5V78.5977H261.822V81.9961H260.709V79.5H254.885ZM255.236 75.832C255.225 76.4824 255.822 76.875 256.713 76.875C257.604 76.875 258.201 76.4824 258.213 75.832C258.201 75.1875 257.604 74.7832 256.713 74.7773C255.822 74.7832 255.225 75.1875 255.236 75.832ZM260.709 78.0586V71.4961H261.822V74.3438H263.346V75.2695H261.822V78.0586H260.709ZM269.791 72.293V72.8789C269.779 73.582 269.779 74.625 269.521 75.9844L268.42 75.8789C268.648 74.7188 268.684 73.8691 268.695 73.207H264.494V72.293H269.791ZM263.861 76.8867C264.506 76.8867 265.238 76.8809 266.006 76.8633V74.6484H267.107V76.8281C268.232 76.7812 269.393 76.6992 270.447 76.5469L270.518 77.3555C268.326 77.7422 265.818 77.7832 263.967 77.7891L263.861 76.8867ZM265.455 81.7734V78.668H266.568V80.8711H272.592V81.7734H265.455ZM271.115 79.3828V71.4961H272.252V74.8359H273.693V75.7734H272.252V79.3828H271.115Z" fill="#151515"/>
<path d="M160.352 21.5078V29.1953H159.238V21.5078H160.352ZM151.703 26.8281C153.35 26.2188 154.322 24.707 154.328 23.125V22.082H155.465V23.125C155.459 24.6602 156.432 26.0664 158.055 26.6289L157.48 27.5195C156.268 27.0684 155.371 26.1777 154.902 25.041C154.439 26.2598 153.531 27.2324 152.301 27.707L151.703 26.8281ZM153.484 31.7734V28.4688H154.609V30.8711H160.668V31.7734H153.484ZM166.75 28.0938C169.023 28.0938 170.459 28.8145 170.465 30.0391C170.459 31.2578 169.023 31.9785 166.75 31.9727C164.5 31.9785 163.059 31.2578 163.059 30.0391C163.059 28.8145 164.5 28.0938 166.75 28.0938ZM162.027 27.2266V26.3242H165.859V24.3555H166.949V26.3242H171.578V27.2266H162.027ZM163.141 22.9023V22.0117H170.383V22.8906C170.389 23.7285 170.389 24.5957 170.09 25.6797L169 25.5625C169.281 24.4902 169.281 23.7168 169.281 22.9023H163.141ZM164.172 30.0391C164.16 30.7188 165.162 31.1113 166.75 31.1172C168.355 31.1113 169.352 30.7188 169.363 30.0391C169.352 29.3477 168.355 28.9434 166.75 28.9375C165.162 28.9434 164.16 29.3477 164.172 30.0391ZM178.656 22.5625V23.4531H172.398V22.5625H174.977V21.4492H176.09V22.5625H178.656ZM172.973 25.832C172.967 24.6836 174.01 23.9336 175.527 23.9219C177.039 23.9336 178.07 24.6836 178.07 25.832C178.07 26.9863 177.039 27.7422 175.527 27.7422C174.01 27.7422 172.967 26.9863 172.973 25.832ZM173.699 29.5V28.5977H180.637V31.9961H179.523V29.5H173.699ZM174.051 25.832C174.039 26.4824 174.637 26.875 175.527 26.875C176.418 26.875 177.016 26.4824 177.027 25.832C177.016 25.1875 176.418 24.7832 175.527 24.7773C174.637 24.7832 174.039 25.1875 174.051 25.832ZM179.523 28.0586V21.4961H180.637V24.3438H182.16V25.2695H180.637V28.0586H179.523ZM188.605 22.293V22.8789C188.594 23.582 188.594 24.625 188.336 25.9844L187.234 25.8789C187.463 24.7188 187.498 23.8691 187.51 23.207H183.309V22.293H188.605ZM182.676 26.8867C183.32 26.8867 184.053 26.8809 184.82 26.8633V24.6484H185.922V26.8281C187.047 26.7812 188.207 26.6992 189.262 26.5469L189.332 27.3555C187.141 27.7422 184.633 27.7832 182.781 27.7891L182.676 26.8867ZM184.27 31.7734V28.668H185.383V30.8711H191.406V31.7734H184.27ZM189.93 29.3828V21.4961H191.066V24.8359H192.508V25.7734H191.066V29.3828H189.93Z" fill="white"/>
</svg>
