<svg width="186" height="375" viewBox="0 0 186 375" fill="none" xmlns="http://www.w3.org/2000/svg">
<path d="M114.514 0L90.3622 28.0689L57.0712 25.4578L21.1691 104.442L53.5267 124.443L0 239.329L1.30553 275.884L26.7633 286.981L71.1513 264.787L92.0398 297.426L92.6925 341.161L136.056 374.034L177.833 350.534L183.707 281.994L155.985 245.635L173.263 224.551L185.013 137.733L170.652 3.26382L114.514 0Z" fill="#369149"/>
<path d="M102.497 311.245V333.909C102.497 336.076 105.01 337.277 106.694 335.912L113.594 330.338C117.243 327.394 119.077 322.753 118.437 318.112L117.426 310.781C117.099 308.392 115.108 306.584 112.706 306.473L107.719 306.244C104.873 306.114 102.497 308.385 102.497 311.238V311.245Z" fill="#4BAA43"/>
<path d="M80.8903 258.619L87.1111 270.277C90.1596 275.995 97.9536 276.981 102.334 272.203L106.583 267.568C107.249 266.843 107.308 265.753 106.733 264.957L83.4557 232.815C82.346 231.281 79.9307 231.921 79.7284 233.807L78.4229 245.857C77.9463 250.263 78.808 254.702 80.8903 258.612V258.619Z" fill="#4BAA43"/>
<path d="M13.4726 239.989L10.4438 261.21C10.0652 263.841 11.5078 266.4 13.9491 267.451L18.871 269.559C21.8476 270.832 25.2028 270.904 28.2316 269.755L63.383 256.386C67.417 254.852 70.3741 251.353 71.2227 247.124L84.7414 179.543C86.9347 168.563 92.9858 158.733 101.792 151.826L115.075 141.408C118.946 138.373 120.683 133.353 119.521 128.575L95.7274 54.6821C94.67 50.3282 91.3669 46.875 87.0652 45.6152L78.514 43.1151C72.1757 41.2613 65.4849 44.6361 63.2198 50.8438L44.6747 100.017C42.6251 105.63 44.8118 111.91 49.9099 115.024L58.4481 120.239C61.9926 122.406 63.3764 126.865 61.6858 130.657L14.4387 236.66C13.9687 237.717 13.6423 238.84 13.4791 239.989H13.4726Z" fill="#4BAA43"/>
<path d="M83.2731 219.766L91.2303 182.063C93.4627 171.501 99.0373 161.944 107.125 154.803L122.008 141.67C125.611 138.491 126.969 133.464 125.461 128.902L99.1418 49.3818C97.9733 45.8568 98.6457 41.9794 100.924 39.042L115.944 19.7267C121.003 13.2252 129.998 11.293 137.276 15.1378L150.031 21.8743C155.782 24.9096 159.542 30.7127 159.966 37.2012L165.254 117.485C166.05 129.613 165.136 141.794 162.532 153.667L148.856 215.974C145.677 230.459 130.847 239.173 116.642 234.897L86.9351 225.954C84.2849 225.158 82.6921 222.469 83.26 219.76L83.2731 219.766Z" fill="#4BAA43"/>
<path d="M129.998 292.752L131.317 288.502C136.252 290.721 141.435 292.353 146.774 293.071L149.653 283.554C149.653 283.554 123.771 281.198 96.2048 246.183L88.2803 251.667C88.2803 251.667 103.235 272.614 124.248 284.853L121.976 292.177C114.985 291.988 107.478 292.588 99.6318 294.403L102.021 303.986C102.021 303.986 131.859 294.736 163.087 315.54L168.557 305.728C168.557 305.728 152.943 295.382 129.998 292.745V292.752Z" fill="#DBDBDB"/>
<path d="M163.577 322.336L142.045 312.924L138.123 321.896L159.656 331.307L163.577 322.336Z" fill="#DBDBDB"/>
<path d="M107.315 35.1121L98.8418 54.0226L118.177 62.6848L121.068 56.2355L137.825 63.7423L134.933 70.1916L153.413 78.4687L161.879 59.5646L107.315 35.1121Z" fill="#DBDBDB"/>
<path d="M87.3321 74.1651L64.3299 70.1919L58.6412 103.126L81.6435 107.099L87.3321 74.1651Z" fill="#DBDBDB"/>
<path d="M158.466 102.156L131.318 98.8801L129.456 114.317L156.603 117.593L158.466 102.156Z" fill="#DBDBDB"/>
<path d="M158.17 89.6873L153.396 88.9976L152.015 98.5528L156.79 99.2425L158.17 89.6873Z" fill="#DBDBDB"/>
<path d="M134.896 93.7854L130.121 93.0957L129.661 96.2808L134.435 96.9705L134.896 93.7854Z" fill="#DBDBDB"/>
<path d="M120.292 229.251C120.135 229.251 119.972 229.238 119.815 229.205L94.9904 224.59L82.1506 223.206C80.8254 223.063 79.8202 221.946 79.8202 220.608V210.314L72.4374 209.485C71.1188 209.335 70.1201 208.219 70.1201 206.894V205.033C70.1201 203.982 70.7533 203.029 71.7259 202.625L79.8267 199.237V179.739C79.8267 178.374 80.8842 177.239 82.2485 177.134L95.1862 176.181C95.2515 176.181 95.3168 176.175 95.3756 176.175C95.9761 176.175 96.557 176.383 97.027 176.762L103.79 182.278C104.332 182.722 104.671 183.355 104.736 184.047H107.282C107.954 184.047 108.601 184.308 109.084 184.771L112.465 188.009C113.046 188.564 113.333 189.347 113.261 190.15L113.183 190.94L114.253 190.966C115.2 190.992 116.022 191.515 116.46 192.285C116.793 191.586 117.426 191.038 118.235 190.855L124.3 189.458C124.495 189.413 124.691 189.393 124.887 189.393C125.161 189.393 125.429 189.439 125.696 189.524L127.544 190.124C127.89 189.165 128.771 188.486 129.809 188.407L134.874 188.035C135.227 187.2 136.004 186.58 136.95 186.462L147.975 185.065C148.086 185.052 148.191 185.046 148.302 185.046C148.432 185.046 148.556 185.052 148.687 185.072L156.624 186.247C157.904 186.436 158.85 187.533 158.85 188.832V222.057C158.85 223.265 158.021 224.316 156.846 224.597L149.072 226.457L144.672 227.704C144.437 227.769 144.202 227.802 143.961 227.802C143.863 227.802 143.758 227.802 143.661 227.782L136.356 226.94L120.67 229.244C120.546 229.264 120.416 229.27 120.292 229.27V229.251ZM116.904 201.182L117.713 201.169L116.845 196.821L116.904 201.182Z" fill="white"/>
<path d="M123.379 203.708L112.354 203.852L92.066 217.234L95.3755 222.012L120.292 226.64L136.323 224.29L143.967 225.171L148.413 223.911L151.611 220.465L123.379 203.708Z" fill="#A6A6A6"/>
<path d="M108.164 193.414L114.195 193.558L114.339 204.439L107.211 207.599L108.164 193.414Z" fill="#F0F0F0"/>
<path d="M95.8133 186.652H107.282L104.932 213.408L97.1384 213.265L95.8133 186.652Z" fill="#F0F0F0"/>
<path d="M124.888 191.978L126.467 206.489L125.88 217.482L133.086 217.057L131.396 194.093L124.888 191.978Z" fill="#F0F0F0"/>
<path d="M140.658 191.397L135.658 190.575L133.601 204.622L136.983 219.172L145.214 217.684L140.658 191.397Z" fill="#F0F0F0"/>
<path d="M129.998 190.986L135.658 190.575L133.601 204.622L136.983 219.172L130.951 218.343L127.276 202.971L129.998 190.986Z" fill="#DBDBDB"/>
<path d="M148.412 223.911L137.276 220.785V189.028L148.301 187.631L148.412 223.911Z" fill="#DBDBDB"/>
<path d="M148.302 187.631L156.246 188.806V222.038L148.413 223.911L148.302 187.631Z" fill="#F0F0F0"/>
<path d="M102.138 216.202L95.3757 222.012V178.786L102.138 184.295V216.202Z" fill="#DBDBDB"/>
<path d="M95.3758 178.786L82.4314 179.739V220.615L95.3758 222.012V178.786Z" fill="#F0F0F0"/>
<path d="M107.282 186.652L110.664 189.883L108.901 208.115L104.932 213.408L107.282 186.652Z" fill="#DBDBDB"/>
<path d="M72.7313 205.027L95.3757 203.512L106.107 201.743L110.703 199.844L112.282 200.914V202.775L106.401 204.394L105.226 207.187L96.8444 207.037L93.6067 209.244L72.7313 206.894V205.027Z" fill="#0D725F"/>
<path d="M82.5815 200.914L95.3757 201.645L101.845 199.883H106.107L109.632 199.002L110.076 196.795L111.838 197.827L112.282 200.914L106.401 202.527L105.226 205.321L96.8444 205.177L93.6067 207.383L72.7313 205.027L82.5815 200.914Z" fill="#13D3BC"/>
<path d="M140.39 196.959L138.229 196.946L138.268 191.665L140.423 191.534L140.39 196.959Z" fill="#8EC7ED"/>
<path d="M143.458 196.965L141.141 196.959L141.173 191.489L143.49 191.352L143.458 196.965Z" fill="#8EC7ED"/>
<path d="M147.022 196.978L144.515 196.972L144.548 191.286L147.054 191.136L147.022 196.978Z" fill="#8EC7ED"/>
<path d="M140.345 205.197L138.184 204.975L138.217 199.687L140.378 199.766L140.345 205.197Z" fill="#8EC7ED"/>
<path d="M143.406 205.503L141.089 205.268L141.121 199.792L143.439 199.877L143.406 205.503Z" fill="#8EC7ED"/>
<path d="M146.977 205.862L144.464 205.614L144.496 199.916L147.003 200.007L146.977 205.862Z" fill="#8EC7ED"/>
<path d="M140.292 213.643L138.132 213.213L138.164 207.912L140.325 208.206L140.292 213.643Z" fill="#8EC7ED"/>
<path d="M143.36 214.257L141.043 213.793L141.075 208.304L143.393 208.624L143.36 214.257Z" fill="#8EC7ED"/>
<path d="M146.924 214.975L144.418 214.472L144.45 208.767L146.957 209.107L146.924 214.975Z" fill="#8EC7ED"/>
<path d="M100.656 190.15L101.557 190.196V186.717L100.656 186.279V190.15Z" fill="#8EC7ED"/>
<path d="M99.0897 190.065L100.31 190.131V186.11L99.0897 185.516V190.065Z" fill="#8EC7ED"/>
<path d="M96.6482 189.941L98.4498 190.033L98.4433 185.202L96.6286 184.314L96.6482 189.941Z" fill="#8EC7ED"/>
<path d="M129.639 195.183L131.369 195.066L130.684 198.578L129.013 198.401L129.639 195.183Z" fill="#8EC7ED"/>
<path d="M132.29 195.111L134.235 194.981L133.465 198.871L131.585 198.676L132.29 195.111Z" fill="#8EC7ED"/>
<path d="M137.968 221.046C138.243 220.726 138.406 220.295 138.419 219.838L138.445 218.565C138.458 218.01 138.243 217.495 137.87 217.188L137.759 217.097C137.616 216.979 137.57 216.757 137.635 216.561L138.053 215.38C138.223 214.89 138.256 214.348 138.138 213.846L138.053 213.48C137.968 213.128 137.786 212.821 137.531 212.625C137.42 212.54 137.361 212.39 137.368 212.233L137.257 210.686C137.172 209.851 137.094 209.551 136.722 209.185L136.604 209.068C136.141 208.611 135.853 208.787 135.299 209.126C134.75 209.466 134.176 210.171 134.195 210.895L134.287 212.012C134.287 212.149 134.241 212.286 134.15 212.377C133.771 212.769 133.517 213.311 133.451 213.898L133.386 214.479C133.334 214.903 133.366 215.341 133.471 215.745L133.549 216.059C133.588 216.202 133.562 216.359 133.477 216.476L133.445 216.529C132.707 217.416 132.655 219.094 132.714 219.597C132.785 220.171 133.438 221.274 134.15 221.699C134.933 222.169 135.814 222.404 136.656 222.031C137.139 221.823 137.596 221.49 137.975 221.046H137.968Z" fill="#4BAA43"/>
<path d="M117.909 210.843C117.654 210.621 117.511 210.314 117.511 209.988V209.074C117.511 208.682 117.726 208.304 118.078 208.075L118.183 208.01C118.32 207.925 118.372 207.762 118.313 207.625L117.948 206.789C117.798 206.443 117.778 206.052 117.902 205.693L117.994 205.432C118.078 205.177 118.261 204.955 118.503 204.805C118.607 204.74 118.666 204.635 118.659 204.518L118.796 203.408C118.894 202.807 118.973 202.592 119.332 202.324L119.443 202.239C119.887 201.9 120.154 202.024 120.663 202.253C121.173 202.481 121.695 202.977 121.662 203.493L121.558 204.289C121.558 204.387 121.597 204.485 121.675 204.544C122.028 204.818 122.25 205.197 122.302 205.621L122.354 206.039C122.393 206.345 122.354 206.652 122.25 206.946L122.165 207.174C122.126 207.279 122.145 207.39 122.224 207.475L122.256 207.514C122.935 208.134 122.942 209.329 122.876 209.694C122.798 210.105 122.158 210.908 121.486 211.228C120.742 211.581 119.906 211.763 119.123 211.522C118.672 211.378 118.255 211.15 117.902 210.843H117.909Z" fill="#4BAA43"/>
<path d="M92.0331 202.057L92.4704 202.325C93.0057 202.651 93.6715 202.71 94.2525 202.481L95.4601 202.011C95.5384 201.979 95.6298 201.979 95.7081 202.011L96.1586 202.187C96.5111 202.325 96.8962 202.377 97.2748 202.325L97.7578 202.259C98.0646 202.22 98.3518 202.077 98.5738 201.855L98.8022 201.626C98.9002 201.528 98.9263 201.385 98.874 201.261L98.7108 200.875C98.515 200.405 98.045 200.118 97.5359 200.151C97.4053 200.157 97.2748 200.092 97.216 199.975L96.8962 199.374C96.733 199.067 96.4588 198.832 96.1259 198.715L95.5841 198.525C95.1859 198.382 94.742 198.421 94.37 198.636L93.8804 198.917C93.5214 199.119 93.2733 199.472 93.195 199.877L93.1363 200.177C93.1167 200.288 93.0383 200.379 92.9339 200.425L91.9417 200.843C91.8503 200.882 91.785 200.954 91.7524 201.045L91.7002 201.202C91.5892 201.528 91.7197 201.881 92.0135 202.063L92.0331 202.057Z" fill="#4BAA43"/>
<path d="M118.823 193.381L124.887 191.978L126.467 206.489L125.879 217.482L119.783 213.369L121.251 205.542L118.823 193.381Z" fill="#DBDBDB"/>
<path d="M124.076 122.035V123.57H126.701V122.035H127.803V124.016H130.1V121.496H131.213V127.227H130.1V124.941H127.803V126.875H122.963V122.035H124.076ZM124.076 125.973H126.701V124.438H124.076V125.973ZM124.369 131.844V127.719H125.471V128.902H130.1V127.719H131.201V131.844H124.369ZM125.471 130.941H130.1V129.77H125.471V130.941ZM141.537 121.508V129.137H140.424V121.508H141.537ZM133.041 124.812C133.047 123.295 134.254 122.217 135.842 122.211C137.424 122.217 138.631 123.295 138.631 124.812C138.631 126.354 137.424 127.426 135.842 127.426C134.254 127.426 133.047 126.354 133.041 124.812ZM134.131 124.812C134.125 125.803 134.863 126.453 135.842 126.453C136.803 126.453 137.541 125.803 137.541 124.812C137.541 123.846 136.803 123.184 135.842 123.184C134.863 123.184 134.125 123.846 134.131 124.812ZM134.67 131.773V128.363H135.795V130.871H141.854V131.773H134.67ZM152.154 121.496V128.117H151.1V125.188H149.881V127.754H148.838V121.695H149.881V124.273H151.1V121.496H152.154ZM143.143 123.57V122.691H145.264V121.578H146.365V122.691H148.451V123.57H143.143ZM143.553 125.867C143.553 124.777 144.49 124.062 145.803 124.062C147.145 124.062 148.076 124.777 148.076 125.867C148.076 126.957 147.145 127.672 145.803 127.672C144.49 127.672 143.553 126.957 143.553 125.867ZM144.549 125.867C144.549 126.465 145.059 126.857 145.803 126.863C146.559 126.857 147.074 126.465 147.068 125.867C147.074 125.27 146.559 124.877 145.803 124.883C145.059 124.877 144.549 125.27 144.549 125.867ZM145.088 130.133C145.076 128.943 146.412 128.27 148.639 128.27C150.871 128.27 152.207 128.943 152.213 130.133C152.207 131.311 150.871 131.979 148.639 131.973C146.412 131.979 145.076 131.311 145.088 130.133ZM146.189 130.133C146.178 130.766 147.08 131.129 148.639 131.117C150.203 131.129 151.094 130.766 151.1 130.133C151.094 129.471 150.203 129.119 148.639 129.125C147.08 129.119 146.178 129.471 146.189 130.133ZM162.326 121.496V127.742H161.213V125.082H159.256V124.168H161.213V121.496H162.326ZM153.572 126.793C155.201 126.225 156.203 124.807 156.197 123.359V123.125H153.924V122.223H159.584V123.125H157.334V123.348C157.328 124.678 158.277 125.973 159.865 126.512L159.291 127.391C158.113 126.986 157.246 126.143 156.789 125.105C156.332 126.277 155.412 127.221 154.158 127.684L153.572 126.793ZM155.26 130.016C155.254 128.768 156.602 128.041 158.811 128.035C161.008 128.041 162.355 128.768 162.361 130.016C162.355 131.264 161.008 131.99 158.811 131.996C156.602 131.99 155.254 131.264 155.26 130.016ZM156.361 130.016C156.355 130.725 157.27 131.129 158.811 131.117C160.34 131.129 161.254 130.725 161.26 130.016C161.254 129.301 160.34 128.896 158.811 128.902C157.27 128.896 156.355 129.301 156.361 130.016ZM173.529 126.605V127.496H163.943V126.605H168.197V125.492H165.139V121.977H172.346V122.855H166.24V124.602H172.416V125.492H169.275V126.605H173.529ZM165.08 130.086C165.08 128.867 166.445 128.182 168.725 128.176C170.986 128.182 172.34 128.867 172.346 130.086C172.34 131.305 170.986 131.99 168.725 131.996C166.445 131.99 165.08 131.305 165.08 130.086ZM166.205 130.086C166.199 130.76 167.119 131.129 168.725 131.117C170.307 131.129 171.232 130.76 171.232 130.086C171.232 129.424 170.307 129.043 168.725 129.043C167.119 129.043 166.199 129.424 166.205 130.086Z" fill="white"/>
<path d="M26.248 222V213.516H31.5684V214.629H27.5371V217.195H31.2871V218.297H27.5371V220.887H31.6152V222H26.248ZM36.7949 217.219V218.297H33.0332V217.219H36.7949ZM38.4121 222V213.516H39.7012V217.195H43.9199V213.516H45.209V222H43.9199V218.297H39.7012V222H38.4121ZM49.5332 222.129C47.7285 222.129 46.5508 220.816 46.5566 218.848C46.5508 216.867 47.7285 215.555 49.5332 215.555C51.3262 215.555 52.498 216.867 52.498 218.848C52.498 220.816 51.3262 222.129 49.5332 222.129ZM47.8105 218.848C47.8105 220.061 48.3672 221.086 49.5332 221.086C50.6816 221.086 51.2324 220.061 51.2324 218.848C51.2324 217.629 50.6816 216.592 49.5332 216.586C48.3672 216.592 47.8105 217.629 47.8105 218.848ZM57.7715 219.352V215.637H59.0137V222H57.7949V220.898H57.7246C57.4316 221.578 56.7812 222.082 55.8262 222.082C54.5957 222.082 53.7285 221.256 53.7285 219.68V215.637H54.9824V219.527C54.9824 220.395 55.5098 220.945 56.2715 220.945C56.9688 220.945 57.7715 220.436 57.7715 219.352ZM64.1113 217.371C63.9941 216.867 63.5957 216.539 62.9043 216.539C62.1895 216.539 61.6797 216.908 61.6855 217.395C61.6797 217.77 61.9785 218.039 62.6816 218.203L63.6895 218.438C64.8613 218.701 65.4297 219.258 65.4355 220.16C65.4297 221.309 64.457 222.129 62.834 222.129C61.3047 222.129 60.4023 221.449 60.2441 220.266H61.5215C61.6328 220.84 62.0664 221.127 62.8223 221.121C63.6309 221.127 64.1523 220.787 64.1582 220.254C64.1523 219.844 63.8477 219.58 63.1738 219.422L62.1777 219.211C61.0293 218.959 60.4316 218.344 60.4316 217.465C60.4316 216.334 61.416 215.555 62.8926 215.555C64.3105 215.555 65.1953 216.275 65.3184 217.371H64.1113ZM69.3965 222.129C67.5215 222.129 66.3672 220.834 66.373 218.859C66.3672 216.902 67.5391 215.555 69.3145 215.555C70.7617 215.555 72.1387 216.451 72.1387 218.754V219.199H67.6152C67.6504 220.412 68.3652 221.098 69.4082 221.098C70.1172 221.098 70.5801 220.793 70.791 220.406H72.0566C71.7754 221.438 70.7969 222.129 69.3965 222.129ZM67.6211 218.262H70.9082C70.9082 217.295 70.2812 216.58 69.3262 216.586C68.3242 216.58 67.6738 217.365 67.6211 218.262Z" fill="white"/>
<path d="M127.895 257.508V260.883H129.418V261.809H127.895V265.359H126.781V257.508H127.895ZM119.656 259.629V258.727H122.234V257.496H123.348V258.727H125.914V259.629H119.656ZM120.23 262.113C120.225 260.912 121.262 260.127 122.785 260.133C124.291 260.127 125.328 260.912 125.328 262.113C125.328 263.303 124.291 264.076 122.785 264.082C121.262 264.076 120.225 263.303 120.23 262.113ZM121.238 267.773V264.738H122.352V266.871H128.34V267.773H121.238ZM121.309 262.113C121.297 262.799 121.895 263.221 122.785 263.215C123.676 263.221 124.273 262.799 124.285 262.113C124.273 261.422 123.676 260.994 122.785 260.988C121.895 260.994 121.297 261.422 121.309 262.113ZM139.613 263.461V264.387H135.324V267.996H134.234V264.387H130.004V263.461H139.613ZM131.047 260.227C131.053 258.797 132.564 257.895 134.785 257.895C137.006 257.895 138.529 258.797 138.523 260.227C138.529 261.639 137.006 262.535 134.785 262.535C132.564 262.535 131.053 261.639 131.047 260.227ZM132.195 260.227C132.189 261.1 133.227 261.645 134.785 261.645C136.35 261.645 137.381 261.1 137.387 260.227C137.381 259.342 136.35 258.791 134.785 258.785C133.227 258.791 132.189 259.342 132.195 260.227ZM149.105 257.496V268.02H147.992V257.496H149.105ZM140.973 259.348V258.445H145.895V262.277H142.121V264.574C143.826 264.568 145.309 264.486 147.066 264.199L147.172 265.113C145.314 265.424 143.732 265.494 141.875 265.5H140.984V261.387H144.758V259.348H140.973ZM154.648 259.172C154.648 260.479 155.668 261.686 157.285 262.16L156.723 263.027C155.498 262.652 154.572 261.855 154.092 260.824C153.623 261.932 152.686 262.799 151.426 263.215L150.863 262.336C152.498 261.838 153.518 260.549 153.523 259.172V259.055H151.168V258.152H156.957V259.055H154.648V259.172ZM152.598 267.867V263.672H153.688V264.844H158.363V263.672H159.465V267.867H152.598ZM153.688 266.965H158.363V265.723H153.688V266.965ZM158.352 263.18V257.496H159.465V263.18H158.352Z" fill="white"/>
<path d="M108.92 341.234V342.652H113.162V343.566H103.588V342.652H107.818V341.234H108.92ZM104.08 340.906C105.979 340.713 107.467 339.881 107.619 338.867H104.467V337.977H112.307V338.867H109.119C109.277 339.875 110.766 340.713 112.67 340.906L112.271 341.785C110.449 341.574 108.943 340.824 108.369 339.717C107.795 340.824 106.301 341.574 104.479 341.785L104.08 340.906ZM104.725 346.156C104.725 344.979 106.084 344.328 108.369 344.328C110.637 344.328 111.984 344.979 111.99 346.156C111.984 347.328 110.637 347.979 108.369 347.973C106.084 347.979 104.725 347.328 104.725 346.156ZM105.85 346.156C105.844 346.783 106.746 347.129 108.369 347.129C109.969 347.129 110.877 346.783 110.877 346.156C110.877 345.529 109.969 345.189 108.369 345.184C106.746 345.189 105.844 345.529 105.85 346.156ZM122.209 337.496V340.133H123.732V341.07H122.209V343.613H121.096V337.496H122.209ZM113.971 339.418V338.527H116.549V337.402H117.662V338.527H120.229V339.418H113.971ZM114.545 341.691C114.539 340.572 115.57 339.846 117.1 339.852C118.611 339.846 119.643 340.572 119.643 341.691C119.643 342.811 118.611 343.543 117.1 343.531C115.57 343.543 114.539 342.811 114.545 341.691ZM115.494 347.867V344.047H116.596V345.066H121.096V344.047H122.209V347.867H115.494ZM115.623 341.691C115.611 342.318 116.209 342.705 117.1 342.711C117.99 342.705 118.588 342.318 118.6 341.691C118.588 341.076 117.99 340.678 117.1 340.684C116.209 340.678 115.611 341.076 115.623 341.691ZM116.596 346.977H121.096V345.934H116.596V346.977ZM127.975 340.168C127.963 342.025 129.047 343.93 130.611 344.691L129.92 345.582C128.777 344.984 127.893 343.812 127.43 342.412C126.961 343.9 126.041 345.16 124.846 345.781L124.154 344.879C125.766 344.105 126.855 342.09 126.861 340.168V338.375H127.975V340.168ZM131.396 347.996V337.496H132.51V341.68H134.197V342.629H132.51V347.996H131.396ZM143.385 337.496V347.996H142.271V337.496H143.385ZM134.76 345.137C135.627 345.131 136.611 345.125 137.643 345.102V344.047C136.418 343.883 135.621 343.162 135.627 342.137C135.621 340.953 136.652 340.174 138.17 340.168C139.705 340.174 140.754 340.953 140.76 342.137C140.754 343.15 139.963 343.865 138.744 344.041V345.061C139.717 345.014 140.701 344.943 141.627 344.82L141.709 345.652C139.377 346.039 136.834 346.068 134.912 346.062L134.76 345.137ZM134.982 339.641V338.75H137.643V337.52H138.756V338.75H141.393V339.641H134.982ZM136.682 342.137C136.67 342.805 137.291 343.221 138.17 343.215C139.078 343.221 139.693 342.805 139.693 342.137C139.693 341.463 139.078 341.035 138.17 341.035C137.291 341.035 136.67 341.463 136.682 342.137ZM154.646 342.852V343.754H145.072V342.852H149.303V341.715H146.326V337.742H147.428V338.879H152.291V337.742H153.404V341.715H150.404V342.852H154.646ZM146.139 345.582V344.691H153.475V347.996H152.35V345.582H146.139ZM147.428 340.824H152.291V339.711H147.428V340.824ZM159.311 340.59C159.305 342.348 160.459 344.164 162.076 344.855L161.467 345.723C160.23 345.178 159.246 344.018 158.76 342.617C158.273 344.117 157.289 345.395 156.064 345.992L155.42 345.113C157.002 344.369 158.174 342.4 158.186 340.59V339.477H155.783V338.551H161.701V339.477H159.311V340.59ZM163.025 347.996V337.496H164.139V347.996H163.025ZM171.662 338.293V338.879C171.65 339.582 171.65 340.625 171.393 341.984L170.291 341.879C170.52 340.719 170.555 339.869 170.566 339.207H166.365V338.293H171.662ZM165.732 342.887C166.377 342.887 167.109 342.881 167.877 342.863V340.648H168.979V342.828C170.104 342.781 171.264 342.699 172.318 342.547L172.389 343.355C170.197 343.742 167.689 343.783 165.838 343.789L165.732 342.887ZM167.326 347.773V344.668H168.439V346.871H174.463V347.773H167.326ZM172.986 345.383V337.496H174.123V340.836H175.564V341.773H174.123V345.383H172.986Z" fill="white"/>
<path d="M65.2129 113.508V121.242H64.0996V118.512H61.4922C61 119.104 60.2383 119.461 59.3652 119.461C57.7832 119.461 56.6055 118.354 56.6113 116.812C56.6055 115.26 57.7832 114.152 59.3652 114.141C60.2324 114.146 60.9883 114.504 61.4805 115.09H64.0996V113.508H65.2129ZM57.6777 116.812C57.6719 117.803 58.3809 118.482 59.3652 118.477C60.3086 118.482 61.0293 117.803 61.0293 116.812C61.0293 115.822 60.3086 115.143 59.3652 115.137C58.3809 115.143 57.6719 115.822 57.6777 116.812ZM58.3926 123.773V120.434H59.5059V122.871H65.4941V123.773H58.3926ZM61.9727 115.992C62.0547 116.25 62.0957 116.52 62.0957 116.812C62.0957 117.094 62.0547 117.363 61.9785 117.609H64.0996V115.992H61.9727ZM75.1855 114.152V115.078C75.1855 116.074 75.1855 117.158 74.8926 118.652H76.4043V119.566H72.1504V124.008H71.0254V119.566H66.8301V118.652H73.7676C74.0781 117.152 74.0781 116.057 74.084 115.078V115.066H68.002V114.152H75.1855ZM83.1191 114.504V115.395H77.2129V114.504H79.6738V113.402H80.7754V114.504H83.1191ZM77.7988 117.738C77.7988 116.607 78.7832 115.846 80.2129 115.84C81.625 115.846 82.6328 116.607 82.6387 117.738C82.6328 118.881 81.625 119.631 80.2129 119.637C78.7832 119.631 77.7988 118.881 77.7988 117.738ZM78.8418 117.738C78.8359 118.389 79.3809 118.805 80.2129 118.805C81.0332 118.805 81.5957 118.389 81.6074 117.738C81.5957 117.1 81.0332 116.689 80.2129 116.695C79.3809 116.689 78.8359 117.1 78.8418 117.738ZM79.041 123.867V120.141H80.1426V121.137H84.8535V120.141H85.9551V123.867H79.041ZM80.1426 122.988H84.8535V121.992H80.1426V122.988ZM83.1426 118.84V117.938H84.8418V116.789H83.1543V115.875H84.8418V113.496H85.9551V119.719H84.8418V118.84H83.1426ZM92.5762 114.129V117.188H89.1074V118.641C90.9355 118.641 91.9316 118.6 93.1152 118.383L93.2207 119.285C91.9375 119.502 90.8594 119.537 88.7676 119.543H88.0059V116.344H91.4629V115.02H87.9941V114.129H92.5762ZM89.2012 121.395V120.492H96.3262V124.008H95.2129V121.395H89.2012ZM93.2441 118.113V117.223H95.2129V115.922H93.2441V115.031H95.2129V113.508H96.3262V119.965H95.2129V118.113H93.2441ZM103.791 114.293V114.879C103.779 115.582 103.779 116.625 103.521 117.984L102.42 117.879C102.648 116.719 102.684 115.869 102.695 115.207H98.4941V114.293H103.791ZM97.8613 118.887C98.5059 118.887 99.2383 118.881 100.006 118.863V116.648H101.107V118.828C102.232 118.781 103.393 118.699 104.447 118.547L104.518 119.355C102.326 119.742 99.8184 119.783 97.9668 119.789L97.8613 118.887ZM99.4551 123.773V120.668H100.568V122.871H106.592V123.773H99.4551ZM105.115 121.383V113.496H106.252V116.836H107.693V117.773H106.252V121.383H105.115Z" fill="white"/>
<path d="M122.104 27.418C122.104 28.8242 123.082 30.1484 124.682 30.6875L124.107 31.5664C122.93 31.1562 122.051 30.3184 121.588 29.2578C121.131 30.4414 120.229 31.3555 118.998 31.8125L118.377 30.9336C120.041 30.3652 120.996 28.9473 121.002 27.3828V26.1406H122.104V27.418ZM120.064 35.7734V32.4805H121.201V34.8711H127.166V35.7734H120.064ZM125.596 33.2305V25.4844H126.709V28.6484H128.232V29.5977H126.709V33.2305H125.596ZM135.1 26.5625V27.4531H128.842V26.5625H131.42V25.4492H132.533V26.5625H135.1ZM129.416 29.832C129.41 28.6836 130.453 27.9336 131.971 27.9219C133.482 27.9336 134.514 28.6836 134.514 29.832C134.514 30.9863 133.482 31.7422 131.971 31.7422C130.453 31.7422 129.41 30.9863 129.416 29.832ZM130.143 33.5V32.5977H137.08V35.9961H135.967V33.5H130.143ZM130.494 29.832C130.482 30.4824 131.08 30.875 131.971 30.875C132.861 30.875 133.459 30.4824 133.471 29.832C133.459 29.1875 132.861 28.7832 131.971 28.7773C131.08 28.7832 130.482 29.1875 130.494 29.832ZM135.967 32.0586V25.4961H137.08V28.3438H138.604V29.2695H137.08V32.0586H135.967ZM145.119 26.5039V27.3945H139.213V26.5039H141.674V25.4023H142.775V26.5039H145.119ZM139.799 29.7383C139.799 28.6074 140.783 27.8457 142.213 27.8398C143.625 27.8457 144.633 28.6074 144.639 29.7383C144.633 30.8809 143.625 31.6309 142.213 31.6367C140.783 31.6309 139.799 30.8809 139.799 29.7383ZM140.842 29.7383C140.836 30.3887 141.381 30.8047 142.213 30.8047C143.033 30.8047 143.596 30.3887 143.607 29.7383C143.596 29.0996 143.033 28.6895 142.213 28.6953C141.381 28.6895 140.836 29.0996 140.842 29.7383ZM141.041 35.8672V32.1406H142.143V33.1367H146.854V32.1406H147.955V35.8672H141.041ZM142.143 34.9883H146.854V33.9922H142.143V34.9883ZM145.143 30.8398V29.9375H146.842V28.7891H145.154V27.875H146.842V25.4961H147.955V31.7188H146.842V30.8398H145.143ZM154.576 26.1289V29.1875H151.107V30.6406C152.936 30.6406 153.932 30.5996 155.115 30.3828L155.221 31.2852C153.938 31.502 152.859 31.5371 150.768 31.543H150.006V28.3438H153.463V27.0195H149.994V26.1289H154.576ZM151.201 33.3945V32.4922H158.326V36.0078H157.213V33.3945H151.201ZM155.244 30.1133V29.2227H157.213V27.9219H155.244V27.0312H157.213V25.5078H158.326V31.9648H157.213V30.1133H155.244ZM165.791 26.293V26.8789C165.779 27.582 165.779 28.625 165.521 29.9844L164.42 29.8789C164.648 28.7188 164.684 27.8691 164.695 27.207H160.494V26.293H165.791ZM159.861 30.8867C160.506 30.8867 161.238 30.8809 162.006 30.8633V28.6484H163.107V30.8281C164.232 30.7812 165.393 30.6992 166.447 30.5469L166.518 31.3555C164.326 31.7422 161.818 31.7832 159.967 31.7891L159.861 30.8867ZM161.455 35.7734V32.668H162.568V34.8711H168.592V35.7734H161.455ZM167.115 33.3828V25.4961H168.252V28.8359H169.693V29.7734H168.252V33.3828H167.115Z" fill="white"/>
</svg>
